<?xml version="1.0" standalone="no"?>
<!DOCTYPE svg PUBLIC "-//W3C//DTD SVG 1.1//EN" "http://www.w3.org/Graphics/SVG/1.1/DTD/svg11.dtd" >
<svg>
<metadata>
Created by FontForge 20090622 at Thu Jul 30 14:09:18 2015
 By deploy user
Copyright &#194;&#169; 2013 by Mattox Shuler. All rights reserved.
</metadata>
<defs>
<font id="Gin-Rough" horiz-adv-x="523" >
  <font-face 
    font-family="Gin Rough"
    font-weight="400"
    font-stretch="normal"
    units-per-em="1000"
    panose-1="0 0 5 0 0 0 0 0 0 0"
    ascent="800"
    descent="-200"
    x-height="760"
    cap-height="761"
    bbox="-22 -161 1573 1072"
    underline-thickness="50"
    underline-position="-50"
    unicode-range="U+0020-U+2260"
  />
<missing-glyph horiz-adv-x="500" 
d="M0 0v700h500v-700h-500zM250 395l170 255h-340zM280 350l170 -255v510zM80 50h340l-170 255zM50 605v-510l170 255z" />
    <glyph glyph-name=".notdef" horiz-adv-x="500" 
d="M0 0v700h500v-700h-500zM250 395l170 255h-340zM280 350l170 -255v510zM80 50h340l-170 255zM50 605v-510l170 255z" />
    <glyph glyph-name=".null" horiz-adv-x="0" 
 />
    <glyph glyph-name="nonmarkingreturn" horiz-adv-x="333" 
 />
    <glyph glyph-name="space" unicode=" " horiz-adv-x="240" 
 />
    <glyph glyph-name="exclam" unicode="!" horiz-adv-x="264" 
d="M207 752l-1 -10l-3 -8l-4 -7l-3 -9l-2 -16l2 -8l-2 -8l2 -7l-2 -8v-9l1 -8l-1 -6v-8l1 -10l-1 -7l2 -6l-1 -10l-1 -6l2 -8l-1 -10v-15l-1 -7v-9l2 -8v-9l-1 -6l1 -7l-2 -8l1 -8l-1 -8l2 -9l-2 -7v-18l1 -6l-1 -8v-8v-18v-6l-1 -8v-10l-1 -6l-3 -10l1 -8v-6l-2 -10v-7v-9
l-2 -7l1 -8l-1 -7l-1 -9l-1 -9l-2 -6l1 -9l-1 -9l-1 -6v-10l-1 -8l-2 -6l1 -10v-8l-4 -16l-6 -7l-9 -2l-7 1l-9 -1h-24l-8 2h-15l-11 9l-1 6v10v7l-1 8l-2 7v8v8l-1 9l-1 8v8l-2 9v6l1 10l-1 16l-2 6l-2 10l2 7l-2 7v9l-2 9v7l-1 7v10v6l-2 8v17l1 7l-2 8v9l2 8v17l-2 7l2 8
l-2 8l2 7l-1 8l-1 7v8l2 8l-2 8v10l2 7v25l-1 6l-1 9l1 7l-1 9l1 7v17l-1 7v25l1 7v8l-3 16l-3 7l-3 8l-2 10l-3 6l5 11l7 -1l8 -1l9 1h16l8 1h7l8 -1l8 1l7 -2h8l9 1l8 1h17l7 -2h15zM104 176h9l8 -1h8l6 1l9 -2h7l9 1h9l11 -5l7 -5l5 -6l10 -10l7 -6l5 -6l5 -13l1 -10v-6
l-1 -9l2 -7l-2 -8l1 -9v-9l-1 -6l1 -8l-6 -15l-4 -5l-8 -5l-5 -6l-5 -5l-6 -7l-4 -5l-14 -4l-9 -2h-7l-9 1l-6 -1l-10 1h-8l-8 1h-8l-6 -2l-15 7l-4 6l-8 6l-5 3l-5 7l-6 5l-4 6l-5 14l-2 16v7l1 7v8l1 10v7l-2 7v9l5 15l13 11l6 3l4 7l6 6l5 6z" />
    <glyph glyph-name="quotedbl" unicode="&#x22;" horiz-adv-x="426" 
d="M75 803l7 2l8 -1l9 1l8 -2l8 2h7l10 -1l6 -1l10 2l12 -6l7 -7l4 -6l8 -5l4 -13l-1 -8l-2 -10l-1 -7l-4 -7l1 -8l-4 -7l-3 -18l-1 -6l-2 -9v-9l-3 -8v-7l-2 -7v-9l-4 -6l-1 -10l-1 -6v-10l-4 -7l1 -8l-4 -8l1 -8l-3 -6v-8l-4 -8v-8l-2 -8v-8l-4 -8l-1 -8v-9l-1 -8l-10 -5
l-7 -1l-7 -1l-9 1l-6 -1l-8 9l-1 7l-4 7l1 9l-2 7l-2 10l-2 8v7l-2 6l-1 10l-4 7v7v10l-2 7l-3 6l-2 10l1 7l-4 9v6l-2 10l-2 8l-2 6l1 7l-3 10v6l-2 8l-2 10l-2 6l-2 8l1 9l-4 8l-1 6l-1 9l-1 8l5 14l7 4l4 6l6 6zM280 803h24l9 2h14l10 -2h7l8 2l15 -7l5 -6l6 -6l5 -7
l4 -12l-1 -8v-8l-1 -8l-4 -7l-1 -9v-7l-1 -9l-2 -6l-3 -16l-3 -8l-2 -10l-1 -7v-6l-2 -9l-1 -7l-1 -9l-4 -7l1 -10l-2 -6l-2 -7l-3 -8l1 -8l-4 -8l1 -10l-2 -6l-3 -8l-1 -9l-1 -7l-1 -9l-1 -7l-4 -9l-1 -7l-8 -7l-6 1l-9 -1l-6 1l-8 -2l-9 8l-3 7l-1 8l-2 9l-1 9l-1 6l-1 9
l-2 7v7l-2 9l-5 16l1 9l-1 6l-3 7l-2 9v8l-1 9l-2 8l-1 6l-1 9l-4 8v6l-3 9l-1 8v7l-1 10l-3 6l-1 8l-2 7v9l-1 7l-2 10l-1 8l2 11l7 6l7 7l6 7z" />
    <glyph glyph-name="numbersign" unicode="#" horiz-adv-x="802" 
d="M752 514l-2 -8v-8l2 -8l-1 -6l-1 -9v-9l2 -6l-1 -10v-6l1 -10l-11 -3l-14 4l-10 3l-6 3l-17 4h-9l-7 -2l-8 1l-10 -1h-6l-9 2h-7l-8 -2h-1v-6l-3 -7l-2 -9l-1 -9l-1 -8l-1 -8l-2 -7l-2 -6l-1 -10l-2 -8l-1 -7l1 -9l-3 -6v-8l-3 -10v-6v-2l4 -1h9l8 1l7 -2h10l7 2l7 -1
l10 1h7l8 -2h8l16 5l9 2l9 3l14 6l9 -5v-8l1 -8l1 -10l-1 -8v-8l1 -6v-17l-1 -7l1 -9v-15l-1 -10l1 -7l-1 -7l-1 -10v-8l1 -7l-8 -6l-10 4l-6 2l-8 3l-26 6l-7 1h-8l-8 -1l-9 -1l-7 2l-18 -2l-7 1l-8 1l-9 -2h-15l-7 1l-6 -1v-4l-1 -7l-1 -10l-2 -7l-2 -9l-2 -6v-10l-1 -7
l-1 -9l-4 -6v-9l-2 -6l-2 -8l1 -9l-2 -7l-1 -9l-2 -9l-3 -8l-1 -6l1 -16l3 -8l3 -7l1 -7l-4 -6h-9l-6 -1l-10 1l-7 -1l-9 1l-6 1h-18l-7 -2l-8 2h-15l-8 -1l-8 1h-17l-7 -2l-10 1l-5 8l4 9l2 6l3 8l2 8l7 18l3 7l3 8l3 16l1 8l1 8l3 8l1 6l1 9v7l2 9l2 7l2 7v10l2 7l2 9
l-1 6l1 2l-4 1l-8 -2h-6l-8 1l-9 -1h-8l-7 1l-8 -1h-19l-7 1l-9 -1h-7l-7 2l-9 -1l-7 -1h-9l-8 1h-15h-1l-2 -5l-1 -7l-1 -9l-2 -7l-1 -8l-1 -8l-3 -9l1 -9l-3 -8v-7l-2 -7v-8l-4 -8l1 -8l-4 -8v-9v-8l-4 -7l1 -7l1 -17l1 -7l3 -7l3 -7l-6 -7l-8 1h-15l-8 -1h-10l-8 2l-6 -1
l-10 1h-6l-8 -2h-9l-8 2l-16 -2l-8 2l-8 -2l-7 2h-8l-7 7l5 7l3 8v9l3 9l5 8l2 8l1 6l4 8l4 15l2 8l1 9l4 24v7l1 9l2 8l2 8v6l2 8l1 10l1 9h-6l-9 -2l-7 2l-9 -1h-8l-6 -1h-10l-7 1l-16 -2l-8 -4l-9 -1l-8 -4l-8 -3l-7 6v14l-1 9l1 8l-1 7v10l1 8l-1 7v8l1 9v8l-1 6v25
l-1 8l1 8v8l9 5l6 -4l10 -3l6 -2l10 -3l16 -2l7 -1l18 2h23l7 -2l10 1l6 -1h8l6 2l1 7l2 6l1 10v8l3 7l1 9l1 5l1 9l2 8v8l3 8l1 7l2 9l2 7v9v6l1 5h-2l-7 -1l-9 1l-8 -1l-8 1l-7 -2l-9 2h-9l-6 -1l-10 -1l-8 2l-8 -1h-7l-8 1l-18 -3l-6 -5l-8 -1l-9 -3l-7 -3l-10 4l2 16v18
l-2 8l2 8v7l-1 8v7l1 9l-1 9l1 6l-1 9v23l1 9l-2 9l9 5l9 -5l7 -2l9 -3l6 -1l17 -5l10 2h16l16 -2h16l6 2h25l9 -1l6 1l9 -1l7 -1l9 1l2 6l1 6l2 8v8l2 10l1 16l3 7v7l3 10v7l1 6l2 10l1 7l1 8l2 7l2 8l2 9l-1 9v15l-2 9l-4 8l6 8l8 1l8 -2l9 1l8 -1l7 1l6 -1h10l7 1l8 1
l8 -1l8 1l7 -2l8 2l9 -1l6 -1l9 1h7l10 1l5 -9l-3 -6l-2 -8l-2 -10l-4 -6l-2 -7l-3 -8l-2 -8l-1 -9l-4 -15l-2 -9l-1 -8l-3 -7l1 -9l-4 -6v-10l-1 -6l-3 -8l-1 -7l-1 -8v-9l-3 -9l-2 -9h8l7 1h17l9 -1l6 2l10 -2l6 2h26l7 -2l8 2l7 -2h10l8 1l7 -1l9 1h8l3 1v5l3 8l1 6v9
l1 7l3 8v10l2 6l3 10l-1 7l1 8l4 6l-1 10l3 6v10l3 7v9l3 8l-1 8l1 14l-5 9l-2 8l6 9l8 1l8 -2l7 2l9 -2l8 1h14l8 -1l10 1l7 -1l7 2l9 -1h6l10 1l8 -2l7 2h9l6 -2l5 -6l-1 -9l-4 -8l-2 -7l-2 -9l-1 -5l-4 -8l-3 -10l-2 -7l-2 -14l-1 -10l-4 -7l1 -9l-3 -7l-1 -8v-9l-5 -16
l1 -7l-3 -8v-7l-2 -7l-2 -11h2l9 1l6 -1l8 2h19l16 3l6 1l8 4l8 1l9 5l8 -6v-25l1 -6l1 -9l-1 -9v-8zM452 315l10 1l6 1h10l3 13v8l2 9v7l2 10l2 7l2 6l2 9l-1 9l5 16l3 14l1 10v7v2l-5 1h-9l-8 -2h-8l-9 2h-6l-10 -2h-6l-9 2l-7 -2l-10 2l-8 -2l-8 2l-6 -2h-10l-9 1h-8
l-8 -1l-6 1h-4l-2 -6l-2 -9v-9l-2 -7l-1 -9l-1 -7l-1 -7l-2 -7l-3 -9v-7l-2 -10l-2 -6l-1 -9l-2 -9l-1 -6l-2 -9v-3h2l10 1l6 1l9 -1l7 -1l10 2l8 -2l8 2h24l7 -1h16l10 1h6z" />
    <glyph glyph-name="dollar" unicode="$" horiz-adv-x="486" 
d="M293 528l1 8l5 7l4 16l1 16l2 8v9l-2 8v9l-5 16l-16 8l-9 -1l-9 1l-6 -1l-9 -1l-8 1l-10 1l-8 -1h-8l-7 1l-9 -2l-13 -6l-7 -16l-1 -7v-9l-1 -8v-22l1 -10l-1 -6v-8l1 -9l-1 -9l2 -6l-2 -9l1 -7l1 -10v-7l-2 -9l2 -7l2 -13l6 -4l12 -5l8 -1l8 1h9l7 1l9 -2l9 1l8 -1l7 2
l7 -2l8 1l9 -1h23l9 1h15l8 -1l9 2l8 -1l13 -6l6 -5l7 -5l6 -8l7 -4l4 -7l7 -6l6 -6l6 -3l4 -6l8 -13l-2 -8l1 -10v-7l-1 -7v-8l2 -10l-2 -8v-38l1 -8v-18l-1 -6l1 -9v-8l1 -6l-2 -16v-10l2 -7l-1 -9l1 -7l-1 -7l-1 -10l1 -6v-9l1 -7l-1 -10l1 -7l-2 -16l2 -8v-8l-1 -8l1 -8
l-7 -14l-7 -5l-4 -6l-7 -7l-7 -5l-3 -4l-8 -8l-5 -6l-7 -4l-5 -6l-13 -6l-8 1l-8 -2h-19l-11 -4l-7 -4l-3 -14l-2 -8l2 -6l1 -15l4 -9l3 -8l3 -16l-3 -8h-24l-9 1l-7 -2l-8 2l-9 -2h-31l-7 1h-10l-8 -1l-8 1l-6 -1l-9 1h-8l-6 8l4 8l2 9l4 8l3 7l3 16l-1 7l-1 8l-5 11l-5 7
l-12 4l-7 1h-9l-7 -2l-9 2l-15 5l-6 5l-4 5l-8 7l-5 5l-6 5l-6 6l-6 7l-6 5l-6 7l-3 13v33l-1 7v10l-1 7l2 9v8l-2 6l1 10l-1 6l1 10l1 8l-5 15v9l-3 6l-2 10l-3 7l4 7h8l8 2l9 -2h8l7 2h15l9 -1l8 -1l7 2h47l10 -2l7 1l5 -7l-3 -8l-2 -9l-4 -9l-1 -8l-3 -15v-9l-1 -7l1 -9
l1 -8l2 -14l6 -5l14 -5l7 2l8 -2l8 1l7 -1l9 1l10 -1h14l9 1l7 1l14 5l4 3l7 14l-2 8l2 9l-1 8v6l-1 8l1 8l-1 10l2 6v17l-2 9l1 8l-1 6l1 10l-1 7l2 7l-2 9l1 8l-7 16l-15 6h-15l-8 -1h-8l-9 2l-8 -2h-9l-7 1h-23l-8 -1h-8l-10 2l-8 -2l-7 2l-7 -1l-8 1h-17l-13 5l-5 6
l-14 12l-4 4l-6 6l-6 6l-5 8l-8 5l-4 6l-5 15l-1 8l-1 7l1 7v9l-1 8l2 9v8l-2 6l2 8l-1 8v24l-1 9l1 9l1 7l-2 8l2 7l-1 11l-1 6v10l2 8l-1 7v31l1 10l-2 7v17l2 6v10l-1 6l-1 9v16l5 13l8 8l6 4l5 6l6 7l6 4l6 8l6 4l4 6l6 8l15 3l9 1l6 1l9 -1l7 -1l15 5l5 7l4 13v7l1 8
l-4 17l-2 6l-4 9l-2 9l-3 7l5 10l8 -1l7 -1l8 2h8l8 -1l8 1l10 -1l7 -1l7 2l8 -1h7l10 1l7 -1l7 1h8l8 -2l8 1l9 -1l6 -8l-4 -9l-1 -7l-5 -9l-1 -8l-4 -14v-10l1 -6l5 -13l4 -7l14 -4l8 1h17l8 -2l15 -4l4 -5l7 -7l7 -5l6 -8l4 -4l7 -6l6 -6l5 -6l6 -5l6 -15v-7l-2 -8l1 -8
l-1 -9v-31l1 -9l1 -8l-2 -7v-25l3 -14l4 -10l3 -8l1 -6l4 -10l-6 -8h-7l-7 2l-9 -2l-9 2h-7l-8 -1h-15l-10 1l-8 -1l-7 1h-24l-7 -1l-10 -1l-8 1l-7 -1z" />
    <glyph glyph-name="percent" unicode="%" horiz-adv-x="595" 
d="M181 755l5 -6l6 -6l3 -4l13 -13l4 -5l5 -5l7 -6l5 -14v-7l1 -7v-17l-1 -7l1 -11l-2 -14v-10l2 -7v-8l-6 -15l-5 -5l-7 -4l-5 -8l-4 -5l-7 -5l-6 -5l-4 -7l-5 -5l-14 -7h-25l-6 2h-10l-8 -2h-7l-9 1l-8 1h-16l-14 5l-6 6l-3 5l-8 7l-5 3l-4 7l-8 6l-3 5l-7 6l-5 13l1 9
l-2 8v7l1 9v7l1 11l-1 7v8l-1 8l1 7v10l6 12l5 6l16 15l5 7l7 6l6 5l5 5l13 6l8 -1l8 1l10 -2l16 2h7l7 -2l8 1l10 1h16zM414 671l-1 -6l-3 -9v-7l-3 -10l-2 -8v-15l-2 -8l-1 -7l-3 -9l-2 -7l1 -8l-3 -7l-2 -7l-3 -16v-8v-10l-2 -6l-1 -10l-2 -6l-3 -9l-1 -7v-8l-1 -7
l-1 -10l-3 -16l-2 -5l-3 -10l-1 -8v-8l-2 -6v-9l-4 -7v-8l-1 -9l-3 -7l1 -9l-3 -6l-2 -9v-8l-3 -9l-1 -6l1 -9l-4 -8v-8l-2 -8l-1 -7l-2 -9v-6l-1 -9l-1 -8l-3 -7l-1 -7l-2 -8v-10l-2 -6l-1 -9l-3 -8v-7l-3 -7l1 -8l-2 -10l-1 -7l-1 -9l-2 -6l-2 -8v-8l-1 -7l-2 -10l-3 -7
l-2 -7l1 -8l-3 -7l-2 -10l-1 -7v-9l-1 -8l-1 -8l1 -14l2 -7v-7l4 -6l-6 -8l-10 1h-14l-10 -2l-6 1l-7 1l-10 -2h-8l-8 1h-15l-7 1l-7 -2l-8 2h-9l-8 -1l-9 -1h-6l-6 8l3 8l1 8l3 7l2 7l1 9l3 7l1 5l4 17l5 13l2 10l1 6l2 18l1 6l3 10l1 5l2 10v6l1 10l2 7v9l3 6v9l4 8l-1 6
l2 8l3 10l-1 6l1 9l2 7l2 9l3 7v9l1 8l2 6l2 8l1 10l2 7v6l2 10l2 6l1 9l2 8v7l2 8v9l2 7l1 9l1 6l2 8l1 10l3 6l2 9l-1 8l3 7l1 7v9l3 9v7l1 8l4 6l-1 10l3 7l2 7l-1 9l2 9l2 7v8l4 7v7l2 8v10l2 8l1 7l2 9v7l2 7l2 9v8l4 8v7l2 8l1 7l2 9v8l3 8v6l1 10l3 7l-2 14l-2 6
l-3 7l-2 8l6 6h6l9 -1h9l7 2h17l7 -2l9 2h6l10 -1l8 -1h15l7 2h18l6 -2l8 1l7 -7l-4 -9l-3 -8v-7l-3 -8l-3 -9l-3 -8l-1 -8l-4 -7zM147 715l-8 1h-14l-8 -1l-6 1h-8l-22 -5l-5 -7l-7 -6l-4 -6l-5 -14l-2 -7l2 -8l-2 -6l1 -9l-1 -9l2 -7l-1 -6l5 -15l5 -5l7 -6l5 -6l15 -7
l8 1h6l7 -1h8l7 -1l8 1l7 1l14 4l6 6l5 6l6 8l6 14l1 6l1 9v6l-1 10l1 6l-1 7l-1 8l-5 13l-7 6l-6 6l-4 8zM532 211l3 -6l12 -12l7 -4l5 -6l3 -7l8 -4l5 -5l4 -14v-8l1 -10l1 -7v-8l-1 -7l1 -10v-14l-2 -16v-9l-5 -13l-6 -8l-5 -3l-5 -8l-5 -6l-7 -3l-4 -6l-5 -6l-7 -6
l-19 -7l-10 2l-6 -1l-9 1l-9 -1l-6 -1h-9l-9 1l-6 -1l-8 1h-10l-12 5l-7 8l-6 5l-6 6l-3 4l-8 7l-6 4l-4 5l-6 6l-5 16l-1 8l1 6v10l-1 7v8l2 7l-1 10l-1 7l2 8v16l4 15l7 5l5 5l5 4l6 7l5 5l6 7l4 3l7 8l15 4h7l8 1h17l6 -2l8 2h8l10 -2l8 1l7 -1l7 1zM500 171h-9l-6 1h-15
l-10 -1l-7 -1l-6 1l-13 -4l-6 -8l-6 -4l-7 -7l-5 -13l-1 -8l1 -9l1 -8l-1 -7l1 -7l-2 -9l2 -8l3 -13l7 -4l6 -7l5 -6l13 -5l8 -2h8l8 2l8 -1l8 1l7 -2h6l14 6l6 7l7 6l6 5l6 14l-2 9v7l2 9l-2 7l2 6l-2 8l1 9l-5 13l-6 7l-7 6l-5 5z" />
    <glyph glyph-name="ampersand" unicode="&#x26;" horiz-adv-x="495" 
d="M439 445l7 5l10 3l8 1l7 4l7 -5v-18l2 -6l-1 -8l-1 -10l1 -7l-1 -9l1 -6l1 -8l-2 -8v-16l1 -9l1 -7l-2 -10v-23l-7 -5l-8 4l-8 1l-9 4l-8 1l-14 5l-9 -8v-8l-1 -8l1 -10v-7l1 -9l-2 -14v-8l2 -9l-2 -7l1 -7l1 -10l-1 -7l-1 -9l2 -6l-1 -8l-1 -9l2 -7l-1 -9v-14l1 -8v-9
l-2 -8l2 -7l-2 -8l1 -8l-1 -9v-7l2 -9l-5 -14l-6 -4l-7 -7l-4 -7l-8 -5l-5 -4l-4 -8l-8 -6l-4 -4l-6 -8l-14 -3l-7 -1l-9 1h-14l-9 -2h-8l-8 2h-7l-8 -2h-10l-7 2l-8 -1l-9 1l-6 -1l-9 1h-15l-7 -2l-10 1l-7 1h-8l-7 -2l-16 2h-10l-7 -2l-9 2h-6l-10 -1l-8 1l-12 4l-6 5
l-7 7l-3 5l-8 6l-4 5l-7 8l-4 4l-8 8l-5 4l-5 14l-1 8v9l-1 6v9l2 7v26l-2 8l2 5l-2 10l1 7v7l-1 10l2 8v6l-1 9l1 7l-1 10l1 6l-2 8v7l1 10l-1 8l2 7l-2 9l2 8v8l-2 7l2 9l6 11l5 7l6 6l4 7l8 4l4 7l8 6l5 6l6 7l4 6v11l-4 4l-7 5l-4 6l-6 7l-12 11l-7 7l-4 4l-6 6l-6 13
l-1 9v24l1 8l-1 6v10l-1 5l2 8l-1 8v9l1 7v24l-2 9l2 8v16l-2 7l1 7v9l1 7l-1 9l1 6v9l-2 9l1 8l-1 8l2 8l6 13l12 10l3 8l8 5l5 6l5 4l6 7l7 6l5 7l14 5l6 -1h18l8 -1h8l7 2h8l7 -2h8l10 1l7 1l8 -1h7l8 -1l8 1l9 -1h8l8 1h6l10 1h6l10 -2h15l7 2l8 -2l8 2l9 -1h7l9 1
l13 -7l6 -5l4 -6l13 -13l6 -4l4 -5l13 -14l6 -5l4 -14l-1 -7v-7l1 -9v-9l1 -8v-16l-1 -6l-1 -8l1 -8l-1 -10l2 -7l-2 -9l1 -7l4 -15l4 -16l5 -8l1 -9l-4 -8h-6l-9 -1l-9 2h-8l-7 -2l-9 2h-7l-8 -2l-16 2h-7l-8 -1l-9 1l-9 -2l-7 2h-7l-8 -2l-8 2l-7 6l5 8l3 18l5 6l2 17v7
l-2 11l2 6l-1 9l-5 14l-4 5l-15 3l-7 2l-9 -1l-9 -1l-6 1l-10 1l-8 -1l-7 1l-9 -2l-9 2h-8l-15 -8l-6 -16v-30l-2 -10v-7l1 -8v-8l-1 -8v-7l2 -10v-7l-1 -7v-9l-1 -7l2 -16v-10l3 -10l7 -5l10 -5l9 -2l8 2l7 -1l10 1l6 -1l8 -1l10 2l6 -1l9 1l8 -1l9 -1h16l7 1h7l10 -1l8 2
l7 -1h8l8 1l9 -2l7 1l7 -1l8 2h9l9 -1l7 1h9l7 -2l8 2h15zM285 307l-4 6l-14 5h-9l-6 -1l-10 1l-9 -1l-7 -1l-8 2l-8 -2l-10 2l-6 -1l-10 1l-14 -7l-7 -15v-10l-1 -7l1 -8l-2 -9l2 -8v-15l-1 -8l1 -9l-2 -7l2 -9l-2 -6v-17l2 -16v-9l-1 -8l6 -12l3 -4l13 -6h18l6 -1h17l10 2
l7 -1h10l7 1l8 -1l14 5l5 4l3 14l1 8v9l1 8v8l-1 6l-1 8l1 9v15l1 10l-2 6l2 10v30l-2 9l2 9z" />
    <glyph glyph-name="quotesingle" unicode="'" horiz-adv-x="220" 
d="M74 804l8 -1h8l8 2h10l8 -2l6 1h9l7 1h9l14 -7l6 -5l6 -6l4 -8l5 -13l-2 -8v-8l-3 -7v-9l-1 -6l-2 -9l-3 -7v-9l-2 -7l-1 -8l-1 -7l-2 -8l-2 -7l-3 -16l-3 -9l-1 -8l-1 -8v-9l-3 -5l-2 -9l-2 -7l-1 -10l-1 -8v-6l-2 -8l-2 -7l-3 -10l1 -7l-2 -9l-3 -8l-2 -7l1 -7l-10 -7
l-7 -1h-14l-8 -1l-10 7l-1 10l-2 8l1 7l-4 7l1 10l-2 8l-2 6l-1 8l-1 8l-4 7v10v8l-2 8l-3 6v9l-2 6l-1 9l-3 7l-1 8v9l-4 6v9l-2 7l-2 9l1 9l-4 6l1 9l-3 7l-1 9l-2 8v6l-3 8v10l3 13l6 4l7 7l7 5z" />
    <glyph glyph-name="parenleft" unicode="(" horiz-adv-x="305" 
d="M102 -122l-7 5l-6 7l-6 6l-5 5l-6 4l-6 8l-6 4l-4 6l-8 8l-4 12v24l-1 7l1 9l1 8v7l-1 8l-1 9l1 8l1 7l-2 8l2 10l-1 7l1 7v8l-1 10l-1 6v10l2 7v17l-2 7v8l1 9l1 6l-1 10v39l1 9l-2 8l2 6v8l-1 8l-1 9l2 7l-1 10l1 8l-2 6l1 9l-1 7l2 9l-1 7v9l1 8v9l-2 8l1 7l-1 8l1 8
l-1 8v7l1 8l1 10l-1 8v8l-1 6l1 8l1 10l-1 7v23l-1 8l2 9l-1 8l-1 9l1 8v16l1 8v6l-2 8l1 10l-1 7l1 9l-1 6v8l2 10l-2 7l2 9l-1 6l-1 10l2 8l-2 7v7l2 8v8l-2 10v7l1 7l1 8v8l-1 8l1 8l-2 9v7l2 10v7l-2 8l1 8v23l1 8v10l3 11l8 8l9 12l7 5l5 5l8 6l3 7l6 4l8 6l12 6h15
l18 2l6 -2h8l9 2h41l7 -2h8l8 1h9l8 1l7 -2h9l6 1l9 -9v-32l-1 -8l1 -7l1 -9l-1 -6l-1 -10l1 -7l-1 -7l1 -9l1 -7v-9l-9 -6h-8l-9 -2h-14l-9 2l-8 -2l-8 1h-10l-7 1l-9 -1l-16 -6l-6 -18l-1 -8l2 -8v-6l-1 -10v-14l-1 -9v-31l1 -8v-9l-1 -7v-10l2 -8l-2 -6l1 -9v-7l1 -9
l-1 -7v-8l1 -10v-16l-1 -8v-7l-1 -7l2 -8l-2 -11v-15l1 -8l1 -9v-6l-2 -8v-16l2 -9v-17l-1 -6l1 -10v-30l-2 -10v-6l1 -8l1 -9l-2 -8l2 -16l-1 -8l1 -9v-7l-2 -9v-8l2 -15l-1 -9l-1 -8v-8l1 -7l-1 -10l2 -8v-23l-1 -7v-18l1 -6l-1 -10v-8l-1 -8l1 -7l1 -8l-1 -9l1 -8l-1 -8
v-6l1 -10l-2 -6l2 -16l-2 -9v-8l7 -12l5 -7l13 -5h8l8 2l6 -2l9 -1l8 3l8 -3l10 1l7 2l7 -3l9 3l8 -10v-8l2 -7l-1 -10l1 -8v-23l-1 -9l1 -8l-1 -8l1 -7l-1 -8v-8l-1 -8l-8 -7l-7 -1l-9 -1l-7 1l-9 1l-6 -2h-9l-9 1h-7l-8 -1h-9l-6 2l-10 -2l-8 2l-7 -1l-9 1l-8 -1l-6 -1
h-10l-8 2l-7 -2z" />
    <glyph glyph-name="parenright" unicode=")" horiz-adv-x="305" 
d="M255 -71l-7 -6l-4 -5l-7 -7l-4 -6l-6 -5l-5 -5l-7 -6l-5 -6l-6 -7l-12 -5l-9 1l-8 -1l-9 1h-8l-6 -2l-9 2l-8 -2l-9 1l-8 1l-8 -2h-8l-6 1h-8l-10 -1l-6 2l-10 -2l-7 1h-8l-9 1l-6 -1l-9 8l1 7v24l-2 9l1 8l-1 8v7l1 10v6l1 9l-1 8l-1 7v8l10 9l8 1l6 -1l8 1l10 -1l8 -1
l7 1l8 -1h9l6 2h10l12 5l6 5l6 13l-2 8l1 9l1 6l-2 10l2 6v8l-1 8l-1 9l2 8l-1 8v23l1 10l-2 7v32l1 7v9l-1 9l1 6v8l1 10l-2 6l2 18l-1 8l-1 7l2 8l-1 10v7l1 9l-1 6l-1 9v17l1 7l1 8l-1 7v17l-1 9v6l1 9l-1 8v17l2 7v7l-2 9l1 9l1 7l-2 7l1 9v8l-1 8l2 7v11l-1 7l-1 8l1 9
l-1 8l1 6l1 9l-2 7l2 8l-1 8v8l1 8l-2 10l2 6l-2 9v7l1 8l-1 9l2 8l-1 9v8l-1 8v7l2 7l-2 9l1 7l-1 9l2 8l-2 8v8l-3 14l-5 4l-15 3l-9 1l-7 1l-8 -2h-16l-8 2l-9 -1l-6 1h-9l-9 -2l-8 8l2 10l-2 7v8l2 7l-2 8l1 10v6l-1 9v9l1 6v9l-1 7l1 9l1 8l8 6l8 2l6 -2l10 1l6 1h16
l10 -1l6 -1h9l8 2l7 -2l9 2h8l7 -2h8l8 1l9 -1l7 1h18l12 -5l5 -7l6 -4l5 -7l6 -7l6 -4l6 -6l6 -7l4 -4l6 -7l7 -14l1 -7l-2 -9l2 -7v-16l-1 -8l1 -7l-2 -8l2 -9v-23l-1 -8l1 -10l-2 -7l1 -9l-1 -8l1 -6l-1 -10l2 -7v-9l-1 -8l-1 -6l2 -9l-1 -8l-1 -9l2 -8v-14l-2 -9v-8
l1 -9l1 -8l-2 -8l1 -8v-8l-1 -7v-7l2 -9l-2 -9v-15l2 -7v-10l-2 -7l2 -8l-1 -7v-17l1 -7l-2 -9l1 -9l1 -7l-2 -7l2 -9l-2 -8l2 -8v-17l-2 -8v-14l1 -9l1 -8v-17l-2 -14l1 -10l-1 -6l2 -9l-2 -9l2 -7v-17l-2 -8v-7l2 -7v-26l-2 -8l2 -8l-2 -7l1 -7l-1 -8l1 -10l-1 -7l2 -8
l-2 -7v-9l1 -8v-17l1 -6v-9l-2 -8l2 -8l-1 -9v-7l-1 -8l2 -7l-1 -10l1 -7l-1 -9l1 -6l-1 -10l1 -7l-2 -7z" />
    <glyph glyph-name="asterisk" unicode="*" horiz-adv-x="448" 
d="M269 551l5 -4l6 -6l4 -5l6 -6l6 -7l5 -6l6 -4l6 -5l6 -8l5 -3l7 -8l3 -4l8 -6l3 -6l6 -6l8 -4l3 -5l6 -6l-1 -12l-5 -5l-7 -5l-6 -4l-6 -6l-8 -4l-8 -4l-5 -4l-7 -7l-7 -3l-5 -6l-12 2l-3 7l-3 9l-3 5l-5 9l-2 7l-6 6l-2 6l-4 7l-5 7l-1 9l-5 8l-4 7l-2 7l-5 7l-3 6l-3 6
l-3 8l-5 7l-8 1l-3 -7l-2 -8l-6 -8l-2 -7l-5 -5l-4 -9l-2 -5l-5 -9l-4 -6l-3 -9l-3 -6l-5 -7l-2 -7l-4 -6l-5 -7l-4 -8l-1 -7l-4 -7l-10 -4l-6 7l-7 3l-14 12l-6 2l-7 6l-5 6l-7 3l-5 5l-7 5l-1 11l7 6l11 11l3 4l8 6l6 6l4 5l5 7l11 11l7 5l4 7l8 6l5 3l5 8l5 4l6 7l5 4
l-2 9l-7 -1l-8 2l-7 1l-9 3h-9l-8 2h-7l-9 1l-8 3l-6 2h-8l-7 2l-8 1l-8 2l-10 1l-6 1l-9 2l-7 1l-7 7l3 9l4 6l3 17l3 5l5 17l3 7l3 6l2 8l11 4l7 -4l5 -1l7 -6l9 -1l7 -6l6 -2l7 -3l6 -5l9 -3l22 -11l12 -7l9 -4l5 -2l9 -3l6 -6l7 4l-2 8l-2 10l-1 7v8l-1 9l-3 6v7l-2 8
l-1 9l-2 8l-2 9l1 6l-2 8l-2 8l-1 7v10l-3 6l-1 9l9 7h7l8 -1h15l8 2l8 -1l8 1l10 -1h7l9 -1l5 -7l1 -7l-2 -9l-2 -6v-9l-3 -8l-2 -8l1 -8l-1 -7l-3 -8l-1 -8v-7l-1 -9l-2 -7l-2 -8l-1 -7l-3 -10l1 -6l-2 -10l5 -2l9 4l5 3l8 3l6 2l9 5l6 3l7 3l8 4l6 4l9 5l7 2l5 4l10 3
l14 7l6 3l7 3l6 4l10 -3l3 -8l3 -6l2 -8l2 -8l4 -8l2 -9l1 -7l3 -8l4 -6l2 -8l-7 -10l-6 -1h-10l-15 -3h-8l-7 -3h-8l-7 -2l-17 -2h-7l-9 -2l-7 -1l-8 -2l-7 -1l-9 -2l-8 -1l-8 -2v-7z" />
    <glyph glyph-name="plus" unicode="+" horiz-adv-x="528" 
d="M414 445l7 3l10 5l6 2l9 1l8 -3l2 -16l-2 -8v-8l2 -8v-9l-1 -7v-9l-1 -9l2 -8l-1 -7l1 -9l-1 -7l-1 -9v-6l2 -9l-1 -8v-7l-8 -6l-8 4l-8 3h-9l-9 3l-16 3l-6 2l-9 -1l-7 1h-9l-7 -1h-8l-9 1h-7l-7 -10l-1 -6l1 -8l-2 -8l2 -8l-2 -9l1 -6l1 -8l-1 -7l2 -16l2 -10l4 -6
l3 -8l3 -8l-5 -9l-9 1h-16l-7 -2l-10 2h-7l-7 -1h-8l-8 -1h-7l-9 1l-7 -1l-8 2l-8 -1l-9 1l-7 -2l-10 2l-8 -1l-3 9l1 8l3 8l3 8l2 7l3 16l2 9l-1 7l-1 8l2 7v15l-2 9l2 7l-9 7h-8l-8 2l-8 -2l-6 1l-10 1l-7 -1h-7l-9 -1l-14 -3l-8 -2h-8l-12 -7h-8l-6 5l-2 8l1 6l-1 10l1 6
l-1 8v26l1 6l-1 9l2 16v15l-2 9v8l2 8l-1 8l8 6l7 -2l5 -2l7 -4l9 -3l7 -1l23 -3l7 -1h23l9 2l8 -1l7 1l9 7l-1 9v14l-1 9v6l1 8l1 10l-2 8l-1 14l-3 8l-2 6l-3 7l-3 8v6l5 8l7 1l7 -2l10 2l6 -2l9 2l7 -2l9 2l8 -1h14l10 1l7 -1l8 1h17l7 -1h7l8 -1l7 -8l-3 -7l-2 -6l-4 -6
l-1 -9l-1 -7l-2 -13l-1 -9l-1 -7v-9l1 -6v-17l1 -9l-2 -8l8 -7h8l8 1l7 -1l8 2h9l7 -1l9 1h8h16z" />
    <glyph glyph-name="comma" unicode="," horiz-adv-x="249" 
d="M89 177l7 -2l8 1h16l10 -2h8l6 2l9 -1l7 -1l13 -3l12 -12l5 -6l6 -5l6 -7l5 -4l6 -15l1 -8l-1 -8l1 -6v-10l-1 -7l1 -8l-2 -7v-33l2 -7l-2 -10l1 -9l1 -7l-2 -8v-8l1 -8l-7 -15l-4 -7l-7 -6l-6 -5l-7 -6l-6 -7l-4 -4l-7 -8l-12 -7l-7 -5l-9 -4l-7 -3l-5 -6l-9 -3l-6 -3
l-9 -6l-6 -2l-6 -6l-10 3l1 8l-1 8v9l1 7l7 13l4 6l7 8l7 6l3 6l8 4l5 7l6 7l5 12l-3 15l-15 4h-7l-9 1l-10 -1l-14 6l-9 13l-5 4l-6 7l-5 5l-6 6l-5 14v7l-2 9v15l1 9v7l1 8l-1 7l1 8l5 13l5 8l6 3l6 8l4 5l5 4l5 5z" />
    <glyph glyph-name="hyphen" unicode="-" horiz-adv-x="470" 
d="M427 451v-7l-2 -10l2 -6l-1 -10v-14l-1 -10v-15l2 -9l-2 -8l2 -6v-10l-2 -6l2 -8v-8l-2 -8v-10l-7 -5l-7 4l-7 2l-8 2l-5 2l-7 3l-16 2l-9 -1l-7 2h-16l-10 -1l-8 -1l-8 1l-7 -1h-17l-7 2l-9 -2l-8 2h-25l-6 -2h-10l-8 2l-7 -1h-7l-10 1l-8 -2l-7 2l-9 -1l-8 1h-8l-9 -1
l-7 1l-7 -2h-8l-8 2h-9l-24 -6l-9 -3l-7 -3l-10 -4l-8 5l-1 10l1 7l1 8v8l-2 7v9l2 9l-2 8v7l2 9l-2 8v6l1 8l1 10v7l-2 9l1 6l1 10l7 5l10 -5l6 -2l8 -3l9 -2l18 -3l8 -1h8l8 2l7 -2l9 2l8 -1h15l8 1l9 -2l9 2h22l9 -2l8 1h8l8 -1l8 2l9 -1h25l8 -1l7 1l9 -1l8 2l7 -2h7
l10 2h8l6 -2l24 3l7 3l9 1l6 3l8 3l6 1z" />
    <glyph glyph-name="period" unicode="." horiz-adv-x="249" 
d="M90 176h7l8 1h8l9 -2h8l8 2l6 -2h17l12 -6l6 -5l5 -5l8 -5l4 -7l5 -4l7 -5l5 -13l1 -10l-2 -8l1 -8v-24l1 -7v-9l-2 -7l-6 -14l-5 -5l-6 -7l-3 -4l-7 -7l-6 -4l-5 -7l-12 -5l-9 2l-9 -2h-22l-8 -1l-9 1h-9l-7 2l-14 3l-6 6l-6 7l-3 4l-8 6l-3 7l-8 3l-4 16l-1 7l2 9l-2 8
l2 14v8l-1 10l-1 7l2 7l5 15l6 5l3 6l8 6l15 15z" />
    <glyph glyph-name="slash" unicode="/" horiz-adv-x="314" 
d="M274 672l-3 -8v-9l-3 -7l-1 -7l-2 -10l1 -8l-2 -5l-1 -8l-3 -8l-2 -10v-6l-1 -9l-2 -9v-6l-3 -7l-1 -9l-1 -8l-3 -7l1 -10l-4 -8l1 -6l-4 -7l1 -10l-2 -8l-1 -6l-2 -18l-3 -8l-2 -5v-10l-2 -8l-2 -6l-2 -10l-1 -6v-9l-1 -7l-1 -8l-2 -7l-3 -8l-2 -9l1 -7l-2 -8l-1 -10
l-1 -6l-2 -9l-1 -8l-3 -6l-2 -8l1 -8l-2 -10l-3 -8l1 -5l-3 -10v-6l-2 -10l-2 -8l-1 -6l-3 -10l1 -5l-3 -10v-8l-1 -7l-2 -8l-1 -9l-1 -6l-4 -9l-1 -6l-1 -10l-2 -8v-6l-3 -8v-9l-2 -7l-1 -8l-1 -9l-2 -7l-1 -9l-1 -6l-1 -10l-3 -8l2 -13l3 -9l3 -6l2 -7l-7 -8l-8 2l-8 -2
l-8 2l-8 -1l-6 -1h-8l-9 1l-7 1l-8 -1l-8 -1h-8l-9 2l-6 -1h-8l-8 1h-9l-9 -1l-7 1l-5 6l3 9l2 7l2 6l3 7l2 9l2 8l3 7l3 6l1 9l4 13l3 16l2 9l-1 9l3 14l3 9l2 6l1 10l-1 6l4 9l-1 7l3 10l2 6v7l1 9l1 9l2 7l2 7l1 10v6l4 9v8l1 8l2 6v8l2 10l3 7l1 6l1 9v9l2 6l3 10l1 7v8
l2 7v7l2 8l1 9l3 7v9l3 8v9l1 5l2 8l2 18l1 8l2 7l2 7v8l3 7l2 10l-1 6l1 9l3 8l1 9v7l4 7v9v6l4 9l1 7v8l3 8l1 17l3 7v7l3 10l1 7v9l2 6l2 9l1 7l1 9l1 6v9l4 8v7v16l-5 11l-2 8l5 9l7 -2l10 2h7l9 -2l6 2h8l8 -1l9 1h6l8 -2l9 2l8 -1l7 1l9 -2l9 1h8l7 -1l8 2l6 -10
l-3 -6l-3 -10l-3 -8l-2 -7l-2 -8l-1 -8l-5 -8l-2 -7z" />
    <glyph glyph-name="zero" unicode="0" horiz-adv-x="474" 
d="M369 753l5 -6l6 -4l5 -6l8 -6l4 -6l8 -6l3 -6l6 -5l6 -5l7 -13l-1 -9v-16l1 -9v-7l-2 -7l1 -10v-7l-1 -7l2 -16v-9l-2 -8l1 -9v-22l1 -9l-2 -7v-8l1 -9v-7l-1 -10l1 -6l1 -10v-8l-1 -8v-8l1 -8l-1 -8v-8l1 -7l-2 -16l1 -10l1 -8l-1 -6l1 -8v-10l-2 -8l2 -7l-1 -8v-7
l1 -10v-7l-2 -8v-33l2 -7v-17l-2 -7v-9l2 -8l-2 -7v-10l2 -6l-2 -10l1 -8v-8l1 -6l-1 -10l-1 -6l1 -9l-1 -9l1 -8l1 -7l-2 -8l1 -7l1 -9l-1 -7l1 -8l-1 -8v-18l-6 -13l-4 -5l-8 -8l-4 -3l-5 -6l-7 -8l-7 -4l-5 -6l-6 -6l-6 -7l-13 -3l-8 -1l-8 1l-7 -2h-17l-6 2l-9 -2l-9 2
h-7l-6 -1l-8 1l-10 -2l-7 1l-7 -1l-9 2l-9 -2l-8 2h-8l-7 -2h-16l-6 2h-9l-7 -1l-8 1l-10 -1l-6 -1h-8l-8 1h-9l-12 5l-6 6l-8 7l-4 3l-6 7l-6 6l-5 6l-6 4l-7 7l-7 5l-4 16v6l-1 8v10l2 7l-1 7l-1 10l2 7l-2 8l2 7l-2 9l1 9v7l-1 8l1 9v6l1 8v18l-1 6l1 8l-1 10v15l1 9v8
l-2 9v16l1 6l-1 10l1 8v8l1 6l-1 9v9l1 6l-1 10l1 7v9l-1 8l1 8v6l-1 10l1 8l-2 14v8l2 10l-2 6l2 10l-1 7l1 9v9l-2 6l1 10l-1 6l1 10l1 8l-1 6l-1 10l2 6l-2 9l1 7l-1 10v6l2 9l-1 8v17l1 8v7l-2 7l1 9l1 7v8l-1 10v8l6 13l4 6l6 5l8 7l4 4l7 6l6 6l4 7l6 4l8 5l13 6l8 2
h22l9 -2h7l9 1h7l9 -1l15 2l9 -1l8 -1h6l10 2l8 -2h7l9 2h16l13 -2h8l10 2h6l10 -2l7 2l7 -1l10 1h7zM294 621l-7 7l-13 5h-6l-9 -1h-8l-8 1h-16l-7 -1l-9 -1h-16l-14 -3l-4 -6l-5 -11v-9l-1 -9l1 -7l-1 -8v-8l2 -7v-10l-2 -7v-41l2 -8l-2 -6l2 -18l-1 -6l1 -8v-17l-2 -8
l1 -7l-1 -9v-6l2 -8l-2 -10l1 -6l1 -10l-2 -6l2 -8l-1 -8v-8l-1 -9v-17l2 -8l-2 -7v-8l2 -7l-1 -7v-10l1 -6v-10l-2 -6l1 -10v-6l1 -10v-15l-1 -9l1 -8l-2 -8l2 -7v-15l-2 -8l1 -10l4 -10l5 -6l23 -6l6 1l10 -1l8 2l6 -1h10l6 1l10 -2h14l15 6l5 4l4 14l1 6l-2 8l2 8l-1 10
l-1 6l1 8v8l-1 10v14l1 9l1 7v25l-2 8l2 8l-1 8l-1 8l2 14v17l-1 9v7l1 9l-1 7l-1 9v14l2 18l-2 6l1 8v10l-1 7l2 7l-2 9l1 7v15l-1 10l2 8v8l-1 7v17l1 7v7l-1 10v6l-1 9v8l1 7l-1 9l1 9l-1 6l2 8z" />
    <glyph glyph-name="one" unicode="1" horiz-adv-x="272" 
d="M215 40l2 -8l3 -7l2 -9l4 -7l-7 -9l-7 1l-8 -1h-16l-7 -1h-10l-7 1l-8 -1l-8 1l-9 -1l-6 1l-9 1h-8l-8 -1l-7 -1l-8 2h-18l-3 6l3 8l1 8l4 10l3 6l1 17l1 10l1 7l-2 9v8l1 6l-1 10l2 16l-2 8l2 14l-1 9l-1 7l2 9l-1 9l1 8l-2 7l2 9l-2 8l2 7l-2 8v7l1 10v8l1 8l-1 7v16
l-1 7l2 10l-1 8l1 8l-2 7l2 9l-2 9l1 8v7l-1 7v25l2 7l-1 9l-1 8v7l1 10v7l-1 8v8l1 9l-1 7l1 9l1 8l-1 6v10l-1 6l1 9l-1 8v15l1 9l-1 7v10l2 6v10l-7 13l-5 4l-11 7l-8 -2h-16l-9 1l-6 6l4 10l1 7l2 6l5 17l2 6l2 8l1 7l4 7l1 8l4 8v6l4 10l1 5l3 8l2 8l1 7l3 7l3 10l11 6
h23l9 1l7 -1l9 2h7l8 -2l9 1l8 1h6l9 -2l7 1h9l9 1h7l8 -8l-1 -9v-17l2 -7l-1 -7l1 -8l-1 -9v-7l-1 -8v-9l2 -9l-1 -7l1 -7v-8l-2 -8l1 -10l1 -6v-9l-2 -8l2 -7l-2 -18l1 -6v-25l-1 -9v-7l2 -9l-2 -7l1 -8l1 -7l-1 -9l1 -7l-2 -10l1 -7v-8l-1 -9v-7l1 -9l-1 -7v-7l2 -10
l-1 -7l-1 -8l1 -9v-6l1 -8v-10l-1 -6l-1 -9l1 -9l-1 -6l2 -10v-7l-1 -8l1 -7l-1 -9v-8l1 -9v-6l-2 -10l2 -6v-25l-2 -9l2 -7l-2 -8l2 -9l-1 -6v-8l-1 -9l1 -8l1 -9v-8l-1 -8l-1 -7l1 -8l-1 -9v-16l1 -7l-1 -8l1 -9v-8l1 -8z" />
    <glyph glyph-name="two" unicode="2" horiz-adv-x="492" 
d="M449 232l-4 -9v-9l-5 -6l-3 -10v-16v-7l-2 -8v-7l1 -10l-1 -6l2 -9v-9l-2 -8l2 -7v-9l-1 -7l1 -8l-1 -9v-15l-1 -9v-16l1 -8l-1 -6l1 -10l1 -8l-10 -7l-8 -1l-7 1h-7l-8 -1l-9 1l-8 1h-9l-8 -2l-6 2h-8l-9 -1h-16l-6 1h-24l-10 -2l-6 2l-10 -2l-7 1l-7 -1l-8 1l-9 -1
l-14 2l-10 -1l-7 -1h-7l-10 2l-8 -2l-7 2l-8 -1l-7 -1h-7l-10 2h-7l-9 -1l-7 -1h-16l-8 2l-9 -2l-7 2h-7l-9 -1l-7 8l1 7l-1 8v8l1 10l-2 8v7l2 7l-1 9v24l-1 7l2 7l-1 8v8l1 8l-2 9v17l1 7v7l1 10v15l-1 7v15l1 10l-1 7v7l1 10l-1 8l-1 7v8l2 6v16l-1 10l-1 6l2 9l-1 8v9
l-1 7v8l1 8v7l5 14l7 5l5 8l4 3l6 8l7 6l7 5l3 5l6 7l8 6l13 5h8l7 -1l10 1h8l6 -1l10 1l14 -2h9l7 1h8l9 -1l8 1h8l8 1h9l14 -2l8 1l10 1l12 5l5 3l4 14l1 9l-2 8v16l2 6v10l-1 7l-1 9l1 8v8l1 6v25l-1 7v9l1 8v8l-7 16l-18 6h-8l-7 -1l-9 2h-9l-8 -2h-8l-6 1l-10 -1h-15
l-13 -2l-6 -7l-5 -11l1 -9l-2 -9l2 -7l-2 -9l5 -18l3 -6l3 -9l2 -8l2 -9l-3 -8l-9 2l-8 -2l-8 2l-9 -1l-8 1l-8 -2l-14 2l-18 -2l-6 2l-10 -1l-8 1l-8 -1l-7 -1l-8 2h-17l-4 6l4 8l2 9l2 7l3 10l2 16v7l2 8l-2 7l2 10v16l-2 7l1 8v25l1 7v16l4 14l16 17l6 7l13 12l4 4l6 6
l8 6l12 6l9 1h7l9 -2l8 2l8 -2l7 1h8l7 1l8 -1l7 1l10 -1h6l8 1l9 -1l8 1l7 -2l8 1h16l9 -1l8 1l7 1h8l7 -2h8l9 2h7l16 -2h10l11 -4l7 -6l6 -6l5 -6l7 -6l4 -5l6 -7l7 -6l7 -4l6 -7l6 -14l-2 -14l1 -8l-1 -10l2 -8v-8l-2 -16v-15l1 -8l-1 -6v-10l2 -7v-9l-1 -6l-1 -9l2 -7
l-1 -10l-1 -5l2 -16v-8l-1 -8l1 -10l-1 -6l1 -10l-1 -7l1 -9v-5l-2 -10l1 -7l-1 -9l2 -6l-2 -9l2 -9l-2 -7l1 -9l-5 -12l-8 -7l-6 -5l-4 -7l-7 -5l-17 -17l-5 -7l-6 -5l-14 -5l-8 -1l-7 1h-16l-8 -1h-8l-9 -1h-8l-9 1l-6 1h-8l-9 -2h-9l-8 2l-8 -1h-16l-8 -1l-6 1l-10 -1
l-13 -3l-4 -6l-6 -13l1 -7l-1 -9v-23l1 -7v-25l1 -7v-17l-2 -7l1 -7v-17l1 -7l-1 -10l4 -11l6 -7l12 -4l10 -1l8 2h9l6 -1h16l11 1l7 -2l8 2l8 -1l14 6l5 5l3 12l2 10v6l-1 8l1 9l-4 18l-2 6l-4 10l-3 8l-2 8l5 6l7 1l9 -1l9 2h8l7 -2l8 1h9l6 -1h8l8 2l10 -2l8 2l7 -2l7 2
l16 -2l9 1l8 1z" />
    <glyph glyph-name="three" unicode="3" horiz-adv-x="466" 
d="M361 755l4 -6l6 -7l8 -6l5 -7l4 -3l7 -8l6 -5l5 -6l7 -6l7 -13l-2 -8v-8l1 -8v-9l1 -7v-31l-2 -8l1 -7l-1 -8l2 -8v-8l-2 -10l1 -8v-6l1 -8l-2 -8l1 -10l1 -6l-1 -9l1 -7l-1 -9l1 -6v-17l-2 -8v-8l2 -9l-6 -12l-6 -7l-6 -4l-7 -5l-6 -7l-4 -6l-6 -7l-6 -5l-7 -4l-7 -7
l1 -12l6 -6l7 -5l5 -5l6 -7l10 -10l6 -8l7 -4l7 -7l6 -12l-2 -9l2 -7v-40l-2 -9l2 -6l-2 -9l1 -8l1 -9l-2 -7l2 -9l-1 -7v-6l1 -8l-1 -8l-1 -9l2 -9l-1 -8l-1 -7l1 -8l1 -7v-8l-1 -7l1 -8v-9l-1 -7v-8l-6 -14l-6 -5l-6 -8l-5 -4l-7 -6l-4 -7l-6 -5l-8 -5l-5 -8l-6 -4l-13 -7
l-9 2h-8l-16 -2l-6 2l-8 -1h-9l-8 1l-7 -1l-10 1l-8 -2l-8 1l-7 -1l-8 1h-14l-8 1l-10 -2h-8l-6 1l-10 -1h-8l-7 1l-9 -1l-6 1h-10l-6 -1l-9 1l-7 1l-8 -1l-13 6l-7 6l-4 5l-8 6l-5 7l-6 4l-4 6l-7 6l-5 5l-7 7l-5 13v16l1 10l-1 8v6l1 9l-2 9v6l1 10l1 8v6l-2 9l1 7l1 9
l-3 16l-2 7l-5 9l-1 8l-3 9l4 6h8l10 1h7l9 -1l8 2l5 -2l10 1l6 1h10l8 -1l8 1l8 -1h13l10 1h23l6 -10l-4 -7l-4 -9l-1 -7l-2 -9l-5 -16v-7l2 -10l-2 -8v-7l6 -12l5 -6l14 -4l9 -1h8l7 1l8 -1l9 1h8l6 -1l9 -1l8 2h9l11 3l6 5l4 14l2 14l-1 8l1 8l-1 8l1 10v7l-1 9l-1 7v7
l2 16l-1 8l-1 7v8l2 8l-2 9v8l-4 13l-5 6l-11 5h-8l-8 -2l-9 2h-13l-10 -2l-14 -3l-6 -1l-9 -2l-6 -3l-9 -3h-7l-6 4v16l-1 8l-1 9v7l2 7l-1 8l1 8l-2 9l2 16l-1 8l1 9v7l-1 8v8l1 7l-1 10l8 5l22 -7l6 -4l7 -2h17l8 -1l7 1l6 -1h8l9 -1h7l13 6l9 18v8l-1 8l1 7l1 8l-1 8
l1 9v9l-1 6v24l-1 8v9l1 7l-1 9v9l2 8l-2 6l-4 12l-5 6l-12 5h-34l-6 -1h-8l-10 1l-8 1l-8 -2l-6 2l-15 -7l-5 -3l-5 -13v-18l1 -7l-2 -9l4 -17l3 -8l2 -6l4 -8l2 -10l-4 -6l-10 -1h-8l-6 1h-9l-9 -1l-6 -1l-8 1h-8l-7 -1h-8l-9 1h-7l-8 -1l-9 2l-8 -2l-8 2l-6 -1l-9 -1
l-5 8l4 10l2 7l1 8l5 9l1 14v10l1 6v16l-1 9l1 8l-2 9l2 8l-1 6l-1 9l2 7l-1 10l1 6l-1 9l6 12l5 6l6 6l6 8l6 4l5 6l7 5l4 8l5 6l6 4l15 7l6 -1l8 2h18l8 -2l8 1h7l7 -1h9l7 2h8l9 -2l9 1l7 1h16l6 -1h8l10 -1h7l9 1l6 -1h9l9 2h22l8 -1l10 -1l7 1z" />
    <glyph glyph-name="four" unicode="4" horiz-adv-x="494" 
d="M437 41l2 -10l4 -7l1 -8l2 -9l-4 -6l-9 -2l-8 2l-6 -1l-8 1l-8 -1l-9 -1h-7l-8 1l-9 1l-8 -2l-7 1h-9l-8 1h-7l-9 -2h-8l-7 1h-8l-6 8l3 8l3 9l3 6l1 8l3 17l2 9v24l-2 7v7l1 8v9l-1 7l1 7l1 9l-2 8l2 7v8l-1 10l1 6l-1 9l1 8l-1 6l-1 10l2 8l-1 6l1 9v7l-2 8l1 9l-1 7
l1 9v6l1 8l-5 14l-5 4l-15 6l-8 -1l-7 1h-8l-8 -1h-8l-7 1l-8 1h-17l-9 -2h-8l-7 2l-7 -1l-8 -1h-8l-8 1l-10 1l-8 -2h-7l-9 2l-13 5l-5 6l-8 4l-4 6l-12 11l-5 6l-5 6l-8 7l-5 5l-5 14v8l1 8v10l-2 7l1 8l1 7v10l-2 7l2 9l-2 8l1 7l-1 7l2 10v16l-2 8l2 7v17l-1 9v30l-1 9
v18l2 6v17l-2 8l1 7l-1 9l2 8l-1 9l-1 7l1 8l-1 7l2 8l-5 17l-1 9l-2 7l-5 9l-1 8l5 9h16l7 -1h25l6 2l8 -2h10l5 1l8 -1l10 1h8l6 1l10 -2l7 1h15l7 -10l-4 -6l-1 -10l-2 -6l-5 -10l-1 -14l-1 -8v-8l1 -8l-1 -10l2 -7l-1 -7l1 -8l-1 -9l1 -9l-2 -7v-8l1 -8v-14l1 -10l-1 -6
l-1 -10l2 -8l-2 -6v-10l2 -6l-1 -7l1 -10v-8l-2 -7l2 -7l-1 -9l1 -8l-2 -9l1 -6l4 -13l6 -5l13 -5h15l8 -1l10 2l7 -2l7 1l9 1l8 -1l8 1l8 -1l14 4l5 6l4 11l1 9v15l-1 9l1 7l-1 8v8l2 9l-1 8v7l-1 7l2 9l-1 9v16l-1 6v39l1 10l-1 6l2 8l-2 9v25l1 6v8l-4 16l-3 8l-1 9l-4 9
l-3 6l7 9l8 1l6 1l10 -1l6 1h10l8 -2l6 2l10 -2l8 1h15l8 -1l9 1l6 1l9 -1h7l10 -1l7 1l5 -8l-4 -8v-8l-5 -9l-3 -8v-17v-7l-2 -9l2 -16l-1 -8l-1 -6l1 -9l1 -8v-32l-1 -8l1 -8l-2 -7l1 -9l1 -8l-2 -8l1 -9l-1 -6v-10l1 -7v-9l-1 -8v-8l1 -7l-1 -8l2 -9l-1 -7l-1 -9l2 -7
l-2 -8l2 -9v-6l-1 -10v-7l1 -7l-2 -10l2 -7l-2 -8l1 -6l1 -10v-7l-2 -8l1 -7l-1 -9l1 -9l-1 -8l1 -6l1 -9v-7l-1 -10v-6l-1 -10v-16l1 -6l-1 -10v-6l1 -9l1 -7v-24l-1 -9l-1 -8l1 -7v-10l-1 -6l1 -10l-1 -8l2 -8v-7l-2 -9l2 -8v-31l-2 -8l1 -8z" />
    <glyph glyph-name="five" unicode="5" horiz-adv-x="492" 
d="M438 560l4 -8l2 -8l2 -9l2 -8l-5 -9l-8 1l-6 -1h-10l-7 1l-8 1l-9 -2l-7 2h-9l-8 -1h-7l-7 1l-10 -2h-16l-6 1l-9 1h-7l-8 -1l-5 7l3 8v9l4 7l4 8l2 18l-1 8v7l1 10l-2 9l-6 15l-14 5l-10 2l-6 -2l-10 1h-8l-7 -1h-33l-10 1l-13 -3l-5 -6l-5 -12l1 -8v-16l-2 -18l2 -8
l-2 -6l1 -9l-1 -8v-16l2 -7l-1 -9l-1 -8l2 -8l-2 -8l2 -9v-8l4 -12l5 -5l13 -6h8l8 2h7l8 -1l9 -1l8 1h8l8 1l7 -1h17l9 -1h23l8 2l8 -1l9 -1l8 2l7 -1l13 -4l6 -7l7 -5l7 -5l4 -6l13 -14l4 -4l7 -5l6 -8l4 -11l1 -9l-1 -8v-15l2 -8l-2 -9l2 -7v-9l-2 -9l1 -5l1 -8l-2 -8
v-17l1 -9l1 -7l-2 -8l2 -9l-2 -6l2 -7v-8l-2 -9l1 -8l1 -7l-2 -10l1 -7v-7l1 -9v-7l-2 -9l1 -6v-9l1 -9l-2 -8l2 -7l-1 -9l-1 -7v-7l-3 -13l-7 -7l-5 -7l-8 -6l-6 -6l-3 -5l-6 -6l-7 -5l-6 -6l-5 -6l-15 -6l-7 1l-9 -1l-6 1h-17l-9 -1l-6 -1l-8 1h-9l-7 -1h-7l-8 1l-9 1h-17
l-6 -1l-9 1l-8 -2l-8 2l-7 -2h-7l-9 1l-7 1l-10 -2h-7l-8 2h-16l-8 -2l-9 1l-13 5l-6 7l-5 6l-11 12l-6 6l-6 6l-4 4l-7 8l-6 5l-5 14v7l-2 9v6l1 9l1 8l-2 7l1 9v24l1 7v24l-4 16l-3 10l-1 8l-5 14l4 10l16 -2l7 2h8l10 -1h16l7 -1l7 1l10 1l6 -2l9 2l9 -2l8 2l7 -2h8l9 1
l7 1l3 -9l-2 -8l-3 -9l-2 -8l-3 -8l-3 -14l-2 -16l2 -8l-1 -8l4 -15l6 -6l14 -3h9l7 -2l9 2h9l6 -2l9 1l8 -1l8 1l9 1l9 -1l11 5l7 4l4 14v7l-2 9l1 7l-1 10l2 7v40l-1 7v7l1 10l-2 8v8l1 7l-1 9l2 6l-4 14l-7 4l-12 6h-7l-10 -1l-7 -1h-7l-10 2h-24l-6 -1h-10l-6 -1h-10
l-7 2h-9l-8 -1l-7 -1l-7 1l-10 1l-8 -1l-8 1l-12 6l-11 11l-6 6l-6 6l-7 4l-5 8l-4 4l-7 8l-6 4l-7 14l1 9v8l-1 7l2 7l-2 10l1 6l-1 10l2 7l-2 7l1 9l-1 8l1 8l-1 6l2 10l-2 8v8l2 8l-1 7v23l1 8l-2 7l1 8v8l-1 10l1 7v8l1 7l-1 10l-1 6v10l1 8v6l-1 8l2 8l-1 8l-1 9l2 16
l-2 6l2 9v7l-1 9l1 8v9l6 6h25l8 1l7 -1l9 1h16l9 -1l8 2l6 -2h9l7 1h9l8 1h15l8 -1l7 -1l9 2h9l8 -2l5 1h17l8 1h7l10 -2l7 2l9 -1l7 1l8 -2h9l7 1h15l8 -1h9l6 2h9l7 -1l9 -1l8 1h17l7 -1l8 -8v-16l-1 -6v-34l2 -6l-1 -10l1 -7l-1 -9v-6l1 -10v-6l-1 -9v-9l-1 -6l2 -9
l-2 -7l2 -9l-1 -9l-1 -7z" />
    <glyph glyph-name="six" unicode="6" horiz-adv-x="483" 
d="M287 527l3 9l2 8l3 9l2 7l3 15l1 9l-1 9l2 8l-2 7l-7 15l-14 9l-10 -2l-7 1h-18l-6 1h-10l-6 -2h-11l-6 1l-10 -1l-11 -2l-6 -5l-4 -13l-2 -10l1 -7l1 -8l-1 -8v-16l1 -9l-2 -6l2 -8l-1 -9l-1 -8l1 -7v-10l-1 -6l2 -10l-1 -8l1 -6v-8l3 -13l6 -7l14 -5l6 2h10l7 -1l9 1
l6 -1l9 -1l9 1l6 1h9l7 -2l10 1l7 1h7l8 -2l10 1l8 1h6l8 -1l10 -1l8 2l12 -7l6 -6l6 -4l5 -7l11 -11l7 -5l5 -6l5 -6l8 -6l5 -14l-2 -8l2 -8l-2 -7l1 -7v-9l1 -9l-1 -7l1 -7l-1 -9l1 -7l-2 -8l2 -8v-9l-1 -8v-7l-1 -8v-24l1 -6l1 -8v-16l-2 -10v-6l2 -16l-1 -8v-8l-1 -9
v-15l2 -8l-1 -9l1 -8l-2 -7l2 -7v-9l-7 -14l-12 -12l-4 -4l-7 -8l-5 -4l-5 -7l-5 -5l-7 -7l-7 -6l-13 -4l-6 1l-8 -2l-10 1h-7l-7 -1l-8 2l-8 -1l-9 -1h-7l-8 1h-8l-7 -1l-10 1l-6 -1h-16l-8 1l-10 -1l-6 2l-10 -1l-5 -1l-8 2h-42l-7 -1l-7 1l-10 -1l-12 6l-6 6l-7 6l-5 4
l-6 8l-6 3l-6 6l-6 8l-5 5l-5 6l-5 13l-1 9v16l-1 9l1 7v9l1 6l-1 9l-1 8l2 8v8l-2 9l2 14v17l-1 8v15l1 9l-1 9v6l-1 9l1 9v8l-1 8l1 6l1 10l-1 6v9l1 9l-2 6v9l2 8v7l-1 10v6l-1 10v6l1 9l-1 7l1 8v9l1 8l-2 7l1 10l-1 6l1 9l1 8v9l-2 8l2 8l-1 7l1 8l-2 9l1 6v16l1 10
l-1 8l1 8v6l-1 9v15l1 8l-2 10l1 6l-1 9v23l1 10l-1 7l2 9l-2 7l1 7l4 15l8 5l4 5l13 13l6 5l4 7l8 6l6 6l6 5l12 5l9 -1h7l7 1l8 1h8l16 -2l8 2l9 -1h6l9 -1l9 1h8l8 -1h22l8 1l10 1l8 -2l6 1l9 -1l6 1l8 1l9 -1l7 1l8 -2l8 2l9 -1l8 1l14 -6l6 -7l4 -6l7 -5l12 -11l4 -7
l5 -6l8 -5l5 -7l5 -12l1 -8v-8l-1 -8l1 -9l-2 -7l1 -7l-1 -10l2 -6l-1 -8v-9l1 -8l-2 -7v-8l1 -10l3 -14l2 -9l2 -9l5 -6l3 -8l-7 -8h-7l-9 -1l-8 1l-7 -2l-8 2l-9 -1l-6 1h-10l-6 -2h-34l-6 2h-16l-8 -1l-10 1zM297 307l-6 3l-14 6l-6 1h-10l-8 -1l-8 1h-8l-9 -2l-6 1
l-9 -1h-10l-8 2l-13 -7l-5 -3l-5 -14v-9l2 -14l-1 -9l1 -8l-2 -9v-7l2 -9l-2 -7l2 -6v-26l-1 -7l-1 -9l2 -6l-1 -10v-7l5 -12l6 -5l12 -5l7 1l10 -2h9l7 2l7 -2l10 2l8 -2l7 2l8 -1l8 1l15 3l5 5l3 13l2 9l-2 6v16l1 10l1 8l-2 7v9l2 8v7l-1 7l-1 9v8l2 8v23l-2 9z" />
    <glyph glyph-name="seven" unicode="7" horiz-adv-x="426" 
d="M409 624l-5 -7l-1 -8l-4 -6l-3 -8l-2 -7l-3 -8l-4 -9l-3 -5l-2 -10l-5 -6l-2 -7l-4 -9l-2 -8l-3 -7l-3 -5l-2 -9l-5 -8l-2 -6l-4 -7l-3 -9l-3 -7l-2 -7l-4 -9l-1 -5l-5 -8v-9l-4 -8l-3 -5l-2 -9l-5 -8l-2 -7l-3 -7l-2 -8l-4 -6l-4 -8l-1 -8l-4 -6l-4 -7l-2 -8l-4 -9
l-4 -13l-5 -7l-3 -10l-1 -6l-4 -8l-3 -8l-3 -7l-3 -7l-3 -8l-2 -8l-3 -7l-2 -6l-4 -9l-3 -8l-2 -6l-4 -7l-2 -7l-3 -7l-4 -9l-4 -6l-2 -8l-3 -9l-2 -8l-4 -6l-3 -7l-4 -9l-2 -6l-3 -8l-4 -7l-3 -7l-2 -7l-3 -8l-2 -9l-4 -7l-2 -6l-5 -7v-16l3 -9l4 -7l1 -7l2 -8l-6 -7h-15
l-7 -1l-9 1h-8l-8 -1l-9 2h-6l-9 -1l-7 1h-10l-6 -2l-8 1l-10 -1l-6 2l-8 -1h-10l-7 1l-7 -2h-8l-6 8l4 8l6 7l2 6l5 7l5 7l2 6l4 8l6 14l5 6l3 8l3 6l3 10l2 5l2 8l5 7l1 8l3 8l3 8l4 6l3 9l2 5l4 8l4 9l2 8l3 7l4 7l2 7l2 7l3 8l3 8l5 5l2 10l5 13l4 8l3 8l2 6l2 8l4 7
l3 7l3 10l3 6l2 8l4 6l3 7l4 10l2 5l2 10l4 5l3 7l2 8l3 7l3 10l4 6l4 7l2 7l3 9l3 7l1 6l5 8l4 16l4 6l3 8l2 8l5 6l1 9l4 7l4 7l1 7l4 8l2 9l5 6l3 8l4 15l4 8l4 5l2 7l3 8l4 7l1 8l4 8l-7 7l-7 -1h-41l-7 1l-10 -1h-7l-8 1l-8 -1h-16l-8 2l-7 -2h-9l-10 2l-8 -2l-6 1
l-8 -1l-10 2l-8 -2h-8l-15 -1l-7 -3l-9 -1l-7 -2l-8 -3l-6 -1l-7 6l1 8l3 8v8l2 9l2 8l-1 7l1 7l3 8l1 9l2 6l2 9l1 7l-1 8l3 10l2 6l1 10l8 6h10l8 1l7 1l7 -1h16l9 -1l7 2h40l11 -1h16l8 1l8 -1l8 1h6l10 -2l8 1h15l7 -1h10l7 1h16l9 -1l8 1h9l7 -1l8 1h7l8 1l10 -2h7l7 2
l9 -1h8l11 -9l-1 -7l1 -8l2 -7l1 -8l2 -9v-9l1 -6v-9l1 -8l2 -7l2 -9v-9l2 -7v-9v-15z" />
    <glyph glyph-name="eight" unicode="8" horiz-adv-x="475" 
d="M371 755l6 -8l4 -6l8 -5l5 -6l6 -4l4 -7l11 -12l6 -7l5 -12l1 -9v-7l-1 -8l1 -8l-1 -9l2 -8v-25l-2 -8l2 -6l-1 -8l-1 -10l2 -8l-1 -7l-1 -8l1 -9v-14l-1 -8l1 -10l1 -8l-1 -6l1 -8l-2 -8l1 -9v-8l-1 -9l1 -7l-5 -14l-7 -6l-4 -7l-7 -4l-6 -5l-5 -8l-5 -6l-5 -3l-12 -13
l-1 -10l11 -14l7 -3l5 -6l6 -8l7 -4l4 -6l7 -5l4 -7l7 -15l-2 -7l2 -9l-2 -6v-9l2 -7l-1 -10l1 -8v-8l-1 -8l-1 -6l2 -8l-2 -8l1 -9l1 -7l-2 -9l2 -8l-2 -7l2 -10v-7l-2 -9v-8l1 -8v-7l1 -7v-9l-1 -8l1 -9v-7l-2 -9v-8l-4 -14l-7 -4l-4 -7l-5 -6l-6 -6l-5 -4l-7 -6l-6 -7
l-4 -5l-8 -8l-12 -4l-8 1h-15l-8 -2l-8 1l-9 1l-8 -2l-8 2l-8 -2h-8l-7 1l-8 1l-8 -2l-9 2l-9 -1l-6 1l-7 -1l-10 1h-16l-8 -2l-6 1h-17l-7 -1h-9l-9 1h-6l-9 -1l-7 2l-15 4l-5 6l-11 11l-7 6l-6 7l-5 6l-6 6l-7 5l-6 7l-7 12l1 10l1 8l-1 6v10l1 6l-2 8l1 9l-1 7v10l2 8
l-1 8v6l-1 10l2 8v14l-1 9v7l1 8v8l-1 9l1 9v15l-2 8l2 8l-2 9l2 7l-2 7l1 9l7 13l6 8l4 5l5 5l7 5l5 8l7 6l4 4l12 13v11l-7 4l-5 7l-4 4l-7 6l-4 8l-8 5l-4 5l-6 5l-6 7l-5 15l-1 7v8l1 9l-1 8l1 6l-2 10l2 7l-1 7l-1 9l1 7l-1 8l2 10l-1 6v10l-1 8v6l1 9v8l-1 8l2 8l-1 7
l1 10v15l-1 9l-1 8l1 6l1 8l-2 9l7 14l6 6l5 7l7 6l12 11l5 6l6 4l8 6l6 8l12 4l7 1l8 -1l9 2l9 -1l7 1h23l8 -1l9 -1l9 1h7l7 -1l8 2l9 -2l6 1l8 -1l10 2h7l7 -2l9 2l7 -1h10l6 -1l9 2l8 -1h7l8 1l9 -2l9 2zM293 624l-14 8l-8 1l-9 -2l-8 1h-8l-10 -1h-8l-16 2l-7 -2l-8 2
l-16 -9l-7 -14l-1 -8l1 -7v-24l-1 -9l2 -7v-15l-2 -8l2 -8l-1 -9v-7l1 -6l-1 -9l-1 -8l1 -9l-1 -6l7 -14l3 -4l15 -6h7l8 1h9l6 -1l8 2l11 -1h14l9 -1h7l13 5l6 6l5 13l-1 8l-1 7l2 7l-1 8l1 8v9l-2 8v16l2 7v6l-2 10l2 7v7l-1 9v8l1 6l-1 8zM296 310l-5 6l-13 5l-9 -2h-14
l-8 2l-11 -2h-8l-6 1l-8 1l-10 -1l-6 1l-14 -6l-5 -6l-4 -11l-2 -10l2 -16l-2 -8l2 -6l-1 -7v-8l-1 -9l2 -9v-7l-1 -6l-1 -9v-15l1 -7v-9l-1 -7l2 -10l-1 -8l7 -14l15 -6l10 -2h7l8 2h7l10 -1l8 -1h7l9 2l8 -1h7l16 7l8 16v23l-1 9l-1 5v32l2 7l-1 9l-1 8v9l1 7l1 8v7l-2 8
l1 9v8z" />
    <glyph glyph-name="nine" unicode="9" horiz-adv-x="483" 
d="M378 753l4 -5l6 -7l7 -5l7 -7l4 -5l5 -4l7 -8l5 -6l7 -4l5 -13l1 -8l-2 -10l1 -6l1 -10v-6l-1 -9v-8l1 -9l-1 -6l-1 -8v-16l1 -9v-7l1 -9l-1 -9l1 -6v-8l-1 -8l-1 -10l2 -8l-1 -7v-8l1 -7l-1 -9v-8l-1 -8l2 -8v-8l-2 -9l1 -8l-1 -7v-9l1 -7l-1 -9l1 -6l1 -9l-1 -7l-1 -8
l2 -10v-6l-1 -10l1 -7l-1 -7l1 -8l-1 -10v-8l1 -7l-2 -7l1 -9l-1 -8l1 -7v-8l-1 -9v-16l1 -9l1 -6l-1 -10l1 -8l-1 -7v-31l1 -9l-1 -7l1 -10l-2 -6v-16l1 -10l-1 -7l2 -7l-2 -10l2 -7v-7l-7 -15l-4 -6l-6 -6l-8 -7l-6 -5l-3 -5l-6 -6l-8 -6l-5 -5l-5 -7l-15 -5l-7 1l-7 -1
l-8 -1l-8 1l-9 -1h-32l-6 1h-9l-9 1l-6 -2l-9 1l-7 -1l-8 2l-10 -2l-8 1l-6 1l-9 -1l-6 1l-9 -1h-16l-9 -1l-7 2l-7 -2h-9l-8 2l-9 -1l-12 6l-6 5l-6 6l-5 7l-5 6l-7 5l-5 5l-5 7l-8 5l-4 5l-7 16l1 8v14l1 9l-1 8l1 7v10l-2 7l2 8l-2 8l1 9v15l1 8l-5 16l-2 7l-3 8l-6 16
l6 9h7l9 -1l9 1h7l9 1l7 -1l9 1h7l9 -1l6 1h10l8 -1l7 1l8 -1h8l9 -1l7 2h8l6 -9l-4 -7l-2 -8l-4 -9l-3 -7l-3 -19l-1 -6v-8l1 -8v-9l6 -14l4 -5l14 -4l6 -1l10 2h6l10 -2l6 2h9l8 -2l7 2l10 -2h7l14 6l5 4l5 14l-1 8l1 6v16l1 10v8l-2 6l1 8l1 10v31l-1 7l1 8l-1 7l1 8
l-2 8l-5 13l-5 6l-11 5h-8l-8 -1l-16 2h-18l-7 -1l-8 -1l-9 1h-7l-6 1l-10 -1h-8l-7 1l-7 -1l-10 1l-16 -2l-6 2h-10l-12 5l-5 4l-8 6l-5 8l-4 6l-6 5l-8 4l-5 7l-5 6l-7 7l-4 12l1 7l-2 8l2 9l-1 7v8l1 9l-2 9v14l1 9l1 7l-1 8v8l-1 7l1 9l-1 8l1 8v17l1 5l-2 10l2 6v10
l-1 7l1 7v17l-1 7l1 10l-1 6l-1 9l2 6l-1 9v8l1 8v8l-2 8v8l6 13l6 6l7 6l10 11l7 7l5 6l6 5l5 6l6 6l13 5h8l8 1h25l7 1l8 -2l9 1l6 -1l7 2l10 -1l8 -1l7 1h15l9 -1h7l8 2l10 -1l8 1h6l7 -1l9 -1h7l10 1l6 -1h17l9 2h6zM302 623l-5 5l-12 4l-8 1h-8l-9 -2l-8 2l-8 -1h-15
l-10 -1l-6 1l-10 -1l-13 -5l-3 -4l-6 -13l-1 -6l1 -9l-1 -9l2 -8l-1 -6l-1 -8v-10l1 -8l-1 -8l2 -7l-2 -9l2 -6l-1 -8v-8l-1 -8v-10l1 -8l1 -7l4 -12l5 -5l14 -7h15l9 2l6 -2h24l10 2l7 -1l8 -1l14 6l5 4l4 15l1 6l-1 8v9l-1 8l2 8v8l-1 9l-1 6l1 9l-1 8l1 8l1 9v23l-1 9
l1 7l-2 9z" />
    <glyph glyph-name="colon" unicode=":" horiz-adv-x="249" 
d="M97 607h9l8 -1h24l8 -1l8 1h7l12 -6l7 -5l5 -6l7 -5l3 -5l7 -5l6 -7l6 -12l-2 -10l1 -7l1 -8l-1 -7l-1 -10l2 -7l-2 -9v-6l2 -8l-8 -16l-21 -21l-5 -4l-6 -8l-12 -3h-8l-10 -1l-8 1l-7 -2l-9 2l-6 -1l-10 -1h-15l-14 7l-5 5l-7 6l-5 4l-6 7l-4 4l-5 5l-7 14l2 16v18l-1 8
l1 6v10l-2 8l1 6l5 13l5 7l7 6l5 4l4 6l8 6l4 6zM90 337l6 -2l8 2h18l8 -2l7 1l7 -1l10 2l6 -1l13 -6l6 -4l7 -7l4 -6l6 -4l7 -6l3 -6l7 -13l1 -9l-2 -8l1 -8l-1 -7v-8l1 -8v-9l-1 -8v-7l-5 -13l-5 -6l-7 -7l-4 -3l-7 -7l-4 -5l-7 -7l-11 -4l-8 -1l-10 1h-6l-10 1l-16 -2
h-16l-7 1l-14 6l-4 5l-6 6l-7 5l-5 6l-5 4l-7 7l-3 13l-1 8v15l-1 10l2 7l-1 9l-1 6v8l1 9l5 14l5 4l5 5l11 13l6 5l6 6z" />
    <glyph glyph-name="semicolon" unicode=";" horiz-adv-x="249" 
d="M89 605h7l9 1h15l8 1l9 -2h9l7 2h9l12 -7l7 -4l3 -7l6 -4l5 -8l8 -3l5 -6l5 -14l-1 -8v-17l1 -8v-8l-1 -6v-10l1 -7v-9l-5 -12l-16 -16l-7 -8l-5 -5l-6 -5l-12 -6l-8 2h-8l-10 -2l-7 2h-7l-8 -2l-8 1l-9 1h-7l-15 5l-5 4l-6 6l-5 5l-12 12l-6 6l-3 12v9l-2 7v18l2 6v8
l-1 10l1 8l-2 7l5 13l7 5l6 5l4 8l7 3l5 7l5 6zM90 335l7 1l9 -1l8 1l7 -1l8 2l9 -1l7 1l7 -1l9 1l14 -7l5 -6l4 -4l7 -7l5 -4l6 -6l6 -6l5 -12l1 -10v-7l-2 -7v-17l2 -9v-22l-1 -17l-1 -8v-6l2 -10l-1 -6l-1 -8l1 -9l-1 -5l1 -8l-6 -14l-6 -5l-7 -8l-4 -5l-8 -4l-5 -8
l-7 -5l-6 -6l-13 -8l-5 -5l-9 -4l-6 -5l-6 -4l-9 -2l-8 -5l-7 -4l-7 -5l-7 -2l-6 2l-2 8l2 8l-2 9l1 7l5 13l6 7l7 4l6 8l11 10l5 8l6 4l8 16l-5 14l-16 6l-6 -1h-11l-7 -1l-14 7l-4 5l-8 5l-3 6l-7 6l-6 4l-6 7l-3 13l-2 8l2 7l-1 8l1 9l-2 9l2 6v18l-2 7l6 13l7 5l4 7l5 5
l6 5l5 6l5 6z" />
    <glyph glyph-name="less" unicode="&#x3c;" horiz-adv-x="415" 
d="M394 754l-5 5l-7 6l-5 4l-6 6l-5 8l-5 3l-5 7h-12l-5 -8l-5 -5l-4 -6l-3 -9l-5 -5l-6 -7l-6 -5l-3 -7l-4 -8l-5 -6l-5 -6l-6 -8l-4 -4l-5 -7l-4 -8l-7 -6l-3 -7l-4 -4l-5 -7l-5 -7l-7 -8l-7 -11l-7 -8l-7 -11l-5 -7l-7 -8l-3 -4l-7 -9l-3 -5l-6 -8l-3 -4l-7 -8l-2 -5
l-5 -9l-6 -5l-5 -7l-6 -6l-4 -8l-5 -4l-5 -7l-7 -14l-6 -7l-6 -5l-4 -6l-4 -7l-4 -8l-7 -4l-8 -15l-6 -7l-3 -6l-7 -7l-3 -5l-11 -12l-5 -6l-7 -6l-4 -5l-5 -4l-8 -6l-3 -6v-11l3 -4l8 -6l5 -5l5 -7l4 -4l7 -8l11 -11l5 -7l3 -6l7 -6l2 -8l6 -6l6 -6l3 -7l5 -6l4 -7l7 -6
l3 -5l5 -9l5 -4l5 -6l6 -7l5 -8l3 -7l4 -4l5 -8l5 -6l6 -7l5 -7l3 -7l5 -4l7 -8l3 -5l5 -8l5 -6l6 -6l3 -8l6 -5l4 -8l4 -5l6 -6l3 -6l5 -9l7 -4l10 -13l4 -8l3 -6l6 -6l5 -6l4 -8l5 -6l5 -6l6 -6l3 -6l6 -8l4 -7l4 -5l7 -7l2 -8l5 -6l5 -6l7 -5l8 -3l7 7l6 5l5 7l6 4l6 8
l5 5l6 7l2 13l-4 5l-5 7l-5 8l-2 8l-5 7l-2 5l-6 7l-3 9l-4 5l-4 8l-5 8l-3 6l-2 8l-4 7l-4 6l-4 7l-6 8l-3 7l-4 8l-4 6l-2 6l-10 14l-3 9l-4 7l-3 7l-4 5l-3 9l-6 5l-2 7l-5 7l-2 7l-5 7l-3 10l-5 7l-4 5l-3 8l-4 8l-3 5l-10 16l-3 5l-3 8l-5 7l-11 21l-5 8l-4 7l-4 6v16
l4 7l4 6l5 6l3 9l4 7l4 6l5 8l2 6l4 8l6 5l4 7l4 9l1 7l5 6l5 7l4 8l4 6l3 7l3 9l3 7l5 5l5 7l4 9l2 6l4 8l4 8l3 5l4 8l4 6l4 8l6 8l2 6l3 8l4 6l5 6l4 7l5 7l4 9l2 6l3 7l8 16l4 5l6 7l3 8l2 7l5 7l4 8l5 5l3 7z" />
    <glyph glyph-name="equal" unicode="=" horiz-adv-x="528" 
d="M455 580v-8l-1 -10v-6l2 -9v-16l-2 -9l1 -8v-14l-1 -10l1 -7l1 -9l-2 -16l2 -6v-8l-1 -10l-8 -6l-7 2l-10 4l-7 2h-8l-9 4l-7 2l-14 1h-8l-8 -1h-26l-8 1h-6l-9 -1l-16 2l-7 -2l-10 1l-8 1l-8 -1h-6l-8 -1l-10 1l-6 1h-25l-7 -1h-9l-7 -1l-10 1l-8 1l-8 -2l-8 1h-7l-7 1
l-18 -3l-8 -3l-7 -1l-7 -3l-8 -1l-9 -3l-9 -2l-7 8v8l1 6v9l1 8v8l-2 7l2 8v10l-1 7v9l-1 6l2 18v8l-2 6l1 8l1 9l-1 9l8 6l6 -4h9l9 -3l7 -3l7 -2l9 -2h15l9 -1l9 1l7 -1l9 1l7 -1h9l8 1l7 -2l9 2h7l9 -1l6 1l9 -2h15l9 1l7 1h17l9 -2l7 1h8l8 1h7l9 -2l7 2h10l7 -2h8l8 2
h14l8 4h9l9 2l8 2l6 4h8zM456 325v-24l-2 -10v-7l2 -7l-1 -8l-1 -7l1 -10l-1 -6v-10l2 -6v-7l-2 -9l1 -9l-1 -6v-8l2 -9l-10 -7l-14 6h-9l-8 2l-7 4h-9l-24 3h-8l-7 1l-7 -1l-9 1l-7 -1l-9 -1l-8 1l-9 -1h-8l-6 2l-9 -2h-8l-7 1l-10 1h-8l-6 -2l-9 2l-7 -1l-10 -1l-6 1
l-10 -1h-14l-10 1l-8 -1l-6 1l-9 1l-9 -1l-6 -1h-17l-8 -4l-7 -2l-9 -1l-9 -3h-6l-10 -3l-6 5l1 9l-1 8v9l1 6l-1 8v8l-1 8v15l1 10v16l1 5l-2 10v14l2 8l-1 8l7 5l8 -1l9 -3h8l7 -2l7 -3l9 -2l15 -1h8l8 -2h9l7 2l8 -2l9 2l16 -2l8 1l7 1l8 -2l10 1h40l6 1l9 -1l7 1h9l9 -1
l8 -1l6 2l9 -1h17l6 -1h9l8 2l16 2l14 4l8 1l8 3l9 2h8z" />
    <glyph glyph-name="greater" unicode="&#x3e;" horiz-adv-x="415" 
d="M61 792l-7 -4l-6 -6l-4 -6l-6 -5l-6 -8l-5 -5l-7 -4l-1 -13l3 -8l8 -14l5 -5l5 -8l3 -6l5 -8l3 -6l5 -9l2 -6l4 -7l5 -7l5 -6l4 -9l3 -6l6 -8l3 -5l4 -6l3 -7l6 -8l4 -6l2 -7l6 -8l2 -6l4 -9l7 -6l4 -7l2 -7l6 -8l3 -7l3 -6l4 -7l6 -6l2 -8l6 -6l3 -6l3 -8l6 -8l5 -6
l2 -7l5 -7l3 -7l5 -7l5 -8l3 -6l5 -7l4 -7l3 -7l5 -8l2 -7l6 -5l-1 -13l-4 -9l-5 -7l-4 -7l-4 -6l-4 -8l-3 -7l-5 -5l-4 -9l-3 -7l-3 -6l-6 -6l-2 -8l-6 -5l-4 -7l-4 -9l-5 -6l-4 -8l-2 -7l-5 -5l-4 -9l-12 -21l-4 -5l-5 -8l-3 -7l-5 -6l-5 -6l-3 -9l-5 -5l-4 -7l-3 -7
l-3 -9l-6 -5l-3 -8l-4 -6l-3 -8l-4 -7l-6 -6l-4 -6l-4 -8l-5 -8l-4 -6l-4 -8l-2 -5l-6 -9l-4 -5l-2 -7l-4 -9l-4 -6l-6 -8l1 -10l18 -18l5 -6l8 -7l4 -4l6 -7l11 2l4 6l5 5l6 8l3 6l5 7l7 7l3 4l5 7l6 7l4 8l4 6l5 6l5 6l6 6l4 6l4 8l5 7l5 5l3 8l5 4l5 9l6 5l4 8l4 5l5 8
l6 6l5 4l4 7l6 6l4 8l4 6l5 8l5 5l5 6l3 6l5 8l5 5l6 7l3 7l5 6l7 8l4 4l5 9l4 5l4 7l4 7l5 7l6 4l4 7l6 7l3 8l7 4l5 8l2 7l5 5l15 20l6 5l6 5l5 5l6 5l4 7l8 6l-1 9l-7 5l-4 8l-7 4l-4 5l-6 7l-5 6l-9 10l-6 6l-5 8l-5 5l-4 7l-4 7l-6 8l-4 6l-6 6l-3 5l-5 7l-6 7l-4 6
l-4 8l-5 4l-5 7l-5 7l-6 7l-9 13l-4 7l-6 7l-4 4l-3 7l-6 8l-6 5l-3 7l-4 6l-6 6l-4 7l-4 6l-7 8l-5 5l-5 7l-2 7l-7 5l-5 8l-4 5l-4 9l-6 5l-5 7l-4 7l-5 6l-5 6l-3 6l-7 6l-3 8l-5 6l-5 6l-5 6l-3 7l-5 8l-7 5l-5 8l-2 6l-7 6l-4 7z" />
    <glyph glyph-name="question" unicode="?" horiz-adv-x="470" 
d="M369 755l6 -7l6 -5l4 -8l7 -5l4 -4l8 -7l6 -6l5 -7l4 -5l5 -14v-7l2 -9l-2 -9l2 -6l-1 -9l1 -8l-1 -9v-15l1 -7l-1 -10l1 -7l-2 -9l2 -14l-2 -9v-17l1 -8l1 -9v-7l-2 -8v-9l1 -6l-1 -10l1 -8v-8l1 -7l-2 -9l1 -7v-8l1 -9l-2 -7v-17l2 -8l-2 -6l-3 -16l-7 -4l-4 -8l-6 -4
l-7 -6l-6 -8l-5 -6l-5 -5l-7 -6l-5 -6l-15 -4l-8 -2h-8l-8 1l-7 1l-9 -2l-9 1h-15l-14 -5l-4 -4l-7 -14l1 -7l-1 -8l-2 -15v-8l-2 -9l-3 -7l-3 -9l-4 -16l-12 -5l-8 -1l-6 1l-9 -2l-7 1l-8 1h-16l-9 -2h-8l-11 7v9l-4 9l-3 6v9l-4 7l-2 8l-4 17l1 7l-1 8l1 7l1 8v17l-2 7v9
l2 6l-2 18l2 6l5 15l7 5l5 4l6 8l6 4l4 5l6 6l6 6l5 6l6 5l15 8l7 -1l7 1l8 -1h24l10 -1h7l14 7l3 5l6 12l-2 7v15l1 9l-1 9l1 6l1 10l-1 8l1 6l-1 10l-1 6v8l2 10v14l-2 9v9l2 7l-8 14l-16 8l-8 -1l-8 2h-7l-8 -1l-9 1l-6 -1h-24l-10 -1l-12 -3l-6 -5l-5 -14l2 -9l-1 -8
v-17l3 -15l1 -7l5 -10l2 -6l3 -9l-7 -7l-7 -1l-7 1l-8 -1h-10l-6 1h-17l-8 -1l-8 1l-8 -1h-8l-7 -1l-10 1l-6 -1l-10 1l-8 -1h-14l-5 10l1 7l3 9l4 6l3 9v15l2 8l-2 8v10l1 7v9l1 8l-1 6l1 8v16l-2 8l1 10v7l-1 9l6 13l14 12l4 6l7 5l5 5l6 6l4 6l7 6l6 7l12 6l9 -2h8l8 1h9
l8 -1l6 2h9l9 -2l8 2l6 -1l8 -1l8 2l9 -1l8 1l7 -1l10 1l8 -1l8 1l7 -2l9 1l7 -1l7 2l8 -1l9 -1h15l8 2l9 -1l8 -1l8 2zM168 176l9 -2h23l8 2l8 -1l8 1h8l8 -2l15 -4l4 -6l6 -6l5 -4l6 -6l6 -6l5 -6l6 -12l-1 -8l1 -9l-2 -7l2 -9l-1 -7l-1 -9v-7l2 -8v-8l-5 -13l-8 -6l-4 -7
l-6 -6l-11 -9l-6 -5l-14 -7h-6l-8 -1l-8 1l-9 -1h-25l-7 2l-9 -1l-13 7l-5 3l-4 8l-7 5l-5 4l-7 7l-5 6l-5 12l1 8l-2 8l2 7v8l-1 8l1 9v8l-1 7l1 9l4 15l5 5l7 6l4 4l6 7l6 4l6 5z" />
    <glyph glyph-name="at" unicode="@" horiz-adv-x="810" 
d="M720 -10l-1 -15l-2 -7l-1 -7v-10l-3 -6v-8l-2 -16l-1 -10v-6l-4 -18v-6l-8 -9l-10 1l-7 -1l-7 1l-9 -1l-9 1l-6 -2h-10l-7 1h-8l-7 -1l-10 1h-15l-9 1l-7 -1l-8 1h-8l-9 -2h-8l-15 2l-10 -2l-6 1h-9l-7 1l-9 -2l-7 1h-9l-9 1h-6l-10 -2h-30l-9 1l-8 -1l-9 2l-7 -2h-9
l-6 2h-10l-8 -2l-9 1h-7l-8 -1l-8 2l-7 -1h-9l-8 -1l-7 1h-10l-7 1l-9 -1l-8 -1h-6l-9 2h-25l-6 -1l-8 1l-9 -2l-8 2h-9l-7 -2l-21 5l-14 14l-4 4l-7 6l-5 7l-6 6l-4 4l-7 6l-7 7l-5 15l1 8l-2 7v9l2 6l-1 9l1 9l-2 6l2 10l-2 8v8l2 7l-1 7l-1 8l2 10l-2 14v8l2 8l-1 9v16
l-1 9l2 7v25l-2 8l1 6l-1 9v9l2 7l-2 9v6l2 9v17l-2 6l2 8v17l-1 7v9l-1 8v16l1 7l1 9l-2 9l1 9l-1 6l1 9v9l-1 6l2 10l-2 7l2 8l-2 7l1 10l-1 7v17l2 8v8l-1 8v6l-1 9v7l1 9l1 8v8l-2 9l2 7v9l-1 6v16l-1 9v23l2 9v8l-1 8l1 9l-2 8v8l2 7l-2 8l1 8v8l1 7l-2 8v10l6 12
l14 13l5 5l5 6l6 5l6 5l6 8l4 5l7 6l12 6l9 -2h33l6 1h9l7 1l10 -2h8l8 2h8l8 -2h8l6 1l8 1l9 -1h7l7 1h8l9 -1l8 1l9 -1h6l8 1l10 -2l8 2h8l16 -2l7 2h15l8 -1h9l6 -1l10 2l14 -2h16l10 2h38l7 -1h16l8 1l9 -1l7 1l8 -2h8l8 2h16l9 -2l7 2l8 -2h10l13 -5l4 -6l8 -6l3 -4
l6 -7l7 -5l5 -7l6 -4l7 -5l6 -8l4 -12l-1 -7l1 -10l-1 -6v-16l1 -9l-1 -8l2 -16l-1 -9v-7l1 -7v-16l-1 -8v-8l1 -10l-1 -8l-1 -7v-8l1 -8l-1 -8v-6l1 -9l-1 -8l2 -16v-7l-1 -10v-8l1 -7l-1 -9v-7l1 -9l-2 -6v-10l2 -7v-16l-2 -7l1 -9l1 -7l-1 -7v-9l1 -8l-2 -9v-7l1 -8v-7
l1 -8l-2 -9l1 -9l1 -8l-1 -6v-9l1 -8v-8l-2 -7l1 -9v-8l1 -8v-9l-5 -12l-6 -5l-7 -7l-6 -5l-6 -7l-6 -4l-6 -7l-4 -4l-5 -7l-8 -5l-13 -4h-6l-10 -2h-15l-9 2l-7 -1h-9l-8 -1h-32l-6 2l-10 -1l-6 -1h-9l-8 1l-8 -1l-7 1l-10 -1l-7 1l-8 -1l-8 1l-7 1l-9 -2h-7l-10 1h-15
l-7 1l-9 -2h-7l-10 1l-8 -1l-7 2h-9l-6 -1h-8l-10 -1h-22l-13 6l-6 6l-8 5l-6 7l-6 13v16l2 9l-2 7l1 9l-1 9l1 8l1 6l-2 10l1 7v7l-1 9l2 8l-2 7l2 8l-2 18v6l1 11l-1 6v10l1 6l1 9l-2 8l1 9l1 6v8l-2 8v9l2 8l-1 9v24l-1 8l2 6l-2 9v7l8 16l4 4l6 7l8 5l14 6l7 2l9 -1l6 1
h18l7 -1l8 -1l9 1l6 1l8 -2l9 2l8 -2l10 2l6 -2h9l8 1l9 1h6l8 -2l9 2l7 -2l9 2l13 -7l8 -6l5 -7l7 -4l3 -14l1 -8l-1 -9l1 -9l1 -6l-1 -9l1 -8v-9l-1 -7l1 -8l-1 -8v-7l1 -8l-1 -8v-8l-1 -9l2 -16l-1 -9l1 -9l-2 -6l2 -9l-1 -9l1 -8v-23l-1 -8v-7l5 -15l5 -4l14 -4l5 -2
l8 1l7 1l13 3l3 5l5 13l-1 7v16l2 9v9l-2 6l2 8l-2 10l1 6v8l-1 9v16l2 7l-2 10l2 7l-1 9l-1 8v8l2 8v8l-1 6l1 9v8l-2 6l1 9v9l-1 8l2 7v23l-2 10l2 6l-2 9l1 7v8l1 9v24l-2 8l2 7v8l-1 9v7l-8 14l-14 8l-9 1h-6l-8 -2l-8 2h-17l-9 -2h-8l-7 2l-9 -2h-24l-8 2h-14l-8 -2h-8
l-10 2h-6l-8 -2l-10 1l-7 -1l-8 2l-9 -1l-6 1l-10 -2h-15l-9 1h-14l-8 1l-8 -2l-8 2l-8 -1h-8l-9 -1l-7 2h-25l-16 -7l-8 -17l1 -6l-1 -10l2 -8v-14l-2 -8l2 -9v-8l-2 -8l1 -7l1 -8l-2 -9l2 -8v-15l-2 -9v-25l1 -6l-1 -10l1 -7l-1 -9v-8l1 -8v-9l-1 -7l1 -7v-18l-1 -7l2 -7
l-1 -10l-1 -8l2 -14l-2 -8v-10l2 -14v-10l-1 -7v-16l1 -8l-1 -8v-7l1 -9v-25l-1 -8l1 -8v-32l-1 -7v-10l1 -6l-2 -8l2 -10l-1 -6v-9l-1 -7v-10l2 -8l-1 -8v-7l-1 -8l2 -16l-1 -7l4 -13l6 -6l13 -4l6 -3h9l9 3h8l7 -3h8l9 3l6 -3l10 3l8 -2l6 2h9l7 -2l10 -1h6l10 1l6 -1h8
l9 3l7 -2l7 2l9 -2l7 2h24l18 -3l8 3l7 -3h7l10 1h22l10 -1h8l8 3l7 -2l8 -1l6 1l9 2h7l8 -2l8 2h17l9 -2l6 -1h33l9 3l8 -3l8 1h7l8 2l8 -2l9 -1zM376 230l5 -5l12 -5h15l18 5l5 6l6 14l-1 8l2 14l-1 10l1 8l-1 7l-1 9l2 7v8l-1 9v7l-1 7l2 10l-2 6v9l1 7v8l-1 8l-3 15
l-6 5l-13 3l-5 1l-7 1l-7 -2l-15 -5l-3 -5l-6 -13l1 -8v-16l-2 -8l2 -6l-1 -9v-8l1 -7l-2 -9l2 -9v-23l-2 -7l1 -8l-1 -9v-7l1 -8z" />
    <glyph glyph-name="A" unicode="A" 
d="M492 44l5 -9l2 -7l6 -8l2 -7l5 -7l-4 -7h-8l-9 1l-7 -2l-10 2l-8 -1h-22l-9 1l-9 -2h-7l-8 2l-8 -1l-8 1l-16 -2l-7 2h-9l-6 6l3 8l3 8l1 16l-2 7v8l-3 6l-2 8l-3 10l-2 7l-1 8l-1 6l-3 10v8l-3 6l-1 7l-4 10l-5 11l-6 5l-11 6l-10 -2l-7 1h-8l-7 1l-8 -2l-8 2l-7 -1h-17
l-7 1h-7l-10 -2l-8 1h-7l-12 -4l-4 -7l-8 -11l-3 -8l-2 -8l-1 -8l-2 -8l-2 -6l-1 -9l-2 -8l-2 -6l-2 -10l-1 -7l-2 -7l-4 -9l-2 -6l2 -17l4 -6l2 -9l-4 -6h-8l-9 -1l-9 1l-6 -1l-10 1l-7 -2l-8 2h-9l-7 -1l-9 -1l-7 2h-7l-9 -1l-7 -1l-10 1h-8l-7 1h-9l-4 8l9 12l4 10l1 5
l6 7l3 17l4 7l1 9l1 8l2 7l2 7l3 7l2 9l1 8l2 8l3 9l1 6l2 8l2 7l2 8l2 9l1 7l3 9l1 16l3 8l1 8l3 5l1 9l2 9l1 7l4 7l1 8l1 8l2 7l3 9l1 9l2 7l3 7v8l4 7v8l3 9v8l3 6l3 8l1 8l2 8l2 8v10l2 6l3 7l3 9l1 9v7l3 8l1 6l3 10l1 7l2 9l2 7l1 6l3 8l3 10l1 7v9l2 7l3 7l2 8l3 9
l1 8l2 8l1 7l3 8v6l2 8l4 8l-1 8l2 9l2 6l3 8l3 9l1 9l2 7l1 7l3 7l2 10v6l2 9l-1 16v5l-4 8l-1 7l-3 9l4 8l8 -1h8l9 -1h9l7 1l9 -1l6 2l9 -1h7l7 -1l8 2h33l7 -1l7 1h24l7 -8l-2 -8l-4 -8l-2 -7l-1 -7l-2 -15l3 -9l2 -6v-9l3 -9l3 -5l1 -9v-9l3 -7l2 -7l3 -9v-7l3 -7l1 -9
l2 -9l2 -6l1 -8l4 -9l-1 -6l4 -10v-6l3 -8l3 -9l1 -7l2 -7l1 -8l3 -9l1 -8l1 -6l5 -16l1 -8l1 -10l4 -6v-9l5 -24l3 -6l2 -7l3 -10v-6l2 -10l1 -7l4 -7v-8l4 -8l1 -9l1 -6l3 -10v-5l3 -10l2 -8l1 -7l3 -9l2 -7l1 -7l1 -9l3 -8l2 -7l1 -9l3 -8l1 -5l1 -10l4 -7v-9l3 -6v-7
l3 -10l1 -7l2 -8l4 -8v-7l3 -7l2 -9v-8l3 -8l3 -7l-1 -8l2 -7l3 -8l3 -10l1 -7l3 -8zM218 294l14 -5l8 -1l9 1l7 1l11 -1l7 1h17l14 4l4 12l-2 10v6l-3 16l-4 8l-2 9l-1 8l-3 14l-1 16l-2 8l-3 8l-2 9l-1 14l-3 8l-1 8l-3 8l-2 9v6l-3 10l-1 6l-1 7l-3 8l1 8l-2 8l-2 10
l-1 8h-3l-3 -9l-1 -9l-2 -8l-2 -7l-1 -7l-2 -8l-1 -8l-2 -9l-1 -8l-1 -7l-3 -9v-5l-2 -8l-3 -9l-2 -8l1 -8l-2 -9l-1 -5l-4 -9v-7l-1 -8l-2 -9l-2 -8l-1 -8l-2 -7l-3 -9v-8l-2 -7l-1 -8z" />
    <glyph glyph-name="B" unicode="B" horiz-adv-x="482" 
d="M52 720l-2 6l-5 18l-4 6l4 10h10l16 -2l7 1l8 -1l9 1l8 -1l6 1l9 1l6 -1l9 1h7l9 -1l8 1l7 -2l10 2h8l8 -2l6 2h10l5 -1l8 -1l10 2l8 -1h6l9 -1l7 1l8 -1h10l6 2h15l8 -2l9 2h8l8 -1l7 -1l8 1l9 -1l9 1l11 -5l7 -7l5 -3l8 -6l4 -6l7 -7l5 -5l6 -7l5 -4l7 -5l6 -16l-1 -6
l2 -8l-2 -10l1 -6l-1 -8l1 -8l-1 -9l2 -8l-2 -9l1 -6l1 -10l-2 -8v-6l1 -10v-7l1 -8v-25l-2 -7l2 -8l-1 -7l-1 -8l2 -10v-14l-2 -10l1 -6l1 -9l-7 -12l-5 -7l-8 -6l-6 -6l-4 -6l-18 -17l-14 -12l2 -9l6 -6l5 -8l11 -11l6 -4l6 -7l7 -7l6 -4l6 -7l5 -12v-17l2 -9l-1 -6l1 -9
l-2 -8l2 -7l-1 -7v-18l-1 -7l2 -8l-2 -7v-16l2 -17l-1 -8l1 -7l-2 -7l1 -8v-24l-1 -7l2 -8l-2 -10l1 -8l-1 -7v-7l1 -10l-7 -13l-6 -6l-6 -4l-6 -7l-6 -4l-3 -7l-7 -5l-7 -6l-4 -7l-7 -6l-14 -6l-8 1h-8l-8 -1l-8 2l-8 -2h-6l-9 2l-8 -2l-9 2l-7 -1l-7 -1h-16l-7 2h-17
l-9 -2h-6l-8 2l-9 -1l-6 1h-16l-9 -2l-7 2h-9l-9 -1l-8 1h-16l-6 -2l-9 2l-8 -1l-7 -1l-7 2l-9 -2l-7 2l-10 -2l-7 2l-9 -1l-4 10l2 8l2 6l4 9l2 7l3 16l1 8l1 9l-1 8l-1 7v8l2 18v14l-1 8v8l1 10l-1 6v8l1 8l-2 9v7l1 9l-1 7l1 9v7l1 10l-1 6v9l1 8l-1 8v23l1 8v9l-1 8
l-1 9l2 7v9l-2 6v9l1 7l1 10l-2 6v24l1 8l-1 10v24l2 7l-1 8l1 8v9l-1 7l1 8l-2 7v9l1 8v7l1 10v7l-1 8v7l-1 8v9l1 7l1 9l-2 8l2 7l-2 8l2 8l-2 16l2 9l-2 9l2 7l-1 9l-1 6v10l1 7l-1 8l1 7zM181 613v-18l-2 -8v-7l2 -6l-1 -9l1 -9l-1 -8v-15l1 -6l-2 -8l2 -9l-1 -8l1 -6
l-2 -8l2 -9l-2 -9l6 -11l4 -6l16 -3h15l7 -2l8 2l9 -2l9 1h8l7 -1l8 1h7l14 6l5 3l6 13l-1 8v24l-1 8v8l2 14v8l-1 7v10l1 8l-2 7l1 7l1 9l-2 7l2 16l-5 13l-6 4l-21 6h-7l-8 -1l-8 1h-8l-10 -1h-15l-8 1l-7 -1l-15 -5l-5 -4zM302 311l-4 6l-13 5h-10l-6 -1h-8l-8 2l-9 -2
l-8 1l-7 1l-8 -2l-10 1l-8 -1l-12 -5l-6 -4l-6 -11l1 -10v-14l-1 -9v-16l1 -8l1 -6l-1 -9l1 -7l-1 -8l1 -8v-9l-2 -6v-10l2 -7v-7l-1 -9l-1 -7l6 -13l6 -7l12 -5l8 2h32l9 -2l7 1h18l6 1l13 5l5 5l7 13v8l-2 6v8l2 9v9l-2 6v8l2 9v6l-1 10l-1 7l2 15v8l-2 7l1 10l1 7l-1 8v7
z" />
    <glyph glyph-name="C" unicode="C" horiz-adv-x="478" 
d="M104 6l-10 10l-8 5l-5 7l-5 5l-7 7l-6 4l-6 6l-6 7l-4 13v9l1 8l-2 7l1 10l-1 6l2 10l-2 7l2 7v10l-2 7v7l2 10v6l-2 8l2 9v7l-2 8l1 10l1 8l-1 7l1 8l-1 8l-1 9l2 8l-2 15l1 10l-1 8l1 6l1 10l-2 6l1 8v10l-1 8l2 7v9l-2 7v9l1 8l1 7l-2 8l2 7l-1 9v9l1 8l-1 7l-1 9l1 7
l-1 7l1 8l1 10l-1 7l-1 9l2 7l-1 10l1 7v9l-1 7l-1 8v31l1 9v8l-1 8l2 7l-1 9v7l1 9l-1 7v8l-1 8v9l2 7v8l-2 8l6 15l7 7l4 5l7 4l7 8l9 9l8 7l5 6l7 4l13 5h7l8 2l7 -1l9 -1h8l9 1h7l8 -1h9l5 2l10 -2l7 1l9 1l6 -1h10l7 1l9 -1h8l6 1l9 -2h8l7 1h7l10 1h7l16 -2h8l8 2
l7 -2l15 -3l5 -8l7 -5l3 -4l6 -8l7 -5l7 -5l4 -5l6 -6l5 -5l7 -16v-8l-2 -6l2 -10l-2 -6v-17l2 -8l-1 -7v-10l1 -7l-2 -7l1 -9l-1 -9v-8l3 -16l5 -8l1 -7l4 -8l1 -9l-5 -7h-7l-9 -1l-7 2h-7l-9 -1h-17l-8 -1l-7 2l-9 -2l-8 2l-7 -2h-15l-10 1l-7 -1l-7 1l-10 -1l-5 10l3 7
l3 9l3 6l4 8l3 19v7l-2 9v9l1 7l-5 12l-5 6l-12 5l-8 1l-7 -1l-10 1l-9 -1l-7 -1h-9l-9 1l-6 1h-9l-7 -2l-15 -3l-6 -6l-3 -12l-2 -8v-23l2 -18l-1 -8l1 -6l-2 -18l2 -6v-9l-1 -8v-24l1 -7l-2 -10v-7l2 -15l-1 -9l-1 -8v-8l1 -6l-1 -9l2 -8l-1 -7l1 -8v-8l-1 -8l-1 -9v-15
l2 -9l-2 -8l2 -8v-17l-1 -5l-1 -8l2 -10v-6l-2 -9l1 -9v-7l-1 -9l2 -8v-7l-1 -8v-15l-1 -9l2 -9l-2 -7v-17l2 -8l3 -13l7 -4l13 -6h7l9 2l7 -1h11l7 -1h9l7 1h10l7 -1l22 6l3 5l5 14l-1 8v9l1 8v7l-2 17l-3 8l-4 7l-2 7l-4 9l6 9h7l10 -2l6 1h40l10 1l6 -1l9 1l9 -2l6 2h9
l8 -2l7 1l10 1l7 -1l5 -7l-4 -10l-2 -8l-3 -6l-2 -9l-4 -16v-25l1 -8l1 -7l-2 -9l1 -6v-24l1 -9v-7l-1 -10l1 -7l-6 -14l-5 -6l-7 -5l-4 -7l-6 -5l-8 -7l-5 -6l-5 -4l-5 -6l-7 -7l-14 -6l-8 1h-16l-8 2l-6 -2h-16l-10 -1l-8 3h-6l-9 -2l-6 -1h-8l-10 1l-6 2l-8 -2l-10 2h-6
l-8 -3l-10 1l-6 -1h-9l-6 3l-10 -3l-7 3l-7 -3l-8 3l-10 -3h-6l-8 1z" />
    <glyph glyph-name="D" unicode="D" horiz-adv-x="482" 
d="M51 719l-5 16l-3 8l-3 9l6 7l7 1l10 -2l7 2l8 -2l7 2l9 -1l8 -1l8 1l7 -1l8 1l7 -1h10l8 2h7l7 -1l10 1l7 -2l9 1h6l8 -1l7 2h9l7 -2l9 2l16 -2l16 2l8 -2l8 1l6 1l16 -2l8 2l18 -2h7l8 1h15l14 -6l7 -5l4 -6l8 -4l4 -7l6 -6l7 -4l5 -8l5 -3l6 -8l7 -13v-8l1 -9l-2 -8
l1 -7l-1 -8v-8l1 -7v-9l1 -8l-2 -9v-7l2 -9v-22l-1 -10l1 -8l-2 -14v-16l2 -16l-2 -8v-9l1 -8v-9l1 -8l-1 -7l-1 -9l1 -8v-9l1 -8l-1 -6v-17l-1 -9l1 -7v-33l1 -7v-9l-2 -7v-9l2 -8v-6l-2 -9l2 -7l-1 -10v-25l-1 -6l2 -9l-2 -9l2 -7l-2 -9v-6l2 -8l-1 -9v-17l-1 -6l2 -8
l-2 -8v-24l2 -10l-1 -8l1 -8v-8l-1 -8v-7l-1 -9l-4 -13l-6 -6l-8 -6l-5 -6l-6 -5l-4 -6l-7 -7l-5 -3l-7 -7l-6 -5l-14 -8l-8 2h-7l-8 -1l-9 -1l-7 2l-9 -2l-6 2l-9 -1l-8 -1h-15l-7 1l-10 1l-7 -2l-9 1l-8 -1l-7 1l-9 -1l-6 2h-8l-8 -1l-9 -1l-8 2l-6 -2l-8 2l-10 -1l-8 -1
l-8 2h-8l-8 -1l-6 -1l-8 2l-8 -1l-9 -1h-16l-6 1l-9 -1h-15l-7 10l2 7l5 8l2 10l1 7l4 15l-2 8l1 9v17l-1 8l2 6l-2 10v7l2 7l-2 9l1 9v6l-1 8l1 8l-1 8l2 8v10l-1 7v8l1 7l-2 9v17l2 7l-2 7l1 8l-1 8v8l2 10l-1 7l-1 8v8l1 7v10l-1 6v18l2 7l-1 9l1 8l-2 6l1 8l-1 9l2 9
l-2 14l1 10l1 8v6l-2 10v15l2 7v17l-2 9l2 7l-2 9l1 7v15l1 10l-2 6v10l1 7l-1 8l1 9l-1 7l1 8l-1 7l2 8l-2 9v7l1 8l-1 8l1 9l1 7v8l-2 10v8l2 7zM179 612v-9l2 -8l-2 -6v-17l1 -8l-1 -7l2 -9l-2 -7l2 -9v-7l-1 -10l1 -6v-9l-1 -7v-8l1 -10l-1 -7l-1 -8v-16l2 -8l-2 -7
l2 -9l-1 -8l-1 -6l1 -10l-1 -8v-6l2 -16l-1 -8v-25l-1 -7l2 -9l-1 -7l-1 -8v-25l2 -7l-2 -9l2 -6l-1 -9l-1 -8l2 -7l-2 -9l1 -8l1 -7l-2 -9v-9l2 -14l-2 -16l2 -8l5 -13l4 -5l13 -7l7 1l9 -1l7 1h25l8 1l8 -2l9 1l7 -1l13 6l6 4l4 13l1 9v15l-2 10l2 8v7l-2 9v16l1 8v7l-1 8
l2 8v8l-2 7l1 8l1 10v31l-1 6l-1 9l1 7l-1 9v9l2 6l-1 9l-1 8l1 8l-1 9v7l2 9v6l-1 8l-1 9l2 16v7l-1 8l-1 9l1 7l-1 7l2 8l-2 8l2 10l-1 6l1 10l-1 8l-1 6v10l1 7v7l-1 8l1 8v10l-1 7v8l-3 11l-7 7l-13 3l-7 2h-9l-7 -1h-9l-7 1l-7 -1h-17l-9 -1l-7 2l-13 -7l-5 -3z" />
    <glyph glyph-name="E" unicode="E" horiz-adv-x="456" 
d="M412 -2h-10l-6 2h-9l-8 -1h-9l-8 1l-7 -2h-9l-7 2h-9l-6 -1l-7 1l-9 -1l-7 -1l-8 1l-9 -1h-9l-7 2h-8l-9 -1l-8 -1l-6 2h-15l-10 -2l-7 2l-9 -1l-7 1l-9 -2h-6l-10 1l-7 1h-9l-7 -2l-9 1h-7l-8 1h-8l-7 -2l-7 1l-8 -1l-8 2l-9 -2l-8 2h-9l-6 -2l-6 9l2 8l3 8l3 8l2 8
l4 18l-2 8v8l2 7l-1 9v8l1 8v7l-1 7v10l1 7l-1 7l1 10l-2 7l1 9v14l-1 10l2 8l-1 8l1 7v25l-2 8v16l2 8l-2 6l2 10l-1 6l-1 9v8l1 9l1 6l-1 10v16l1 8v16l-2 8l2 6v10l-1 8l-1 6l1 10l-1 8v8l1 7l-1 9v7l2 9v16l-1 8l-1 7v16l1 9v24l1 7l-2 8l1 9l1 6v18l-1 8v23l-1 7l1 9
l-1 8l1 8l1 9l-2 8v24l-2 15l-2 9l-3 6l-5 18l5 6l9 2l7 -1l8 1h16l9 -1l8 -1l8 1l7 -1l7 1l7 1l8 -2l8 1h8l8 -1h9l9 2l6 -2l9 2h9l7 -1h16l6 -1l10 2h6l10 -1l7 1h7l9 -2l9 1h7l9 -1h7l6 1h9l8 1h7l9 -2l7 1l10 -1h6l10 2l7 -2l7 1l9 1l9 -8l1 -9v-9l4 -8l1 -7v-6l1 -9
l2 -8l1 -7v-9l2 -6l2 -8l2 -9v-7l1 -9l2 -8v-8l-4 -4l-7 2l-8 1l-8 2l-7 4h-9l-15 2l-7 2l-10 -1l-6 1h-18l-6 -2l-9 2h-9l-9 -1l-6 1h-8l-10 -1l-6 1l-8 -1l-10 -1h-9l-7 2l-9 -1l-6 1l-8 -2h-8l-9 2l-14 -6l-4 -4l-6 -14v-14l-1 -9v-8l2 -8v-14l-1 -9l1 -8l-1 -9l1 -6
l-2 -9l2 -6v-17l-1 -8l1 -7l-1 -8l6 -15l5 -4l12 -6l7 2l10 -2l6 2l9 -1h9l7 1l17 3l7 2l10 1l7 5l7 2l11 -5l-2 -7l2 -8l-1 -8l-1 -10v-16l1 -7l-1 -9l1 -7l1 -9l-1 -7l-1 -9l2 -6l-1 -10l-1 -8v-8l2 -8v-7l-11 -6l-7 5l-16 3l-7 3l-17 4l-8 1h-9l-8 -2h-7l-8 1l-9 -1
l-13 -3l-4 -6l-6 -11l2 -8l-2 -9v-8l2 -9l-2 -6l2 -9l-1 -6v-10l1 -7l-2 -15l2 -7l-1 -9l-1 -8l2 -7l-1 -9v-6l1 -8l-2 -10l6 -12l4 -5l13 -4h16l8 -1l9 1h7l8 -2l10 2h17l6 -1l10 -1l7 2h16l9 -2l8 2h9l8 -1l7 -1h16l23 4l9 1l8 3l6 1l8 4l7 1l5 -4l1 -10l-1 -6l-3 -8
l-2 -9l1 -8l-3 -9v-8l-3 -8v-6l-1 -9l-1 -8l-2 -7l-1 -8l-3 -9l-1 -7v-9z" />
    <glyph glyph-name="F" unicode="F" horiz-adv-x="456" 
d="M52 720l-3 9l-2 6l-2 10l-4 7l4 9h16l8 -2l8 2l10 -1h8l8 -1l7 2l8 -1h7l8 1l7 -1h8l8 1h8l9 -2l9 2l8 -2l8 2l6 -1l10 1h13l8 -2l10 1h7l8 -1l9 1h7l9 1l7 -2h7l8 2l8 -2h9l6 1h10l8 -1l6 1l8 1l8 -1l8 1h8l8 -2h8l8 2l9 -9l2 -7v-8l4 -9l1 -8l1 -8l1 -6l1 -8l2 -7v-8
l3 -8v-8l1 -9l2 -7l2 -7l1 -9l-1 -9l-6 -3h-5l-8 3l-9 2l-7 3h-8l-16 3h-15l-7 -1l-8 2h-9l-7 -1l-9 1h-16l-10 -1h-8l-6 -1l-8 2h-10l-8 -1h-9l-8 1l-7 -1l-9 1h-22l-16 -5l-4 -5l-5 -15l-1 -8v-6l2 -8l-2 -10l2 -14l-1 -9v-8l-1 -9v-8l2 -6v-9l-2 -8l1 -8l-1 -8l2 -8v-15
l4 -15l4 -5l14 -4l7 -1l10 1l6 -2h8l8 1l8 -1l16 3l9 5l7 1l9 4l7 1l8 -5l1 -8l-1 -7l2 -8l-1 -9v-7l1 -7l-2 -9l1 -7l1 -8l-2 -10l1 -6v-8l-1 -10l2 -8l-1 -8l-1 -6l1 -8l1 -9l-8 -6l-9 4l-7 4h-10l-6 3l-17 3h-8l-9 1l-7 1l-8 -2h-16l-12 -3l-5 -5l-6 -14l1 -8v-16l-1 -7
v-23l-1 -9l1 -9v-6l1 -9v-23l-2 -17l2 -8v-6l-2 -8l1 -9l-1 -7l1 -8l-1 -9v-16l2 -9v-6l-1 -8l-1 -10v-6l4 -18l2 -7l4 -7l1 -9l4 -8l-4 -9l-8 -1l-9 1l-7 -1l-8 2l-9 -2l-8 1h-14l-9 1h-9l-8 -1l-8 1l-6 -2l-9 2l-6 -2h-26l-4 10l3 8l1 9l4 8l4 6l3 16l-2 10v6l2 8l-2 9
l2 8l-2 7v17l1 8v9l1 8l-2 16v7l2 16l-2 7l2 9l-1 8l-1 9l1 7l-1 8v9l1 6v9l-1 9l1 6v16l1 9l-1 8l-1 7v26l1 6v18l1 6l-2 10l2 7l-1 7l-1 9v15l2 9l-2 7l1 8l1 10l-1 7l1 8l-2 8v15l2 8l-1 9l-1 7v9l2 7l-2 8l1 10l1 8l-1 8v8l1 6l-2 10l1 7l1 9l-2 8v7l1 8l1 7v10l-2 7
l2 7l-2 9l1 8v9l1 6v8l-1 8z" />
    <glyph glyph-name="G" unicode="G" horiz-adv-x="482" 
d="M104 4l-6 8l-6 6l-10 11l-11 10l-13 12l-5 7l-7 13l2 8v8l-2 9l1 6v9l1 8v15l-2 8l2 18l-2 7l2 7v8l-2 8v18l1 8v8l1 8l-1 8l-1 7l2 8v8l-1 9v7l-1 10l1 6v9l1 7l-1 9v24l-1 8l2 7l-1 10l1 7l-2 9l1 7v8l-1 8l1 9v16l1 7v7l-1 10v22l1 11l-2 7v8l1 9l-1 8l2 8l-2 8l2 7
l-2 9l1 7l-1 9l1 8v22l1 8l-2 8l2 9l-1 8l1 9l-1 6l1 9l-2 7v8l2 8l-2 9l6 13l7 7l6 6l5 5l7 7l3 5l6 6l7 4l7 5l4 6l14 6h23l10 1l7 -1h9l6 1l9 -1l9 1h21l10 -2l8 1l7 1l7 -1h9l8 -1h8l9 1l5 -1h8l18 2l7 -1h9l6 1h10l8 -2l8 1l13 -6l6 -5l6 -5l4 -7l7 -6l6 -4l5 -5l4 -8
l6 -5l7 -6l5 -13l1 -9v-8l-2 -7l1 -8l-1 -7l1 -9l-1 -7l2 -9l-2 -7v-8l1 -9l-1 -9l1 -8v-6l3 -18l3 -7l3 -9l1 -6l4 -8l-5 -10h-9l-6 2l-10 -1l-6 1l-10 -1l-8 1l-7 -2l-8 1l-9 -1l-7 2l-7 -2l-8 1h-10l-7 -1l-7 2l-9 -2l-7 2h-9l-4 8l2 8l4 7l3 9l1 7l2 18l2 7l-1 7l-1 9
l2 9l-6 13l-5 5l-13 4l-8 2l-7 -2l-9 2l-6 -2l-9 2l-10 -1l-8 1h-6l-10 -2l-6 1l-14 -4l-5 -5l-4 -13v-32l-2 -16v-8l1 -7l-1 -9l1 -8v-9l-1 -7l1 -7l1 -10l-2 -6v-9l1 -8v-24l-1 -8v-8l1 -6l1 -9l-2 -9l2 -8v-16l-1 -8l1 -7v-15l-1 -10v-8l1 -7v-9l-1 -8v-7l-1 -8l2 -6
l-2 -9l1 -7v-32l-1 -8v-9l1 -9v-15l1 -9l-2 -6l1 -9l1 -7l-2 -10v-14l6 -15l5 -3l13 -5l7 -2h8l9 2h9l8 -2l7 1l9 -1h8l7 2l10 -1l12 4l4 5l5 15l1 9v46l-2 10l1 7l-1 8l2 9v6l-2 10l1 6l-1 9l-7 7l-5 2l-9 -2l-6 1l-9 8l-3 8l-2 7v8l-2 9l-2 8l-3 9l-2 7v9l-1 7l-4 8l-2 7
l-1 9l-1 7l-3 10l7 7h8l9 1l7 -1h9l7 1h8l7 -1h10l6 1l8 -1l10 1l5 -2l10 1l8 1h6l9 -1l7 1l9 -2l7 1l8 1h34l4 -8l-2 -6l-3 -7l-2 -9l-1 -7l-4 -6l-2 -14l-1 -10l2 -7l-2 -8l1 -9l-1 -7v-25l2 -6v-9l-2 -8l1 -9l1 -8l-2 -7l2 -7l-2 -9l1 -7l1 -8v-8l-2 -8l1 -10l-1 -6v-16
l2 -9l-2 -7l2 -10l-2 -7l2 -7v-10l-2 -6l2 -10l-1 -8l1 -8l-1 -7l-6 -12l-5 -8l-5 -5l-6 -4l-6 -7l-6 -5l-7 -8l-3 -3l-8 -7l-6 -7l-11 -4l-10 1l-7 -1l-8 -1l-8 2l-9 -2h-23l-7 1l-8 1l-8 -1h-8l-9 -1l-7 1h-7l-10 -1h-6l-9 1h-8l-7 1h-15l-9 -2l-9 2l-7 -2l-7 2l-8 -2h-8
l-9 2h-9z" />
    <glyph glyph-name="H" unicode="H" horiz-adv-x="490" 
d="M51 720l-2 6l-3 8l-3 9l-1 7l4 11l7 -1h9l8 1h8l7 -1l7 1h16l9 -2l8 1l9 -1l8 2h7l8 -2l7 1l9 1h8l7 -1l6 -8l-5 -8l-2 -10l-2 -8l-3 -6l-3 -17l-1 -10l2 -7l-2 -7v-8l1 -9v-7l-1 -8v-10l1 -6v-8l1 -9l-1 -9v-7l1 -7l-1 -8v-26l-1 -7l2 -7v-8l-1 -10v-6l-1 -10l2 -6
l-2 -9v-8l1 -8v-8l5 -12l5 -6l15 -4l8 -2l7 1h7l8 1h9l9 -2l6 1l10 1l16 -2l11 6l7 5l3 13l2 8v8l-2 16v9l2 6l-2 10l2 8v38l-2 10l2 6l-1 10l1 6v8l-1 9v7l1 10l-2 8l1 6l1 8l-1 10l-1 7l1 9l1 6l-1 8l-2 17l-3 9l-3 7l-1 9l-3 9l4 8h17l7 1h9l7 -1l10 1h8l6 -2l9 1l8 -1
l7 1l9 -1l9 1l6 -1h9l7 2h8l9 -2l5 -8l-3 -9l-4 -7l-1 -8l-3 -9l-2 -16v-8l-1 -8v-7l-1 -8l2 -16l-2 -7l1 -8v-8l1 -8l-2 -10l2 -6l-2 -9l1 -9l-1 -8l1 -7l1 -9l-2 -8l2 -6l-1 -9l-1 -7v-8l1 -10l-1 -8l2 -8l-1 -6l1 -9l-2 -9v-7l2 -7v-25l-2 -8l1 -7v-16l1 -8l-2 -8l2 -9
v-9l-1 -6l-1 -10l1 -6l-1 -8l1 -10v-16l1 -6l-1 -9l-1 -8l2 -8l-1 -8l1 -8l-1 -9l1 -8l-1 -7v-9l1 -7l-1 -8v-17l-1 -7v-17l2 -8v-14l-2 -10v-7l2 -7v-10l-2 -6l2 -8l-1 -8v-10l1 -8v-7l-1 -7l-1 -10l2 -7l2 -16l4 -8v-9l5 -8l3 -8l-7 -7l-6 -1l-10 1l-8 1l-8 -1l-8 1h-24
l-8 -1h-6l-9 1l-8 -1l-8 1h-7l-8 -1h-8l-10 1h-7l-6 6l4 8l3 9l1 9l4 7l1 17l-1 9l1 6l-1 9v9l2 8l-1 6l-1 8v10l1 6l-1 9l1 9l1 8l-2 8v32l1 7l1 9l-2 7v8l2 9l-2 6l2 18v15l-1 9v16l-4 11l-7 7l-11 3l-8 1h-25l-8 -1l-7 2l-10 -2h-8l-6 1l-9 1l-15 -5l-4 -7l-4 -12l-2 -7
v-8l2 -10l-1 -8l1 -6v-10l-2 -7l2 -9v-7l-1 -7l1 -10l-1 -7l-1 -8v-8l1 -7l1 -10v-6l-1 -8v-17l-1 -9l1 -6l-1 -9l2 -9l-1 -7l1 -7l-1 -9l-1 -7v-16l3 -18l4 -7l3 -8l1 -8l3 -9l-4 -7l-8 -2l-7 1l-10 1l-7 -2l-9 2h-13l-10 -1l-6 -1h-25l-7 1h-7l-10 1h-16l-6 -1l-5 7l2 10
l3 6l3 10l2 7l4 17l-2 7l1 7v8l1 8l-2 10v8l1 8l-1 6l1 9l1 7v10l-2 8v7l1 9v6l1 10v6l-2 8v9l1 7l-1 10l2 6l-2 10l2 8l-2 8l1 6l-1 9l2 7l-1 10l-1 8v15l2 7l-2 10l2 6l-2 8l2 16l-1 9v23l1 8v8l-1 8l-1 9l2 7v10l-2 8l2 8l-2 16l2 6l-2 8v18l1 6v18l1 6v9l-2 7l2 9v7
l-2 9v16l2 7v8l-2 8l2 18v15l-2 7l1 8v10l1 8v6l-2 10l2 8z" />
    <glyph glyph-name="I" unicode="I" horiz-adv-x="235" 
d="M181 41l8 -18l1 -6l4 -10l-5 -8h-16l-10 2l-7 -1l-7 1h-15l-9 -1h-9l-6 -1l-9 2h-16l-8 -1h-7l-9 1h-8l-7 -1l-4 7l1 9l5 8l1 9l3 7l3 14l1 8v8l-1 10v6l-1 9v8l1 9l-1 7l1 9l-1 8l1 8l-1 6v8l2 8l-2 16l2 10l-2 8v8l1 6l1 9l-1 8v8l1 7l-2 10l2 8v6l-1 9l1 7l-2 9v8l2 7
l-2 10l1 8v8l1 7v25l-1 8l1 8l-1 7v9l1 6l-2 9l2 8l-2 7l1 10v7l1 8v8l-2 8v17l2 8l-1 6l1 8v24l-1 9v17l-1 8l1 8l-1 7l2 9l-1 6l1 8l-1 10v8l1 8l-1 7l-1 9l2 8v8l-2 7l1 9l-1 7l2 8l-1 8l-4 17l-3 8v8l-5 6l-1 8l4 9h7l8 1l10 -1l7 2l7 -2l7 2h10l6 -1l8 1h9l16 -2l6 1
l10 -1h22l9 2l5 -10l-2 -7l-2 -10l-3 -7l-4 -7l-3 -18l2 -7l-2 -9l2 -8l-1 -8v-6l-1 -9l1 -9l1 -8l-2 -7l2 -9l-2 -7v-8l2 -9l-2 -6l2 -8l-2 -8v-8l1 -8v-16l1 -10l-1 -6l-1 -10l1 -8l-1 -7l1 -9v-16l1 -8l-1 -7l1 -7l-2 -18v-16l1 -6l1 -9l-1 -9l1 -7l-2 -9l2 -6l-1 -8v-10
l-1 -8l1 -7v-9l-1 -8l2 -6l-1 -8l1 -9v-24l-2 -8l1 -9v-16l-1 -8l1 -6l-1 -10l2 -8l-1 -7v-7l-1 -9v-7l1 -10v-7l-1 -8l2 -7l-1 -8v-10l-1 -8l2 -6l-1 -8l1 -10v-7l-2 -9l2 -6v-10l-1 -8v-6z" />
    <glyph glyph-name="J" unicode="J" horiz-adv-x="466" 
d="M275 760l7 1h8l9 -2l7 2h24l9 -2l7 1l10 1l6 -1l9 -1h8l7 2l9 -1l7 1h10l6 -1l5 -8l-2 -10l-3 -7l-3 -9l-3 -6l-1 -18l1 -7v-7l-2 -10l2 -7l-1 -9l-1 -7l2 -9v-16l-2 -14v-24l1 -10l1 -7l-1 -8l-1 -9l2 -8v-16l-1 -7v-8l1 -9l-1 -8v-15l-1 -8l2 -7l-1 -8l-1 -10v-24l1 -6
v-9l1 -9l-1 -7v-17l1 -6l-2 -10l1 -7l-1 -8l1 -7l1 -10l-2 -6v-10l1 -7l-1 -7l2 -10l-1 -8v-8l1 -8l-2 -7l2 -8l-1 -8l-1 -7l2 -9l-1 -9l1 -6l-1 -8v-8l-1 -9l2 -9l-2 -16l2 -16l-1 -6l-1 -9l1 -7l1 -8l-2 -8l2 -10l-1 -6l-1 -10l1 -8v-6l-6 -16l-12 -12l-6 -3l-4 -7l-6 -7
l-8 -5l-5 -5l-5 -7l-7 -4l-12 -6l-9 1l-7 -1l-8 -1l-9 1h-14l-8 1h-10l-7 -1l-9 -1l-6 1l-8 1l-10 -1l-8 -1h-14l-8 2l-8 -2l-8 1l-9 1l-9 -2h-7l-9 1l-7 -1h-16l-7 1l-10 1h-7l-9 -2l-13 6l-4 6l-7 7l-4 3l-8 8l-4 4l-7 8l-4 4l-5 7l-8 4l-4 14l1 9v22l-2 9v6l2 9v7l-2 10
v16l2 8v7l-1 6l1 8v17l-1 8l1 8l-1 7l-1 9l2 7l-2 7v9l-1 14l-4 8v7l-5 8l-4 12l5 9h9l8 1l8 -2h7l10 2h30l7 -1h24l8 1h9l9 -2l7 1l9 -1l3 -6l-2 -9l-2 -5l-3 -9v-5l-2 -8l-2 -15l-2 -8l1 -8l-1 -8v-17l2 -8l-1 -6l-1 -8l1 -8l1 -9v-7l-1 -8l1 -8l-2 -8l6 -13l6 -5l11 -2
l10 -2l6 2l9 -2l7 1l9 -1h7l9 1h8l7 -1l9 2l14 4l6 5l3 13l2 8l-2 14l1 10l-1 7v7l2 10l-2 14l1 10l1 8l-2 7l2 9l-1 7v7l1 9l-2 9l1 8v16l-1 8v6l1 9l1 8l-2 7v10l1 6l1 10l-1 6l-1 8v10l2 6l-2 9v8l1 9v25l-1 6l2 10l-1 8l-1 7v7l2 10v23l-2 7l2 10v7l-2 9l1 7l-1 9l1 6
v16l-1 10v15l2 9l-2 6v16l1 10l1 6l-2 8v8l1 10l1 7l-4 18l-4 7v9l-3 8l-4 6z" />
    <glyph glyph-name="K" unicode="K" horiz-adv-x="538" 
d="M515 20l4 -6l5 -7l-2 -6l-9 -2l-8 2l-6 -1h-10l-6 1l-10 -1l-8 -1l-8 2l-8 -2l-8 2l-5 -1h-8l-10 -1l-8 1l-7 -1l-7 1l-8 1h-8l-9 -2l-8 2l-9 -1l-5 7l5 10l3 7l-3 16l-2 7l-4 8l-2 6l-2 8l-4 9l-3 6l-4 9l-3 7l-2 7l-3 8l-4 6l-2 6l-2 10l-5 5l-1 9l-5 7l-1 6l-5 9l-3 8
l-2 6l-3 8l-3 6l-4 8l-2 7l-3 7l-3 9l-5 7l-2 6l-3 9l-4 7l-2 8l-2 8l-4 7l-3 7l-4 7l-1 8l-1 2l-3 -7l-7 -5l-3 -9l-4 -5l-3 -7l-4 -6l-10 -16l-3 -6l-4 -5l-4 -9l-6 -5l-4 -9l-3 -5l-4 -9l-5 -13l1 -7l1 -9v-15l-1 -8l-1 -9l1 -7l-1 -9l1 -9v-16l1 -8l-2 -7l1 -8l-1 -9v-8
l1 -8l1 -14l3 -9l5 -9l2 -8l3 -7l-6 -9l-7 2l-8 -1l-9 -1l-7 2l-10 -2l-6 2l-9 -2l-7 1l-9 -1l-6 2l-9 -2l-7 2l-8 -2l-7 1l-10 -1h-6l-9 1h-9l-3 8l2 9l3 6l5 18l3 16l-1 7v8l1 9v16l-1 7l2 9l-2 8l2 8l-2 7v9l1 7l1 9l-2 6l2 8l-2 9v7l1 8l1 9v16l-1 7l-1 10l1 8l-1 6l1 9
l1 7l-2 8l2 10l-1 7v32l-1 7v16l2 9l-1 9v14l1 8l-2 9v7l2 7l-2 8l2 9l-2 7v16l1 8l1 9l-2 7v10l2 7v8l-1 8l1 7v8l-2 10v6l1 8v9l-1 7l2 10l-2 7l1 9l-1 8l2 7l-2 7l2 8v10l-1 7l-1 9l1 7v9l-1 7l1 7v9l1 8l-2 8l-1 15l-5 10v8l-5 7l-2 8l5 9l7 1h8l9 -2h16l8 1l8 1h16
l8 -2l7 2l8 -1h6l10 1l6 -1h9l9 -1h7l4 -9l-3 -6v-8l-4 -10l-2 -6l-3 -18v-6l-1 -9v-9l2 -6v-18l-1 -6v-10l1 -7l-2 -7l2 -18l-2 -6v-10l1 -6l1 -10v-8l-1 -7l1 -9l-2 -7l2 -8l-1 -8v-16l1 -9l-2 -14l2 -9v-7l-2 -8l1 -10l1 -6l3 -3l5 8l3 5l5 9l4 7l3 6l4 5l5 8l4 6l5 6
l8 14l3 8l3 6l11 15l3 5l4 7l4 9l4 5l4 7l4 7l6 7l2 7l4 6l4 8l5 5l3 8l6 8l4 4l4 7l4 9l3 7l8 13l5 7l5 5l5 8l2 7l4 6l4 6l6 9l3 6v13l-3 9l5 7l9 1h8l7 -1l9 -1h7l10 2l6 -1l9 -1h17l7 1h8l10 1l6 -1l8 -1l8 1h9l9 -1l8 2l6 -1l5 -7l-6 -5l-4 -6l-6 -8l-4 -4l-5 -7l-4 -7
l-5 -4l-4 -6l-10 -14l-3 -7l-5 -8l-5 -5l-2 -8l-4 -7l-5 -7l-6 -6l-3 -6l-3 -7l-5 -8l-3 -8l-6 -5l-3 -6l-4 -9l-4 -6l-4 -7l-5 -8l-3 -4l-5 -9l-3 -7l-7 -7l-4 -7l-2 -5l-5 -7l-3 -6l-5 -7l-3 -7l-5 -9l-4 -7l-5 -5l-3 -7l-6 -7l-3 -7l-5 -8l-4 -7l-3 -6l-3 -4l3 -6l5 -9
l1 -7l4 -7l4 -8l3 -7l1 -6l4 -8l2 -8l5 -7l2 -8l3 -7l4 -8l3 -5l3 -8l1 -7l5 -9l1 -8l4 -5l3 -7l2 -10l3 -7l3 -6l4 -9l4 -6l3 -9l3 -7l2 -5l4 -8l2 -8l2 -7l5 -8l3 -8l1 -6l5 -8l2 -8l2 -5l5 -10l1 -7l5 -6l2 -8l4 -6l1 -7l6 -15l4 -9l3 -8l3 -6l4 -8l3 -6l2 -9l10 -13
l3 -7l6 -7l4 -6l5 -7z" />
    <glyph glyph-name="L" unicode="L" horiz-adv-x="456" 
d="M439 132v-8v-6l-3 -10l-2 -8v-8l-2 -6l-1 -9l-2 -8l-1 -7l-1 -9v-8l-3 -6l-1 -9l-2 -6v-16l-10 -10l-9 1l-7 -1l-7 1h-8l-8 1h-8l-8 -1l-9 -1l-7 1l-9 -1h-22l-9 1h-9l-7 -1l-8 1l-8 -1l-8 2h-25l-15 -2l-8 1h-6l-9 1h-7l-10 -2l-6 2l-8 -1h-16l-8 -1h-31l-9 1l-7 1
l-8 -1l-10 1h-7l-9 -1h-15l-6 7l5 9l1 8l3 9l2 8l3 15v9l2 6v8l-1 10l-1 7l2 7l-1 8l1 10v7l-1 7l-1 10l2 8l-2 7l1 8v8l1 7l-2 10l1 6v8l1 8l-1 8l1 9l-2 7v10l2 6v9l-1 9l1 6v10l-2 6l2 9l-2 9l1 8l1 6v8l-2 9l1 8l1 7v16l-2 8v18l1 7v16l-1 9l2 7l-1 7l1 9v7l-2 16l2 9
l-2 9l2 6v8l-2 9l2 9v8l-1 8l1 8l-2 7v7l2 8l-1 10l-1 7l1 9l-1 6v10l1 8l-1 7l1 9l1 7l-1 7l1 10l-1 7v8l-1 8l1 8v8l-4 16l-1 7l-4 9l-3 7l-1 9l5 8h16l7 1h7l10 -2l5 2l8 -1l10 1l6 -2l10 1h6l8 1l7 -1h10l7 -1h17l6 1l7 -9l-2 -7l-4 -8l-2 -7l-2 -8l-3 -18v-7l-1 -10
l1 -7v-8l-1 -7v-18l2 -6v-9l-2 -8l1 -8l1 -7l-2 -8l1 -8l-1 -8l1 -9v-7l-1 -9l1 -9v-15l-1 -8v-8l1 -7l1 -10v-14l-2 -8l1 -8v-10l1 -7l-1 -7l1 -8v-10l-1 -7l-1 -10l1 -7l-1 -8l2 -8l-1 -9v-32l-1 -7l2 -8l-2 -8v-9l2 -6v-8l-1 -9v-7l-1 -9l2 -8l-1 -9l-1 -8v-15l2 -7v-8
l-1 -10v-14l-1 -8v-8l2 -8l-1 -8v-8l-1 -10l7 -11l5 -5l12 -4l7 -1l8 -1l8 1l9 1l7 -1l10 1l7 -2h7l8 1l8 -1l10 1l7 1l10 -2l6 2l9 -1l8 -1l9 1l6 1h24l8 -2l16 2l7 4l8 2h7l10 4l6 2z" />
    <glyph glyph-name="M" unicode="M" horiz-adv-x="662" 
d="M482 477l-2 -8l-2 -7l-3 -7l-3 -9l-6 -5l-2 -9l-2 -6l-5 -9l-2 -8l-5 -6l-3 -9l-3 -6l-1 -8l-5 -6l-4 -8l-3 -7l-1 -7l-3 -8l-5 -8l-3 -8l-4 -8l-1 -5l-3 -8l-3 -9l-6 -6l-1 -8l-4 -8l-2 -7l-3 -7l-6 -7l-3 -7l-1 -9l-4 -6l-4 -9l-12 -8l-7 1l-9 -1h-6l-10 1l-7 -1l-7 2
l-10 -1l-7 -1l-13 8l-2 9l-4 8l-1 7l-3 7l-5 7l-2 8l-2 8l-5 7l-1 8l-3 7l-3 5l-5 10l-2 7l-4 8l-2 6l-3 7l-5 7l-3 8l-2 9l-2 7l-4 7l-3 6l-4 9l-2 6l-3 8l-3 7l-3 7l-5 9l-1 6l-3 8l-3 8l-5 7l-3 7l-3 9h-2l1 -9l-2 -7l1 -10l-1 -7l1 -7l-1 -8l2 -10l-1 -7l-1 -8l1 -9
l1 -7l-2 -7l2 -9l-1 -9l-1 -6v-17l2 -6l-1 -8l1 -10l-2 -7l1 -8v-7l-1 -8v-18l2 -7l-1 -9l-1 -8l1 -8l-1 -8l1 -7l1 -9l-2 -7v-9l1 -7l-1 -6l2 -9l-1 -9l1 -6l-2 -9v-15l1 -9l1 -8v-9l-2 -6v-17l1 -9l-1 -8v-6l1 -10l3 -13l2 -10l2 -6l4 -10l2 -8l-5 -7l-8 -1h-8l-8 2h-7
l-8 -2h-7l-8 1l-9 -1h-16l-8 2l-7 -2h-8l-7 1l-8 -1l-10 1l-8 1h-8l-3 7l1 8l5 7l2 10l3 8l3 16l-1 5l1 10l-1 7l1 8l-1 7l1 8l-2 10l2 7l-1 9l-1 7l1 9l-1 6l2 8v8l-2 9l1 9l-1 8l1 6l-1 9v23l2 9l-2 8l1 9v8l-1 6l1 10l1 7l-2 9l1 7l-1 9v8l2 8v8l-2 6v17l2 8l-1 7l1 9
l-1 8l1 9v7l-2 8v7l2 10l-1 6l1 8l-2 10l1 6l-1 10l2 8l-2 6l1 10l1 8l-1 8l1 8l-1 6v10l1 6l-2 10v7l1 8v7l-1 9l2 9l-1 6v10l1 8l-1 7l1 7l-1 8l1 9v9l-2 7v16l2 9l-2 6l2 9l-5 17l-2 8l-1 6l-5 10l-2 8l4 7h8l10 1l8 -1l6 1l8 -1h9l7 2h7l9 -2l8 2h16l6 -2h16l8 2l12 -8
l4 -9l2 -6l3 -7l4 -9l4 -5l2 -9l4 -8l7 -13l1 -7l4 -7l3 -8l5 -8l1 -6l3 -10l5 -5l2 -7l4 -10l3 -6l4 -6l3 -8l3 -9l3 -7l2 -6l5 -9l4 -7l1 -7l4 -6l5 -8l1 -6l5 -8l2 -8l3 -7l4 -9l2 -5l5 -7l2 -9l4 -6l2 -8l4 -7l2 -9l6 -6l1 -9l4 -7l2 -5l8 -1l4 6l3 8l6 15l2 6l5 8l2 9
l2 7l4 6l3 8l3 7l5 8l3 6l2 9l4 8l2 7l3 6l4 8l3 8l3 7l3 6l5 7l3 8l3 7l2 9l5 7l1 5l5 10l1 5l4 8l4 9l4 7l3 6l1 8l4 6l3 7l3 10l8 14l1 8l4 5l3 9l5 8l1 5l5 7l9 10l10 -2l6 2h10l8 -2l5 2l10 -2h7l9 1l7 1l9 -2h14l7 1h16l10 -1l3 -7l-2 -10l-2 -6l-2 -9l-4 -7l-4 -18
v-6l2 -8l-2 -10l1 -8l-1 -7l1 -9l-1 -7l1 -8l-1 -9v-24l2 -8l-1 -7l-1 -8l2 -8l-1 -8l1 -8v-9l-2 -7l2 -8l-1 -7v-10l-1 -6l1 -8v-10l-1 -8v-7l1 -9v-8l1 -8v-7l-1 -9l-1 -8l2 -16l-2 -7v-23l1 -9v-9l1 -6v-10l-2 -7v-7l2 -8v-16l-1 -8l1 -8l-1 -8l-1 -9l1 -9l1 -6l-1 -10
l-1 -6l1 -9l-1 -8l2 -7l-2 -10l2 -8l-2 -7l1 -7l-1 -10l2 -7v-9l-2 -7l2 -9l-1 -8l1 -8l-2 -8l1 -6v-9l1 -8l-1 -7v-10l-1 -6l1 -10l1 -6v-9l2 -15l4 -8l2 -7l2 -9l4 -9l-6 -8l-7 1h-9l-7 1h-16l-17 -2h-6l-10 1l-7 -1l-7 2h-9l-6 -1h-9l-7 -1h-16l-9 2l-5 6l2 10l2 7l3 9
l3 6l3 17l1 7l-1 7v8l2 10l-2 7v8l2 8l-1 7l-1 9l2 9v8v6v10l-1 6l2 8l-1 10l-1 7v6l2 9l-2 16l2 9l1 7l-1 9l-1 7v7l2 9l-1 9v6l1 9l-2 8l1 8l1 9l-1 6l1 10l1 5v10l-1 8v7l-1 8l1 8l1 9l-1 14l2 9l-2 8v8v9l1 6l1 10l-2 7v7l2 9h-5z" />
    <glyph glyph-name="N" unicode="N" horiz-adv-x="546" 
d="M182 41l4 -10l1 -8l4 -7l1 -8l-3 -8l-10 -2l-7 2l-9 -2h-6l-8 1l-8 -1l-8 2l-9 -2l-7 2l-7 -2l-8 2l-10 -1h-5l-8 -1h-9l-8 2h-8l-8 -1l-6 9l3 6l4 10l2 6l4 10l2 14l1 8v17l-1 7v9l1 9l-2 8v16l1 8v7l-1 9l2 16l-1 7l-1 8l2 7l-2 10v7l1 8v24l-1 9v15l1 8l-1 9l1 8l-1 6
l1 9l1 8l-2 8l1 9l1 7l-2 7l2 10l-2 6l1 10v7l1 9l-1 6v10l1 8v6l-2 8l1 10l1 6l-1 9l-1 8v7l1 8v16l1 10l-2 8l1 6l1 10v15l-1 8l-1 7l2 10l-2 8v6l1 10l-1 7l2 7l-1 9v23l1 9l-2 7l2 8l-2 10v8l1 6l1 8l-1 8l1 10l-4 15l-4 9l-5 14l-1 8l3 10l8 -2l9 1l9 -1l7 2l8 -2l7 2
l8 -1l7 1h8l8 -2h15l10 1h6l8 1l9 -1l10 -8l3 -7l4 -6l3 -8l1 -8l5 -7l1 -7l5 -9l2 -8l4 -6l2 -8l3 -7l2 -7l3 -9l3 -6l3 -8l3 -6l3 -10l8 -15l3 -6l2 -8l4 -8l3 -8l1 -6l3 -9l3 -7l5 -8l1 -7l5 -7l1 -7l3 -8l3 -8l3 -5l4 -8l2 -9l2 -6l3 -8l4 -9l2 -6l3 -7l4 -9l3 -6l6 -15
l4 -8l2 -7l3 -8l2 -7l4 -9l3 -5l4 -10l3 -5l3 -9l2 -6l2 -10l3 -5l4 -9l3 -7l2 -8l5 -8h2l-1 8l2 8l-1 10l-1 7v25l1 7l-1 7l1 9l1 8l-1 9l1 6l-1 9l-1 8v7l2 10v7l-2 9v24l1 7v9l1 5l-2 9v8l1 8v23l-1 10v8l1 7l1 9v7l-1 7l-1 9l2 7v8l-1 8l-1 10v8l1 6l1 8v9l-2 16l2 9
l-2 6l-1 17l-5 7l-1 8l-4 9l-2 9l4 6h9l7 2h18l8 -2h7l9 1l7 -1h15l8 1h10l8 1l6 -2l9 1l9 -1l8 1h8l5 -7l-3 -9l-3 -8l-2 -9l-3 -6l-3 -18l1 -7l-1 -8l1 -8l-1 -8l1 -8l-1 -9v-15l1 -7l-1 -9l1 -8l-2 -8l1 -7l1 -9l-1 -7l1 -10v-8l-2 -8l2 -8l-2 -7l1 -8v-25l-1 -7l2 -9
l-2 -6v-8l2 -10l-2 -7v-31l2 -10v-8l-1 -8l1 -7l-1 -9v-15l1 -9v-6l-2 -10l1 -6l-1 -9v-8l1 -8l-1 -7v-10l1 -8l-1 -8l2 -7l-2 -8l1 -9v-7l-1 -7l1 -10l1 -8l-2 -8l1 -8v-6l-1 -10l1 -7v-8l1 -8l-1 -9l1 -7l-2 -7v-26l1 -8v-8l1 -7l-2 -8l1 -9l-1 -8l2 -7l-1 -7l-1 -9l4 -16
l2 -7l2 -8l3 -9l4 -7l-5 -8l-9 -2l-9 2h-8l-6 -1l-9 1h-9l-6 -2h-24l-8 2h-9l-8 -2l-9 1l-7 1h-7l-11 7l-4 6l-1 10l-3 7l-4 7l-3 8l-2 8l-3 6l-4 8l-3 6l-6 17l-4 6l-1 8l-4 8l-3 6l-3 8l-4 9l-3 6l-2 9l-4 7l-1 5l-3 8l-3 9l-3 8l-4 6l-2 9l-4 5l-4 8l-3 9v8l-3 6l-4 8
l-2 6l-3 8l-3 7l-5 8l-3 9l-3 7l-3 7l-2 8l-4 5l-3 9l-1 7l-3 7l-3 8l-3 8l-5 8l-3 8l-1 6l-5 7l-3 9l-2 5l-3 9l-2 7l-4 9l-2 7l-6 13l-5 8l-2 9h-2l-1 -8v-18l2 -6l-2 -10l2 -14v-16l-2 -8v-18l1 -6v-24l-1 -10v-7l1 -9v-8l1 -7v-15l-1 -9v-7l-1 -7l1 -9v-15l-1 -10l2 -16
v-8l-1 -8v-8l-1 -6l1 -8l-1 -10v-22l2 -10l-1 -6l1 -8v-8l-1 -8v-33z" />
    <glyph glyph-name="O" unicode="O" horiz-adv-x="474" 
d="M368 754l7 -6l17 -17l6 -6l5 -5l7 -6l5 -6l5 -6l7 -14v-7l-1 -9l1 -6l-2 -8l1 -9l1 -7v-17l-2 -7l1 -10v-8l1 -6v-24l-2 -16l2 -9l-1 -9v-8l-1 -8v-8l1 -7l-1 -7l1 -8l-1 -9l2 -8v-8l-2 -8v-32l1 -9l1 -7l-2 -10l2 -7l-2 -9l2 -16v-15l-2 -7l2 -9v-25l-1 -7v-9l1 -7
l-2 -9l2 -7v-9l-1 -9v-7l1 -9l-2 -6v-10l1 -8l-1 -6v-8l2 -10l-1 -6l-1 -8v-9l1 -7l-1 -9l2 -7l-1 -8l1 -9v-24l-2 -9l2 -6v-17l-6 -13l-6 -8l-5 -4l-11 -13l-8 -6l-4 -6l-7 -5l-11 -11l-13 -4l-8 -1h-17l-6 1l-9 -2h-9l-8 2l-7 -1l-9 1l-7 -2h-8l-14 2h-9l-8 -1l-7 -1h-17
l-8 1l-7 -1l-9 1l-8 1l-8 -1l-7 -1l-9 1l-6 -1h-9l-9 1l-7 1l-7 -1l-13 5l-7 6l-6 6l-6 6l-7 6l-3 4l-8 8l-4 5l-12 10l-6 16l1 6l-2 10l2 8l-2 8l2 6v8l-2 9l2 8l-2 8l1 7l1 10l-2 7l2 8l-1 9v7l1 9v6l-2 8v8l1 8l-1 8l1 9l-1 7l2 9l-2 7l2 9v9l-2 9l1 6v9l-1 8l2 9l-2 6
l2 8v9l-2 16l1 7v18l1 8l-1 7v25l1 6l-1 9l-1 8v8l2 8l-2 7v10l1 7l1 10l-1 8l-1 7v7l2 10v7l-2 7l2 10l-1 6l-1 8l1 10l-1 8v16l1 8l-1 8l1 8v7l-1 9v6l1 9v9l-1 8l2 7l4 14l6 5l6 6l7 7l5 6l6 3l10 14l6 3l8 7l12 6l9 -1l7 2l8 -2l9 1h6l9 1l9 -2l7 1h7l9 1h23l9 -2h7l9 1
l6 1h16l8 -2l7 2h16l10 -1l7 -1l9 2h7l9 -1l7 -1h8zM293 621l-5 7l-14 3l-6 2l-10 -1l-7 1h-8l-7 -2l-9 2l-8 -1l-9 -1h-8l-6 1l-14 -6l-6 -4l-4 -11l1 -9l-2 -9l2 -16l-2 -7v-8l1 -8l1 -9l-1 -7l1 -8l-1 -8v-9l-1 -8v-6l2 -8l-2 -8l1 -9l-1 -7l2 -9v-7l-2 -7l1 -10v-15
l-1 -8v-7l2 -10v-7l-1 -8v-9l-1 -7v-8l2 -8v-7l-2 -10l2 -6l-2 -8l1 -8v-9l-1 -6l2 -8l-2 -10v-7l2 -8v-7l-1 -10l-1 -7l1 -9v-6l-1 -8l2 -9l-1 -7l-1 -8l1 -8l1 -9l-2 -7v-9l1 -7l5 -12l5 -5l13 -6l9 2l7 -1h8l7 -1l10 2l8 -1h7l7 1l8 -1h9l14 4l5 5l3 12v16l1 9l-1 7v32
l1 7v9l-1 8l1 8v15l-1 9v8l2 7l-1 9l-1 7l2 9l-2 7v9l2 6l-2 18v7l2 7l-1 8l1 9l-1 9l-1 8l2 7l-2 8l1 9v7l-1 9l2 7l-1 9l-1 6l2 8v17l-2 6v9l1 9l-1 8v24l2 6l-2 10v15l1 9l1 6l-2 10v8l2 6z" />
    <glyph glyph-name="P" unicode="P" horiz-adv-x="464" 
d="M182 40l2 -10l3 -7l3 -8l4 -9l-7 -8h-7l-7 2l-8 -2l-9 1l-8 -1l-7 1l-7 -1l-10 1h-6l-9 1h-7l-10 -1h-31l-7 -1h-8l-6 9l4 8l3 9l1 6l3 8l2 17l2 9v32l-2 6l1 8v10l1 6v17l-1 8l1 9v7l-1 7l1 10l-2 7l1 7l1 9v8l-2 8l2 7v25l-1 8l-1 9l2 6v9l-2 9l2 16l-2 8l2 8v14l-1 10
v6l-1 9l2 8l-2 7l2 8v10l-2 8v6l1 9l-1 9l1 8l-1 6v9l2 7l-2 8v10l1 6l-1 10l2 7l-2 7l1 8l1 10l-1 8l-1 6v9l2 9v6l-2 9v7l2 10l-1 8l1 6l-2 10v8l1 8l-1 7l1 9v6l-1 9l2 7l-2 10l2 8l-1 7l1 7l-3 16l-4 10l-3 7l-1 8l-3 9l5 9l9 -1l7 1h7l9 -2h9l6 2l9 -1h8l8 -1h30l8 1
l10 1h6l9 -1l7 1h17l6 -2l10 2l7 -2h7l18 2l8 -2l6 1h9l8 -1h15l7 1l10 -1l7 1l8 -1l9 2l6 -1l9 -1h8l14 -6l4 -5l8 -5l28 -28l7 -5l6 -6l3 -14l1 -8l1 -9l-1 -7l-1 -9l2 -7v-10l-2 -8v-7l1 -9v-8l-1 -7v-7l2 -9l-1 -10l1 -8v-15l-1 -8v-8l-1 -9v-15l2 -7l-2 -8l2 -8l-1 -9
l1 -8v-16l-2 -10v-15l2 -8l-1 -8l1 -8l-2 -8l1 -9l-1 -7l2 -8l-1 -7v-9l-5 -13l-7 -8l-6 -4l-10 -12l-7 -6l-4 -5l-8 -8l-5 -6l-5 -4l-14 -5h-8l-9 -1h-22l-9 1l-9 -2l-6 1l-8 1l-8 -2l-10 2h-7l-8 -1h-9l-8 1l-6 -2h-9l-7 2l-10 -1l-6 1l-14 -6l-6 -6l-4 -13l-1 -6l1 -9
l-1 -7v-8l1 -10v-6l-1 -10l1 -6l-1 -8v-10l1 -7l-1 -7v-9l1 -8l1 -9l-2 -6v-8l1 -8v-17l1 -8l-1 -9l1 -8l-2 -8l2 -8l-1 -7zM183 423l6 -4l13 -5l10 -1l7 1l9 -2l6 1h16l9 -1h24l14 7l5 3l5 13v7l-2 8l1 9v8l-1 7l2 9l-1 7l-1 9v9l1 7v30l1 9l-2 9l1 7l1 8l-1 8l1 9l-2 7v8
l-3 12l-7 6l-13 5l-8 -2l-8 2l-8 -2h-14l-9 1h-8l-9 1h-15l-15 -6l-4 -4l-4 -13v-9l-2 -8l2 -8v-16l-2 -7l2 -9l-2 -7l1 -8v-8l1 -7l-2 -15l1 -9l1 -7l-2 -8v-18l2 -6l-2 -10l1 -7l-1 -7z" />
    <glyph glyph-name="Q" unicode="Q" horiz-adv-x="475" 
d="M368 754l8 -7l4 -3l7 -6l6 -6l5 -6l7 -7l4 -6l8 -5l5 -5l4 -13v-10l2 -7l-1 -7l1 -10v-6l-2 -8l1 -8l-1 -9v-9l1 -7l-1 -9v-7l1 -9l-1 -6l1 -10l-1 -8v-23l2 -7l-1 -9l1 -7l-2 -10l1 -6v-9l1 -8v-34l-2 -7l2 -8l-2 -8l2 -8l-1 -8l1 -8l-1 -7l1 -8l-1 -10l1 -6v-17l-2 -8
v-7l2 -9l-2 -8v-8l1 -8l1 -7v-18l-2 -8l1 -9v-6l1 -9v-9l-2 -8l1 -6l1 -8l-2 -9l1 -9l1 -6l-1 -10l1 -8l-2 -7l2 -9v-6l-1 -9l-1 -7l2 -9v-8l-2 -16l1 -8l-1 -8v-8l2 -9l-7 -13l-6 -5l-4 -7l-7 -5l-5 -7l-6 -4l-6 -6l-6 -7l-5 -5l-8 -7l-14 -5l-7 1l-8 -1l-9 2l-6 -1l-14 -4
l-4 -5l-5 -15l-1 -7l1 -9v-7l-1 -10l-1 -8l2 -8l1 -14l7 -16l3 -10l1 -7l-3 -9l-10 2h-7l-7 -2l-10 1h-15l-8 1l-9 -2l-6 1l-9 1l-7 -2h-15l-9 1l-7 1l-9 -2l-7 2h-10l-4 6l2 9l3 7l3 8l2 8l3 18v8l1 8l-1 7l1 7v17l-5 15l-4 5l-14 3l-9 1l-7 1l-7 -2l-8 1l-14 5l-14 12
l-5 5l-5 5l-8 6l-6 6l-4 7l-8 6l-6 6l-5 14l2 7l-2 9v6l2 16l-2 9l1 9l1 6l-1 8v9l-1 8v8l2 16v8l-1 9l1 7v9l-1 8l1 8v8l-2 8l1 6l1 10l-2 8l1 9l1 6v10l-2 6l2 10l-2 7l2 9l-2 7l2 8l-2 9l1 6v33l-1 9l1 6l1 10l-2 8l1 8v15l1 7l-2 18l1 7l-1 8l1 9l-1 8l1 8l-1 9l1 6v9
l-1 7l2 10l-1 6l-1 9l1 7v10l-1 8v7l2 9l-1 6l-1 10v15l1 9v7l1 9l-1 6l1 9l-1 7l5 15l6 7l12 9l6 8l5 5l8 6l4 5l8 5l4 6l14 7l9 -1l6 -1h17l8 1l7 -1l10 1h7l6 1l10 -1h8l8 -1l6 1l10 -1l7 2l6 -1l8 1h10l7 -2l7 1l8 -1l9 2l9 -2h6l9 2h24l6 -2l10 1zM292 625l-15 5l-6 1
h-17l-8 -1l-9 1l-7 1h-8l-9 -1h-7l-10 -1l-16 -5l-5 -14l-1 -9v-7l1 -8l-1 -10l-1 -7l2 -9v-8l-2 -7v-17l1 -7v-9l-1 -8l2 -6l-1 -9l1 -7v-9l-2 -7v-10l2 -6l-1 -9v-14l-1 -8l2 -18v-7l-2 -8v-7l1 -8l1 -10l-2 -6l2 -10l-1 -7l1 -8v-8l-1 -8v-22l-1 -10v-8l1 -8l-1 -8l1 -8
v-7l1 -7v-8l-1 -9l1 -7v-25l-2 -8l2 -9v-14l-2 -10l8 -15l16 -6l8 1l9 -1h14l10 -1l8 2l9 -2h6l9 1l8 1l14 7l9 15l-1 7v8l1 7l-2 10l1 8l-1 8l1 8v7l1 9v15l-2 7l2 9v8l-2 8v15l2 10v7l-1 6v18l1 7v8l-2 9v22l1 9l-1 8l2 9l-2 6l2 9l-2 9l1 7l-1 9v8l2 8l-2 6l2 8v9l-1 8
l1 8l-2 8l2 7l-2 8l2 16v9l-1 7l1 9v6l-2 8l2 8v9l-2 9l1 8v8z" />
    <glyph glyph-name="R" unicode="R" horiz-adv-x="482" 
d="M189 -1h-10h-8l-8 1l-7 1h-7l-9 -1l-8 -1l-7 1l-8 -1l-9 1l-6 1h-16l-8 -2l-9 2l-6 -1h-17l-5 7l3 8l1 10l5 7l2 7l1 17l2 8l-1 6v16l1 9l-2 9v7l2 7l-1 10v7l1 9l-2 8v16l2 7l-2 7l2 10l-1 7l1 9l-2 7l1 7v9l1 7l-1 8v9l1 9l-1 7l1 7v9l-2 7v10l1 8l-1 7l1 9l1 7v23
l-1 8v8l-1 10l2 8l-2 8v8l2 7l-1 8v8l-1 8l1 8l1 7l-1 10v22l-1 10l2 8l-2 6l2 10v22l-2 10l2 8v8l-1 8l1 6v10l-2 6l2 10l-1 7l1 9l-2 8v7l2 8l-1 8l1 9l-2 6l1 10v8l1 7l-1 8l-1 17l-3 8l-5 7v7l-5 9l6 10h16l16 -2l7 2l9 -2h9l6 2h9l8 -1h7l9 1h8l8 -1h6l8 1l8 -2h8l8 1
l8 -1h7l9 1l8 1h7l10 -2l7 2l9 -1l8 -1h6l8 2l8 -2l7 2h8l10 -1l8 1h7l9 -2l8 2l8 -2h7l12 -6l8 -6l6 -4l4 -5l6 -6l5 -7l8 -4l5 -8l6 -5l5 -6l8 -12l-1 -8l1 -9l-1 -9l-1 -6l2 -10l-1 -7v-40l1 -8l-2 -9l2 -7v-9l-2 -7l2 -9l-2 -6l1 -10v-6l1 -9l-1 -8l1 -8l-1 -9v-9l1 -7
l-2 -7v-10l1 -6l1 -9l-2 -7v-10l2 -7l-2 -9l2 -6l-1 -8l1 -10l-1 -6v-8l-1 -9v-8l-5 -14l-5 -6l-6 -6l-7 -6l-5 -6l-7 -5l-6 -5l-6 -8l-5 -5l-7 -5l-2 -15v-6l4 -9v-9l4 -7l1 -8l2 -9v-8l3 -6l2 -8l1 -7l5 -16l2 -10v-6l2 -9l4 -7l1 -16l4 -9l2 -7l2 -9v-7l3 -9l1 -7l1 -8
l4 -8l2 -8l2 -7l4 -17l2 -7l3 -7l3 -7l2 -7l5 -7l-5 -9l-8 2l-10 -1l-6 1h-9l-9 -2l-6 2l-8 -2l-9 1l-7 1l-8 -1l-9 -1l-7 2l-6 -2l-8 2h-9l-8 -2h-9l-8 2l-5 8l2 7l1 7l4 10v8l2 14l-2 8l-3 9l-1 6l-2 10l-4 6v9l-2 7l-1 9l-3 7l-2 8l-3 8l-2 8v8l-2 7l-3 9v7l-4 9l-1 8
l-2 8l-1 6l-3 10l-2 6v8l-2 10l-6 16l-1 6l-6 16l-15 4l-14 2l-10 -2l-12 -5l-6 -5l-6 -13l1 -8v-8l-1 -9l1 -6l1 -8l-2 -10l1 -7l1 -8l-1 -9l1 -8l-1 -6v-16l-1 -10v-16l1 -8l1 -7l-2 -9l2 -8l-1 -8l1 -7l-1 -9l-1 -7l1 -7v-9l4 -16l3 -9v-8l3 -7l5 -7zM203 414l7 -1l8 1
l9 -1h7l10 2l8 -2l7 2l10 -1h8l8 1l13 2l4 6l6 13l1 6l-2 9v7l2 8v10l-2 8v14l2 8l-1 8l1 10l-1 6l-1 8l2 8l-2 7l2 9l-1 8l1 9l-1 6l1 8l-1 10l1 6l-7 14l-3 4l-15 4l-9 2l-7 -2l-8 2h-9l-9 -2l-6 1l-10 1l-8 -1l-7 1h-7l-14 -6l-5 -5l-7 -11v-10l1 -7l-1 -7l2 -10v-7
l-1 -7l-1 -9v-8l1 -9l1 -7v-14l-1 -10l-1 -7l2 -7l-1 -10l-1 -8l2 -8l-1 -6l1 -8v-8l-2 -10l6 -10l4 -7z" />
    <glyph glyph-name="S" unicode="S" horiz-adv-x="483" 
d="M433 560l4 -9l1 -9l5 -6l1 -9l-5 -8h-7l-8 -1l-9 1h-7l-8 -1h-8l-7 1l-8 -1l-10 2l-6 -2h-17l-9 1l-7 1h-7l-10 -1l-8 -1l-6 2l-7 8l5 6l5 18l2 6l3 18l-1 7l-1 10l1 7l-1 10l-3 12l-6 5l-14 5l-7 -2h-8l-8 1l-10 -1l-7 2h-7l-9 -2l-7 1l-10 1l-8 -1l-13 -4l-3 -6l-6 -13
l-1 -6l2 -9l-2 -9l1 -7l-1 -8l1 -9l1 -7l-2 -16v-8l2 -8v-8l-1 -8l1 -7l-2 -8l2 -8l-2 -8l2 -8l3 -14l7 -6l12 -3l9 -2h16l7 1l8 1h9l8 -2l7 2h9l7 -2l7 2l10 -1h24l6 -1l10 2l7 -2h7l8 1l13 -6l8 -6l4 -6l7 -5l10 -10l8 -7l5 -4l6 -6l5 -6l7 -13l-1 -8l1 -8l-2 -8v-10l1 -8
l1 -6l-2 -9l2 -8l-1 -9l-1 -7l2 -9l-2 -7l1 -8v-16l-1 -6l1 -10v-6l1 -10l-2 -7l1 -7v-9l1 -9l-1 -8l1 -6l-2 -8l2 -7l-2 -10v-7l2 -8l-1 -9v-8l-1 -7l2 -9l-1 -6l1 -9l-1 -8l-1 -9l-6 -12l-4 -5l-7 -8l-6 -3l-4 -7l-7 -6l-7 -7l-4 -5l-7 -6l-6 -5l-13 -6l-6 1l-10 1l-7 -1
h-9l-6 -1h-9l-7 2l-10 -2l-6 1l-8 1l-7 -2h-10l-7 1l-9 -1l-8 2l-8 -2h-22l-9 2h-8l-6 -2l-9 1l-7 -1h-10l-6 1l-10 1h-24l-11 5l-7 4l-7 7l-5 6l-11 11l-7 7l-6 4l-7 7l-6 5l-6 12l2 16v9l-2 7v10l2 6v10l-2 6v10l1 8l-1 6l1 9v9l-1 8l-2 14l-3 10l-1 8l-3 7l-1 8l3 8l9 -1
l9 1l6 1l8 -2l8 1l10 -1h16l6 1l8 -1l8 1h8l9 1h7l9 -1l8 -1l7 2l8 -1l5 -9l-2 -6l-3 -10l-2 -7l-3 -9l-4 -14l2 -9l-2 -8l2 -9l-2 -9l5 -13l6 -5l14 -5h6l10 1l6 -1l9 1h7l8 -1h10l6 1l8 1h8l14 5l5 3l6 13v9l1 7l-1 9l1 9l-1 7v8l-1 7l1 10l1 7l-2 8l2 7v9l-1 9l1 8v22
l-2 8l-5 15l-5 4l-13 6l-6 -1l-8 1l-10 -1l-6 1h-10l-7 -2l-7 1l-10 1l-6 -1l-9 1h-7l-8 -2l-7 1l-10 -1l-6 2l-10 -1h-8l-7 -1l-8 1l-7 1l-15 3l-5 8l-7 6l-5 5l-5 7l-6 5l-8 4l-5 6l-7 6l-6 8l-4 12l-2 7v10l2 14v8l-2 10l2 14l-1 8l1 10l-2 8l2 6l-1 10v14l1 8l-2 8l2 8
l-2 7l2 10l-1 6l1 8l-1 8v25l-1 8v7l1 9v7l-1 10l1 7l1 9l-2 8l1 8l-1 7l2 7v10l5 11l12 13l5 5l7 6l5 4l7 6l6 7l12 11l13 6h8l9 -1l6 -1h8l10 2l6 -1l9 1h8l7 -2h7l10 1l6 -1l8 1h8l8 -1h16l16 2h17l6 -1h9l9 -1l6 1l8 1l8 -1h16l9 1l20 -12l4 -4l5 -7l7 -5l7 -7l6 -5
l4 -5l5 -5l6 -6l7 -15l1 -7l-2 -9v-9l2 -8v-14l-1 -9v-10l-1 -8v-16l1 -6v-9l-1 -8z" />
    <glyph glyph-name="T" unicode="T" horiz-adv-x="478" 
d="M443 753l1 -9l3 -7l1 -8v-8l2 -8l2 -10v-7l3 -6l-1 -10l2 -8l2 -7l2 -8l-1 -9l3 -7l1 -8l2 -7l-8 -7l-8 2l-7 1l-15 6l-8 2l-15 2l-7 -1h-9l-8 1l-7 -2h-8l-10 1h-6l-8 1l-10 -2l-6 2l-16 -7l-6 -16l-1 -7v-18l2 -6v-50l-1 -7l1 -7l-1 -10l1 -8l-2 -14l1 -10l-1 -7v-17
l1 -8v-15l-1 -8l1 -9v-8l1 -8l-2 -7l1 -7v-10l-1 -7l2 -8l-2 -8l1 -7v-25l-1 -8l2 -10l-1 -6l1 -9v-7l-2 -10l1 -8v-22l-1 -8v-8l1 -9l1 -8l-2 -16l2 -9l-2 -7l1 -7v-24l-1 -9l2 -8v-7l-1 -10v-8l1 -7l-2 -7l1 -9v-8l-1 -8l3 -16l2 -9l3 -8l4 -7l2 -7l-4 -8l-8 -1l-10 1
l-6 -2h-9l-16 2l-7 -2l-9 2h-16l-7 -1h-10l-6 -1h-17l-9 2h-8l-6 -2l-7 10l5 7l1 7l4 10l3 6l1 17l2 8l-2 8l2 8v7l-2 10l2 6v10l-2 8l2 8v6l-1 8v26l1 7v9l-1 6l-1 8l1 10l1 7l-1 8l1 8l-2 9l2 8v14l-1 9l-1 7v8l1 9l1 7v9l-1 9l1 7l-2 8v9l1 7l-1 10v8l1 7l1 8v16l-1 9v6
l-1 8l2 8l-2 8v8l2 8l-2 8v8l2 9l-1 8v9l-1 8l1 6l1 10l-2 8l1 7l-1 7l2 10v7l-2 9v6l1 9l-1 8v8l2 7l-7 14l-5 4l-13 5h-7l-10 -1l-7 2l-9 -1l-8 -1h-7l-8 2l-8 -1l-9 1h-7l-15 -4l-7 -1l-10 -1l-15 -4l-7 -3l-4 7v8l1 8l3 8v6l1 9v9l3 13l1 10l3 8l1 8l1 7v9l3 7l2 8l-1 9
l11 8l6 -2l10 1l6 1h17l9 -2l7 2l7 -2h8l10 2h40l7 -2h23l8 1l10 -1l8 1h23l7 1l8 -2h9l7 2h9l7 -1h24l9 1h8l8 -1l7 1l8 -1l10 -1l8 1l7 1l7 -2l8 2l9 -1l8 1l9 -1l7 -1l9 2z" />
    <glyph glyph-name="U" unicode="U" horiz-adv-x="488" 
d="M448 750l-3 -8l-1 -6l-3 -8l-4 -10l-3 -16l2 -8l-2 -7v-10l1 -6l1 -10l-2 -6v-16l1 -9l1 -7v-18l-2 -6v-8l2 -10l-1 -8v-22l1 -9l-1 -7v-17l1 -7l-2 -8l1 -9l-1 -9l1 -6l-1 -10v-30l2 -8l-2 -9v-15l2 -9v-9l-2 -7l2 -8l-1 -8v-15l-1 -10l2 -6l-2 -9l2 -7l-1 -9v-9l-1 -8
v-7l1 -8l1 -9l-2 -7l2 -7v-8l-1 -8l-1 -10l2 -7v-7l-1 -8l-1 -9l2 -9l-2 -7v-7l2 -9l-1 -7l1 -8l-1 -8l-1 -10v-6l2 -9l-2 -7l1 -10l-1 -8l2 -7l-1 -9l-1 -7l-5 -12l-5 -6l-7 -8l-5 -3l-7 -6l-4 -7l-6 -6l-8 -5l-6 -7l-6 -6l-11 -4h-9l-9 -2l-6 2l-10 -2h-24l-7 2l-7 -2
l-9 2l-8 -2l-8 1l-9 1h-14l-7 -1h-42l-6 -1h-10l-7 1h-8l-7 1l-10 -1l-8 -1h-7l-9 2l-13 4l-5 6l-6 8l-6 3l-5 8l-4 4l-8 6l-5 5l-6 7l-5 6l-5 12l1 10v15l-1 8l-1 9v6l2 9l-1 9l1 6l-2 9l1 8l-1 8l2 8v23l-2 9v15l2 8l-1 10l1 8v8l-2 6l2 8l-1 9v8l1 7v24l-1 10l1 6l-2 10
v7l2 8l-2 9l1 8l1 6v10l-1 6l1 8v49l-2 8l1 8v8l-1 9l1 8v8l1 8v15l-2 7l2 9l-1 8l-1 7l1 8l-1 8v9l2 9v16l-1 6v10l-1 6l2 9l-1 8v8l1 7l-1 8l1 8l-2 10v15l-1 17l-5 7l-2 10l-2 6l-2 10l4 6l9 1h8l7 -1h8l8 1l6 1l9 -1h8l8 -1l8 2l9 -2l6 2l8 -2h23l10 1l8 1l4 -10l-4 -6
v-9l-3 -8l-5 -8l-1 -16l-1 -9l1 -8l-2 -7l2 -8v-16l-1 -9v-9l-1 -7l2 -7v-9l-1 -8v-9l-1 -6v-9l2 -8v-7l-1 -8l1 -8l-2 -10l1 -8l-1 -7l2 -7v-8l-2 -9v-23l1 -10l1 -6l-1 -10l-1 -6l2 -8v-18l-2 -9l2 -8v-7l-1 -9v-7l-1 -8l1 -9l-1 -8v-15l2 -9l-1 -8l-1 -7l1 -9l-1 -8l1 -8
l-1 -6l2 -9l-1 -8v-9l-1 -7l2 -9v-8l-2 -7v-15l2 -10v-16l-1 -7l1 -8l-2 -7l2 -9v-8l5 -14l3 -4l14 -5h10l7 1l9 -1h8l7 2l9 -1h16l7 1l10 -2l14 5l4 5l6 12l-2 10v6l2 9l-1 8l-1 9l2 6l-2 8v10l2 6v16l-1 10l1 6v8l-2 10l2 6l-1 9l1 7l-2 9v23l2 10l-2 6v9l2 7v9l-2 9v6
l2 9v8l-2 7l2 10l-1 8l1 8l-1 8v15l1 8l-2 8l2 9l-2 7l1 10l-1 7l2 8l-2 8v16l2 8v9l-2 8l2 6l-2 10v30l1 9l1 7l-2 9v9l1 7l1 9l-1 6v8l1 9l-2 7l2 9l-2 9l-1 16l-5 7l-2 9l-2 9l-2 6l3 9l10 2h7l8 -2l9 2l6 -1l8 -1l8 1h9l8 -1l8 2l9 -1l8 1h6l10 -1l6 1l8 -2l9 1l8 1z
" />
    <glyph glyph-name="V" unicode="V" horiz-adv-x="494" 
d="M454 678l-1 -8l-2 -7l-3 -8l-2 -8l1 -6l-2 -9l-3 -7l-2 -10l-1 -15l-4 -6l-1 -16l-4 -10l1 -7l-3 -6l-2 -10l-1 -6l-2 -10l-1 -7l-3 -6v-9l-2 -7l-3 -8l-2 -8v-10l-3 -7v-6l-2 -10l-3 -8l-1 -7l-1 -7l-3 -9l1 -6l-4 -8l-2 -9l1 -8l-3 -6v-8l-4 -10v-8l-2 -7l-2 -6l-2 -10
l-2 -7l-2 -8l-1 -7l-2 -8l-1 -8l-1 -8l-2 -7v-10l-4 -6l-1 -8l-2 -7l-1 -9l-2 -7l-1 -10l-1 -8l-2 -6l-3 -9v-8l-3 -7v-8l-2 -6l-1 -10l-4 -7l-1 -8v-8l-4 -7l-1 -9l-4 -16v-8l-2 -6l-1 -9l-3 -7l-1 -9l-1 -8l-1 -7l-1 -15l3 -9l2 -7l2 -8l3 -6l-8 -9h-8l-6 1l-8 -2h-10
l-6 2l-8 -1l-10 1l-8 -1l-7 -1l-8 1l-6 1h-17l-8 -1l-8 1l-8 -2h-7l-8 1l-10 -1l-8 2l-3 8l1 8l1 5l2 9l3 9v15l-3 6l-1 8l-2 10l-2 6l-1 8l-2 7l-2 10l-1 8l-2 6l-2 9l-1 14l-5 16v8l-2 7l-3 9l-1 8l-3 9l-1 7v8l-2 6l-2 10l-1 8l-4 5v10l-2 7l-3 9l-1 8l-1 5l-1 8l-3 8
l-1 10l-2 6l-2 8v9l-3 7v7l-3 8l-1 9l-3 8l-2 7l1 9l-4 6v10l-3 6l-1 9l-2 7l-2 7l-1 10l-2 6l-1 9l-3 6l-2 8l1 10l-3 5l-1 9l-3 7l-2 10l-2 7l1 8l-3 8l-2 7l-1 9l-3 7v8l-3 6l-1 9l-2 8l-2 7v9l-4 7l1 9l-3 8l-1 6l-3 8l-2 7l-2 10l-1 16l-6 15l-1 6l-3 9l-3 5l-4 8l-2 8
l-4 8l-3 7l-2 7l5 9h7l9 -1l6 -1h10l6 1h7l9 -1l7 1h10l7 -1l7 1l8 -1h8l8 2l8 -2l8 1l7 -1l10 1l3 -8l-1 -7l-1 -6l-3 -16l2 -7l3 -8l-1 -9l2 -7l3 -7l1 -18l3 -8v-7l4 -8v-7l3 -8v-7l3 -8l-1 -7l4 -9v-9l1 -6l1 -10l3 -6l3 -16l2 -7v-9l2 -6l1 -9l2 -9l3 -8v-6l3 -8l1 -9
l3 -16l2 -7l-1 -8l2 -8l2 -7l2 -9l1 -8l1 -6l1 -8l2 -9l1 -7l3 -9l3 -13l3 -18l1 -8l1 -6l3 -7l3 -18l1 -6l1 -7l3 -10l1 -8v-8l2 -6h2l2 6l3 8l1 10l2 6l1 8l1 8l2 8l1 7v9l2 7l1 9l2 8l2 8l2 6v7l2 10l2 7l3 9l-1 6l4 8v8l3 8v7l2 10v5l4 10l1 14l3 10v6l2 8l1 7l3 8v9
l2 8l2 6v9l3 9v6l3 8l1 9l3 7l-1 8l4 9v5l2 9l1 7l3 10l-1 6l4 7l1 8l2 9v9l2 8v6l2 9l1 6l2 10l2 6v15l-5 7l-2 9l5 6l9 1h6l8 -1l10 1h6l9 -2l7 2l9 -2h47l10 2h7l9 -2h7l6 -5l-5 -7l-1 -8l-5 -8l-2 -6l-2 -9l-3 -8l-3 -6l-5 -8z" />
    <glyph glyph-name="W" unicode="W" horiz-adv-x="814" 
d="M774 678l-2 -7l-2 -9l-1 -7l-1 -9l-1 -7l-3 -8l-1 -6l-3 -9l-1 -9l-2 -7l-1 -15l-6 -16v-9l-2 -7l-2 -6v-8l-4 -9l-1 -8v-6l-3 -10v-8l-3 -8l-1 -6l-1 -8l-2 -9l-3 -8v-8l-2 -6l-2 -9l-3 -7v-9l-3 -7l-1 -9l-2 -6l-2 -9l-1 -8l-2 -6l-2 -8l1 -8l-2 -9l-4 -6v-9l-3 -9
l-1 -7v-8l-3 -15l-2 -9l-2 -6l-3 -10v-8l-2 -6l-1 -9l-2 -8l-2 -8l-3 -7l-2 -7l1 -9l-2 -7l-3 -7l-1 -8l-2 -9l-2 -6v-9l-4 -7l1 -10l-2 -7l-4 -8l1 -6l-2 -9l-3 -8l-2 -9l-2 -6l1 -8l-3 -8l-3 -7v-9l-3 -7l2 -16l2 -9l2 -7l1 -8l3 -8l-6 -8h-8l-8 1h-7l-9 -1l-9 1l-7 -1h-8
l-8 1l-8 -1l-7 2h-7l-10 -2l-5 1l-10 1l-6 -2l-8 2l-9 -2l-8 2l-7 -2l-9 1l-6 7l3 9l2 8l2 7l3 7v15l-5 16l-2 9l-1 7v7l-2 10l-1 7l-1 7l-4 9v9l-3 5l-2 8v8l-2 8l-1 9l-1 7l-3 7l-2 10l-1 7l-1 7l-2 9v6l-2 9l-3 8l-1 7v8l-4 7v10l-2 6l-1 8l-3 9v7l-2 7l-1 10l-2 7l-2 8
l-2 7v8l-2 9l-3 8l-1 7v9l-4 6l-1 7v10l-2 8l-2 8l-3 6l-1 10v6l-2 7l-3 9l-1 7l-1 10h-3v-10l-3 -8l-2 -7l-3 -15v-7l-2 -10l-1 -7l-1 -7l-2 -9l-1 -7l-2 -7l-1 -9l-3 -9l-2 -8v-7l-1 -7l-4 -9l1 -7l-4 -9l-1 -8l-2 -6v-8l-1 -9l-1 -7l-4 -8l-4 -23l-2 -9l1 -7l-4 -7l1 -8
l-4 -7l1 -8l-2 -8l-2 -8l-2 -10l-1 -7l-1 -8l-2 -8l-3 -7v-7l-3 -7l1 -9l-4 -9l1 -7l-4 -8l-1 -9v-7l-3 -6l-2 -8v-10l-2 -7l2 -14l2 -10l2 -8l2 -6l1 -7l-6 -8l-8 -1h-17l-8 1l-6 -2h-8l-10 2l-6 -1l-7 -1h-25l-7 2l-10 -1l-7 -1l-7 2h-10l-8 -1l-6 1h-9l-4 8v6l4 8v8l4 7
v15l-4 8v10l-3 6l-1 9l-1 8l-3 6l-1 8l-1 9l-2 8l-1 6l-3 9l-2 8v8l-3 7l-1 8l-2 9v6l-2 8l-2 10l-2 5l-2 8l-1 10l-3 14l-4 7l1 9l-3 7l-3 16l-1 8l-1 8l-2 7l-3 9l-1 8l-2 6l-3 10l1 8l-4 14l-2 8l-2 9l-1 8l-2 7l-3 8l-1 7l-1 8l-1 9l-4 7l-1 9v7l-2 8l-1 7l-3 8l-1 8
l-2 7l-2 8l-3 7l-1 8l-2 9l-1 8l-1 7l-1 9l-3 8v7l-2 8l-3 6l-2 8l-1 8l-3 9v7l-2 7l-1 8l-3 9v8l-3 9l-2 6l-1 9l-3 14l-2 10l-3 14l-4 7l-4 9l-1 7l-3 6l-5 9l-3 7l-2 6l-3 7l4 7l8 2h8l10 -2l7 2l9 -2l8 2l5 -2l10 2l6 -2l8 2h16l9 -2h8l8 1l8 -1h15l6 -5l-2 -7l-4 -8
v-14l3 -10l-1 -6l2 -8l2 -9l1 -8l2 -6l1 -9l5 -15l1 -16l3 -8v-8l4 -6l-1 -10l4 -7v-8l1 -7l1 -9l4 -6v-9l3 -8l2 -7l1 -7l2 -9l1 -7l1 -8v-9l2 -6l2 -10l1 -6l2 -8l2 -9l1 -7l1 -8l3 -9l2 -7l2 -7l1 -9l1 -6l1 -10l2 -8v-7l2 -8l1 -7l2 -8l2 -7l3 -10v-5l3 -8v-9l2 -7l3 -9
l1 -6v-8l2 -10l3 -6l1 -1l4 7v10l1 6l3 10l2 7l2 6l3 16l3 18l1 6v7l2 8l3 8l1 10l3 7l-1 8l4 7l1 8l1 8l1 9l1 8l4 7l-1 7l2 9l4 7l-1 9l3 6l1 9l3 7l2 9l1 6l1 10v8l2 8l2 7l3 8l2 6l1 8l2 10v6l1 10l2 7l5 15v8l2 7l2 9l2 8l2 7l1 7l2 8v9l3 7l1 9v17l-4 7l-2 9l-1 9l4 8
h8l10 -1l7 -1l9 2l8 -2l7 1l9 1l8 -1l7 1h8l9 -2l6 1h10l7 -1l9 2l6 -1l9 1h7l5 -9l-1 -9l-2 -7l-3 -8l-1 -18l2 -6l1 -10l4 -6l1 -10v-6l2 -7l3 -9v-7l4 -10l1 -8l2 -15l3 -6l1 -9l2 -8l1 -7l2 -9l2 -9v-5l3 -9v-9l3 -8v-7l5 -15l2 -8l1 -16l3 -9l3 -7l1 -15l5 -24l2 -8
l3 -7l1 -7l2 -9l1 -7v-8l2 -10l2 -8l2 -6l3 -9l-1 -7l2 -9l3 -6l1 -10l3 -6l1 -9l2 -6l2 -8l-1 -8l4 -10l2 1l1 7l2 10l2 8l2 5v10l2 7l2 9v8l3 5v8l6 18l-1 8l3 6l1 8l2 9l2 6l2 9l1 7v8l1 7l3 9l2 8l1 8l2 8l2 6l2 10l-1 7l4 8l1 7l1 8v7l4 8v8l2 8l3 9l1 8l1 7v7l2 7
l1 10l2 6l2 8l3 8l1 7v10l2 7l3 8v8l3 7l2 8l1 7v8l3 15l2 10l3 6l-3 16l-1 8l-3 7l4 6l9 1l7 -2l7 2l9 -1l8 1l8 -1h9l6 1l10 -1l8 1h7l8 -1h15l9 1l8 -2l7 2h9l6 -9l-5 -5l-2 -7l-3 -9l-2 -7l-5 -8l-1 -6l-5 -8l-2 -8z" />
    <glyph glyph-name="X" unicode="X" horiz-adv-x="494" 
d="M472 18l3 -5l5 -8l-3 -6l-7 1h-7l-10 -1h-14l-9 1l-7 -1l-7 -1h-18l-16 2h-14l-9 -2h-8l-6 2l-10 -1l-7 -1l-7 1h-9l-3 8l5 7l5 8l2 15l-5 7l-1 9l-3 6l-8 17l-2 5l-3 9l-2 7l-5 7l-3 7l-1 7l-3 7l-5 8l-3 7l-3 8l-3 7l-1 8l-4 7l-3 7l-4 8l-2 7l-2 9l-3 5l-5 10h-1
l-4 -7l-3 -8l-1 -8l-5 -6l-3 -10l-3 -5l-1 -9l-3 -6l-5 -9l-2 -6l-3 -9l-3 -5l-2 -10l-4 -5l-2 -8l-3 -8l-3 -7l-5 -7l-1 -7l-5 -9l-1 -6l-5 -9l-1 -7l-4 -8v-15l6 -6l3 -10l-2 -7l-9 1l-8 -2h-7l-8 2h-7l-8 -1l-8 -1l-8 2l-9 -2l-6 2l-8 -1h-8l-8 1h-7l-10 -2l-6 1l-10 1
l-6 -2l-8 1l-10 1h-6l-4 7l5 5l6 5l3 7l6 6l4 7l4 5l9 14l3 6l4 10l1 5l2 9l5 7l3 7l2 8l2 6l4 9l2 8l4 6l4 8l2 6l2 7l3 8l5 8l2 8l2 6l5 8l3 8l1 7l4 8l4 7l2 6l3 9l4 7l1 6l3 9l5 7l3 7l3 7l3 8l2 8l4 6l4 15l4 8l2 6l4 10l4 5l2 7l4 8l2 7l3 7l-2 5l-2 7l-4 9l-4 6l-1 8
l-4 6l-2 8l-4 8l-3 8l-3 8l-2 6l-4 7l-4 9l-2 7l-4 6l-3 8l-2 8l-2 7l-5 9l-1 6l-5 9l-3 7l-2 6l-3 9l-4 5l-1 8l-5 8l-2 8l-4 8l-3 7l-2 8l-3 6l-3 8l-2 8l-4 6l-3 9l-4 7l-2 7l-4 7l-1 6l-3 9l-5 6l-2 9l-2 7l-9 15l-4 4l-7 8l-2 6l-7 5l-4 6l-6 7l3 4l10 2h24l5 -1l9 1
l7 -2l10 1l8 1h7l8 -1h6l8 -1l9 2l7 -1l8 -1h9l8 2l7 -1l9 -1h7l3 -8l-3 -7l-4 -7l1 -17l3 -7l1 -7l3 -7l3 -6l2 -10l5 -7l2 -7l4 -8l3 -6l3 -8l3 -6l1 -7l5 -10l3 -6l1 -9l5 -7l1 -6l4 -8l3 -8l3 -7l4 -6l1 -7l3 -8l4 -5l1 4l3 8l8 14l3 8l2 8l4 7l2 7l4 8l3 8l2 7l3 7l4 6
l1 7l3 10l3 7l3 5l4 10l3 7l4 6l6 16l3 6l1 9l-1 15l-4 6l-3 8l5 9l8 1l7 -2l9 1h7l6 -1l10 1l7 -1h23l8 2h16l9 -1h14l8 1l7 -2l8 1l8 -1h10l3 -4l-5 -6l-7 -6l-2 -8l-5 -6l-7 -5l-3 -7l-7 -13l-5 -6l-1 -10l-5 -7l-2 -7l-2 -6l-5 -7l-2 -10l-3 -5l-3 -9l-3 -7l-3 -7l-5 -8
l-3 -7l-1 -8l-5 -8l-1 -7l-5 -6l-1 -8l-5 -6l-2 -9l-3 -6l-4 -9l-1 -6l-4 -9l-3 -8l-4 -7l-2 -6l-3 -7l-2 -9l-3 -8l-5 -6l-1 -7l-5 -9l-2 -7l-2 -7l-4 -8l-3 -5l-4 -8l-2 -7l-2 -10l-3 -5l-4 -9l-2 -8l-3 -6l3 -4l3 -8l4 -7l1 -9l3 -5l6 -17l3 -5l6 -17l8 -15l2 -5l3 -8
l4 -8l4 -15l4 -8l4 -8l2 -5l2 -7l5 -10l3 -5l2 -8l3 -8l3 -6l6 -17l4 -5l3 -9l2 -6l2 -9l3 -8l3 -5l4 -8l2 -8l6 -15l3 -8l3 -8l3 -6l3 -8l3 -7l5 -7l5 -14l7 -6l5 -5l5 -7z" />
    <glyph glyph-name="Y" unicode="Y" horiz-adv-x="524" 
d="M324 256l-1 -8l2 -16l-2 -16l2 -7v-32l-2 -9l2 -8l-2 -8l1 -8v-7l-1 -8l1 -10l-1 -8v-8l1 -6l-1 -8l1 -8l-1 -10l2 -8l-1 -6l4 -18l1 -7l3 -9l1 -8l4 -7l-7 -7h-9l-6 -2l-8 1h-10l-6 -1l-9 2l-9 -2l-8 1l-7 -1l-9 2l-8 -1l-8 1l-10 -1l-8 -1l-6 2l-8 -2l-8 1l-6 7l2 9
l1 8l4 8l3 8l1 17l1 7v17l1 6l-2 10v14l2 10v7l-2 16l1 9v8l-1 7v7l2 10v23l-1 7v8l1 10l-2 7l2 8l-1 9l-1 16l-3 6l-4 7l-3 9l-1 6l-3 8l-2 9l-5 6l-1 10l-2 7l-3 7l-4 8l-2 7l-4 6l-3 8v8l-4 8l-4 8l-1 6l-3 10l-4 7v7l-5 7l-1 7l-2 8l-3 9l-5 7l-2 7l-1 8l-5 7l-1 8l-3 7
l-4 7l-1 9l-4 6l-3 8v10l-4 6l-4 9l-2 7l-2 6l-4 8l-2 9l-3 6l-3 15l-5 9l-1 6l-2 8l-3 7l-5 8l-1 9l-4 6l-2 9l-3 6l-1 9l-5 7l-6 14l-5 9l-4 7l-6 6l-5 8l-4 5l-3 8l2 8l9 -2l8 2h23l9 -1l10 1l6 -1h8l10 -1l6 1l9 1l7 -1l8 -1l10 1l8 -1l7 2l9 -1l8 -1l7 2l9 -2l4 -6
l-5 -8l-4 -9l-2 -14l1 -7l4 -8l3 -9l2 -7l1 -9l4 -6v-7l5 -10l2 -7v-8l4 -8l5 -16l4 -13l2 -8l4 -9l1 -9l3 -5l1 -8l3 -10l4 -6v-8l3 -8l3 -8l2 -7l3 -8l2 -7l3 -9l3 -7l4 -15l3 -10l1 -8h5l1 8l3 9l3 8l2 8l4 6v8l3 10l4 7l2 8l2 6l3 9v8l4 7l2 8l2 7l3 7l1 10l5 14l4 7
l1 10l2 6l2 10l5 7v6l5 16l4 9l1 6l2 9l2 9l3 5l3 10l1 8l-1 13l-4 10l-6 7l6 6l7 2h17l6 -2l8 2l9 -1h8l8 -1l9 1l8 1l7 -1l8 -1l10 2l17 -2h8l8 2l7 -1l7 1h8l8 -1l6 -7l-5 -6l-4 -8l-6 -8l-6 -7l-3 -6l-4 -7l-7 -14l-3 -8l-2 -9l-5 -7l-3 -6l-1 -8l-3 -8l-4 -7l-1 -10
l-2 -6l-3 -7l-3 -8l-3 -9l-3 -6l-1 -8l-3 -7l-3 -7l-4 -9l-3 -8l-3 -8l-2 -6l-2 -7l-4 -10l-2 -5l-3 -8l-1 -9l-4 -6l-4 -15l-2 -9l-5 -6v-10l-5 -5l-1 -8l-2 -7l-5 -9l-3 -7v-9l-4 -7l-3 -6l-1 -9l-4 -6l-2 -9l-2 -7l-4 -7l-4 -10l-2 -7l-1 -6l-3 -9l-2 -8l-3 -6l-3 -8
l-3 -7l-4 -9l-1 -8l-2 -6l-5 -8z" />
    <glyph glyph-name="Z" unicode="Z" horiz-adv-x="455" 
d="M423 135l-1 -7v-8l-1 -8l-2 -8l-1 -9l-2 -8l-2 -9l-1 -6l-2 -9l-1 -8v-8l-2 -9l-2 -6l-1 -10l-1 -7v-8l-10 -7l-10 1l-6 -2l-10 2h-7l-8 -1h-16l-7 1h-16l-10 -2l-6 2h-9l-9 -2l-9 1l-8 1l-8 -2h-6l-10 1l-8 -1l-8 1h-24l-6 1l-9 -1l-8 -1l-9 1h-7l-9 1h-16l-7 -1l-9 1
l-7 -1h-16l-10 -1l-6 2l-9 -1h-9l-6 1h-9l-10 6l1 8v9l1 7l-2 9l2 7l-1 10v7l-1 8v16l1 7v9l-1 7l1 9l5 14l3 8l3 7l4 8l3 7l4 6l2 7l5 7l1 7l4 9l3 6l5 8l2 7l3 8l5 7l3 8l5 6l2 8l3 5l5 9l3 6l3 8l4 6l2 7l4 8l4 7l2 8l5 6l3 8l4 8l4 6l3 9l5 14l4 8l5 5l2 9l5 5l2 8l4 8
l4 6l2 7l5 9l5 13l5 9l3 5l3 9l3 6l3 9l4 7l5 6l2 6l5 9l3 6l2 8l3 6l3 9l4 6l5 8l3 6l3 7l3 9l3 6l3 8l6 7l5 14l3 6l-2 9l-10 -1l-6 1l-8 -1l-8 1l-10 -1l-7 2l-8 -1l-7 -1h-9l-7 1h-7l-8 1l-8 -1h-8l-9 1l-7 -2l-7 2l-8 -1h-8l-7 1l-9 -2h-15l-16 -2l-8 -2l-9 -1l-6 -2
l-8 -1l-9 -3l-5 5v7l1 10l4 7v9v6l3 9v7l2 9l2 6v8l3 8l1 8l1 10v8l3 8v7l11 9l8 -1h6l9 1h23l8 -1h16l9 1l8 -1h16l8 1l8 -1l7 -1l8 2l10 -2l7 2l8 -2l7 2l7 -1l8 1l10 -2l6 1l9 -1h9l8 1l6 1l9 -2l7 2h8l9 -2h7l10 1l7 1l7 -1l10 -1l8 2h22l9 -2l8 2l8 -8l-1 -10l-1 -6
v-16l2 -8l-1 -9v-8l1 -7v-16l-1 -8v-7l-1 -9l1 -8l-3 -14l-2 -8l-4 -5l-4 -9l-3 -6l-3 -9l-5 -5l-4 -7l-3 -10l-4 -5l-4 -8l-1 -8l-9 -15l-1 -5l-5 -8l-4 -8l-3 -8l-3 -7l-3 -6l-4 -7l-4 -8l-4 -6l-3 -9l-5 -15l-9 -14l-3 -8l-4 -5l-4 -9l-1 -7l-9 -15l-2 -6l-5 -6l-2 -9
l-3 -8l-3 -5l-6 -7l-2 -8l-3 -8l-3 -8l-6 -7l-2 -5l-5 -10l-2 -7l-2 -5l-6 -9l-3 -8l-3 -6l-3 -8l-4 -6l-2 -7l-5 -8l-3 -6l-4 -8l-4 -7l-2 -9l-4 -5l-2 -8l-4 -9l-3 -6l-7 -14l-6 -9l-2 -5l-3 -8l-4 -6l3 -9h8l10 1l6 -1h10l6 2h8l9 -2l7 1l8 -1l7 2l9 -2l9 2l8 -1l8 1
l8 -1h7l6 -1l9 2l7 -2l9 1l7 1h10l8 -1l20 4l9 1l8 3l8 1l5 3z" />
    <glyph glyph-name="bracketleft" unicode="[" horiz-adv-x="305" 
d="M44 -122v11l-1 8v6l2 8v7l-2 16l1 9l-1 9l2 6l-2 9l2 8l-1 9l-1 7l2 7l-2 9v8l1 8l1 9v8l-2 7l2 8l-1 7l1 9l-2 9l1 7l1 9v6l-1 8l1 9v7l-2 9l2 7l-2 10l1 6l1 10l-2 8v6l1 9l-1 8v9l2 7l-1 8v7l1 9l-2 9l2 7v7l-2 10v6l2 9l-1 8l1 8l-2 8v17l2 8v8l-2 6l1 10l-1 8l1 7
l1 9l-1 7v8l1 8v9l-1 6l-1 8l1 9l1 7v8l-2 9l2 7l-1 9l-1 8l1 9l-1 8v7l2 9l-1 6l-1 9l2 8v7l-2 10v6l2 9v8l-1 9l1 8l-2 7l1 8v25l1 6l-2 10l1 6v18l1 8v7l-2 7l2 9v15l-2 10v6l1 9l1 7v10l-2 7l1 8v17l1 8l-1 8l-1 6l1 8l1 9v16l-1 9v6l-1 10l9 6l8 1l8 -1l6 1h8l9 1l8 -1
l7 -1h40l10 2h15l9 -2h38l9 1l9 -1h8l6 2l8 -1l9 -1l8 2l8 -10l-1 -6l1 -10v-8l1 -6v-17l-2 -16l1 -8l-1 -7l2 -10l-2 -6l1 -10l-1 -8l-7 -5l-10 -2l-7 1h-9l-6 -1l-10 1l-7 -1h-18l-6 1l-8 1l-17 -9l-7 -15l2 -7l-2 -9l2 -16l-2 -8l1 -8l-1 -7v-16l2 -8v-25l-2 -9l1 -7v-8
l1 -9v-7l-2 -7v-18l1 -8v-6l-1 -9l2 -8l-1 -9l1 -8l-1 -7l1 -9l-1 -9l1 -8l-2 -8l2 -6v-10l-2 -6l2 -8l-1 -10l1 -8l-1 -6l1 -9l-1 -9l1 -6l-1 -9v-17l-1 -7v-7l2 -9l-2 -7v-25l1 -7l1 -9v-7l-1 -8l-1 -10l1 -8v-7l-1 -10v-7l2 -8l-1 -7l1 -10l-1 -7l1 -8v-24l-1 -7l1 -10
l-1 -8l1 -6l-1 -9l1 -7v-8l-2 -10l2 -6l-2 -10v-7l1 -8l-1 -9l2 -8v-6l-2 -10l1 -7v-25l3 -12l6 -5l12 -4h8l9 -2l8 2l7 -3h10l7 1l10 -1l8 1l8 -1l7 1l8 -8v-7l2 -10v-8l-2 -6v-8l1 -9v-16l-1 -7l1 -10v-6l-1 -9l1 -7v-9l-8 -7l-7 -2l-10 2l-7 -2h-9l-8 2l-8 -2h-6l-9 2
l-9 -1l-7 1l-8 -2l-7 1h-9l-9 1l-8 -1h-16l-6 1h-10l-6 -2l-9 1l-7 -1h-16l-10 2h-7l-7 -2h-10z" />
    <glyph glyph-name="backslash" unicode="\" horiz-adv-x="314" 
d="M41 671l2 -8l2 -8l2 -8l1 -6v-9l3 -8l1 -7l1 -8l2 -8l-1 -9l4 -6v-10l1 -6l1 -8l2 -8l1 -8l1 -9l1 -8l4 -7l1 -8l1 -7l2 -7l1 -10l-1 -8l2 -6l1 -8l2 -8l3 -10l-1 -7l2 -8l1 -8l1 -8l2 -6l3 -9v-7l2 -9v-6l3 -8v-8l2 -10l1 -8l1 -6l1 -10l2 -6l1 -7l3 -9l-1 -9l4 -8
l-1 -7l2 -9l2 -6l2 -7l1 -10v-8l3 -6l2 -8l1 -9v-7l1 -8l3 -7l-1 -10l2 -7l1 -8l1 -7l4 -9v-8l3 -8l1 -7v-7l3 -9l1 -8v-9l1 -7l2 -6l1 -8l3 -10l-1 -7l3 -16l3 -8l-1 -16l-3 -5l-2 -7l-3 -9l6 -7h8l9 1h16l6 -1h10l6 1h24l8 1h7l9 -2l16 2h7l10 -2l8 1l5 8l-4 8v8l-4 5
l-1 7l-4 8l-2 7l-1 9l-3 7l-1 8l-5 15v8l-3 7l-1 8v7l-1 10l-2 6l-2 9l-1 8l-2 7l-2 8l1 8l-2 7l-1 10l-1 5l-4 9v8l-3 9l-1 8l1 7l-2 7l-3 8l-1 9l-2 6l-1 8v10l-2 8l-2 6v9l-1 6l-4 8v8l-1 9l-1 9l-3 7v9l-1 6l-1 7l-2 10l-5 14l-1 10l-1 6l-1 8v9l-1 7l-3 8v8l-4 9l1 8
l-1 6l-3 8l-1 7l-3 8l1 9l-2 9l-2 6l-1 8l-3 9l1 8l-1 6l-2 8l-3 9l1 9l-4 6l1 9l-2 9l-1 5l-1 10l-3 6l-2 10v7l-1 7l-2 8l-3 9l-1 8v6l-3 8l1 10l-4 7v7l2 15l2 7l2 7l3 6l-5 9l-8 -2l-18 2h-7l-8 -1l-7 -1l-9 2h-7l-10 -1h-7l-6 1l-10 -1h-6l-9 -1l-9 1l-7 -1l-9 2h-8
l-3 -9l1 -8l4 -6v-9l2 -7l5 -7l2 -6l1 -7l3 -9l1 -7z" />
    <glyph glyph-name="bracketright" unicode="]" horiz-adv-x="305" 
d="M252 -128h-14l-10 -2l-8 2h-24l-8 -1l-7 1l-7 -2l-8 2h-18l-7 -2l-7 2l-7 -2h-8l-8 2h-10l-8 -2l-7 2l-8 -2l-7 1l-8 -1l-9 1l-7 -1l-9 1l-8 1l-6 7v9l-1 6l-1 10l2 7l-1 8v23l1 9l-1 7v9l1 8l-2 7l1 8l7 9l9 1h9l6 -1l10 1l8 -2h40l14 7l4 3l4 15l1 8l-1 9v6l2 10v15
l-2 9l2 8v8l-1 6v18l-1 6v8l2 10l-1 6l1 8v8l-1 8l1 9l-2 9l2 8v6l-1 10l1 7l-1 7v10l-1 6l2 9l-2 9v32l2 9v8l-2 6l2 8l-2 10v6l2 9v17l-2 7l1 7v41l-1 9v15l2 9v6l-1 9v7l1 8l-2 9l2 7l-2 11l2 8v6l-2 9l1 8l1 9l-1 8v22l1 10l-1 7l-1 9l1 6l-1 10v16l2 6l-2 8l1 9l1 8
l-1 8v7l1 8l-2 10l1 6l-1 8l2 10l-2 7l-4 14l-4 5l-14 4h-10l-7 -1l-9 1h-6l-10 -1l-6 -1l-10 1l-6 1h-18l-7 7l1 7l-2 9l2 9v8l-2 7v7l2 18v14l-1 8l1 8l-2 16l9 7h31l7 1h41l7 1l9 -2l7 2l8 -1l7 1l9 -1h7l10 -1h8l7 2l9 -1l6 -1h10l14 2l8 -1h10l7 -1l7 -8l1 -6v-25
l-1 -6l2 -10l-2 -7v-33l1 -6l1 -10v-24l-2 -16l1 -7l1 -8v-7l-1 -10v-31l1 -9l-1 -6v-8l-1 -9l2 -8l-2 -8l2 -8l-1 -7v-8l1 -9l-1 -9l1 -7l-2 -8v-9l2 -14l-2 -8l2 -8l-1 -10v-16l-1 -6v-8l2 -8l-2 -10l1 -7l-1 -9l2 -7l-1 -7l1 -9l-2 -8v-15l2 -10l-2 -7l2 -9l-2 -16l2 -8
l-1 -8v-7l-1 -9l2 -8v-7l-1 -9l1 -8l-2 -16l2 -6l-2 -10l2 -7l-2 -8l1 -9l1 -6v-8l-1 -9l-1 -8l2 -7l-2 -9l2 -7l-2 -10l2 -6l-1 -9l-1 -7l1 -8v-8l-1 -9l1 -7l-1 -10l2 -16l-1 -6v-24l-1 -10v-6l1 -8l-1 -9l1 -8l-1 -7l2 -9v-17l-2 -6l1 -9l-1 -9v-15l1 -9l-1 -6l1 -10
l1 -7l-2 -8v-15l2 -9v-16z" />
    <glyph glyph-name="asciicircum" unicode="^" horiz-adv-x="646" 
d="M577 518l7 5l4 6l7 7l5 6l4 4l6 7l-2 8l-7 5l-7 3l-4 5l-7 4l-9 6l-6 2l-5 5l-8 5l-6 5l-8 2l-5 6l-8 5l-6 4l-6 3l-7 4l-9 6l-6 3l-6 4l-6 4l-9 4l-6 6l-5 5l-7 4l-8 3l-5 5l-7 4l-9 3l-5 4l-8 6l-7 3l-12 8l-8 5l-5 4l-7 6l-12 8l-8 6l-4 5l-7 5l-4 8l-11 11l-10 -1
l-7 -6l-4 -4l-8 -6l-3 -7l-8 -4l-3 -7l-14 -9l-5 -4l-7 -4l-9 -6l-4 -2l-8 -6l-8 -2l-5 -5l-6 -4l-8 -4l-6 -5l-7 -5l-6 -5l-8 -3l-8 -5l-6 -4l-6 -4l-7 -3l-8 -7l-7 -3l-6 -5l-7 -3l-5 -5l-9 -4l-4 -5l-7 -3l-8 -6l-6 -4l-7 -4l-6 -5l-7 -2l-7 -4l-7 -6l-6 -3l-8 -6l-6 -3
l-1 -10l5 -6l5 -5l4 -6l6 -4l6 -5l5 -8l14 -2l7 5l9 1l7 5l5 4l15 5l9 5l7 2l7 3l8 4l6 4l7 3l7 4l10 1l7 5l7 2l6 5l9 4l13 4l8 4l7 3l7 4l9 3l6 5l7 1l8 5l8 4l6 2l8 5l9 3l7 3l13 -1l9 -2l7 -4l8 -3l5 -4l9 -2l8 -4l6 -4l8 -2l7 -5l8 -2l7 -3l8 -6l5 -2l8 -4l8 -2l6 -3
l8 -3l15 -7l6 -4l9 -3l8 -3l5 -5l9 -2l8 -4l7 -3l6 -5l7 -1l8 -5l7 -2l7 -4l8 -4z" />
    <glyph glyph-name="underscore" unicode="_" horiz-adv-x="587" 
d="M542 7l1 -7l-2 -9l2 -16l-2 -7l1 -7l-1 -9v-8l1 -8l-1 -7l1 -8l-1 -8l1 -10l-1 -8l1 -8v-6l-1 -9v-7l-8 -7l-8 3l-7 3l-9 4l-6 2l-18 3l-9 -1h-15l-7 2l-8 -2l-18 2l-8 -1l-6 -1l-8 2l-8 -1l-10 -1l-6 2l-8 -1l-10 -1h-8l-6 2l-10 -2h-15l-9 2l-8 -2h-6l-10 1l-6 -1
l-18 2l-6 -1h-25l-8 -1l-9 1l-7 1h-9l-7 -2h-9l-6 2l-9 -1h-7l-9 1h-7l-10 -1l-7 -1l-9 2l-6 -1l-10 1h-6l-18 -5l-9 -2l-16 -4l-8 -4l-7 4v18l-2 16v7l2 9l-2 6v8l2 9l-2 7l1 9l1 8l-1 8v25l-1 8l2 8l8 3l8 -1l8 -5h9l8 -4l25 -3l7 1l9 -2h8l7 2l9 -1h7l9 1h16l7 -1h7l10 1
l8 -2l6 1h34l6 1h17l8 -1l9 -1l8 1h15l9 -1h14l10 1h7l9 -1l7 2h9l6 -2l9 2l8 -1l7 1l10 -1h15l7 -1l10 1l7 -1l7 2l9 -1l8 -1l16 5l9 1l9 2l6 5l8 2z" />
    <glyph glyph-name="grave" unicode="`" horiz-adv-x="530" 
d="M219 1070l6 -4l7 -3l8 -5l5 -2l7 -5l8 -4l5 -4l12 -13l2 -6l5 -7l2 -7l7 -14l3 -7l4 -7l5 -7l3 -9l3 -5l3 -8l5 -8l2 -6l9 -14l3 -9l3 -6l4 -9l3 -6l4 -8l5 -6l1 -8l4 -5l-4 -13l-7 -1l-9 -5l-8 -4l-14 4l-4 3l-7 7l-7 4l-4 5l-6 7l-8 4l-6 8l-12 10l-4 6l-7 3l-5 6l-7 6
l-6 4l-6 8l-6 5l-8 5l-6 5l-6 5l-5 5l-7 7l-5 5l-6 5l-5 4l-8 7l-12 9l-1 12l6 6l4 5l6 6l4 7l7 6l3 5l5 6l6 5l4 7l6 5l6 8h11z" />
    <glyph glyph-name="a" unicode="a" 
d="M493 42l3 -7l3 -6l6 -9l2 -5l3 -9l-2 -7l-10 -1l-6 1l-9 1l-8 -2h-9l-8 2h-7l-8 -1h-7l-10 -1h-7l-8 1l-9 1l-7 -2h-23l-9 2l-4 7l3 6l2 8v17v8l-2 7l-3 6l-1 10l-2 7l-3 7l-2 7l-2 8l-2 18l-2 5l-3 8l-2 10l-5 10l-7 6l-11 6l-8 -2h-16l-10 1h-21l-9 -1l-7 2l-8 -1
l-8 -1l-7 1l-10 1l-6 -2l-12 -3l-6 -6l-8 -11v-9l-2 -9l-3 -5l-1 -10l-4 -6l-2 -9l-1 -6v-8l-4 -8l-1 -8l-1 -8l-3 -7l-3 -10l1 -13l3 -10l5 -5l-6 -10l-9 1l-8 1h-16l-8 -1h-8l-7 1l-7 -1h-10l-6 1l-10 -1l-6 1l-8 -2l-9 2l-9 -2l-7 1l-8 1h-8l-3 8l2 7l5 5l2 9l3 6l4 9
l7 15l2 6l1 10l2 8l2 7l3 6l1 10v6l2 9l3 9l3 7l2 7l1 9l1 8l1 7l4 7l1 10l1 7l1 8l3 7l3 8l2 9l2 5v8l3 9l1 9l2 6l3 8l1 7l3 9v8l2 7l2 8l2 9l4 15l2 8v8l3 7l3 7v10l4 6v8l1 9l4 8v7l4 7l1 10v7l4 9l2 6v7l4 9l1 7l1 9l3 8l1 6l3 9v8l3 9l2 7l2 9l2 7l1 8l3 6l1 10v7l2 9
l3 5l2 10l2 6l2 8v8l2 7l3 9l3 8v9l3 6l2 10v6l3 8l1 8l2 9l3 7v14l-2 8l-2 8l-3 6l-4 8l7 8l7 1h7l9 -2h8l9 2l6 -1l7 1h16l8 -2h8l9 2l9 -1h13l9 -1l7 2h9l7 -1l9 -1l6 -8l-4 -7l-2 -7l-1 -6l-2 -9l-3 -15l2 -7l2 -9l6 -16v-5l2 -9l2 -8l1 -9l2 -8l4 -8v-6l1 -9l2 -8l4 -6
v-9l3 -8l2 -7v-8l2 -9l3 -8l3 -7l1 -6l1 -9l3 -7v-9l3 -8l1 -7l2 -9l5 -14v-9l2 -7l2 -8l4 -9l1 -6l2 -8l1 -8l3 -9l2 -6v-9l3 -9l1 -6l3 -9l1 -8l1 -8l2 -6l3 -8l1 -10l2 -8l3 -5v-9l2 -9l3 -7l2 -9l2 -6l2 -7v-8l4 -10l2 -8l1 -7v-8l2 -6l3 -10l1 -6l3 -8v-9l4 -7l2 -7v-8
l2 -9l3 -9l2 -7l2 -6l1 -9l3 -8l2 -9v-8l1 -7l4 -7l2 -9l2 -8v-7l3 -7zM220 294l14 -6h23l9 1l9 -2l7 2l7 -1l15 5l5 13l-2 10l-2 7l-2 7l1 10l-4 7l-1 8l-1 7l-3 7l-1 8v8l-1 9l-3 6l-2 8v8l-4 9v9l-3 7l-1 6l-1 10l-2 8l-2 8l-1 7v8l-4 8l-1 7v9l-3 8l-2 7v7l-3 1l-2 -8
l-3 -8l-1 -8v-9l-4 -6l-1 -9v-6l-4 -8l-1 -10l-1 -7l-2 -7l-1 -8l-3 -9l-1 -16l-2 -8l-1 -8l-3 -5v-9l-4 -8v-8l-2 -7l-1 -9l-3 -6v-9l-3 -9v-6l-2 -8l-2 -10z" />
    <glyph glyph-name="b" unicode="b" horiz-adv-x="482" 
d="M53 720l-3 6l-4 8l-1 8l-4 8l5 9l7 -1h10l6 1h10l8 1h6l16 -2h8l8 2l8 -1h7l9 1l9 -2l7 1l9 -1l8 1h7l7 1l10 -2l6 1l9 1h6l9 -1h7l8 1l10 -1l6 1l10 -2l6 2h7l10 -1h14l10 1l7 -2l9 1h8l7 -1l7 2l13 -6l7 -7l7 -4l6 -7l5 -6l6 -3l4 -8l7 -5l7 -5l4 -7l6 -12l2 -10l-2 -7
v-9l1 -6l1 -8l-1 -10l1 -8l-1 -7l-1 -9l2 -16v-7l-1 -9l1 -7v-7l-2 -9v-8l1 -9l1 -8v-8l-1 -7v-9l-1 -7v-41l1 -7l-5 -14l-8 -5l-6 -5l-6 -5l-6 -7l-5 -7l-5 -4l-6 -5l-8 -6l-5 -8v-11l5 -6l6 -4l7 -7l6 -5l6 -7l6 -4l6 -8l6 -4l7 -6l4 -15v-8l2 -6l-1 -8v-8l1 -8v-9l-1 -8
l1 -8l-2 -7l2 -9l-1 -8l1 -6v-18l-2 -7v-38l2 -10l-2 -16l2 -13l-1 -8l1 -10l-2 -8l2 -8l-2 -7v-7l-6 -14l-5 -6l-7 -6l-5 -6l-7 -4l-3 -6l-7 -8l-6 -5l-7 -4l-4 -7l-13 -7l-10 1l-8 1h-8l-6 -1l-8 -1l-9 1h-16l-8 1l-6 -2l-9 2h-15l-9 -2h-7l-9 2l-9 -2l-6 1l-10 -1l-6 1
h-8l-9 1h-6l-8 -2l-8 2l-9 -2l-9 1l-8 -1h-8l-7 2h-7l-9 -1l-7 -1l-9 1l-7 1h-41l-3 7l1 9l4 9l3 7l1 7l5 18l-2 6l2 8v9l-2 8l1 9l1 7l-1 7v8l1 8l-2 10v8l2 7l-2 8l1 9v8l-1 6l1 10l-1 6v10l1 8l-1 7l1 9l1 6l-2 8l2 10v7l-1 9v6l-1 8l1 9v8l1 7l-2 9v7l1 8l1 9v15l-1 8
v10l1 7l-2 9l1 8v6l1 9v17l-1 6v17l1 8l-2 8l1 8l1 9v8l-1 7l-1 9v16l1 6l-1 10l2 14l-2 10l2 7l-1 7l-1 10l1 6l-1 9v17l1 7v17l-1 7l1 9l-1 6v17l2 7v10zM180 611l1 -8l-2 -8l2 -8l-2 -6v-24l2 -8l-2 -7v-15l2 -16l-2 -9l2 -7l-2 -9v-6l2 -10l5 -11l5 -6l14 -4h7l9 -1h8
l7 1l7 -1l10 1l7 -1l16 2h9l13 5l3 3l7 13l-1 7l1 8v10l-2 5l2 9v8l-2 9l2 6l-2 8l2 16l-2 8l1 9v5l-1 10v7l1 8v9l-6 12l-4 4l-13 6h-7l-8 -1l-9 -1l-7 2l-10 -2h-16l-6 2h-8l-8 -1l-14 -6l-6 -5zM302 313l-6 3l-13 7l-6 -1h-8l-9 1l-7 -1h-9l-8 -1l-7 2l-10 -2h-15l-13 -4
l-5 -4l-6 -12l-1 -8v-9l2 -8v-7l-2 -10l2 -7l-2 -7l2 -8v-15l-2 -9v-8l1 -7l-1 -7l2 -8v-8l-1 -9v-16l4 -13l6 -6l14 -5h16l8 2l8 -1h15l9 1l7 -2l8 1l10 1l12 3l4 5l6 14v15l1 9l-1 8v8l1 8l-2 8l1 7l1 9l-2 6l2 9l-2 7l2 8l-1 9l1 6l-2 8v10l2 8l-2 6z" />
    <glyph glyph-name="c" unicode="c" horiz-adv-x="478" 
d="M106 5l-8 7l-6 5l-4 5l-8 7l-9 12l-7 3l-6 6l-5 6l-7 16l2 8v31l-1 9l1 8l-2 6v8l2 10l-1 7v9l1 8l-2 8l2 6l-2 10l1 7l-1 9l1 6l-1 10l2 6l-2 16v8l1 9l-1 8l1 9l1 8v17l-2 6l1 10v6l1 9v7l-2 9l2 9v7l-1 9v6l-1 10v8l1 7v16l1 7l-2 8v8l1 8l1 9l-1 7l1 11l-1 6l-1 9
l2 8l-1 9l1 8l-2 6l1 10v7l1 8v9l-1 8v8l1 7l-1 9l-1 8v8l1 8l-1 7l1 7v8l1 10v6l-1 10v16l4 12l8 8l4 4l7 7l7 4l3 6l8 6l6 6l5 6l5 5l13 4l10 2l6 -2l9 2l8 -1h17l8 1l16 -2h6l8 1l7 1l9 -1l8 -1h8l8 2h15l8 -2l10 1l7 -1l8 2h15l8 -1l8 1h15l10 -2l7 1l12 -5l7 -5l6 -7
l4 -5l8 -5l4 -5l8 -8l3 -6l8 -5l4 -4l6 -14l1 -9l-2 -7l2 -9v-16l-2 -9l1 -6v-17l1 -8v-9l-2 -6v-10l2 -6l1 -16l5 -16l4 -10l4 -8l-5 -6l-9 -2l-9 2l-8 -2h-6l-9 2h-15l-10 -2l-6 1l-9 -1l-7 2h-34l-6 -2h-18l-4 8l4 10l3 7l2 7l2 8l4 19l-2 8l1 6l1 11v7l-4 13l-5 6l-13 4
l-8 1l-8 -2l-11 1h-6l-8 1l-9 -2l-9 1l-7 -1l-10 1l-7 -1l-15 -3l-4 -7l-5 -10l1 -8l-1 -10l-1 -8v-7l1 -7l1 -9l-2 -8l2 -8l-1 -8l1 -7l-2 -9v-17l1 -6l1 -8l-2 -9l2 -8l-2 -9l2 -6l-2 -7v-8l1 -10l1 -7l-2 -9l2 -8l-1 -8v-6l1 -8v-9l-1 -8l1 -8l-1 -7v-9l1 -9l-1 -6v-8
l-1 -8v-17l2 -8l-2 -6l2 -10l-2 -8v-8l2 -7l-2 -8v-9l2 -6v-9l-2 -8l2 -7l-2 -8v-9l1 -9l-1 -7v-17l2 -7l4 -12l4 -6l14 -5l8 -1l10 2l6 -2h17l10 2l8 -2l7 2l8 -2l9 2l14 4l5 6l3 13v9l-1 8v8l1 8l-1 14l-5 10l-9 24l6 7l8 -1l9 1l7 -1h8l9 2h7l8 -1h8l7 1l8 -1l10 -1h15
l8 1l7 -1l10 1l6 -1l10 1l4 -7l-4 -8l-3 -9v-9l-5 -7l-2 -15l1 -9l-1 -9l-1 -7l1 -7v-9l-1 -7l1 -8l-1 -10v-16l1 -7l1 -9v-14l-5 -15l-6 -6l-6 -7l-5 -4l-7 -5l-6 -7l-5 -6l-6 -5l-13 -13l-12 -6l-7 3h-17l-7 -3l-9 1l-8 2l-9 -2l-6 2l-9 -2l-7 2l-7 -2l-9 2l-9 -2l-8 -1
h-8l-8 1l-8 -1h-14l-8 3h-7l-9 -2l-8 2h-25l-6 -2h-24z" />
    <glyph glyph-name="d" unicode="d" horiz-adv-x="482" 
d="M49 719l-1 8l-3 9l-3 6l-2 10l5 7h8l8 -1l10 1l7 1l7 -1l9 -1l7 2l9 -2l9 1h13l8 -1h9l8 2l7 -1l8 1l9 -1h7l9 -1l9 1h7l7 -1l7 1l9 1l7 -1h10l7 1l8 -2h8l8 1h15l9 1h7l8 -2l7 1h24l9 -1l14 -4l4 -6l13 -12l7 -4l3 -5l7 -8l6 -4l6 -6l7 -6l5 -13l1 -9l-2 -8l2 -9l-1 -6
l-1 -8v-10l1 -8l1 -7v-24l-1 -7v-10l1 -7v-9l-2 -8l1 -7l-1 -9l2 -8l-1 -7v-7l-1 -8v-18l2 -7l-2 -8l1 -8l-1 -8v-16l1 -9l-1 -7v-16l1 -8v-8l-1 -10v-32l1 -8l-1 -8l2 -7l-2 -7v-8l2 -8l-2 -8l1 -10v-7l1 -9v-8l-1 -9v-6l1 -10l-1 -8l1 -8l-2 -8v-7l2 -7l-2 -9v-7l1 -9
l1 -7v-10l-2 -6l2 -10v-15l-1 -8v-7l1 -10l-2 -8v-8l2 -14l-1 -9l-5 -14l-8 -7l-4 -5l-6 -6l-7 -5l-11 -12l-7 -4l-6 -7l-6 -5l-13 -8l-6 1h-18l-7 -1l-9 1l-6 -1l-8 2l-8 -1l-9 -1l-6 2l-9 -1l-7 -1l-10 2h-7l-9 -1h-7l-9 -1h-6l-10 2l-15 -2h-16l-7 1l-8 1h-8l-8 -2l-8 2
h-8l-8 -2h-8l-8 1l-6 -1h-10l-8 2h-6l-10 -2h-7l-9 2l-8 -1l-5 8l4 9l1 9l2 6l2 9l5 15l-2 18l2 8l-2 6l2 10l-2 8l2 8v6l-2 8v9l2 16l-2 9l1 8v23l1 9l-2 6l1 8v8l-1 8l1 10v7l1 9l-1 7v9l1 6v17l-2 9l1 7v23l1 8l-1 10v8l-1 8v8l2 6l-1 9l1 9v7l-1 9l-1 8v7l2 7l-2 9v7
l1 10v6l-1 10v14l2 9l-1 9v8l-1 8l2 6l-1 10v6l-1 10v7l2 9l-1 8v8l-1 8l2 6l-2 10v15l2 8l-2 8l1 7l-1 9l2 8l-1 9l1 8l-1 6l-1 9zM179 613l1 -10v-30l1 -10l-1 -7l-1 -9l1 -6l1 -8l-2 -8l2 -10l-2 -8v-7l1 -7l-1 -9l2 -7l-2 -8v-8l2 -9v-8l-1 -6l-1 -8l2 -16v-16l-1 -10
l1 -8l-1 -7l1 -8l-1 -8v-7l1 -10l-2 -6l2 -8l-1 -10l1 -8l-2 -7l2 -6v-48l-2 -9l2 -8v-9l-2 -6v-10l2 -7l-2 -9l1 -8l-1 -6l2 -10l-1 -8v-8l4 -12l6 -6l13 -5h8l8 2l7 -2l10 2l6 -1l8 -1l10 2l6 -2h10l7 2l14 5l4 5l6 12l-2 9l2 16l-2 7l1 9l-1 8v6l1 9l-1 9l2 6l-2 16l2 9
l-2 7l2 10v8l-2 7l1 7l1 8l-1 8v9l1 8l-2 6l2 8v8l-2 10v6l1 10l-1 6l2 8l-1 8l-1 10v24l2 7v7l-1 10l1 5l-1 8v9l1 7l-1 8v18l-1 6v16l2 9v8l-1 9l1 8l-1 8l-1 7l1 7l1 8v9l-1 8l-6 12l-4 5l-12 6h-9l-8 -1h-8l-7 -1l-8 2h-9l-8 -1l-7 -1l-10 2h-7l-12 -6l-7 -4z" />
    <glyph glyph-name="e" unicode="e" horiz-adv-x="456" 
d="M410 1l-6 -2l-9 1l-16 -2l-7 2h-18l-6 -2l-10 1l-8 1h-8l-7 -2l-8 2l-8 -1h-24l-6 1h-16l-9 -2l-7 1h-8l-9 1l-6 -1l-9 -1h-7l-18 2l-7 -1l-8 1h-31l-8 -2h-8l-8 2l-7 -1l-8 1l-10 -1l-7 1h-16l-9 -1h-8l-5 8l5 10l1 7l3 9l3 8l2 14l1 8l-1 9l1 7v16l-1 8l1 8l-2 8v9l1 7
l1 9l-1 9l-1 7l1 8l-1 8l2 7l-1 8v9l1 7v8l-1 9l1 8l-1 8l1 7l-2 9l1 9l1 6l-2 8l2 9l-1 8l-1 9l2 6l-1 9l-1 7l2 9l-1 8v16l-1 9l2 6l-2 10v7l1 9l-1 8l2 8l-2 6l2 9l-2 9l2 8v16l-1 7v8l-1 7v17l2 9v6l-1 9l1 9l-2 14l1 9l-1 8l1 9v8l-1 6l1 8l-1 8l2 18l-2 6l2 8l-1 10
l-1 6l2 9l-2 9v22l2 9l-2 14l-5 9l-1 9l-2 8l-3 7l3 7l9 1h15l9 -1h8l9 1l6 -1l10 2l7 -2l9 1h6l9 -1l6 2l8 -2l10 2l6 -1l8 1h24l8 -1l10 -1h5l8 1l9 1h24l8 -2l9 2h7l7 -2h10l7 1l7 -1h15l18 2l6 -2l8 2h9l9 -1l6 1l9 -1h8l10 -8v-6v-8l4 -10l-1 -7l1 -6l3 -8l2 -10l-1 -7
l2 -7l2 -8v-7l1 -9l1 -6l3 -9l1 -7v-8l-6 -7l-5 4l-9 1l-8 2l-8 1l-5 4l-18 2h-16l-7 -2h-9l-8 2l-8 -2h-7l-8 2l-10 -1h-24l-8 -1h-7l-9 2l-7 -2l-10 1l-6 1h-16l-8 -1l-9 1l-13 -5l-6 -7l-5 -10v-18l1 -6l1 -9l-2 -9l2 -5l-1 -8v-9l1 -9v-7l-2 -8v-7l2 -9v-7l-1 -9l1 -8
l-2 -8v-6l5 -15l18 -9l10 -1h14l10 2h16l14 3l10 3l7 2l9 2l8 4l8 -7l1 -6l-2 -16l1 -10l1 -6l-2 -8l1 -10l-1 -6l2 -9v-9l-2 -8v-8l1 -7l-1 -7l2 -9l-2 -7l1 -8v-9l-10 -6l-7 4l-7 2l-10 2l-8 3l-15 3l-7 -1l-10 1l-6 1l-10 -2l-7 1h-9l-13 -5l-3 -4l-7 -13l2 -6l-1 -10v-8
l-1 -7l2 -7v-8l-2 -9v-8l1 -6v-15l-1 -9v-24l1 -6l1 -9v-17l4 -12l4 -6l15 -4l8 1l6 -2l10 2l6 -2l8 1l9 -1l10 2l8 -2l8 1l7 -1l9 2l7 -2l7 1l9 1l10 -2l7 1l8 -1l7 2l10 -2l6 2l8 -2h8l16 4l8 1l7 2l7 3l10 2l5 2l6 -4v-10v-8l-2 -6l-1 -10l-3 -8l1 -7l-4 -7l1 -8l-2 -9
l-3 -7v-10l-2 -7v-7l-3 -8l-1 -10l-1 -6z" />
    <glyph glyph-name="f" unicode="f" horiz-adv-x="456" 
d="M51 721l-3 6l-3 8v8l-3 10l3 6l8 1l9 -1l9 1h8l6 1l9 -2l7 2l9 -2l7 2l9 -2l8 2h6l8 -2l9 2l9 -2l8 1h7l8 -1l8 2l8 -1l7 -1h8l9 2l6 -2h8l18 2l7 -1l8 1h7l8 -1h8l10 1l6 -2h23l10 2h8l8 -1h8l6 -1l9 1h8l8 -1l8 1l10 -9l1 -6l1 -9v-7l3 -7l-1 -8l1 -9l2 -8l2 -7v-8
l2 -9l3 -7l1 -8l1 -8l1 -7l1 -8l2 -7l-7 -5l-8 2h-6l-8 4l-8 2l-7 1l-17 3l-8 -1l-7 1l-8 1l-9 -1l-7 -1h-8l-17 2h-8l-9 -1l-7 -1l-8 2l-9 -2l-8 2l-9 -2l-6 2l-9 -2l-8 2l-7 -2h-17l-7 2l-16 -6l-3 -6l-5 -13v-9l-1 -7l-1 -9l2 -6l-2 -8l1 -10v-6l1 -10l-2 -14v-9l2 -7v-8
l-2 -9l2 -8l-1 -8l-1 -9l1 -7l5 -14l5 -4l13 -6l7 2l9 -2h9l6 2l10 -2h6l18 2l8 3l8 4l7 2l8 4l7 -5l1 -10l-1 -7v-8l1 -9l-1 -7l2 -7l-2 -9l2 -9l-2 -8l1 -6l-1 -10v-8l2 -6v-10l-2 -7v-24l-8 -5l-6 4l-10 2l-7 3l-8 3l-15 1h-9l-9 1l-8 -1l-6 1l-10 -1h-7l-13 -5l-4 -5
l-6 -12l1 -7l-2 -8l2 -9v-7l-2 -8l2 -8v-8l-2 -7l1 -10v-6l1 -8l-1 -8l-1 -10l1 -6v-8l-1 -9l1 -8l-1 -6v-9l2 -9l-2 -7v-8l1 -7l1 -10l-2 -6l2 -8l-1 -9v-8l-1 -7v-10l4 -16l2 -8l2 -8l4 -7l2 -7l-4 -9l-9 -1l-8 1h-15l-9 -1l-5 -1l-10 1h-7l-8 1h-7l-10 -1h-14l-9 -1h-32
l-3 10l1 7l2 8l3 9l5 7l3 18l-1 7l-1 8l1 9l1 8l-1 7l1 7l-2 10l2 6l-1 8l-1 10l2 6l-2 10l1 8l-1 6v10l1 6l-1 10l2 6l-1 8v9l1 8l-1 7l1 10l-2 8l2 8v14l-1 10l-1 7l1 7l-1 8l2 8l-1 9v31l-1 10v23l2 7l-1 8l1 8v10l-2 6l1 8l-1 9l1 8l-1 8l1 7l-1 10l2 14v16l-1 10l-1 7
v7l2 9v9l-2 8l2 8l-1 7v7l-1 8l1 8l1 10l-1 8v22l-1 8l1 9l1 8l-2 7l1 10l-1 7l2 8l-2 9l2 7z" />
    <glyph glyph-name="g" unicode="g" horiz-adv-x="482" 
d="M106 5l-6 6l-6 7l-7 4l-17 18l-7 4l-4 8l-7 5l-4 15v14l-2 8l1 8v9l1 9l-1 8v24l-1 6l2 9v9l-1 8l-1 7v9l1 6l1 9l-1 9l1 7l-1 7v32l1 11v6l-1 8l1 8l-1 10l1 8l-1 8v14l1 8v10l-2 7v16l2 9l-2 6l2 10l-2 6l2 9l-1 9l-1 7l2 7l-2 8l1 8v10l1 7l-2 9l2 9l-2 7l1 8v9l1 8
l-2 8v6l1 9l-1 7v8l2 10v7l-1 7l1 10l-1 8v7l1 8l-2 7v9l2 9l-1 7v8l-1 9l2 7l-2 8l6 15l6 6l7 5l5 6l5 5l6 4l5 7l6 5l8 6l6 5l13 6h6l10 -1h8l8 2l6 -2l10 2l6 -1l9 -1l9 1l7 1l6 -2l9 1l7 1l18 -2l8 1l8 -1l6 2l10 -1l7 1h8l8 -1l6 1h9l8 -1l9 -1h6l8 2h9l8 -1l14 -4
l10 -13l5 -5l6 -7l7 -4l5 -7l7 -6l6 -4l5 -7l6 -14l-2 -8v-15l2 -7l-2 -8l1 -10l-1 -8l2 -6l-2 -10l2 -16l-2 -14v-9l5 -17l1 -6l4 -8l2 -10l3 -8l-5 -6l-7 -1l-10 -1l-6 2h-8l-10 -2l-6 2l-10 -2l-7 1l-7 -1l-8 1l-8 -1l-10 1h-6l-9 1l-7 -1l-9 1h-8l-7 -1l-5 7l1 8l3 10
l5 8l3 6l2 19l-1 6l1 9v17l-4 12l-7 7l-13 3h-15l-9 2h-6l-9 -1l-10 -1l-7 2h-9l-8 -2l-6 1l-13 -5l-5 -5l-5 -13l-1 -6l1 -8l-1 -10l-1 -8l2 -7v-7l-2 -9l2 -7l-1 -9v-24l1 -9l-1 -6v-16l-1 -9l2 -7l-2 -8l2 -8l-1 -9l1 -8l-2 -6l2 -8l-1 -10l-1 -6l2 -10v-8l-2 -6v-9l1 -9
v-6l-1 -9v-15l1 -8l1 -9v-8l-2 -9l2 -5l-2 -10l1 -6l-1 -8l2 -16l-1 -9v-16l-1 -9l1 -8l1 -6l-1 -9v-7l-1 -8l2 -10l-1 -6v-9l-1 -8l5 -12l6 -5l12 -6l10 -1l7 1l8 -1h7l8 2l9 -2l8 1l10 -1h7l8 1l14 4l5 6l3 14l1 8v16l-1 9l1 6l-2 10v6l1 9v32l1 9l-2 6l1 9l-6 9l-9 -2
l-5 2h-7l-9 8l-3 8l-3 6v8l-2 8l-1 10l-2 6l-4 9l-1 7l-1 9l-4 16l-2 9v7l-2 7l4 8l8 1h8l8 1l9 -2l7 1l10 1l7 -2l9 1l8 1h30l9 -2h8l6 2l10 -1l7 -1l9 2l8 -2l7 2l8 -2h9l6 2l6 -9l-2 -6l-3 -7l-1 -6l-4 -8l-2 -6l-1 -16v-7l-2 -10v-8l1 -6l1 -9l-2 -8l2 -8l-1 -8v-17
l-1 -7v-31l1 -9l-1 -8l2 -9l-2 -7v-7l1 -10l-1 -7l2 -8v-9l-1 -7v-17l1 -8l-1 -8l-1 -7v-7l2 -9l-2 -8v-7l1 -8l-4 -14l-7 -7l-6 -4l-5 -7l-7 -6l-6 -5l-6 -7l-4 -5l-5 -5l-6 -5l-14 -5h-17l-7 -2h-15l-10 2l-7 -2h-7l-8 2h-15l-9 -2l-8 2l-7 -2l-8 2h-26l-7 -3l-7 3l-9 -2
l-8 2l-14 -3l-10 3l-16 -3l-7 3l-7 -2l-8 -1z" />
    <glyph glyph-name="h" unicode="h" horiz-adv-x="490" 
d="M52 720l-2 8l-3 8l-2 7l-4 9l5 9l9 -2l7 2h9l8 -2l7 2l7 -2h17l8 2l8 -2l6 1l10 -1l7 1l7 1l7 -2l10 1h7l7 -1l6 -9l-3 -6l-3 -10l-2 -8l-2 -6l-3 -18l-2 -8l1 -9v-7l-1 -7l2 -9l-1 -8l1 -9l-1 -7l-1 -8l2 -16l-1 -9l1 -7v-7l-1 -9l1 -8v-16l-2 -9l2 -6l-1 -9l1 -7
l-2 -10l1 -6l-1 -8l2 -10l-2 -8l1 -6v-9l6 -14l4 -5l13 -5l8 2l10 -2l8 2l7 -2h8l8 1h16l7 -1h8l13 7l5 4l7 13l-1 9l1 8l-1 6l-1 9l2 9l-2 7l2 7v10l-1 6l-1 8l2 9v7l-1 10l1 8l-1 7l1 8l-2 8l2 7l-1 10v16l1 6l-1 9l1 8l-1 7l-1 9l2 8l-2 9v7v18l-5 8v8l-7 14l5 11l10 -2
l8 2l8 -2h24l6 1l10 -1l8 1l7 -1l9 2l6 -1l9 1l7 -1l8 1h9l7 -2l9 1l5 -9l-3 -8l-4 -8l-3 -16l-3 -16l-2 -7l1 -8l-1 -10l2 -6l-1 -9v-7l1 -9v-23l-2 -10l2 -6l-1 -9l1 -7l-2 -8l1 -8v-10l-1 -6v-8l2 -8v-8l-1 -9l1 -7v-10l-1 -7l-1 -9v-6l2 -8v-9l-2 -7v-8l2 -9v-23l-2 -8
l2 -8l-2 -9l1 -8l-1 -8l2 -9l-2 -7v-16l1 -8l-1 -7l1 -9v-8l-1 -8l2 -9l-2 -8l1 -7l-1 -8v-8l1 -7l-1 -8l2 -10l-2 -7v-16l2 -7l-2 -8v-10l2 -7l-1 -7l1 -8l-1 -8l-1 -9l2 -7v-10l-1 -8l-1 -6v-26l2 -7l-1 -7l-1 -9l2 -9l-2 -6v-8l4 -18l4 -6l2 -10l2 -6l4 -8l-6 -10h-9
l-8 2l-8 -1h-8l-7 -1l-8 2l-9 -1l-7 -1l-7 2l-9 -1h-7l-9 1h-7l-9 -2l-7 1h-10l-8 1l-8 -1l-5 7l2 8l5 10l2 7l1 7l3 17v9l-1 8l2 9l-2 6v24l1 8v8l1 10l-2 8v8l1 7l1 9l-1 8v15l1 9l-1 7l1 8l-1 7l-1 8l1 8l-1 9l1 8l1 9l-2 7l1 7l-1 9l1 9l-5 13l-5 4l-12 6l-9 -1l-8 -1
l-9 2l-7 -1h-7l-9 -1h-16l-7 2h-8l-16 -6l-5 -6l-5 -11l1 -10v-15l-1 -8l1 -7l1 -10l-2 -7l1 -9l1 -7v-16l-1 -9v-7l-1 -9v-6l2 -9v-7l-2 -9v-8l2 -7l-2 -8l2 -9l-1 -9l1 -6l-1 -10l1 -7v-8l-1 -9l1 -7v-9l3 -16l1 -8l2 -7l5 -9l3 -9l-5 -8h-10l-8 2l-6 -2h-23l-9 1l-8 1
l-8 -1l-9 -1l-8 2h-13l-9 -2l-9 2h-16l-6 -2l-6 10l2 8l4 6l2 10l2 6l3 16v10l1 6l-1 8v10l2 6v33l-2 9v8l2 7v8l-2 8l1 8l1 9l-2 6l2 9v23l-1 10v7l1 9l-1 7l-1 9l1 6v8l1 10l-1 6v9l-1 8l1 9l-1 8l2 7v16l-2 8v7l1 8l-1 8l2 8l-2 9l1 8v9l-1 8l2 8l-1 6l-1 8l2 10l-2 7
l2 7l-1 10v8l1 6l-1 8v10l1 7v31l-2 9v8l1 7v9l1 7l-2 8v9l1 7v8l1 10l-1 6v10l1 7l-2 9l2 7l-1 8l1 9v15z" />
    <glyph glyph-name="i" unicode="i" horiz-adv-x="235" 
d="M181 41l3 -10l4 -8l2 -9l4 -8l-7 -8h-7l-9 2l-6 -2h-9l-8 1l-7 -1l-8 1l-7 1l-8 -1h-18l-8 1l-6 -2l-9 2l-6 -1h-10l-8 -1l-6 1l-5 7l1 10l4 8l3 7l3 7l2 16v8l-1 8v16l2 9l-1 9l-1 7v7l2 10l-2 8v8l2 7l-1 7v9l1 8v8l-1 8l1 9l-2 8v7l1 7l1 8l-1 8l1 9l-1 7l1 9v57l-1 6
l1 10l-1 8l1 6l-1 9l-1 7l1 8l-1 9l2 9l-1 7l1 9v8l-2 8v15l1 7v10l1 7l-1 9v8l1 7l-1 7v18l-1 8l2 8v14l-1 9l-1 7l2 9v16l-2 7l2 10v8l-1 6l1 9l-1 8l-1 7v17l2 7l-1 9v33l-4 14l-3 10l-1 7l-3 7l-2 8l3 10h17l9 1l8 -1l6 1h7l10 -2l7 2l8 -1l9 -1l14 2l7 -2l9 2l7 -1l9 1
l9 -2l6 2l6 -11l-3 -6l-1 -10l-8 -16l-1 -16v-38l1 -9l-2 -7v-26l2 -8l-1 -8l1 -7l-1 -9l1 -7l-1 -8l-1 -7v-8l2 -16l-1 -9l1 -9l-2 -7v-17l2 -6l-1 -10l1 -8l-2 -7l2 -8l-1 -9v-7l-1 -8v-8l2 -9l-2 -14v-18l2 -8l-1 -6l-1 -8l2 -8l-1 -10l-1 -8v-8l1 -8l-1 -8v-8l1 -8
l-1 -8l2 -8v-14l-1 -9l1 -7v-9l-2 -7l2 -9v-8l-1 -7l1 -8l-2 -9l1 -7l-1 -8l1 -8v-10l1 -7l-1 -8v-9l-1 -6v-18l1 -6v-10l1 -8l-1 -8l1 -6l-1 -10v-15z" />
    <glyph glyph-name="j" unicode="j" horiz-adv-x="466" 
d="M276 761l6 -1l10 -1h8l6 1l9 1h16l7 -2l10 1l8 1h14l16 -2l10 2l7 -1l8 1l9 -1l5 -8l-5 -9l-2 -8l-1 -8l-5 -9l-1 -14l1 -10l-1 -7l1 -7l-2 -8l1 -8l-1 -8l2 -8v-10l-2 -7l1 -8v-9l1 -6l-2 -8l1 -8l1 -10l-1 -6l1 -10l-1 -6l-1 -8l2 -10v-16l-1 -7l-1 -9v-6l1 -10v-7
l-1 -7l2 -8v-9l-2 -7l1 -9v-9l1 -8l-2 -7l1 -8v-8l1 -8v-8l-2 -7l2 -9l-2 -7l2 -9l-2 -8l1 -8l-1 -9v-15l2 -7l-1 -10l1 -6l-1 -10v-16l1 -7l-1 -8v-16l1 -8l-2 -7v-9l2 -7l-2 -10l2 -7l-2 -7l1 -9v-8l-1 -7v-16l2 -8l-1 -9v-9l-1 -7l1 -9v-8l1 -8v-6l-1 -10l-6 -13l-13 -13
l-3 -4l-8 -7l-4 -5l-8 -7l-3 -4l-6 -6l-6 -7l-14 -3l-8 -1h-16l-9 -1l-7 1h-8l-9 -1l-7 2l-9 -1h-6l-10 -1l-7 1h-8l-8 -1l-9 1l-7 1h-9l-6 -1l-8 1h-10l-8 -2l-6 2h-9l-9 -1l-7 1l-8 -2h-9l-6 1l-8 1h-10l-11 3l-8 8l-3 4l-7 5l-5 7l-7 6l-6 5l-5 5l-6 7l-6 5l-5 13v8l1 10
l1 6v25l-1 6l-1 8v17l1 7l1 9l-2 7l1 7v8l1 9v24l-2 6v9l2 9l-1 6l1 10l-3 13l-4 8l-1 8l-2 7l-3 7l-3 5l6 8l7 2h40l8 -2l10 1h8l5 1l10 -1h15l9 -1l6 1h16l9 -1l4 -7v-8l-3 -6l-3 -8l-1 -5l-3 -7l-1 -17l-1 -7l-1 -9l1 -6l-1 -8l2 -10l-1 -7l1 -6v-18l-2 -7v-8l1 -7l-1 -9
l2 -8l5 -13l3 -4l15 -4h7l9 -1l8 1l7 -1h9l6 1l10 1l7 -1h16l14 5l6 3l5 13v9l-1 9v7l-1 7v18l2 8l-1 8v8l-1 7l1 8l-1 9v6l1 8v24l1 9l-2 8l2 8v9l-1 6l-1 9l1 9l1 6l-1 9l-1 7l2 10l-1 8v14l-1 8v10l2 7l-1 10v7l1 7v16l-2 10v23l1 7l-1 8v9l1 8l-1 8l1 8v16l-1 8l1 9l1 6
l-1 9l-1 8l2 9l-2 6v10l2 7v8l-1 7l-1 8l1 9v17l-1 7v15l-3 17l-2 10l-2 6l-3 9l-4 7z" />
    <glyph glyph-name="k" unicode="k" horiz-adv-x="538" 
d="M518 12l7 -5l-2 -6l-8 -1h-9l-9 1h-8l-8 -1l-7 1l-8 -1l-9 -1h-14l-7 2l-10 -2l-7 2h-7l-10 -1l-6 -1l-9 2l-7 -2h-18l-7 2l-6 8l5 6l1 10l-1 15l-2 7l-2 9l-5 5l-1 7l-4 8l-2 7l-5 9l-2 8l-4 5l-2 10l-2 5l-5 8l-1 7l-4 8l-2 9l-4 6l-3 6l-4 8l-1 7l-4 7l-4 9l-1 8l-4 7
l-3 7l-3 6l-5 8l-2 8l-3 6l-3 8l-2 7l-3 9l-3 7l-4 7l-3 7l-2 7l-4 8l-1 3l-8 -12l-8 -15l-4 -7l-5 -6l-4 -7l-2 -8l-6 -7l-5 -4l-4 -7l-2 -9l-4 -6l-6 -6l-2 -9l-6 -12v-24l2 -8l-1 -8l1 -9l-2 -7l1 -10l1 -8v-8l-2 -6l1 -10l1 -6l-2 -8l2 -8l-1 -9l1 -7v-18l4 -8l4 -6
l1 -9l3 -8l-6 -9l-8 2l-8 -2l-6 2l-10 -2l-8 1l-7 -1l-8 2h-7l-8 -1l-7 -1l-10 1h-7l-6 -1h-10l-8 1l-6 1l-10 -2l-7 2l-4 7l2 7l4 8v8l3 10l4 17l1 5v10l-1 6l1 8l-2 9l2 8v9l-1 7l1 9l-1 7l-1 8l1 8l1 9l-1 6l-1 8v25l2 7v8l-2 18l1 6l1 10v14l-1 9l-1 8l2 8v15l-1 9v23
l-1 10v31l1 7l-1 7l1 10v6l1 10l-1 8l1 6l-1 10l-1 6v10l1 6l-1 10l2 7v9l-1 8l1 6v10l-2 6v10l2 7l-2 9l2 8l-2 8l2 8v8l-2 6l2 10l-1 7l1 7v41l-2 8l2 9v14l-1 9v8l-1 9l-2 16l-4 8v7l-3 9l-5 7l6 10l7 -2l10 1l7 -1h9l7 2h16l7 -1l8 1h8l7 -2l10 1l6 -1l9 2h8l6 -2l9 2h7
l5 -9l-5 -16l-2 -9l-4 -9l-1 -15l1 -8l-2 -8l2 -8l-1 -7l-1 -8l1 -9l-1 -8l2 -9l-1 -6v-17l-1 -8l2 -7l-1 -10l-1 -6v-9l2 -8l-2 -8l1 -7l-1 -8v-9l1 -9v-15l1 -7l-2 -9l1 -8l-1 -9l1 -8l1 -6l-1 -8l-1 -9l6 -1l12 21l6 11l6 8l5 7l2 6l4 8l5 6l5 7l2 7l5 7l5 6l3 6l4 9l4 7
l4 5l4 6l5 9l5 6l3 7l6 7l6 13l6 8l4 6l4 8l4 5l3 7l5 6l4 9l4 7l5 4l2 8l6 6l4 7l3 8l4 6l5 6l3 9l5 5l1 14l-3 7l4 10h10l14 -2l10 2h6l10 -2l14 2l10 -2h16l9 1l8 -1h16l7 1l8 1l7 -1h8l8 1l5 -7l-6 -6l-3 -8l-5 -6l-5 -5l-6 -6l-3 -7l-7 -5l-4 -6l-8 -13l-4 -8l-5 -5
l-5 -9l-3 -7l-5 -5l-3 -8l-4 -7l-5 -7l-4 -7l-5 -6l-3 -7l-3 -5l-4 -9l-6 -5l-5 -9l-3 -5l-3 -7l-4 -8l-4 -6l-6 -6l-5 -9l-2 -6l-10 -13l-2 -6l-5 -9l-5 -6l-3 -8l-6 -6l-3 -6l-5 -8l-8 -14l-4 -6l-2 -6l-6 -7l-2 -4l1 -2l3 -6l4 -6l3 -9l1 -7l5 -8l2 -6l3 -8l4 -7l2 -9
l3 -6l2 -8l5 -8l1 -7l3 -6l4 -8l3 -6l4 -7l2 -10l3 -6l3 -7l3 -9l4 -5l3 -9l2 -6l6 -17l2 -7l3 -7l3 -7l5 -8l1 -6l3 -9l4 -7l4 -5l1 -9l3 -7l5 -8l2 -6l3 -9l2 -7l5 -6l1 -9l3 -6l4 -7l2 -9l3 -6l5 -7l1 -8l4 -6l3 -10l5 -5l7 -16l6 -7l3 -5l5 -6l7 -7l5 -7z" />
    <glyph glyph-name="l" unicode="l" horiz-adv-x="456" 
d="M441 133l-3 -7l1 -10l-3 -6v-8l-2 -10v-7l-4 -6l1 -8l-3 -9v-7l-2 -9l-2 -7v-8l-3 -7l-1 -8l-1 -9l-7 -9l-10 2l-7 -2l-9 1l-6 -1l-8 2l-8 -1l-9 1l-8 -2h-9l-6 2l-8 -1h-8l-7 1h-8l-10 -2h-16l-7 2l-9 -2l-8 1l-6 -1l-9 1l-6 -1l-9 1l-8 1l-8 -2h-7l-8 2h-8l-9 -2l-9 2
l-6 -1l-9 1h-9l-6 -2l-8 1h-9l-7 1l-7 -2h-8l-10 2h-32l-6 -1l-5 8l2 9l3 7l2 8l2 9l5 15v7l-2 9l1 9v6l1 9l-1 8l1 7v26l-1 6l1 10l-2 7l2 9l-2 8v6l2 8l-2 10v6l1 10l1 8v6l-1 8l-1 10l1 7l-1 7l1 10v7l1 7v9l-2 9v6l1 8l1 10l-2 7l2 7l-1 8l1 10l-2 8v8l1 7l-1 8l2 7v10
l-2 7l2 9l-1 8v8l1 6l-1 8l1 10l-2 7l2 8l-1 7l-1 9l1 8v7l-1 8l2 16l-1 8l-1 10v7l1 8l-1 7l1 10v6l1 8v18l-2 6l2 9l-1 7v8l1 9v9l-1 8v8l-1 6l1 9l-1 9l-2 15l-4 7l-1 10l-2 8l-3 6l3 10h9l7 -1l9 1h9l6 -2l8 1l8 1h8l8 -2l9 2l16 -2h7l6 2l8 -2h9l9 2l7 -2l5 -7l-3 -8
l-2 -9l-2 -7l-3 -9l-1 -16v-7l-1 -9v-17l1 -6l-2 -10v-15l1 -8l-1 -9l2 -7l-2 -8v-9l1 -8v-16l-1 -8l2 -8l-2 -6v-16l1 -8l1 -10l-2 -16v-7l1 -8l1 -7v-9l-2 -9l2 -6l-1 -9v-8l-1 -9v-8l2 -8v-39l-1 -8l-1 -10l1 -6l1 -8l-2 -9l1 -8v-9l1 -8l-1 -7l1 -7l-1 -10l1 -8v-16
l-2 -6l1 -8v-24l1 -9v-7l-2 -10l1 -6v-17l-1 -7v-10l1 -7l6 -13l3 -6l15 -3l8 -1l8 2l8 -2h7l9 1l8 -1l6 1l9 -1l9 2l7 -2l10 1l8 -1l7 2l7 -1l8 1l8 -2l10 2l6 -1l9 -1l8 1l8 -1l9 1l23 3l7 2l7 2l9 4l7 1z" />
    <glyph glyph-name="m" unicode="m" horiz-adv-x="662" 
d="M482 476l-1 -6l-5 -9l-3 -5l-2 -8l-3 -8l-5 -6l-3 -8l-1 -8l-4 -8l-4 -7l-3 -7l-2 -7l-3 -7l-3 -9l-6 -7l-3 -9l-1 -7l-3 -7l-5 -7l-5 -15l-5 -7l-3 -9l-1 -5l-6 -8l-3 -7l-1 -8l-5 -9l-7 -12l-1 -10l-5 -5l-6 -17l-10 -8l-9 1h-8l-9 -1l-7 1l-8 -1l-9 1h-8l-8 1l-11 7
l-3 7l-4 7l-1 7l-5 10l-3 7l-2 6l-4 8l-3 7l-3 9l-3 5l-1 9l-6 8l-3 7l-2 8l-2 6l-4 7l-3 7l-4 9l-1 7l-5 7l-2 9l-4 5l-1 7l-4 9l-5 6l-1 10l-4 7l-3 7l-4 7l-1 8l-3 7l-5 7l-3 8l-2 6l-4 1l1 -7v-10l-1 -8l1 -7v-40l1 -8l-1 -9l1 -7l-2 -7l2 -8v-9l-1 -9l1 -8v-6l-2 -8
v-15l2 -10l-1 -6v-8l-1 -10v-7l1 -8l1 -9v-14l-2 -8l2 -8l-1 -10v-6l1 -10l-2 -5l2 -10l-2 -7l2 -9l-2 -8v-7l1 -8v-7l-1 -10v-6l1 -10v-6l1 -10v-22l-2 -9l2 -8v-16l3 -8l5 -8v-8l3 -8l-3 -7l-10 -1h-7l-7 1h-18l-7 -1h-7l-8 2l-8 -2l-9 2l-8 -1l-6 1l-8 -1l-8 -1l-8 2
l-8 -2l-8 2l-8 -2l-4 9l3 8l2 9l3 6l2 9l2 17v7l2 6v25l-1 8v8l-1 7v10l1 8v6l1 9v7l-1 10l-1 7v17l2 8l-1 6l-1 8l1 8v8l-1 10v15l2 16l-1 9v7l-1 9l1 7l-1 8l2 9v24l-2 7v7l2 8l-2 10l2 7l-1 8l-1 7v10l2 8l-2 8v7l1 9l-1 7l1 7l1 8l-2 9l2 8v25l-2 6v9l2 7l-1 8v9l1 8
l-2 16v7l2 10v8l-1 6l1 9l-2 9l1 6l-1 8l2 10l-1 8v7l1 9l-2 8l1 6l-1 9v8l2 7l-4 17l-3 9l-3 8l-3 7l-3 9l6 9l7 -2h9l8 1h15l9 1l8 -2l7 2l9 -1l8 1l7 -1l7 -1h9l7 1l8 -1h8l12 -8l3 -5l1 -7l4 -10l4 -7l4 -7l3 -7l3 -8l3 -6l2 -8l3 -6l5 -7l2 -8l3 -9l4 -7l3 -6l3 -7
l3 -7l4 -8l3 -8l4 -8l2 -7l5 -7l1 -8l3 -6l6 -9l3 -6l2 -6l7 -17l3 -5l3 -9l2 -7l3 -6l5 -10l4 -7l2 -6l2 -9l6 -7l2 -7l2 -6l5 -7l3 -7l2 -10l5 -5l3 -9l5 2l3 7l3 5l4 8l3 7l5 9l1 6l4 7l4 9l1 7l5 6l4 8l2 8l3 8l4 6l3 7l3 7l3 9l3 6l4 9l3 6l3 8l3 6l4 9l1 7l3 7l6 7
l1 6l4 10l2 6l3 8l5 7l2 7l5 8l1 6l4 8l5 6l2 10l3 7l2 7l4 8l4 6l3 8l3 7l2 8l3 6l13 9l8 -1l7 1l8 -1l8 1h8l6 -2l8 1h24l8 -1l7 1l9 1l7 -2l16 2l6 -10l-4 -8l-1 -8l-3 -9l-2 -7l-5 -15v-26l1 -7l1 -9l-2 -16v-8l1 -6v-16l1 -9l-1 -8l-1 -7v-9l1 -9v-14l-1 -9l2 -16v-16
l-1 -8l1 -8v-8l-2 -7v-10l2 -6l-2 -10l1 -6v-16l-1 -10v-7l2 -8l-2 -9v-8l2 -7l-1 -8l-1 -7l1 -8l-1 -9v-9l1 -7l-1 -7l2 -9l-1 -8l1 -7v-9l-1 -7l-1 -9v-17l1 -6v-17l-1 -7l2 -9l-2 -8l1 -8l1 -7l-1 -10l1 -8v-6l-1 -9l1 -7l-2 -8l1 -10l-1 -7l2 -7l-1 -9l-1 -7v-8l2 -10
v-8l-1 -7l-1 -8l1 -8l-1 -8v-7l4 -16l4 -8l2 -7l2 -8l3 -8l-5 -8h-15l-10 -2l-6 1l-8 -1l-9 2h-14l-8 -1h-16l-9 -1l-8 2l-8 -1l-7 1l-7 -1l-9 -1l-9 1l-5 9l3 8l3 8l2 6l4 9l4 14v9l-2 7l2 9l-1 9l-1 7l2 9l-1 6l1 9v9l-1 6l1 9l1 7l-1 9l1 7v8l-2 9v8l2 6v9l-2 8l1 16v9
l2 7l-2 7l2 9l-2 7l1 10l1 6l-2 8l2 9l-2 7l1 10l2 7l-2 7v9v6l2 10v8l-2 7v7v8l1 8v9l2 8l-1 9v6l-1 9v7l2 10l-1 8l-1 6l2 10z" />
    <glyph glyph-name="n" unicode="n" horiz-adv-x="546" 
d="M183 40l3 -10l1 -6l6 -16l-5 -9l-8 1l-8 -1h-17l-6 -1h-9l-7 1l-9 -1h-15l-7 2h-10l-6 -2h-8l-16 2h-16l-6 7l5 9l2 7l2 7l4 9l1 17l-1 8l2 7l-1 8v17l1 7l-1 8v32l-1 8v8l1 8v9l1 8l-2 8l2 6l-2 9l1 9l-1 7v25l1 8v8l-1 6l2 10v6l-2 10v8l1 7l1 9l-1 8l1 7l-1 7l-1 9v16
l2 8v8l-2 8l2 7l-2 10l1 6l-1 8l2 9l-2 9l2 6l-2 9l2 7l-2 10v16l2 7l-2 8l2 8v7l-2 10l2 8l-2 6l1 8l1 9v9l-2 7v9l2 6l-1 9l-1 8v9l1 6v10l-1 8l2 8l-1 8l1 7l-2 8l2 9l-2 6l1 10l-1 6l-1 18l-2 7l-5 9l-2 6l-3 8l6 9l9 1l6 -2h17l7 2l7 -2h18l7 2l8 -2l6 2h16l18 -2h7
l11 -6l3 -6l2 -10l3 -7l3 -7l2 -6l5 -8l3 -9l3 -7l2 -7l4 -9l1 -6l4 -8l3 -8l3 -8l4 -6l2 -7l3 -8l3 -6l2 -9l5 -7l2 -7l2 -9l5 -8l6 -13l3 -7l1 -8l4 -8l3 -9l4 -7l2 -5l3 -10l2 -5l4 -8l3 -9l2 -7l3 -7l2 -9l5 -5l1 -8l5 -7l2 -9l4 -8l3 -7l3 -7l1 -6l4 -10l4 -7l3 -7
l2 -8l2 -8l3 -6l3 -8l4 -8l4 -6l4 -15l3 -7l4 -10l3 -7l2 2l2 8v6l-2 10v16l2 6v9l-1 8v9l-1 8l2 6l-2 8l2 8v8l-2 9l1 7l1 10l-1 6l-1 8l2 9l-1 8l1 8v16l-2 8v6l2 10v6l-2 8l1 10l-1 6v8l2 10l-2 6v16l1 10v16l1 7l-2 8l1 7v9l1 9l-1 8l1 6l-2 18l2 8v8l-3 15l-3 9l-2 7
l-4 9l-3 8l5 9l7 -1h10l8 1l6 -2h10l8 2l6 -2h8l16 2h50l8 -2l8 1l3 -8l-3 -10l-1 -6l-4 -9l-3 -8l-2 -17v-6l2 -10v-15l-2 -8v-17l1 -6v-17l-1 -8l1 -8l-1 -7l1 -8l-1 -9v-16l2 -8l-2 -16l2 -8l-1 -9v-7l-1 -9l2 -6v-10l-2 -7l1 -8v-17l1 -7l-1 -9l-1 -6v-8l1 -9l-1 -7
l1 -9l-1 -9v-16l2 -7v-16l-2 -7l1 -10l1 -6l-2 -8l1 -8v-8l-1 -10l1 -6l-1 -10v-16l2 -7l-2 -7l1 -10l1 -8l-1 -7v-25l-1 -7l1 -9l-1 -6l1 -10l1 -6l-1 -10l1 -7v-8l-2 -7v-25l1 -9l1 -7l-1 -9l1 -6l-2 -9v-17l2 -14l3 -10l4 -6l3 -10l2 -6l-6 -9h-7l-7 -1l-10 1h-7l-9 1
l-6 -2l-10 1h-6l-10 -1l-7 2l-8 -2l-9 2h-6l-8 -2l-9 1h-7l-10 7l-3 7l-5 8l-1 7l-3 9l-4 7l-4 7l-2 9l-4 8l-6 14l-3 7l-1 6l-3 10l-3 6l-5 8l-1 7l-4 8l-3 7l-4 7l-1 9l-4 6l-4 8l-1 7l-4 8l-2 6l-3 8l-5 7l-6 15l-1 8l-4 8l-3 6l-2 10l-3 5l-4 8l-3 8l-1 7l-3 9l-3 6
l-4 8l-2 6l-5 9l-1 8l-4 8l-2 7l-4 8l-2 5l-4 10l-2 7l-5 6l-3 7l-3 8l-2 8l-2 6l-3 9l-5 8l-2 7l-3 6l-3 8l-4 8l-2 1l1 -9l1 -7v-10l-1 -7l-1 -8l1 -7v-16l-1 -10v-14l1 -10l1 -6l-1 -8l-1 -9l2 -8v-17l-1 -8l1 -7l-1 -9l-1 -7l2 -8v-9l-1 -7l-1 -7v-8l1 -7v-10l1 -8
l-1 -8l-1 -7l2 -8l-2 -9v-16l1 -7v-16l-1 -7v-34l1 -7l1 -9v-7l-2 -7v-8l2 -10z" />
    <glyph glyph-name="o" unicode="o" horiz-adv-x="474" 
d="M370 754l11 -10l6 -6l5 -6l13 -12l3 -7l6 -5l8 -6l3 -12l1 -9v-9l-1 -8v-7l2 -8l-1 -7v-8l-1 -8v-9l1 -9l-1 -8l2 -7l-2 -8v-25l2 -7v-9l-1 -6v-10l-1 -7l2 -7v-25l-2 -10v-15l2 -7l-1 -10l1 -6l-1 -8v-8l1 -8v-16l-1 -8v-8l1 -10l-1 -7v-8l-1 -8v-8l1 -9l1 -8l-2 -7v-15
l2 -9v-7l-1 -9v-18l1 -7v-8l-1 -8l-1 -9l2 -7l-2 -9l2 -6v-8l-2 -9l1 -7v-17l1 -7l-1 -8v-18l-1 -8v-7l2 -8l-1 -7l-1 -8l2 -8v-9l-1 -9l-6 -12l-5 -8l-6 -5l-5 -5l-6 -5l-7 -7l-5 -6l-11 -11l-5 -7l-14 -5l-9 1l-8 1l-7 -1l-7 1l-9 -1h-7l-10 1l-6 -1l-9 1l-7 -2h-8l-8 2
h-7l-9 -1h-24l-8 1h-8l-8 -2h-7l-7 1l-9 -1l-9 2l-7 -1h-8l-9 1h-8l-7 -1l-7 1l-15 3l-4 7l-8 5l-10 11l-6 8l-5 4l-6 6l-8 5l-4 7l-5 15l-1 7l-1 9l1 6l1 8l-2 10v8l2 8v8l-1 7l-1 8v23l1 8v9l-1 9l1 6l-1 9v8l1 7l1 9v8l-2 7l1 9v17l-1 9l1 7l1 9v7l-2 9l2 7l-1 9l1 6v10
l-2 16l1 6l1 9l-2 7l2 8l-1 9l1 8v40l-2 8v9l1 6l1 9l-2 10l2 7v32l-1 9l1 8v8l-2 14v18l1 8l-1 7l2 7l-1 9l1 7l-1 9v7l1 8l-2 18v15l7 13l6 7l4 5l8 6l6 5l5 5l6 7l5 5l6 6l5 6l14 5l7 1h10l6 1h9l8 -1h9l7 -1h9l7 1l7 -1l9 1l6 -1h10l6 1l8 1l10 -2l6 2h9l8 -1l9 -1h6
l8 2l9 -2l8 2h6l10 -1l8 1h6l8 -2h8zM293 623l-4 3l-14 7l-8 -1l-7 1l-8 -2l-8 2l-8 -2l-8 2h-8l-9 -1l-7 1h-8l-14 -6l-4 -5l-5 -11v-10l-2 -8l1 -7l-1 -9v-24l2 -6l-2 -10l2 -8l-1 -6l-1 -10l2 -7v-7l-2 -10v-7l2 -9l-1 -8l1 -6l-1 -7l1 -8l-2 -9l1 -9v-15l1 -8l-2 -9
l2 -16l-2 -8l2 -6l-1 -9l-1 -7l2 -8l-1 -8v-10l1 -6l-2 -8l2 -9l-1 -6v-17l-1 -8v-9l1 -6l-1 -9l1 -8l1 -7l-2 -8l1 -9v-15l-1 -8l1 -9v-9l1 -6l-2 -9l1 -9l5 -12l5 -4l14 -3l7 -1h7l9 1l7 -1l8 1l10 -1l6 -1l10 1l7 -1l9 2l13 3l4 4l5 14v7l-1 9v7l2 8l-1 9v7l-1 8v7l2 10
v8l-1 8l1 8v7l-1 9v6l-1 8l2 8l-1 9l-1 7v7l1 10l-1 7l2 9v6l-2 8l2 8v10l-2 8v8l1 6l-1 9l1 8v8l1 8l-1 9v15l-1 7l2 9v7l-2 7l2 8v8l-2 9l2 9v16l-1 6v16l-1 8l2 9v16l-2 9v14l2 8z" />
    <glyph glyph-name="p" unicode="p" horiz-adv-x="464" 
d="M181 40l5 -10l3 -16l4 -6l-4 -8l-8 -2h-17l-9 1l-7 1h-6l-18 -2h-7l-8 1l-7 -1l-8 1l-9 -1h-8l-6 1h-17l-7 -1l-6 10l2 6l3 8l4 10l1 6l3 18v7l-1 9v7l2 8l-2 9v7l2 7v8l-1 10v7l1 8l-1 7l-1 8l2 10l-2 7v7l1 8v10l-1 7l1 9l1 8l-1 6v8l1 10v15l-1 7l-1 9l1 9v6l1 10
l-2 7l1 9l-1 7v16l1 7v9l1 8l-2 8l2 8l-2 7l2 10l-2 8l1 6l1 10v15l-2 7l1 10l1 8v8l-1 8v31l1 7l-2 9l1 7l-1 10l2 8l-1 7l1 7v26l-1 8v6l1 9l-2 9l1 7v17l-1 7v16l2 7l-2 10l2 14l-4 18l-3 8l-2 8l-3 6l-3 9l6 9l9 1l7 -2l8 2h7l18 -2l7 2l9 -2l8 1l5 -1h24l9 1l8 -1l8 1
l7 -1l9 2h7l8 -2h15l9 2l7 -1l10 -1h16l7 2l7 -2l9 2l6 -1h9l9 -1h6l9 1h7l9 1l9 -1h8l6 1l14 -6l12 -11l6 -7l6 -5l4 -5l8 -6l4 -6l7 -7l6 -5l6 -13l-2 -9l2 -9v-6l-2 -9v-23l2 -8v-10l-2 -7l1 -7l-1 -8l1 -10l1 -7v-8l-1 -8l1 -10l-1 -8l-1 -7v-16l2 -8v-9l-2 -8v-6l2 -18
l-1 -9l-1 -6l2 -10l-1 -7l1 -8v-8l-1 -7l-1 -9l1 -9l1 -8v-14l-2 -8v-8l-3 -16l-8 -4l-4 -6l-12 -14l-5 -5l-8 -4l-10 -12l-7 -8l-14 -5l-6 1l-9 1h-17l-8 -2l-8 1l-8 -1l-6 1h-10l-7 1l-9 -2l-6 1l-10 1h-15l-9 -2l-7 1h-7l-8 1l-10 -2l-13 -4l-4 -5l-6 -13l2 -7l-1 -10
l1 -8l-2 -7l2 -7l-1 -10v-15l1 -8l-1 -8v-8l1 -9l-2 -6v-9l2 -8l-1 -9l-1 -7l2 -9l-2 -6v-8l1 -10l-1 -6l2 -8l-2 -10v-15zM184 423l4 -4l16 -5l7 -1l9 1l8 -1h6l9 -1l9 1l8 -1l6 1l8 -1l9 1l12 6l7 3l3 14l2 6l-2 10l2 8v8l-1 8l1 8l-1 7l-1 8l2 8l-2 9l2 6l-1 8v7l1 8v9
l-2 8l2 9l-2 6l1 9l-1 9l1 7l-1 8l-5 11l-3 6l-13 5h-16l-10 -1l-7 2l-9 -2l-6 1l-8 1h-25l-15 -5l-5 -6l-3 -12l-1 -8l1 -8v-9l-2 -8l2 -6l-1 -10l-1 -7l2 -8v-7l-1 -8v-16l1 -9l-1 -6l1 -9l-1 -9l1 -7l-2 -9l1 -6l-1 -8l1 -10v-8z" />
    <glyph glyph-name="q" unicode="q" horiz-adv-x="475" 
d="M368 754l8 -7l6 -3l10 -12l6 -7l7 -4l4 -6l7 -7l5 -6l6 -13l1 -8l-2 -9l2 -8l-2 -7l1 -9l-1 -8v-6l1 -10l1 -8l-2 -8l1 -6l1 -8v-26l-2 -8l2 -14v-9l-2 -8l2 -8l-2 -7l2 -8v-9l-1 -9l1 -8l-1 -8l-1 -7v-17l2 -7l-1 -10l1 -6l-1 -10l1 -8l-2 -6l2 -8l-2 -9v-23l2 -8
l-2 -16l2 -10l-1 -6v-25l-1 -8l2 -9l-1 -8v-15l-1 -8l2 -9l-2 -7l1 -10l1 -8l-1 -7v-7l-1 -10l2 -6l-1 -8v-9l-1 -8l2 -7l-1 -9v-8l1 -9v-8l-1 -6l1 -10l-1 -6l1 -10v-7l-2 -8l-4 -15l-7 -5l-4 -5l-7 -6l-6 -5l-4 -8l-8 -4l-12 -13l-5 -4l-14 -5h-7l-10 -2h-16l-13 -3l-4 -6
l-6 -14l2 -9v-8l-2 -8l2 -8l-2 -6l2 -10l1 -15l5 -8l1 -8l4 -9l1 -6l-3 -10l-9 1h-16l-9 1l-8 -1l-7 -1h-9l-6 2l-10 -2l-6 1h-17l-6 1h-16l-8 -1l-8 1l-8 -1l-5 9l1 8l5 16l5 8l2 15l1 7l-1 8v9l1 7l-2 10l2 6l-5 16l-5 4l-15 6h-6l-9 -2h-8l-9 1l-14 6l-6 4l-4 7l-7 4
l-5 6l-6 7l-8 6l-5 5l-6 5l-7 8l-4 14l-1 6l1 10l-1 6v9l1 8v17l-1 7v16l2 7v10l-2 7v8l1 9v14l1 10v32l-1 8l1 8l-1 8l-1 7l1 8v8l-1 8v9l2 7l-2 9v7l1 9l-1 8l1 7l-1 8l2 10l-2 6l2 16v10l-2 6v10l2 16l-1 8v8l1 6l-2 9l1 7v9l1 10v6l-1 8l-1 10l2 8l-2 6v8l1 8l-1 8l1 10
l-1 8v6l1 10v16l-1 6l2 9v9l-2 8l2 6l-1 8v9l1 7v16l5 14l4 6l12 13l7 4l5 7l8 4l6 8l6 4l5 6l13 7l8 -1h17l6 -1l10 1h21l8 -1h48l7 2l10 -2l6 1h8l10 1l7 -2h8l8 2h8l8 -2l6 2l8 -2l10 1h6l10 -1zM293 626l-14 6h-32l-10 -1l-9 2l-7 -2h-8l-8 2l-9 -1l-16 -8l-7 -15v-6
l1 -10l-1 -7l1 -8l-1 -8l1 -8l-1 -7l2 -9l-1 -9l1 -8l-2 -6l1 -8l-1 -9l2 -9l-2 -8v-8l2 -16l-1 -6l-1 -9l2 -16l-2 -6v-9l2 -7l-2 -10l1 -6l-1 -9l1 -7l1 -8l-2 -8l1 -10l1 -8l-1 -7l1 -7l-2 -10l1 -7v-30l1 -9v-8l-2 -8l1 -7v-41l-1 -8l2 -9l-1 -6l1 -10v-16l-1 -7v-8
l8 -15l14 -7h8l9 1l7 1l10 -2h8l7 1l10 -1l8 1h6l9 1l15 5l6 15l1 8v7l1 9l-1 9v6l1 9l-2 8l2 7l-1 9v9l-1 7l1 9l-1 6l2 10l-2 6l2 10l-2 8l2 7l-2 8l1 6l-1 10l1 7l1 8l-2 7l1 8v9l1 9l-1 7v7l-1 9l1 7l1 8l-1 10l-1 7l2 7v10l-1 8v7l1 8l-1 7l1 8l-2 7l2 9l-2 9l2 7l-1 8
l1 9l-1 6l-1 10v23l1 7l-1 8l1 8l-1 8v8l1 8z" />
    <glyph glyph-name="r" unicode="r" horiz-adv-x="482" 
d="M189 -2l-10 1l-8 2h-7l-7 -1l-9 -1l-8 1l-7 -1h-8l-7 2l-8 -1h-17l-8 -1l-7 1h-17l-7 -1h-7l-7 9l3 9l2 7l4 9l2 6l4 16v8l-2 16l2 7l-1 10l1 7l-2 8v23l2 8v8l-1 10v15l1 8v8l-1 8v31l-1 8l1 8l-1 10v8l1 6l-1 8v10l1 8v7l-1 7v9l2 7l-1 9l-1 8l2 9l-1 6l1 8l-1 10l-1 8
l2 6v10l-2 6v9l1 7l-1 8l1 10l1 6l-1 9v17l-1 6l1 9l1 7v9l-2 7l1 9l-1 7l2 10v8l-1 8l1 6l-1 8l1 8v10l-2 6l1 10l1 6v8l-2 8l1 8v10l-1 6v16l2 9l-2 8l1 9l-1 8l1 7l-2 17l-2 8l-4 6l-3 8l-1 9l4 8l8 1h7l10 -1h6l9 1l7 -1l8 1h9l7 -1l9 1l6 -1l8 1h16l10 -1l6 2l9 -2l9 2
l8 -1l6 -1l8 2l7 -1l9 1l8 -1l7 1l10 -2l8 1h6l10 -1h8l5 1l8 -1h10l6 1l8 1h17l7 -1l8 1l9 -2l12 -4l6 -7l6 -5l6 -7l8 -5l5 -4l5 -6l7 -6l4 -5l6 -8l6 -13l1 -7v-16l1 -10v-6l-2 -8v-8l2 -8l-2 -18v-8l1 -6v-9l1 -7l-1 -10v-7l-1 -7l2 -10l-1 -6v-17l1 -9l-1 -8v-7l-1 -8
l2 -9l-2 -9l1 -7l1 -9l-2 -14v-10l2 -7l-2 -9l2 -7v-9l-2 -6v-8l2 -10l-2 -8l2 -7l-7 -15l-7 -4l-5 -6l-5 -8l-7 -6l-5 -3l-7 -6l-6 -8l-5 -6l-5 -4l-4 -13l4 -16l2 -10l2 -7v-9l3 -7l2 -7l1 -9l3 -7l2 -7l1 -8l2 -8v-10l4 -14l4 -8l2 -9l-1 -9l3 -6l1 -9l4 -6l1 -9l2 -7
l2 -9v-7l2 -8l4 -9l2 -9l3 -15l4 -6l2 -8l3 -6l2 -9l4 -5l-6 -8l-8 -1l-6 1l-8 -1h-9l-8 1h-15l-7 -2l-10 2h-6l-8 -2l-10 1h-23l-7 -1l-7 2l-8 -2l-8 10l3 7l1 8l2 9l2 6v16v9l-4 7l-1 7l-1 9l-4 7l-2 9l-1 8l-1 8l-1 8l-4 7l-1 9l-1 8l-3 8l-2 7v7l-2 9l-2 8l-3 8l-2 6
l-3 9l-1 7l-2 9l-2 7v10l-2 6l-3 8l-2 10l-7 13l-12 5h-10l-6 2l-10 -2l-14 -4l-5 -6l-3 -12l-2 -9v-23l2 -8v-10l-2 -8l1 -8l1 -6l-1 -8v-10l-1 -7l2 -9v-8l-1 -6l-1 -8l2 -10v-8l-2 -7v-7l2 -9l-2 -9l1 -8v-6l-1 -9l2 -7l2 -18l3 -6l2 -10l4 -6l2 -9zM204 413l14 2l10 -1
l6 1h10l9 -2l8 1h6l10 -1l7 2l15 2l3 7l7 11l-1 7v10l1 6v9l-1 7v8l-1 10v16l1 8l-1 7v7l2 9v7l-1 9v7l1 8l-1 9l1 7v9l-1 7l1 7l-5 12l-6 6l-15 6h-8l-6 -2l-8 2h-25l-10 -1l-6 -1l-8 2l-8 -2l-14 -5l-6 -4l-4 -12v-7l-2 -18l2 -7v-17l-2 -6l1 -9l1 -7l-2 -10l1 -6v-31
l1 -9l-2 -7v-8l1 -9l1 -7v-8l-1 -10l5 -10l5 -7z" />
    <glyph glyph-name="s" unicode="s" horiz-adv-x="483" 
d="M432 560l4 -9l3 -9l3 -7l2 -9l-4 -8l-7 2l-9 -1l-7 -1l-8 1h-24l-9 1l-8 -2h-9l-8 2l-6 -2l-8 2h-8l-10 -2l-7 1h-8l-9 1l-5 6l4 9l1 7l5 9v9l3 15l2 9v17l-2 9l-3 12l-5 4l-14 5h-9l-8 -1l-7 1l-10 -1h-16l-8 2l-7 -2h-7l-9 1l-14 -3l-5 -6l-4 -12l-1 -10v-8l2 -6l-1 -9
l-1 -8l2 -8l-2 -7v-9l1 -8v-7l1 -8l-2 -10l2 -16l-1 -6l-1 -10l1 -8v-7l4 -12l7 -6l12 -6l9 1l6 -1h8l8 1l9 1l16 -2l8 2l9 -2h22l8 1l10 1l6 -2l9 1l7 1l10 -1l8 -1l7 2l12 -6l7 -5l5 -6l5 -7l6 -6l6 -4l8 -8l5 -3l6 -6l5 -7l4 -14v-6l1 -10v-6l1 -10v-14l-1 -10l1 -7
l-2 -8l2 -7l-2 -10v-39l1 -7l-1 -9v-6l2 -9l-1 -8l-1 -9v-14l1 -10l1 -5v-10l-2 -7v-9l1 -8l1 -6l-1 -10l1 -8l-2 -8v-15l1 -7l1 -10l-6 -13l-7 -5l-6 -6l-4 -6l-7 -5l-4 -7l-8 -5l-4 -5l-5 -7l-8 -4l-11 -6l-8 1l-18 -2l-6 1h-10l-6 1l-9 -1l-7 1l-9 -1l-6 -1h-10l-7 2
l-7 -2l-10 1l-7 1l-8 -1l-9 1l-7 -2l-7 1h-16l-7 -1l-8 2l-9 -1h-9l-7 1l-9 -2h-6l-10 2h-7l-14 4l-6 7l-6 5l-6 6l-6 5l-4 5l-7 6l-12 11l-5 8l-6 14l-2 7l2 7v10l-1 7l-1 8l2 8l-1 8v25l1 8l-1 6v9l1 8l-3 15l-3 9l-1 9l-5 6l-2 8l6 10l7 -1h18l7 1h9l7 -2h8l8 2l9 -2l5 1
h42l8 -1l7 2l9 -2l4 -6l-3 -10l-2 -7l-2 -8l-3 -8l-2 -16v-16l-2 -11l1 -8l6 -13l5 -4l13 -3l8 -1l6 -1h9l9 2h23l9 -1l6 1l9 -1l14 5l5 5l4 13l2 14v9l-1 9v7l1 8l-2 7v18l1 7l-1 8v16l2 8l-2 8l2 8l-2 7l2 8l-7 14l-4 4l-14 6l-7 -1l-7 1h-18l-8 -1l-6 1h-9l-7 1l-8 -2h-9
l-6 2h-24l-9 -2l-9 2l-8 -2h-15l-8 1l-14 5l-5 5l-7 7l-5 7l-11 10l-7 5l-7 8l-6 5l-4 7l-6 12l-1 7l1 10v8l-1 8l1 6l-2 9l2 9l-1 8l1 6v18l-1 8l1 6l-2 10l2 7l-1 9l-1 7l1 9l1 7v8l-1 6v10l-1 8l2 6l-2 10v24l1 6l-1 8l1 8l-1 9l2 8l-2 16l1 9l1 8l-1 6l6 13l6 8l5 4l6 5
l6 8l6 3l7 6l5 6l8 5l6 6l11 5l8 1l10 1l6 -2l9 1l8 1h8l8 -2h17l6 2l9 -1h7l7 1l8 -1l10 -1l7 1l9 1l7 -1h9l8 1l6 -2h7l9 1l7 1h10l8 -2l7 2h16l8 -1l13 -4l6 -6l6 -7l4 -4l6 -6l6 -6l8 -5l5 -8l12 -11l6 -14v-6l-2 -10v-8l2 -7l-1 -8v-9l-1 -7l1 -8v-24l-1 -9l1 -7l-1 -8
z" />
    <glyph glyph-name="t" unicode="t" horiz-adv-x="478" 
d="M442 753l3 -10l2 -7l-1 -8l2 -9l1 -6l3 -9l-1 -8l4 -8v-6v-9l3 -9v-6l2 -10l2 -7l2 -7v-9l-5 -6l-10 1l-8 2l-7 3l-8 1l-6 2l-15 4l-9 -1l-7 -1l-8 1l-10 -1h-7l-8 2h-9l-6 -1l-10 1h-8l-14 -9l-7 -13l1 -8l1 -9l-1 -8v-15l-1 -10l2 -8v-14l-2 -10v-6l1 -10l-1 -6l2 -9
l-2 -9l2 -6l-1 -10l1 -8v-7l-1 -9v-23l1 -9l-2 -7v-9l2 -16l-2 -6l2 -16l-2 -8v-17l1 -8l-1 -10l1 -6l1 -9l-2 -8l1 -7l-1 -8v-17l1 -7l1 -10l-1 -7v-7l1 -8v-25l-2 -7v-16l1 -10v-15l-1 -8l2 -8v-7l-2 -8l1 -9v-8l-1 -8l1 -9v-14l1 -8l-1 -10l2 -16l4 -6l1 -10l2 -6l5 -10
l-5 -6h-8l-8 -1l-10 -1h-6l-8 1h-16l-9 -1l-8 1h-9l-7 -1l-7 2h-8l-9 -1l-7 1l-8 -2l-10 2l-8 -1l-5 8l3 7l5 8v10l5 6l1 18l2 6l-1 8l-1 9v7l2 10l-1 6l1 10v7l-2 8l1 7l-1 8l2 8v34l-2 6l1 8v10l-1 8l1 8l-1 6v17l2 9l-2 8v7l1 8l-1 9l2 16l-1 7v9l1 6l-2 11l1 6l1 8
l-1 10l-1 6l2 9l-1 7l1 8l-2 9v9l1 7l1 8v7l-2 8v24l2 10l-2 7l1 7v8l-1 8l2 8l-2 8l2 9l-1 8v8l-1 9v6l2 10l-1 8l1 6l-1 9l-1 8v7l-4 15l-6 4l-12 3l-10 1h-6l-8 -1l-9 1l-8 -1l-9 2l-7 -2l-7 2l-10 -2l-7 1l-23 -3l-8 -2l-8 -3l-6 -1l-9 -3l-5 7l1 6v9l2 8l2 7v9l1 9l4 7
l1 7l1 7v8l3 8v10v7l4 8v9v6l9 8l10 1h14l8 1l9 -1l9 1l8 -1l7 1l8 -2l8 2h9l6 -2l10 2l8 -2h6l9 1l7 -1h8l8 2l9 -1l8 1h7l9 -1h9l6 -1h10l6 2h10l8 -1l8 1h7l9 -2l16 2l7 -1l9 1l7 -2l16 2h23l10 -1h7l8 -1l9 1l7 1l8 -2l9 1z" />
    <glyph glyph-name="u" unicode="u" horiz-adv-x="488" 
d="M447 752l-1 -9l-3 -8l-3 -7l-2 -9l-3 -16v-10l1 -8l-2 -7v-15l2 -10l-2 -6l2 -10v-14l-2 -9l2 -7l-2 -10l2 -6v-9l-1 -9l1 -8l-2 -8l1 -7v-8l-1 -9v-7l1 -8v-8l1 -7v-16l-2 -10l2 -7l-2 -8v-7l1 -10l1 -8v-7l-1 -9l1 -8l-2 -7l2 -8l-2 -16v-8l2 -7l-2 -10v-8l1 -6l-1 -10
v-16l2 -6v-32l-1 -8v-10l1 -8v-6l-2 -9l2 -7v-8l-2 -10l1 -6l-1 -9l1 -8l1 -7v-8l-1 -10v-14l-1 -8l1 -9v-16l1 -9v-7l-1 -9v-7l1 -7v-8l-8 -13l-6 -6l-5 -8l-12 -11l-5 -4l-5 -8l-7 -3l-5 -8l-8 -4l-13 -5l-8 -2l-7 1l-9 1l-6 -2h-9l-7 1l-9 -1l-9 1l-6 1l-8 -2l-10 2
l-7 -1l-8 1h-8l-8 -2l-7 1h-16l-9 1l-8 -1h-8l-8 -1l-7 1h-7l-10 1h-6l-10 -1h-14l-9 1l-12 4l-8 7l-4 5l-6 4l-5 8l-7 6l-4 5l-7 5l-5 6l-7 6l-3 13v31l-1 10v6l1 10l-2 7l1 8l-1 7v9l1 7v9l1 7l-2 10l1 7v8l-1 8l2 7l-2 10v7l1 9l1 6l-1 10l1 8v31l-2 9l2 8l-2 8l1 7l1 8
l-2 7l2 8l-2 8l2 18v7l-2 7l2 16l-2 10v8l2 6l-2 8l1 8v8l-1 9v9l1 8l1 6v10l-2 7l2 8l-1 9l-1 7l1 9l-1 8l2 8l-1 6v10l1 8l-1 6v8l-1 10l2 7l-1 7l1 8l-2 9l2 9v23l-2 8l2 7v10l-1 7l-2 18l-3 6l-2 10l-3 8l-4 8l6 7l14 2l9 -1l7 -1h9l8 2l6 -1h8l9 -1h8l7 2l9 -2l6 2h41
l5 -11l-4 -7l-1 -7l-4 -9l-1 -7l-4 -17l1 -9l-2 -9l1 -8l1 -6l-2 -18v-6l2 -8v-18l-1 -7l1 -8l-1 -7l1 -10l-2 -8v-8l1 -7l1 -9l-1 -8v-15l1 -9v-14l-1 -10v-8l1 -7v-7l-2 -10l2 -6l-1 -10v-6l1 -10v-8l-1 -7v-18l-1 -6l2 -10v-6l-2 -8l1 -8v-16l-1 -9l2 -7v-10l-1 -7v-9
l-1 -6l1 -10l-1 -6l1 -10v-31l1 -8l-1 -7v-10l-1 -8l1 -8l1 -7l-2 -8l1 -8l-1 -7v-10l2 -7l-1 -8l5 -13l5 -4l15 -5l8 -1l6 1h8l8 -1h10l8 2l7 -1l8 1l10 -2h7l15 4l3 7l5 13v8l1 6l-1 9l2 7l-1 8l1 10v16l-2 7l2 9v7l-2 9v6l2 8v9l-2 9v15l2 9l-1 8l-1 6v9l1 7l1 10l-2 7
l1 7v26l-1 6l1 8l-1 9l1 7v8l1 10v15l-1 8l1 8l-2 9l2 9v7l-2 9l1 8v16l1 6v18l-1 7v17l1 8l-2 8l2 6v9l-1 7l-1 10l1 7l-1 9l2 6l-1 8l-1 10v6l2 8l-2 9l2 9v7l-2 9l-3 17l-1 8l-2 6l-5 9l-2 8l5 8l9 2l8 -2h14l10 1l7 1l7 -1l9 1h8l9 -1l8 -1l8 2l6 -2l9 2l8 -1h16l9 1z
" />
    <glyph glyph-name="v" unicode="v" horiz-adv-x="494" 
d="M455 680l-3 -9l-1 -7l-3 -10l-1 -7l-2 -6l-1 -9l-2 -7l-1 -9l-3 -7l-1 -9l-1 -8l-2 -7v-7l-2 -8l-2 -10l-2 -5l-1 -9l-1 -9l-4 -8l-1 -6l-2 -9l-2 -6l-1 -10l-1 -6l-1 -10l-3 -7v-7l-2 -7l-2 -9l-2 -7l-2 -10l-1 -6l-1 -8l-1 -9l-3 -6v-10l-3 -6l-2 -8v-9l-3 -6l-2 -10
l-1 -7l-2 -7v-9l-3 -8l-2 -6l-1 -8l-2 -10l-3 -15l-1 -8l-3 -7l-2 -9v-5l-3 -16l-2 -10l-2 -8l-1 -8l-2 -5l-3 -9l-2 -9l1 -7l-4 -9l-1 -5v-8l-3 -9l-1 -9l-1 -7l-3 -15l-2 -9l-3 -6l-1 -9l-3 -9l-1 -6v-7l-4 -10v-6l-1 -10v-13l3 -8v-9l3 -6l3 -10l-6 -8l-8 2h-9l-9 -1
l-6 1l-9 -1l-7 -1h-10l-6 2l-15 -2l-10 1l-6 1h-8l-9 -1l-9 1l-7 -1h-7l-10 -1l-8 2l-6 -1l-6 7l1 10l3 7l4 14v17l-3 7l-1 8v7l-4 10l1 7l-2 6l-4 10l1 8l-2 6l-2 9l-1 8l-4 7v8l-3 9v5l-2 8l-3 8l-1 9l-1 7l-1 7l-2 9l-2 7l-1 10l-3 6l-2 9v8l-2 7l-4 7l1 10l-4 7v7l-3 7
l-1 8l-2 9v6l-3 8l-2 10l-1 8l-3 8v5l-1 8l-4 9v7l-2 8l-3 8l-1 9v7l-3 9l-1 6l-1 10l-2 7l-2 7l-2 8l-1 9l-2 6l-1 9l-4 8v8l-3 6v9l-1 6l-4 9l-2 7v10l-3 8l-2 7l1 6l-4 9l-1 7l-2 10v5l-4 10l1 6l-2 10l-3 8l-2 6l-2 8v7l-2 8l-2 9l-5 16l-2 6l-2 8l-3 6l-5 7l-1 8l-5 8
l-6 15l7 7l8 1h8l7 -2l8 1h7l7 -1h18l6 1h25l6 1l10 -2h7l7 1l8 1l9 -2l4 -5l-1 -8l-2 -6l-2 -15l3 -8v-10l2 -6l1 -8l1 -9l3 -8l2 -6v-10l2 -6l1 -9l3 -8l1 -6v-10l3 -7l2 -8l1 -8l1 -8l3 -7v-9l2 -5v-9l2 -8l2 -7l2 -10v-6l3 -7l2 -10l2 -8l-1 -6l4 -9v-6l1 -9l1 -9l3 -6
l1 -7l1 -9l1 -9l2 -8l3 -6l2 -9l-1 -6l3 -10l2 -6l2 -9v-7l1 -9l2 -8l1 -7l3 -9l2 -7l-1 -8l3 -6v-8l2 -8l1 -9l2 -7l1 -9l4 -6l1 -10l1 2l1 7l4 8v7l2 8l1 8l3 9v7l3 8l1 7l1 8l1 8l2 7v8l4 8v8l2 8l2 9l2 6l1 8l2 8l1 7l1 10l2 7l1 7v9l2 7l3 7l2 8v10l3 5v9l3 7v10l1 6
l1 8l3 9l2 7v7l1 8l5 17v8l3 6l2 9v6l2 8l1 10l3 7l-1 9l4 5l1 10l1 7v9l3 6l2 7l1 8v10l4 7l1 8l-3 16l-4 14l4 6l7 -1h16l9 2l8 -2l8 2h7l8 -2h9l9 1l8 -1l8 2l8 -1l7 -1l8 1l7 -1l10 1l8 -1l4 -5l-2 -8l-5 -7l-1 -7l-4 -9l-3 -7l-6 -13l-2 -8z" />
    <glyph glyph-name="w" unicode="w" horiz-adv-x="814" 
d="M775 679l-4 -7l-1 -9l-2 -8v-7l-1 -8l-3 -7l-5 -24l-2 -8l-1 -9v-7l-4 -8v-8l-3 -8v-7l-4 -8l1 -9l-2 -6l-2 -10l-2 -5l-2 -9v-8l-3 -8l-2 -8l-2 -7v-7l-1 -9l-4 -7v-10l-3 -7l-1 -8l-2 -8l-2 -7v-7l-2 -8l-1 -8l-4 -7l1 -9l-4 -8l-1 -7l-2 -8v-9l-2 -8l-1 -7l-4 -7v-10
l-2 -6l-1 -9l-2 -8l-3 -8v-6l-1 -10l-2 -6l-2 -7l-1 -10l-2 -7l-4 -16l-2 -6v-9l-3 -9l-2 -8v-7l-3 -8l-1 -6l-2 -10v-6l-5 -23l-2 -10l-3 -8v-7l-2 -7l-1 -9l-3 -7l-2 -9v-8l-4 -6l1 -17l4 -7l2 -7l2 -9l2 -8l-7 -7h-17l-6 -1l-8 2h-17l-6 -1l-8 -1l-8 2l-10 -1l-8 -1l-6 1
l-9 1l-8 -2h-24l-8 1l-6 1l-9 -2l-4 9l1 7l2 7l2 10l2 7l-1 15l-1 8l-1 8l-2 7v8l-3 17l-3 7l-2 9l-1 7v8l-3 6l-2 8l-3 18l-2 8v5l-1 10l-4 7l-1 9v7l-3 7l-2 9l-1 8v7l-4 9v6l-1 9l-3 8l-4 14l-1 8v9l-3 6l-2 8l-1 10v8l-1 8l-2 7l-3 8l-2 6l-1 10v7l-3 9l-1 7l-1 8l-3 7
l-2 7l-1 9l-2 7v7l-1 10l-2 6l-1 8l-3 8l-2 1l-3 -8v-8l-3 -7v-10l-1 -5l-3 -8l-2 -9l-2 -7l-1 -9l-1 -9l-2 -5l-2 -9l1 -8l-3 -8l-2 -7l-1 -9l-1 -8l-1 -7l-2 -9l-2 -8l-1 -6l-2 -9l-1 -6l-1 -10l-3 -7l-1 -7v-9l-2 -6l-1 -8l-3 -10v-8l-4 -6l1 -9l-3 -6l-3 -18v-7l-2 -7
l-1 -9l-2 -8l-1 -6l-4 -8v-8l-2 -7l-2 -8l-2 -9l1 -8l-3 -7l-1 -10l-1 -7l-2 -6l-2 -9l-2 -9l-2 -6l1 -17l2 -8l2 -6l3 -8l1 -8l-5 -7h-8l-9 -2h-15l-7 1l-10 -1l-7 2h-9l-6 -1l-9 -1h-7l-9 2l-8 -1h-7l-9 -1l-6 1l-8 -1l-8 1h-9l-8 -1l-5 9l3 8l2 8v8l3 7l1 15l-3 7v10
l-4 7l-1 9v7l-4 8l-2 6l-1 10l-2 15l-3 8l-1 8l-3 7v9l-1 6l-4 9l1 7l-4 8l-2 7l1 9l-2 7l-2 8l-3 8v7l-2 8l-3 7l-2 9v7l-3 10l-1 6l-2 7l-1 8l-2 10l-2 6v8l-3 7l-2 8l-1 10l-2 8l-2 7l-1 6l-3 10l-1 7l-2 8l-2 9l1 5l-3 9l-2 7l-2 9l-2 9l-2 6l1 9l-4 7l-1 9v6l-3 7
l-2 10v8l-4 6l-2 8v8l-1 8l-2 9l-2 7l-2 9l-3 5l-1 9v9l-3 8l-1 8l-2 5v9l-3 7l-3 10l1 6l-3 8l-2 8l-2 8v8l-3 7l-3 15l-4 8l-4 7l-2 9l-3 6l-3 9l-2 5l-5 10l-3 5l7 8l8 -1h16l8 2l7 -1l9 -1l5 1h16l10 -1h6l8 1h15l10 1l8 -1h16l3 -8l-1 -5l-1 -8l-1 -15l2 -8v-9l1 -6
l1 -8l4 -8l-1 -8l2 -8l1 -7l2 -9l2 -7l1 -9l3 -8v-7l4 -8l-1 -6l4 -9l-1 -7l3 -10l1 -6l1 -7l3 -10v-7l2 -9l3 -5l2 -8l1 -10l2 -6v-10l3 -7l-1 -8l3 -8l2 -6v-9l4 -6v-10l2 -6l2 -8v-9l2 -8l1 -7l2 -9l3 -7l1 -7l2 -9l2 -6l-1 -10l3 -6v-10l3 -7l1 -8l3 -6v-10l1 -7l3 -7
v-9l2 -7l1 -8l5 1v6l2 9l2 9l2 6l1 9l2 6v10l4 7v7l3 8l1 10l2 5l1 10l1 8l1 8l4 6l-1 9l2 7l2 9l1 7l4 9l1 6l1 10v7l4 6v10l2 8l1 8l5 14v8l2 7l3 10l1 7v9l4 6v7l3 16l3 9v7l2 8l1 8l2 9l1 8l2 7l2 9l1 7l2 7l2 8l2 7l2 9v7l2 9l2 8l-1 17l-1 8l-3 8l-1 8l4 9h9l7 -1h7
l8 -1h24l10 2h6l10 -1h7l7 1l10 -2l7 1h7l8 1l9 -1l7 -1l5 -8v-8l-2 -7l-4 -9v-16l2 -9l2 -8l2 -16l3 -7l1 -6l1 -8l2 -9l1 -7l1 -9l3 -7l1 -9l2 -8l2 -8l2 -8v-7l4 -8l1 -8l1 -7l2 -9l1 -7l1 -9l1 -7l4 -9l-1 -7l3 -6l2 -10v-6l2 -9l3 -9v-6l2 -7l3 -10l2 -6l2 -8l-1 -8
l4 -9v-8l1 -6l4 -8l-1 -8l3 -10l3 -6l-1 -9l4 -6l-1 -9l4 -9l1 -7l1 -9l2 -6l2 -9v-6l2 -8l3 -8l1 -10l4 2l1 7l2 8l1 9l1 5l3 9v8l3 9l-1 7l3 7v9l3 6l3 8l-1 8l2 7l3 8l1 9v8l3 8l1 7l3 9v7l2 9l1 6l1 8l2 8l3 9v6l1 10l4 5l-1 9l2 8l1 9l4 7v7l1 9l2 6l2 9l3 8l-1 7l2 8
l2 9l1 6l3 8l1 7l1 9l1 8l2 8l2 9l1 7l2 7l2 9l1 7l2 9l1 7l3 7l1 7v9l-1 16l-2 5l-4 7l5 8h8l8 1h8l16 -2l10 1l7 -1h7l9 2l9 -2l6 2l10 -1l8 -1h8l6 1l8 1l10 -2l8 2l4 -7l-4 -9l-6 -13l-2 -9l-4 -6l-3 -8l-2 -7l-3 -6z" />
    <glyph glyph-name="x" unicode="x" horiz-adv-x="494" 
d="M468 24l4 -5l8 -12l-3 -9l-8 2l-8 -2l-6 1l-9 -1h-32l-8 1l-7 1h-16l-8 -1h-14l-10 -1l-8 1l-6 -1l-9 2l-7 -1h-8l-3 9l3 8l5 6l1 15l-2 8l-3 9l-2 5l-4 9l-4 7l-1 7l-3 6l-3 9l-4 6l-2 9l-4 6l-3 9l-2 7l-5 6l-4 15l-3 7l-4 8l-3 9l-2 5l-3 8l-5 7l-1 8l-4 7l-2 3v-2
l-3 -6l-4 -8l-2 -7l-4 -9l-3 -8l-1 -6l-5 -8l-1 -7l-4 -8l-2 -6l-5 -8l-2 -8l-3 -7l-3 -8l-4 -7l-3 -6l-3 -7l-3 -10l-1 -7l-5 -6l-6 -16l-1 -8l-3 -6v-14l5 -8l4 -9l-4 -8l-6 -1l-8 2l-10 -2h-29l-9 2h-8l-9 -1l-6 1l-9 -2h-16l-8 1h-6l-9 1l-8 -1l-7 1l-10 -2h-7l-3 7l4 7
l6 7l4 5l5 7l6 6l4 6l9 13l1 8l5 7l1 7l4 7l2 7l3 9l2 6l4 9l2 6l4 9l2 6l5 6l4 15l4 10l4 6l1 8l5 7l3 8l2 7l3 6l4 9l2 7l2 8l4 5l3 8l4 8l1 9l4 6l4 7l1 8l3 7l4 8l2 8l3 6l4 8l2 8l8 15l3 6l2 6l3 9l2 6l4 7l-2 5l-4 8l-2 7l-4 9l-3 7l-2 5l-3 9l-2 8l-3 7l-5 6l-1 7
l-4 8l-2 9l-4 6l-2 8l-4 8l-2 8l-4 5l-4 9l-2 6l-2 9l-3 8l-3 5l-3 10l-3 7l-4 8l-3 5l-3 8l-4 9l-3 7l-2 8l-3 5l-3 8l-2 9l-4 7l-2 7l-6 15l-3 6l-5 7l-2 10l-3 7l-2 6l-3 9l-9 12l-6 8l-3 6l-4 6l-7 6l-4 6l-5 5l4 5l6 2h26l6 -2l8 1l8 -1h9l6 2l8 -1l9 -1l7 2l7 -1l9 1
l9 -1l8 1l6 -1l8 1h8l8 -1l9 -1l2 -7l-4 -8l-2 -9v-13l1 -7l5 -10l2 -6l1 -7l4 -8l2 -8l5 -6l4 -14l5 -9l2 -8l4 -7l3 -6l1 -9l4 -6l4 -8l1 -6l3 -10l4 -7l3 -8l2 -5l5 -8l1 -7l4 -7l2 6l4 9l1 5l4 9l2 8l3 7l4 8l2 7l5 6l3 9l3 7l1 8l3 6l3 7l4 8l4 6l2 8l3 9l3 5l2 9l6 14
l3 7l4 8v14l-4 10l-5 8l4 7l9 1l7 -2l8 2h24l6 -2l10 2l6 -2l9 2h6l18 -2h7l8 1l8 -1l7 2l9 -1h7l7 -1h9l4 -4l-7 -7l-3 -7l-4 -5l-6 -5l-5 -8l-5 -6l-7 -14l-3 -6l-4 -7l-2 -9l-2 -5l-5 -8l-4 -8l-2 -7l-4 -8l-2 -6l-4 -8l-3 -7l-2 -10l-2 -6l-4 -7l-3 -7l-4 -8l-2 -9
l-4 -7l-2 -6l-2 -8l-3 -7l-8 -15l-1 -6l-3 -9l-4 -6l-4 -8l-1 -7l-5 -7l-2 -10l-2 -7l-3 -5l-3 -10l-3 -5l-4 -8l-2 -9l-4 -7l-3 -7l-2 -7l-3 -7l-4 -7l-2 -8l-3 -9l-3 -3l1 -1l3 -8l1 -6l4 -7l4 -8l2 -8l2 -8l3 -7l3 -5l3 -9l5 -7l2 -7l3 -7l4 -8l2 -7l2 -8l3 -6l3 -10
l5 -5l3 -10l3 -5l3 -8l1 -8l4 -7l4 -9l1 -7l4 -5l2 -8l5 -8l3 -8l2 -7l4 -6l1 -10l3 -7l3 -5l3 -8l4 -9l4 -5l3 -9l1 -8l5 -7l3 -6l1 -8l5 -8l3 -8l7 -12l3 -8l5 -5z" />
    <glyph glyph-name="y" unicode="y" horiz-adv-x="524" 
d="M324 257v-8v-9l1 -9l-2 -6l1 -9l-1 -9l1 -6v-25l-1 -8v-8l1 -9l-1 -7l1 -7v-8l-1 -8v-17l1 -7v-8l-1 -9l2 -9l-2 -6v-10l3 -16l4 -6v-9l5 -16l-5 -8l-8 -1l-9 2l-6 -2h-33l-9 2l-8 -2l-9 1h-6l-10 -1l-8 1l-8 -1h-7l-9 2h-8l-7 6l7 18l1 7l4 8l1 16v8l2 9v14l-1 10v8l1 8
l-2 8l2 6v24l-1 8l-1 9v7l2 8l-1 10l1 7l-2 7l1 10l-1 7l2 8v7l-1 8l-1 10l-2 15l-2 7l-2 7l-3 9l-4 6l-3 9v6l-5 9l-3 9l-3 13l-5 9v8l-3 5l-4 10l-1 7l-4 8l-3 6l-3 9l-2 8l-3 7l-1 7l-4 7l-4 9l-1 6l-2 8l-3 7l-2 9l-3 8l-5 8l-2 6l-3 8l-2 6l-3 10l-2 6l-4 9l-2 6l-1 7
l-3 8l-3 8l-3 7l-4 9v8l-3 7l-4 6l-3 8l-3 7l-1 8l-2 7l-4 10l-2 6l-4 9l-3 6l-1 8l-3 9l-3 6l-3 9l-8 15l-5 7l-2 7l-7 6l-3 8l-5 6l-4 6l2 9l10 -2l8 1l7 1h9l6 -2l9 2h9l7 -1h17l8 -1l8 1l9 1l8 -1h16l7 -1l10 2l7 -2l7 1l8 -1l5 -6l-4 -9l-5 -6l-3 -15l3 -8l4 -9l2 -6
l2 -10l3 -8v-7l2 -6l5 -10l1 -6l2 -9l3 -7l1 -9l3 -6l3 -8l2 -7l2 -9l2 -7l5 -15l4 -10v-8l4 -6l3 -9l2 -8l3 -8v-8l5 -6v-8l2 -8l4 -7l3 -7l1 -10l5 -14h6l1 6l2 10l3 6l1 8l5 8l1 7l2 10l4 7l2 6l2 9l1 7l4 8l3 9l2 8v7l5 8v6l4 9l3 7l2 7l1 10l4 7l2 7l1 7l3 10l1 6l4 9
l3 6v8l5 10l1 8l1 5l5 8v10l-2 13l-4 9l-5 7l6 9l6 -2l9 2l8 -2l9 2l8 -2l6 1h18l7 -1h10l7 2h42l8 -2l7 1h7l8 1l10 -2l2 -6l-5 -7l-4 -8l-3 -6l-6 -8l-4 -5l-6 -8l-7 -15l-3 -8l-1 -8l-3 -6l-3 -8l-2 -8l-2 -6l-5 -10l-1 -7l-4 -6l-3 -15l-3 -10l-5 -5l-2 -8l-2 -9l-3 -8
l-3 -6l-2 -9l-4 -8l-2 -6l-1 -7l-3 -9l-4 -8l-4 -15l-2 -8l-4 -5l-2 -10l-3 -7l-2 -6l-3 -10l-3 -6l-3 -9l-3 -5l-1 -10l-5 -7l-2 -8l-2 -7l-3 -6l-3 -10l-3 -5l-3 -8l-1 -10l-3 -6l-3 -9l-1 -7l-5 -8l-3 -6l-2 -8l-1 -8l-4 -8l-2 -6l-2 -9l-3 -7l-2 -7l-4 -9z" />
    <glyph glyph-name="z" unicode="z" horiz-adv-x="455" 
d="M425 136l-1 -9l-2 -8l-2 -8v-8l-3 -9l-1 -7l-1 -9l-2 -8l-1 -6l-2 -8l-1 -8l-1 -10v-7l-2 -8l-1 -7l-2 -10l-11 -7l-7 1l-7 -1h-18l-16 2h-7l-9 -1l-8 1l-6 -2l-8 2l-10 -2l-17 2h-15l-8 -2l-7 2l-9 -2h-9l-8 1h-15l-9 1l-7 -2l-7 2l-10 -2l-8 1l-9 -1l-8 1h-30l-10 -1
l-6 1h-17l-8 -1h-23l-10 1l-7 9l-2 8v7l2 9l-1 8v8l-1 6v24l2 8l-2 10v6l2 10v8l4 14l3 6l4 7l3 8l3 9l4 5l3 9l2 7l5 5l3 10l2 5l6 8l1 8l3 5l4 9l5 7l3 7l4 7l4 7l1 9l4 5l4 8l4 8l7 15l3 7l3 7l4 5l2 9l5 6l4 8l2 7l4 7l3 6l3 8l5 8l3 8l3 6l2 8l4 7l4 8l2 5l6 8l1 6l5 9
l4 6l2 7l3 7l5 9l3 7l3 8l5 5l2 9l7 12l4 8l2 9l4 7l5 6l1 8l4 7l5 7l1 8l4 5l3 8l5 8l3 7l4 6l4 7l-5 8l-8 2l-9 -2l-8 2h-7l-8 -2h-7l-9 2l-6 -1l-8 -1h-9l-7 2l-7 -1h-10l-6 -1h-17l-9 2l-5 -2l-9 2l-8 -2h-7l-10 2l-7 -2h-14l-10 -4l-7 -2l-8 -1l-7 -1l-8 -4l-7 6l1 8
l3 7l2 8l1 10l1 6v10l1 8l2 6l3 17l2 7v9l1 8l2 8l2 6l2 10l8 6l9 2l8 -2h15l8 2l9 -1l8 1h8l6 -1l10 -1h8l7 1l8 1l9 -1h16l6 1h34l7 -1l7 -1l9 2h16l6 -2l10 2h7l9 -1l8 1h6l8 -2h10l8 1h16l6 -1l9 2h24l7 -2l10 2l6 -9l1 -7l-1 -9v-7l-1 -8v-9l2 -7v-8l-1 -9l1 -8v-5
l-2 -8l2 -9l-1 -9l-1 -6l-3 -15l-7 -14l-1 -8l-5 -9l-3 -6l-5 -7l-3 -7l-4 -7l-2 -8l-5 -6l-1 -8l-5 -9l-2 -6l-4 -8l-3 -6l-4 -9l-5 -5l-1 -7l-4 -9l-5 -6l-3 -7l-3 -8l-4 -8l-5 -15l-6 -5l-2 -8l-3 -7l-5 -9l-2 -6l-3 -8l-5 -7l-2 -6l-4 -7l-4 -7l-3 -8l-5 -7l-1 -7l-6 -9
l-2 -7l-4 -7l-4 -8l-3 -7l-4 -6l-3 -9l-4 -7l-2 -5l-3 -7l-4 -10l-5 -7l-7 -14l-1 -6l-6 -8l-2 -7l-5 -7l-1 -8l-3 -7l-9 -13l-3 -9l-4 -8l-4 -7l-1 -7l-6 -8l-3 -5l-3 -9l-2 -6l2 -6l9 -1l9 1l7 -1h8l9 1l7 -2l8 1l6 -1l9 1l7 1l10 -2l6 2l9 -1h8l8 1l8 -2l6 1l10 -1l7 2
l8 -2h16l8 2l15 2l6 1l10 1l6 2l7 4l8 1z" />
    <glyph glyph-name="braceleft" unicode="{" horiz-adv-x="335" 
d="M131 -123l-7 7l-5 4l-5 8l-7 5l-5 6l-8 5l-3 7l-6 5l-8 7l-5 12v9l2 8l-1 8l-1 9l2 8v7l-2 8v7l2 10v8l-1 8l1 8l-2 6v16l2 10v7l-2 9v6l2 9l-1 7l1 9l-1 7l-1 8v10l2 7l-1 8l1 8l-1 9v6l1 8l-1 10l1 7l-2 9v39l2 7l-2 10l1 7l1 9l-2 7l1 7l1 9l-8 13l-6 6l-4 8l-8 5
l-4 7l-5 5l-7 6l-6 7l-5 6l-1 10l7 6l5 7l7 5l4 5l6 6l12 12l6 7l5 13l2 9l-2 9l2 6l-1 9l-1 7l1 9l-1 9l2 6l-2 10l2 7l-1 9l1 6l-1 8l-1 9l2 8l-1 7l-1 10v15l1 7l-1 9l2 7l-2 10l2 7l-2 7l2 10l-2 6l2 9l-1 7l1 8v17l-2 8v9l2 14l-2 9l2 8l-2 8l1 7l-1 10v7l2 7l-2 9v16
l5 12l7 8l5 4l7 7l4 5l7 6l5 6l5 6l6 5l7 8l13 6l7 -1h8l8 1l8 -1l10 -1l7 1l8 1l8 -1h15l9 1h16l16 -2l9 2l8 -1h7l9 1l8 -2l6 -8l2 -6v-8l-2 -10l2 -6v-9l-2 -9v-7l2 -9l-2 -8v-8l2 -8l-1 -8l-1 -6v-9l-6 -6l-10 -1l-6 1h-10l-8 -1h-8l-8 1h-6l-10 -2l-8 2l-6 -1l-14 -5
l-4 -6l-6 -11l1 -9v-7l-1 -10v-8l1 -6l-1 -8v-10l1 -8l-1 -8v-6l-1 -10l2 -7l-1 -8l-1 -7v-9l1 -7l-1 -9l1 -8v-15l-1 -10v-24l1 -8v-6l1 -10l-2 -8l1 -6l1 -11v-16l-2 -7l2 -8v-7l-2 -10l1 -6l-1 -8v-8l2 -10v-8l-2 -6l2 -16l-2 -8l1 -8l1 -10v-24l-1 -6v-16l-1 -8v-8l2 -9
l-1 -7l-1 -10l1 -6v-10l1 -7l-2 -10v-6l2 -8l-1 -8v-33l-1 -8v-9l1 -6v-9l-1 -7l2 -18v-24l-1 -7l1 -8l-2 -7l2 -10l-1 -6l1 -9l-1 -9l-1 -6v-18l6 -11l5 -6l12 -7l9 1h8l7 -1l9 3l8 -2h15l10 -1h8l7 1l9 -9v-15l-1 -9l1 -6l-1 -8l2 -9v-8l-2 -8l2 -9l-2 -8l1 -7v-15l1 -8
l-9 -8l-7 -2l-10 2l-6 -1h-9l-8 -1l-8 1l-8 -1l-8 2l-7 -2h-10l-16 2l-8 -1h-32l-6 1l-9 -2h-7z" />
    <glyph glyph-name="bar" unicode="|" horiz-adv-x="247" 
d="M189 -89l2 -7l4 -9l2 -7l3 -8l-5 -10h-17l-7 2h-9l-6 -1l-8 1h-8l-10 -1h-6l-9 1h-9l-6 -2l-9 1h-31l-10 -1l-3 8l2 8l2 10l3 6l3 8l2 16v8l2 8v10l-2 7l1 7v9l1 9l-1 6v16l1 9l-1 8v9l-1 7l2 7v10l-1 7l1 8v8l-2 9l1 6v8l1 8v8l-2 9v7l1 10v22l-1 9l1 7v9l-1 9l2 7v16
l-2 8l2 8l-2 8l1 7l-1 8l1 9v8l1 9v6l-2 10v7l2 7v10l-2 6l2 8l-2 9v9l2 7v9l-1 8l1 7l-1 9l1 6v8l-2 8l1 8l-1 9l2 8l-1 8l1 7l-2 10l2 7v7l-1 10l-1 7v8l2 8l-2 8l2 8l-1 8l-1 9l1 8l-1 7l2 16l-2 7l2 8l-1 10l1 7v8l-1 8l-1 9l1 7v15l-1 10l2 7v9l-2 14v32l2 8l-2 8l1 8
v17l1 9l-1 8v6l-1 9v7l2 9l-2 6l-1 19l-5 6l-2 8l-1 10l-3 7l5 7l7 2l8 -1h8l8 -1h9l7 2l8 -1l7 1h9l8 -2l9 2l6 -1h18l7 1l7 -2l8 2l8 -1l6 -9l-3 -8l-3 -6l-3 -9l-2 -8l-2 -18l-1 -7l1 -9l-1 -7l2 -7l-2 -7l2 -9l-2 -8l2 -8l-1 -7v-8l-1 -9l2 -9l-2 -7l2 -7l-2 -8v-9l1 -9
l-1 -6l1 -9v-17l1 -8l-1 -6l-1 -8v-10l1 -6l-1 -9l1 -7l1 -10v-24l-2 -6l2 -8l-1 -10v-8l1 -7v-7l-2 -9l1 -9l1 -6l-2 -9l2 -7l-1 -10v-8l1 -6v-8l-2 -10v-6l1 -9v-7l1 -10l-1 -8l1 -7l-1 -8l1 -7v-8l-1 -9v-7l-1 -9l2 -8v-7l-1 -8l-1 -9v-16l2 -8l-2 -8v-7l1 -8l-1 -10v-6
l2 -9l-1 -7l1 -10l-1 -7l1 -7l-1 -9v-9l-1 -6l1 -8l-1 -9l1 -7l-1 -10l2 -7l-2 -7l2 -9l-2 -7v-9l1 -7v-8l-1 -10l2 -6l-2 -16l2 -8l-2 -9l2 -8l-1 -7l-1 -9l1 -8l-1 -9l2 -7v-7l-1 -10l1 -7l-2 -7v-8l2 -10v-22l-2 -8z" />
    <glyph glyph-name="braceright" unicode="}" horiz-adv-x="335" 
d="M255 -71l-6 -5l-6 -5l-6 -6l-4 -8l-5 -3l-6 -8l-6 -5l-6 -7l-7 -5l-11 -6h-9l-9 -1h-7l-7 1h-9l-8 1l-9 -1l-8 1l-6 -1l-8 -1l-9 1l-8 1l-7 -2h-8l-8 1h-9l-7 -1l-9 1l-7 1l-10 -2l-8 8v9l2 9v8l-1 7l-1 9l2 7l-2 16l2 9v7l-1 9v7l1 8l-1 9l9 7h7l9 -1l6 1h9l7 1l8 -1h8
l9 -1l7 1l10 1l12 3l6 5l5 16l-1 6l1 8v9l-2 7v10l1 6l1 10l-2 7l2 9v8l-1 7v17l-1 6v9l1 9l-1 6l1 9l-1 9l1 8v15l1 9v14l-2 10l1 8v8l-1 6l2 9v10l-1 8l-1 6l2 9l-1 9l1 8l-1 7l1 7l-2 10l1 8v23l-1 9l1 6l-1 10l1 6l-1 8v16l2 10l-1 8v8l1 6v8l-1 8l1 8l-2 9v8l2 10l-1 7
l1 9l-2 7l2 9l-2 6v9l2 7l-2 9v7l2 9l-2 9l2 8l-2 7l1 7l-1 10v8l2 6l-1 10l1 8v6l-1 10l-1 7v8l2 16l-1 9v8l-1 8l2 7l-6 12l-4 5l-14 4l-7 1l-10 -1l-7 2l-7 -2l-9 1h-23l-10 -1l-6 2l-8 6v9l-1 7l1 8l-1 9v9l1 6v10l-1 8v7l-1 9l1 8l-1 6v18l9 7l7 -1l9 1l9 -1l7 2l7 -2
l10 1l6 1l9 -1l7 1l8 -1l8 1h8l9 -1l7 1h10l7 -1l9 -1l6 2l8 -1l10 -1l12 -6l6 -5l5 -7l6 -4l7 -8l5 -5l4 -4l8 -6l11 -12l5 -13v-8l-1 -10l-1 -6l1 -8l1 -9l-2 -7l2 -9l-1 -9l-1 -8l2 -8v-7l-2 -9l2 -8v-6l-2 -10v-8l2 -7l-1 -8l1 -7l-2 -9v-9l1 -6l1 -8l-2 -9v-8l1 -7v-9
l-1 -8l2 -8v-8l-2 -9v-7l1 -7v-25l1 -8l-1 -9l-1 -7v-24l2 -7l-1 -8l-1 -10l2 -8l4 -14l12 -10l6 -8l6 -6l8 -6l5 -5l6 -7l7 -4l-2 -13l-4 -6l-8 -5l-5 -6l-6 -7l-5 -4l-8 -7l-4 -7l-7 -4l-6 -16v-8l1 -6l-1 -9v-15l1 -8v-9l-1 -9v-6l1 -9v-7l1 -9v-16l-2 -16v-16l1 -9v-8
l-1 -7l1 -8l-1 -7v-9l2 -9l-2 -6l1 -9l-1 -7v-9l2 -8v-15l-2 -10l2 -6l-2 -8l2 -8l-2 -10l1 -8v-6l1 -10l-2 -16l2 -6l-1 -9v-8l1 -9z" />
    <glyph glyph-name="asciitilde" unicode="~" horiz-adv-x="360" 
d="M37 321l9 1l6 2l8 1l32 9l7 4l7 2l6 3h15l6 -4l7 -4l8 -2l7 -4l5 -5l9 -2l5 -5l8 -4l6 -2l7 -4l15 -3h8l10 -2l7 2l8 -2l8 2l9 -1l14 5l8 7l4 7l8 6l12 12l6 13l4 7l3 6l3 9l5 15v6l-1 13l-8 6l-5 3l-12 13l-8 -3l-3 -7l-4 -7l-5 -10l-10 -10l-7 -5l-18 -9h-12l-7 4l-9 3
l-6 4l-6 4l-8 2l-8 5l-6 2l-8 6l-6 2l-7 4l-15 3l-7 -1l-7 1h-8l-9 -1h-6l-8 2l-8 -1l-12 -6l-6 -5l-6 -7l-6 -4l-8 -7l-6 -5l-7 -12l-1 -8l-4 -8v-6l-5 -9v-8l-2 -6z" />
    <glyph glyph-name="exclamdown" unicode="&#xa1;" horiz-adv-x="264" 
d="M168 584l-8 -1l-9 1h-14l-8 -1l-10 1h-24l-13 6l-6 6l-4 5l-7 4l-9 13l-8 5l-4 14l1 7l-1 9v24l1 6l-2 10l1 7l-1 8l6 12l7 6l3 6l8 6l3 4l6 7l7 6l12 5l9 -1l9 2l8 -2l8 1h6l8 1l8 -2l9 1l7 1l15 -8l4 -5l7 -6l10 -10l7 -4l3 -8l8 -13l-2 -6v-18l2 -7v-8l-1 -7l-1 -10
v-6l2 -9l-8 -13l-3 -6l-7 -5l-5 -7l-7 -5l-5 -6l-5 -4zM55 9l4 8v8l5 8l3 8l1 16v6l1 9l-1 9l-1 8l2 7l-1 9l1 8v8l-1 7l1 7l-1 9l1 6v9l-2 8l1 9l-1 6l1 9v8l-1 7l2 9v17l-1 6v15l1 9l-2 9l1 6l-1 8l1 10v8l-1 7l1 7l1 18l1 6l2 9l-2 8l2 8v9l1 8l1 7l1 8l-1 7l2 8v8l2 10
l1 6v10l-1 6l1 9l2 7v9l1 7l1 10l-1 6l3 10v7v7l2 9l-1 8l10 8l7 2l8 -1l7 1h17l7 -2l9 2h9l6 -1l10 -8l2 -8l-1 -9l1 -8l2 -7v-9l-1 -7l2 -9l1 -7v-10l1 -6l1 -9l-1 -7l2 -8v-8l1 -9v-8l1 -8l2 -8v-7l1 -10l-1 -6l3 -9l-1 -8l1 -8l1 -7l1 -10v-14l-1 -10v-24l1 -6l-1 -9v-7
l2 -9v-9l-2 -7l2 -8l-2 -8l1 -6l1 -10l-1 -8l1 -8v-7l-1 -9v-15l-1 -7l2 -9l-1 -8l1 -8l-1 -7l1 -7l-2 -16l2 -10l-2 -6v-8l2 -8l-2 -9l5 -16l1 -7l4 -8l1 -10l3 -7l-4 -7l-8 -2l-9 2l-6 -2l-10 1l-8 -1l-7 2l-7 -1l-9 1l-7 -1h-9l-6 1h-8l-10 -2l-6 2h-16l-10 -1l-8 1z" />
    <glyph glyph-name="cent" unicode="&#xa2;" horiz-adv-x="474" 
d="M434 301l7 -6l-4 -8l-4 -9l-2 -8l-2 -7l-4 -16l1 -8l1 -9l-2 -16l2 -16l-2 -9v-7l1 -10l-1 -7v-9l2 -6v-17l-6 -13l-7 -7l-4 -5l-7 -6l-6 -7l-11 -10l-6 -6l-6 -6l-4 -4l-15 -8h-6l-10 2l-7 -1l-8 -1h-15l-10 1h-30l-8 1l-9 -2l-7 2l-6 -1l-2 -7v-8v-8l-2 -7l-1 -10v-6
l-1 -9l-7 -9l-8 1l-9 1l-7 -2l-7 2l-9 -1l-5 7v8l2 8l-1 8l2 8l-1 9l1 9l1 5h-4l-7 2l-9 -1l-6 1l-10 -2h-6l-8 1h-9l-8 -1l-13 6l-7 7l-4 4l-7 6l-5 7l-6 4l-13 13l-6 4l-4 7l-5 12l-1 8l-1 10v7l1 7v9l1 7l-1 10v6l1 9l-1 8l1 9l-2 6v9l1 7v9l1 7l-1 10l-1 8l1 8l-1 6
l2 10l-2 7v9l2 8l-1 8l-1 6l1 9l1 7l-1 10v7l1 9l-1 5l-1 9v9l1 7v9l-1 7l2 7l-2 9l1 9l-1 6v8l2 10l-2 7l2 9l-2 6l2 8v9l-1 8l1 8l-1 8v7l-1 10l2 6l-2 8l1 9v23l-1 10v15l7 12l6 6l4 8l8 4l4 6l7 5l4 7l7 5l5 7l7 5l12 6l9 1l8 -2l7 1l9 -1l7 2h10l8 -2l6 1l9 1l8 -1h8
l7 -1l7 2h9l7 -1l1 6l2 7v9l2 7l1 8l-1 7l2 8l8 9l6 1l8 -2l9 2l6 -2l9 2l5 -8v-9v-9l-2 -7l1 -9l-2 -8l-1 -7l1 -6h2l8 2h7l8 -2l9 2l8 -2l7 2l9 -2l6 1l13 -5l6 -8l6 -4l5 -5l6 -7l6 -5l6 -8l7 -5l5 -5l6 -5l5 -15v-8l1 -6v-8l-2 -10l1 -8v-14l1 -9l-1 -8v-7l-1 -10l1 -7
l-1 -9v-8l4 -16l2 -6l4 -9l2 -8l3 -8l-5 -7l-7 -1l-10 -1l-6 2h-8l-9 -2l-8 2h-7l-10 -1l-7 -1l-7 2h-10l-7 -1l-7 1h-16l-9 -2h-15l-7 9l4 9l2 8l5 6l2 10l1 14l2 10l-1 8v8l-1 10l-5 16l-15 6v-6l-1 -6l1 -8v-8l-3 -10l-1 -6l2 -10l-2 -6l-1 -8l1 -8l-1 -10l-1 -16l-1 -7
l-2 -8v-8l-2 -9l1 -8v-8l-1 -6l-1 -9v-8l-3 -9v-7l1 -9l-2 -6l-1 -8l-1 -9l-1 -9v-7l-1 -7v-9l-2 -8l1 -7l-2 -10l1 -7v-8l-1 -7l-1 -8l-1 -8l-2 -10l1 -6l-1 -9l-2 -7v-8v-10v-8l-3 -7l6 -2l8 2l9 -2l9 2l14 7l7 16l-1 8l2 6l-1 10v9l-3 15l-1 9l-5 7l-3 9l-2 6l4 10l8 -1
h42l8 -1h8l7 2h8l8 -2l8 2h8l7 -1l8 -1l8 1l10 1zM178 201l5 -5l13 -5l-1 9l2 6l-1 10l1 6l2 8l1 9l1 8l1 7l-1 10v8l2 7l-1 9l3 8l-1 8l1 8v8l3 6l-1 8l1 10v8l2 8v7l1 7v10l1 6v10v7l3 8v9v7l2 9v8v8v8l3 7l-2 9l3 7v9l-1 7l1 8l3 9l1 14l-1 8l1 9l1 8l1 7l-1 5h-22l-9 2
l-12 -6l-7 -5l-4 -14v-16l1 -7l-1 -9v-6l-1 -9l1 -8l-1 -8l1 -8l1 -9l-2 -6l2 -8l-1 -9v-9l1 -6l-2 -9v-7l2 -10v-6l-2 -9v-9l1 -6l1 -8l-1 -8l1 -8l-2 -9l1 -8l1 -9l-1 -7v-7l-1 -10l2 -6l-1 -10v-23l1 -8l-2 -8l2 -9l-2 -16l2 -7z" />
    <glyph glyph-name="sterling" unicode="&#xa3;" horiz-adv-x="514" 
d="M445 131l10 4l13 4l7 1l8 -5l-2 -8v-9l-4 -8l-1 -6l1 -8l-2 -10l-2 -16l-3 -6v-10l-3 -8l-1 -6l-1 -10l-1 -7l-3 -7v-9l-11 -7l-8 -2h-16l-7 2l-9 -2l-14 2l-9 -2h-25l-16 2h-7l-7 -1l-9 1h-7l-10 -1h-7l-8 1l-8 -1l-7 -1l-8 2l-8 -2h-8l-9 2l-8 -1l-9 -1l-8 2l-8 -1
l-8 1h-7l-7 -2h-18l-16 2h-8l-7 -2l-7 2l-9 -2h-9l-8 1l-6 1h-17l-7 -1l-10 -1l-8 10l2 7v16l-2 7l1 8l-1 10l2 6l-2 10l2 7l-2 9l1 7l1 9l-1 6l-1 8l5 16l2 8l5 5l5 9l2 6l6 7l4 6l2 7l5 8l4 6l3 7l4 8l3 6l4 8l4 7l5 6l2 9l6 6l3 8l8 12l3 8l5 8l5 7l-1 11l-5 5l-14 5
l-7 -1l-10 -1l-8 2l-6 -1l-8 1l-8 -2l-18 -2l-6 -3l-8 -3l-8 -1l-10 -4l-8 7l1 7l1 8v7l-2 8l2 8l-1 10l-1 6v10l2 7l-2 8v31l2 9l-1 8v7l-1 9l8 5l9 -2l9 -4l6 -1l10 -4l15 -4l7 2l10 -1l6 -1h18l6 1l15 5l3 6l5 13v23l2 7l-2 10v15l1 9l1 7l-2 8v7l1 8l-1 8v16l2 10l-2 8
l1 6l-1 9l2 9l-1 6l-1 8v18l1 7v8l-1 9l2 6l4 15l6 5l10 10l6 8l7 5l5 5l7 6l4 6l6 4l15 6h16l9 -1l8 2l6 -1l8 1h9l7 -1h17l9 1l7 -2l8 2h32l7 -1h34l8 1h6l10 -1l7 -1l8 2h9l8 -8l1 -8l2 -8l2 -9v-5l1 -10l2 -8l1 -6l5 -17l1 -7l-1 -7l3 -8l2 -8l-1 -7l3 -9l2 -8l-6 -5
l-9 2l-7 1l-8 4l-7 1l-8 2l-15 1h-9l-6 2h-10l-8 -1h-6l-10 -1l-8 2h-6l-9 -1l-9 1l-7 -2l-7 2l-10 -1l-6 -1h-8l-15 -3l-4 -7l-4 -12l-1 -8l-1 -7l1 -10l1 -8l-2 -6l1 -9l-1 -9l1 -6l1 -10v-7l-1 -9l1 -6l-2 -9l1 -8l-1 -8l1 -8l-1 -7l1 -10l6 -12l3 -5l14 -5l9 -1l8 1h6
l8 -1l8 1l9 -1l17 2l14 7l8 3l9 1l9 -4l-2 -8l1 -7l-1 -8l1 -8v-8l1 -9l-2 -9v-8l1 -6l1 -8l-2 -10l1 -7v-7l-1 -8l2 -8l-2 -8l2 -10l-1 -6l-9 -7l-6 5h-10l-6 4l-9 2l-17 2h-7l-7 2l-8 -2h-8l-8 1l-8 -1l-15 -2l-3 -6l-9 -11l-5 -7l-2 -7l-6 -7l-2 -6l-4 -7l-5 -9l-4 -7
l-4 -6l-4 -8l-3 -5l-3 -7l-5 -9l-3 -7l-4 -5l-6 -9l-1 -5l-5 -8l-3 -6l-4 -9l-5 -6l-3 -6l-4 -7v-10l12 -6l6 1l10 -1l6 2h9l7 -1l9 1h6l10 -1l6 -1l9 2l9 -2l7 2h14l10 -2l8 1l8 -1h6l9 2l9 -2h7l6 2l9 -1h9l6 1h18l7 -1z" />
    <glyph glyph-name="yen" unicode="&#xa5;" horiz-adv-x="524" 
d="M507 759l4 -6l-4 -6l-6 -7l-5 -8l-5 -7l-3 -8l-6 -6l-7 -16l-1 -8l-4 -6l-3 -9l-1 -6l-2 -7l-3 -9l-4 -8l-1 -7l-5 -6l-1 -10l-4 -5l-1 -8l-3 -7l-7 -18l-1 -5l-4 -9l-2 -7l-3 -9l-1 -6l-3 -7l-5 -9l-2 -6l-1 -9l-3 -7l-2 -7l-3 -9l-4 -7l-1 -7l-5 -8l-1 -7l-2 -9l-5 -6
l-2 -9l-2 -7l-3 -9l-2 -5l-4 -8l-2 -8l-1 -3h8l8 2h10l6 -1h18l6 -1l9 2l7 -1l9 1l7 -2l9 1h8l7 1l10 -1l7 -9v-17l-1 -9l2 -8l-2 -9l-6 -8l-9 1l-7 1l-8 -1l-9 1l-7 -1l-10 1h-14l-9 -2h-24l-7 2l-9 -2l-8 2l-8 -2l-7 2l-7 -1l-2 -6l-2 -9l-2 -9l-3 -5l-2 -8l-5 -7l-1 -8
l-4 -8l5 2l6 -2l9 2h7l7 -2l8 2h9l9 -1l6 -1l9 1h23l10 1h6l10 -1h7l8 -1l9 1l8 1h6l8 -9l1 -10v-8l-1 -7l2 -10v-8l-10 -9l-8 1h-6l-10 1l-8 -1h-6l-8 -1l-9 2h-7l-9 -1l-7 1l-8 -1l-10 1h-8l-6 -1h-10l-7 1l-9 -2l-7 1l-7 1h-18l1 -6l1 -9l-2 -7l2 -8v-10l-1 -8v-6l-1 -9
v-17l2 -6l-2 -9l2 -9l-2 -7l1 -8v-7l1 -9l-2 -9l1 -8l-1 -6v-8l5 -16v-8l3 -8l2 -10l2 -8l-4 -6h-8l-9 -2l-9 1l-7 1l-9 -2l-7 2l-8 -2l-10 1l-8 -1l-7 1h-9l-8 1l-7 -2l-9 1h-7l-10 1l-6 -1l-7 8l4 9l1 7l2 9l5 8v14l2 10v22l-1 8l-1 9v9l1 7v8l1 9l-1 8v6l1 9l-1 9v8l1 6
l-2 8l2 10l-2 8l1 6v8l-1 -1h-31l-10 1l-6 -2l-9 1h-8l-8 -1l-8 2l-9 -1l-7 1l-9 -1h-16l-8 -1l-8 1h-7l-8 -1l-7 1h-8l-7 8v17l-2 10l2 8l-2 8l7 7l8 1h26l6 -1h9l8 2l8 -1l7 1l8 -2h18l6 1l9 1h9l6 -1h10l8 1l6 -1h8h4l-1 7l-3 8l-2 6l-3 8l-4 8l-2 6l-4 9v7h-15l-9 1
l-7 -2l-10 1h-8l-8 -1h-15l-7 1l-10 -1l-8 1l-8 -1h-6l-8 1h-16l-8 1l-7 7l-2 7l2 9v10l-1 7l-1 8l7 10l10 -1l6 2l10 -2h7l9 1h22l8 -1l8 2l8 -2l9 1l7 1h18h1l-5 17l-5 5l-2 8l-1 9l-3 8l-2 8l-8 15l-2 6l-1 8l-3 8l-4 6l-3 10l-2 5l-2 8l-2 8l-3 7l-4 9l-1 6l-3 8l-3 8
l-3 9l-3 7l-1 8l-3 6l-4 8l-1 8l-4 8l-3 6l-1 9l-4 7l-2 7l-3 8l-3 7l-2 7l-4 9l-2 7l-4 9l-7 14l-3 6l-6 9l-5 6l-4 8l-3 5l-6 9l3 6l10 -1l7 2l7 -1l8 1l16 -2l10 2l9 -2l7 2l9 -2l8 1l8 -1l7 1h8l10 1l7 -1l8 -1l7 2h16l9 -2l3 -8l-4 -5l-5 -9v-16l2 -6l1 -9l4 -7v-8
l4 -9l2 -6l3 -9l3 -7l2 -9l1 -6l2 -7l4 -9l2 -8l2 -9l1 -6l3 -9l4 -7l5 -15l1 -8l3 -9l2 -8l3 -6l2 -7l2 -8l3 -8l3 -8l2 -7l1 -8l2 -9l3 -6l1 -8l4 -8l3 -9h4l1 8l5 7l2 10v7l5 7v7l3 10l3 7l3 7l5 16v7l3 9l2 7l3 8l2 6l4 9l1 7l4 9v6l3 10l3 8l1 8l5 5l2 9v8l3 9l3 5l1 8
l5 18l2 5l3 8l4 8l-3 16l-4 8l-5 6l3 9l9 1l7 -2l8 2l9 -1h7l8 1l10 -1l9 1l8 -1h7l8 -1l7 1h10l6 -1l9 1l9 -1l9 1l7 -1l8 1l8 -1h8z" />
    <glyph glyph-name="section" unicode="&#xa7;" horiz-adv-x="486" 
d="M376 577l4 -5l7 -5l7 -5l5 -7l11 -11l6 -5l7 -5l4 -8l8 -12l-2 -8l2 -9l-2 -8l1 -7l-1 -8v-9l1 -8l1 -7v-16l-2 -9v-8l1 -8l-1 -8v-23l2 -8v-18l-2 -6v-10l1 -7l1 -9v-7l-2 -9v-8l1 -6l-1 -10v-6l2 -10v-14l-2 -8l2 -10l-2 -7l1 -9l1 -8l-1 -8l-1 -7l2 -9v-31l-1 -9l1 -8
l-2 -6v-8l2 -8l-2 -10v-16l1 -7v-15l1 -8l-2 -10l2 -6v-34l-2 -7l1 -8l1 -9v-24l-1 -6l1 -10l-6 -14l-8 -5l-4 -7l-7 -6l-7 -4l-5 -5l-4 -8l-6 -5l-7 -6l-6 -5l-12 -7l-16 2l-9 -2h-17l-6 1l-9 1l-7 -2l-8 1l-9 -1l-8 1h-9l-6 -1l-8 2h-16l-7 -2l-8 2l-9 -1h-17l-6 1h-16
l-8 -2l-10 2l-7 -2l-9 2h-16l-11 5l-7 6l-5 5l-7 5l-12 12l-6 5l-4 8l-8 4l-4 7l-7 13l1 7l-2 9l1 7l1 10l-1 7l1 8l-2 7l1 10l1 6v9l-2 8l2 7l-2 10v7l-1 16l-2 9l-2 7l-5 7l-1 8l5 10l8 -1h25l6 1h8l10 1l8 -2l7 1l7 -1l9 2l6 -1h50l4 -10l-4 -7l-2 -9l-3 -6l-3 -10
l-3 -16v-7l1 -10v-7l1 -7l3 -14l7 -6l11 -3h8l10 -2l8 1h8l8 -1h8l7 2l10 -1l6 1h9l12 5l6 5l4 11l-1 7l1 10l1 8l-2 8l1 6v9l1 7v7l-1 10l1 7l-2 7l1 8l-1 7v16l1 9l-1 7l-3 14l-5 5l-12 4l-9 2l-7 -1h-25l-7 -1l-8 1h-16l-7 1h-9l-7 -2l-8 1l-10 -1l-8 2l-8 -1h-8l-8 1
h-14l-14 3l-6 7l-30 30l-6 5l-4 5l-8 7l-5 14l-1 7l1 7v9l1 7l-2 18l2 7l-1 9v39l1 7l-1 10l1 6l-2 9l1 8v15l1 10v6l-1 10v6l1 10l-2 14l1 9v8l1 9v31l-2 7v10l2 6l-2 10l2 7l-2 9l2 7l-1 7v9l-1 9l2 8v7l-1 9l-1 6l1 9l-1 9v8l1 8l1 6l-1 8l1 8l-2 10l1 7l-1 9l2 8v14
l-2 9l2 9l-2 6l1 9l-1 7v8l2 8l-1 9l1 8l-1 8l5 12l8 6l4 6l7 7l6 4l6 5l5 8l7 4l4 5l8 6l11 7l10 -1l6 -1l10 2h15l7 -1l9 -1l9 2l7 -1h7l8 -1l8 1l10 -1h15l6 2h8l8 -1l10 1l7 -2l8 1h9l6 -1l9 1l8 -1l7 1h25l9 -1l11 -3l13 -12l6 -7l5 -5l6 -6l7 -5l5 -6l6 -4l7 -8l5 -14
l-1 -6v-8l2 -8v-49l-2 -8l2 -8v-10l-2 -7l1 -8l3 -18l1 -7l3 -9l2 -7l4 -8l-5 -7l-7 -1h-18l-6 -1l-9 2l-7 -2l-8 1l-8 -1l-9 2l-7 -1h-9l-7 1h-10l-6 -1l-9 1h-7l-10 -2h-6l-5 8l2 10l1 8l3 8l2 8l2 17v6l1 8v11l1 7l-8 16l-15 7l-9 -2l-8 1l-8 -1l-8 1l-8 1h-8l-10 -2
l-6 2l-8 -1l-9 1l-16 -9l-6 -13v-9l-2 -6v-10l2 -6l-2 -8v-8l2 -8l-1 -7v-17l1 -6v-9l-2 -8l1 -7l1 -9l-2 -6l1 -8l6 -15l15 -6l10 -2h8l8 1l6 -1h10l7 2h7l8 -2l8 2l10 -2l9 1l7 1l7 -1l8 -1h8l8 1l8 -1l16 2l10 -1zM297 450l-14 7l-9 -1h-7l-8 -1l-10 1l-7 1l-9 -1h-7
l-9 -1l-7 1l-8 1l-17 -7l-7 -16l1 -9l1 -8l-1 -7l1 -9v-24l-2 -9l1 -7l1 -10l-2 -8l2 -6l-2 -8l5 -13l5 -5l12 -6h18l7 1l8 -1l8 -1h18l8 2l6 -2l8 1l14 6l5 3l4 14l1 9v7l1 9l-2 8v6l1 9v8l-1 10v7l1 8l-1 7v8l1 9z" />
    <glyph glyph-name="dieresis" unicode="&#xa8;" horiz-adv-x="587" 
d="M349 970l9 -1l7 1l7 -1h17l6 2h7l13 -7l7 -6l7 -7l6 -5l4 -15v-8l1 -5l-1 -9l1 -6l-1 -8l2 -8l-2 -7l-6 -14l-5 -5l-5 -8l-8 -4l-12 -6h-16l-6 -1l-7 -1l-8 1h-7l-9 -1l-12 8l-8 4l-5 7l-5 5l-6 13v23l-1 9l1 7l-1 6l-1 8l7 14l7 6l5 6l6 6zM184 969h6l7 1l10 -1h6l9 2
h13l13 -8l14 -12l6 -4l6 -16v-6l-1 -9v-8l1 -7l-2 -8l1 -5l-1 -10l-5 -11l-6 -8l-5 -6l-7 -4l-13 -7h-16l-7 -1l-8 1h-7l-7 -1l-7 1l-14 7l-11 11l-8 7l-4 11v9l-2 7l2 8l-1 8l1 6l-1 8l1 7l4 14l8 8l12 10z" />
    <glyph glyph-name="copyright" unicode="&#xa9;" horiz-adv-x="720" 
d="M367 3l7 4l6 3l7 5l6 4l9 5l7 2l5 6l6 4l7 3l9 4l5 3l7 5l7 3l7 6l8 3l6 3l8 5l7 3l12 10l7 4l8 2l13 9l6 4l9 2l5 6l9 3l5 4l9 5l6 2l5 4l8 5l6 3l9 6l5 2l7 6l8 4l7 4l7 3l14 8l5 5l8 4l6 4l9 3l7 12l-1 6l-1 9l1 7v8l1 8l-1 9v33l-1 7l1 8l-1 8l2 6l-1 10v8l-1 6l2 16
l-1 10l-1 8l1 7v8l-1 6l2 9l-2 7l2 8v8l-1 8l1 9v7l-2 18v7l1 6l1 10l-2 7l1 8v7l1 10l-2 7v7l2 8l-1 9l1 7v9l-9 12l-7 2l-5 5l-8 3l-6 4l-14 8l-6 5l-8 3l-8 6l-6 2l-6 6l-8 3l-7 4l-8 4l-5 5l-6 2l-9 6l-14 8l-6 4l-6 3l-9 5l-4 3l-8 2l-6 4l-8 6l-8 3l-7 4l-5 4l-7 3
l-8 5l-5 5l-7 2l-8 5l-6 5l-16 6l-7 5l-11 8l-16 8l-6 4l-7 3l-6 5l-8 5h-14l-5 -5l-8 -3l-7 -4l-7 -5l-6 -3l-7 -5l-7 -4l-8 -3l-7 -6l-5 -4l-8 -4l-8 -2l-6 -4l-6 -6l-8 -4l-5 -4l-9 -2l-7 -4l-12 -8l-7 -5l-9 -5l-5 -4l-8 -1l-7 -6l-5 -2l-14 -8l-9 -5l-6 -4l-5 -3l-8 -5
l-7 -4l-6 -5l-7 -4l-7 -2l-8 -6l-8 -4l-4 -4l-9 -2l-5 -5l-7 -5l-7 -3l-8 -5l-7 -2l-7 -4l-7 -13l2 -8l-2 -8v-14l2 -8l-2 -10l2 -7v-8l-1 -9l-1 -8l2 -7v-6l-2 -8l1 -9v-9l-1 -8l2 -6v-16l-1 -8l-1 -9l1 -7l-1 -9l2 -7l-2 -8l2 -9l-1 -6l-1 -10l2 -6l-2 -9l2 -8l-2 -8l2 -9
l-1 -7l1 -8l-1 -6v-16l-1 -10l2 -6l-1 -10l1 -7l-2 -9l2 -7v-9l-1 -7l7 -11l7 -5l7 -3l6 -5l6 -4l7 -2l8 -6l6 -2l8 -6l5 -4l7 -3l8 -4l7 -5l6 -4l9 -2l7 -5l5 -4l7 -5l6 -2l9 -5l5 -3l7 -5l8 -5l6 -4l8 -2l7 -4l14 -7l6 -4l8 -4l7 -6l6 -2l7 -5l7 -3l6 -6l8 -3l6 -4l6 -3
l15 -10l7 -2l5 -4l16 -8l7 -6l5 -2l8 -6zM92 235l1 7v15l-2 9l1 9l-1 8l2 16l-2 7v9l1 6v18l1 9v7l-2 16v8l2 9l-1 8v7l1 8l-2 9l2 6v11l-1 8v16l1 6v9l-1 7v16l-1 10l1 6v10l6 10l9 6l7 2l6 4l6 6l13 7l7 5l7 3l7 4l9 3l7 6l5 2l14 8l6 5l7 5l9 4l5 4l7 3l7 2l7 4l8 5l7 3
l6 6l5 3l7 4l8 4l8 3l7 4l5 5l9 4l5 3l6 4l7 6l8 2l7 4l6 5h14l7 -4l7 -3l6 -4l8 -4l6 -5l7 -5l8 -3l7 -5l7 -4l5 -3l7 -3l7 -6l7 -4l7 -2l6 -4l8 -5l14 -7l5 -4l9 -5l5 -2l7 -6l8 -3l6 -5l6 -2l8 -4l7 -6l7 -3l7 -4l7 -3l8 -4l6 -4l6 -5l7 -3l6 -5l16 -8l5 -13l-1 -7v-7
l1 -8l1 -9l-2 -7v-8l1 -9v-23l1 -8v-11l-2 -16l2 -8l-1 -8l-1 -6v-10l2 -14l-2 -10v-16l2 -7v-9l-2 -8v-8l2 -8l-2 -9l2 -8l-2 -8l2 -6v-18l-2 -16l-6 -11l-7 -6l-6 -3l-8 -5l-8 -4l-5 -4l-9 -2l-6 -4l-8 -6l-7 -2l-5 -6l-9 -3l-7 -3l-6 -6l-7 -2l-8 -6l-6 -2l-8 -4l-7 -6
l-6 -2l-8 -6l-7 -2l-5 -4l-9 -5l-7 -3l-7 -5l-5 -5l-7 -3l-7 -4l-8 -4l-7 -4l-6 -5l-7 -4l-7 -2l-7 -4l-7 -5l-7 -3l-15 -1l-8 3l-6 5l-9 5l-7 2l-5 5l-8 4l-8 5l-5 3l-9 3l-6 5l-8 4l-7 5l-6 2l-6 4l-7 6l-9 2l-7 5l-6 3l-7 5l-8 5l-7 2l-5 6l-9 3l-5 4l-8 5l-8 2l-14 8
l-5 6l-8 2l-8 4l-7 6l-5 3l-8 5l-7 3l-8 3zM256 191l6 -6l7 -6l6 -6l7 -5l13 -6l9 -2l7 1h9l7 1h10l8 -1h6l8 1l9 -1l8 1h18l7 -2l9 1h14l14 7l7 4l7 7l4 6l6 6l6 15v7l1 9v8l1 8l-1 10v6l-1 10l3 14l4 7v8l-6 7l-8 -2l-6 1h-9l-10 1h-31l-8 -1l-8 -7l2 -8l3 -5l4 -15l-1 -8
v-5l-4 -11l-14 -4h-8l-6 -2l-10 1l-8 -1l-6 2l-12 2l-6 13l1 9v22l-2 8l2 18l-1 7l1 9v7l-2 9v17l2 7l-1 9l-1 6v8l2 9v8l-1 7l1 8l-1 11v7l-1 9v6l1 10l-1 6l2 10v15l-2 7l2 8l4 14l13 5l7 -1h9l6 -1l9 2l7 -1l14 -5l4 -10l-1 -8l2 -8l-4 -13l-2 -7l-2 -8l7 -6l7 -1l7 2
l11 -2h16l6 2h9l10 -2l6 2l7 6l-1 8l-4 6l-1 15l-1 9l1 8v7l-2 7l1 8v18l-6 14l-7 7l-4 4l-8 6l-5 7l-13 8l-9 -2h-7l-8 2l-10 -2l-8 1l-6 1l-8 -1l-9 1l-10 -1h-7l-9 -1l-8 1h-6l-10 -1h-8l-8 1l-13 -5l-4 -5l-5 -7l-7 -4l-10 -10l-6 -13l1 -9l-1 -7l-1 -10l2 -14v-16
l-2 -9l2 -9l-2 -6l2 -16v-8l-2 -10v-7l1 -7v-15l-1 -10l2 -6v-10l-2 -16v-30l2 -9l-1 -7l-1 -9l2 -7v-17l-2 -6l2 -10l-1 -8l-1 -7l2 -8l-1 -9l1 -7v-8l-2 -8l1 -9v-8z" />
    <glyph glyph-name="ordfeminine" unicode="&#xaa;" horiz-adv-x="279" 
d="M234 594l-3 -7l2 -8v-8l-1 -7l1 -8l-2 -9v-8l1 -8l1 -7l-1 -9l1 -8v-7l-2 -8l1 -8l2 -16l3 -7l4 -8l-6 -8l-10 -1h-8l-7 2h-9l-6 -2l-8 2h-17l-9 -2h-6l-8 2l-8 -1h-25l-8 -1l-7 1h-9l-8 -1l-13 6l-6 8l-7 4l-6 7l-8 14l1 7l-1 8l2 16l-2 8v8l1 10v6l1 9v8l-2 9l1 8l1 6
l-1 9l7 12l5 6l5 5l3 7l5 5l13 5l9 -1l7 2h8l9 -2l7 2l8 -2l10 2l8 -1h8l12 4l3 12l1 6v8l-1 10l1 8l-4 10l-12 5l-10 -1h-15l-7 1h-16l-10 1l-8 -2l-6 2l-23 -4l-8 -2l-6 5v8l3 14l1 9v6l2 8l2 9l10 7l9 2l6 -2l9 2h9l8 -1h7l9 1l8 -2h17l8 2l7 -1l8 1h26l15 -6l4 -6l8 -6
l5 -6l5 -14v-8l2 -10l-1 -8v-8l1 -8l-2 -6l2 -10l-2 -7l2 -7l-2 -9l2 -7v-9l-1 -7l1 -10v-15zM165 567l-10 3l-10 1h-6l-10 1l-7 -2l-11 -4l-6 -10l2 -8l-2 -8v-8l1 -8l3 -13l14 -2h6l8 -2l10 2l7 -1l12 2l3 14l2 8v22zM224 318l-8 1l-6 -1l-10 1l-8 -1l-6 2l-10 -2h-7l-6 2
h-9l-8 -1l-8 1h-23l-8 -2l-8 2l-9 -1l-7 -1h-9l-6 2l-9 -1l-9 1l-7 6l-1 7l2 9l-2 9v7l2 7v8l7 10l9 -2h8l6 2l9 -2l8 1l7 1l15 -2h8l8 1l9 -1l7 2h8l10 -2l5 2l9 -1l7 1h9l9 -1l6 -1l9 2l8 -2l8 -6v-9l-2 -7l1 -10v-8l-1 -8v-7z" />
    <glyph glyph-name="guillemotleft" unicode="&#xab;" horiz-adv-x="498" 
d="M462 636l-6 4l-5 5l-6 7l-5 5l-6 5l-4 7l-11 -1l-5 -9l-2 -5l-11 -15l-4 -7l-5 -6l-4 -8l-2 -6l-11 -14l-4 -7l-4 -4l-4 -8l-4 -8l-9 -11l-5 -8l-4 -7l-2 -8l-5 -4l-6 -9l-3 -7l-5 -5l-3 -7l-4 -8l-5 -7l-5 -7l-5 -4l-3 -7l-6 -7l-3 -7l-5 -6l-4 -8l-4 -8l-4 -6l-9 -12
l-5 -7l-8 -3l-4 -7l-11 -11l-7 -4l1 -12l7 -6l3 -5l8 -7l3 -4l6 -5l6 -5l10 -12l5 -8l4 -8l3 -5l4 -6l5 -7l5 -9l4 -6l5 -6l2 -6l6 -7l5 -8l3 -7l6 -7l6 -13l6 -6l4 -7l4 -7l5 -7l4 -6l5 -7l2 -5l9 -16l5 -6l5 -6l5 -7l4 -7l2 -5l6 -8l5 -7l4 -7l5 -7l4 -6l3 -8h11l6 4l3 6
l6 7l5 5l7 6l6 4l1 13l-2 9l-4 5l-4 8l-4 9l-3 5l-4 10l-2 6l-3 6l-3 9l-5 8l-5 13l-3 7l-3 8l-6 7l-3 9l-1 7l-4 8l-5 5l-3 8l-3 8l-2 6l-5 9l-3 7l-3 8l-2 6l-5 7l-4 8l-3 7l-2 9l-5 5l-1 9l-1 14l2 6l3 10l5 7l4 6l1 7l6 7l1 8l3 9l4 7l3 6l4 7l5 7l2 9l2 6l5 8l2 9l5 5
l2 8l4 8l3 7l5 7l1 9l5 5l7 17l2 5l5 9l2 6l4 8l3 7l4 7l3 8zM269 635l-5 6l-5 5l-7 6l-3 5l-12 12l-11 -2l-3 -8l-4 -6l-6 -6l-4 -7l-2 -8l-11 -14l-3 -6l-3 -6l-7 -7l-4 -8l-9 -11l-2 -7l-4 -8l-6 -5l-3 -8l-4 -7l-4 -8l-5 -4l-4 -8l-5 -7l-6 -6l-3 -6l-5 -8l-3 -8l-5 -7
l-5 -4l-2 -8l-7 -6l-3 -9l-4 -5l-4 -6l-6 -7l-4 -9l-8 -11l-5 -7l-8 -3l-4 -7l-10 -10l-7 -5l-1 -13l7 -5l6 -5l5 -7l6 -3l5 -6l5 -7l10 -10l3 -7l6 -7l3 -7l6 -6l2 -8l6 -6l5 -8l3 -7l4 -7l4 -5l4 -8l6 -5l5 -7l3 -6l3 -8l5 -7l6 -7l4 -5l3 -8l4 -6l4 -7l6 -8l5 -7l2 -5
l5 -8l4 -7l6 -6l4 -6l3 -8l5 -7l4 -5l3 -7l9 -15l6 -6h8l6 4l5 7l7 3l6 6l3 5l6 6l3 15l-4 7l-2 6l-4 9l-2 5l-5 7l-4 9l-2 6l-7 15l-2 9l-5 7l-3 8l-2 6l-3 7l-6 8l-2 7l-4 7l-2 8l-3 6l-3 9l-6 8l-2 5l-3 7l-5 9l-2 7l-4 8l-4 7l-1 6l-5 8l-3 7l-4 9l-2 5v15l4 9l3 8l2 7
l4 5l3 8l4 9l3 6l4 7l3 9l2 6l4 9l5 6l3 7l2 9l3 7l5 5l3 8l2 8l4 9l2 6l4 6l3 8l5 7l4 7l3 10l2 6l3 8l5 8l3 7l3 6l3 9l4 6z" />
    <glyph glyph-name="registered" unicode="&#xae;" horiz-adv-x="398" 
d="M206 441l7 3l6 5l6 4l8 3l6 6l8 3l5 3l8 5l6 5l7 4l8 2l6 5l14 7l7 4l6 4l8 4l6 5l8 5l5 3l8 5l8 2l6 6l8 3l6 11v7l-1 10l-1 8l2 8v24l-1 7l1 8l-2 9v6l1 9l-1 6l1 10v16l1 6l-2 10l2 8l-2 6l1 8l1 9l-1 7l-1 10l-4 11l-8 4l-8 3l-5 5l-9 4l-5 3l-6 4l-9 4l-7 5l-5 3
l-7 4l-9 5l-7 2l-4 4l-7 5l-8 4l-7 3l-6 6l-8 2l-7 6l-6 4l-8 4l-7 2l-5 4l-7 5l-14 1l-6 -5l-9 -3l-6 -5l-8 -5l-5 -3l-7 -3l-9 -5l-6 -3l-6 -5l-7 -3l-6 -6l-9 -3l-14 -7l-7 -6l-5 -3l-7 -5l-8 -2l-6 -5l-6 -4l-8 -4l-8 -3l-7 -4l-14 -16l2 -8l-2 -8l1 -8l1 -7l-1 -9l1 -8
v-9l-2 -6l2 -16l-1 -9l1 -6v-9l-2 -7l1 -8v-9l-1 -8v-9l1 -8v-16l1 -8v-16l6 -9l8 -6l7 -3l6 -3l6 -4l8 -4l7 -4l8 -5l4 -3l8 -6l7 -3l6 -4l9 -5l5 -3l8 -5l8 -2l6 -4l7 -6l6 -2l6 -4l7 -6l9 -2l7 -5l5 -3l8 -5h14zM53 568l1 6l-2 10l2 8l-1 8l-1 7l2 9l-2 8v6l2 9l-2 8v16
l2 8v7l-2 9l2 8v9l-1 7v8l8 11l6 6l8 4l5 4l14 6l8 4l8 6l6 2l8 4l5 4l7 5l6 3l9 5l5 3l8 5l6 5l9 3l6 3l6 6h15l6 -5l6 -4l7 -4l9 -5l6 -4l13 -8l8 -3l7 -4l5 -5l7 -2l9 -6l7 -2l4 -4l7 -5l8 -4l6 -5l8 -2l8 -4l5 -13l1 -9l-2 -6l2 -10l-2 -7l2 -8l-2 -8l1 -8l1 -7v-10
l-2 -6l2 -8l-2 -18v-8l2 -7l-2 -8l2 -7v-17l-7 -11l-8 -4l-6 -5l-6 -2l-7 -6l-8 -2l-6 -4l-8 -4l-7 -5l-6 -3l-7 -6l-6 -2l-9 -5l-5 -4l-6 -3l-9 -5l-6 -5l-6 -4l-9 -3l-6 -5h-13l-14 10l-22 11l-5 5l-7 2l-7 6l-7 2l-15 10l-7 2l-5 6l-8 3l-7 5l-6 3l-7 3l-7 4l-9 5z
M148 526h6l11 -1l6 1l8 -2l8 8l-3 16v7l-2 7l1 9v16l-1 6l2 9l2 11l8 2l7 -2l5 -9l2 -9v-8l4 -9l1 -8l1 -6l3 -9l3 -7l-2 -15l6 -7l9 -2l7 1h10l6 -1l6 9l-5 17v7l-2 7l-2 10l-4 9l-1 6l-2 8l-1 10l2 13l11 11l5 10l-1 10v14l1 9v31l-1 6v25l-7 12l-6 6l-13 8l-8 1h-10
l-7 -2h-9l-7 1l-8 1h-9l-8 -1l-6 1l-10 -2h-7l-6 -6l4 -15l-2 -8l1 -10v-8l1 -7v-7l-1 -10l1 -7l-2 -8l1 -7v-34l1 -7v-16l-1 -7l-1 -10l1 -6l-1 -8l1 -9l1 -7l-2 -9l1 -7l-2 -17zM210 655l-7 -2l-9 1l-7 3l-4 9v9l2 10l-1 6v17l2 11l10 4l6 1l10 -1l9 -4l2 -10l2 -8v-8
l-2 -19l1 -8l-3 -10z" />
    <glyph glyph-name="macron" unicode="&#xaf;" horiz-adv-x="675" 
d="M527 930l-1 -9l2 -8v-25l-1 -9l-5 -12l-7 -6l-6 -7l-6 -6l-14 -5l-7 1l-9 -1l-7 -1l-9 2l-8 -1h-7l-7 -1h-18l-7 2l-16 -2l-9 2h-8l-9 -1h-16l-6 -1l-9 2l-7 -1l-9 1l-8 -2l-7 1l-9 1l-9 -1h-7l-8 1h-10l-6 -1l-8 1l-9 -1l-8 1h-7l-8 -2l-8 1h-9l-9 1l-6 -1l-15 5l-11 11
l-6 8l-7 14l2 6l-1 9l1 10l-2 7v8l1 8l6 14l10 14l8 6l12 4l8 -1l9 2h9l6 -1l10 -1l6 2h18l7 -2h7l9 1l7 1l9 -1h32l10 -1l7 2l9 -2l6 2l9 -2l9 1l8 1h6l10 -2h9l6 1l8 -1l10 2l6 -1h10l7 -1h9l6 1h8l9 1h8l15 -5l5 -7l5 -5l8 -7z" />
    <glyph glyph-name="degree" unicode="&#xb0;" horiz-adv-x="273" 
d="M193 754l6 -4l5 -7l7 -4l4 -7l6 -6l7 -5l6 -4l5 -7l4 -13l2 -8l-2 -9l2 -7l-1 -8l-1 -9l1 -9v-7l-1 -7l2 -16l-1 -10l-6 -14l-6 -4l-5 -7l-5 -5l-7 -7l-3 -5l-8 -5l-4 -4l-5 -6l-13 -8h-9l-9 1l-6 -1l-9 1l-8 1l-7 -1l-10 1l-6 -1h-10l-8 -1l-6 1l-16 5l-4 7l-5 6l-11 9
l-6 6l-7 8l-6 5l-4 6l-6 13l1 7l-1 9l-1 8l1 9l1 6v10l-2 8l2 8l-1 8v9l-1 7l7 14l6 5l3 6l7 6l7 5l4 5l5 5l7 7l4 4l14 5l9 -1l8 1l7 1l9 -2l9 2h8l7 -1l9 -1l8 1l6 1l8 -2zM163 716l-8 -1l-7 -1l-7 2h-8l-9 -2l-6 1h-9l-12 -4l-8 -7l-6 -7l-6 -6l-4 -13l-2 -7l2 -8v-16
l-2 -6v-15l7 -14l6 -6l5 -6l7 -7l13 -6l8 -1l9 2h8l7 -1h13l8 -1l14 6l5 7l6 5l6 7l7 14v7l1 8l-1 7l-1 8v7l2 8v9l-8 13l-6 6l-6 5l-4 8z" />
    <glyph glyph-name="acute" unicode="&#xb4;" horiz-adv-x="530" 
d="M263 1042l7 4l5 3l9 4l6 5l5 3l7 4l8 5l13 -2l5 -5l3 -7l7 -5l3 -7l7 -6l4 -5l5 -5l4 -5l6 -6l6 -7l3 -6l-1 -10l-4 -6l-6 -5l-8 -6l-6 -4l-5 -8l-6 -5l-5 -5l-12 -10l-8 -6l-5 -5l-7 -5l-6 -5l-6 -5l-7 -6l-5 -5l-5 -6l-8 -5l-6 -7l-4 -5l-6 -5l-12 -11l-8 -6l-5 -5
l-7 -5l-6 -5l-13 -2l-8 3l-8 4l-8 3l-4 11l5 8l4 7l2 6l5 7l3 7l4 8l3 7l4 8l3 5l2 9l6 5l2 10l3 5l4 8l5 6l2 7l5 9l3 7l3 7l3 6l3 9l4 5l3 7z" />
    <glyph glyph-name="paragraph" unicode="&#xb6;" horiz-adv-x="706" 
d="M649 -88l1 -9l3 -7l4 -8l3 -9l-5 -7h-8l-9 1l-9 -2l-8 2l-7 -2l-7 2l-10 -2h-6l-10 1l-6 1h-8l-8 -2l-9 2l-9 -1l-7 -1h-7l-9 1h-7l-7 9l4 6l2 8l2 9l5 9l2 13l1 8l-2 8l2 10v14l-2 8v9l1 8v9l1 7l-2 7l2 8l-1 9l-1 7l1 9l-1 9l1 7l-1 9l2 14v10l-2 7l2 7v9l-1 7l-1 9
l1 8l1 7l-1 9l-1 6l1 9v16l1 9l-2 6l2 8v9l-1 7v9l-1 7l2 10l-1 6l1 10l-1 6v9l-1 6l2 10v7l-1 7l-1 9v16l1 7v9l1 8l-2 8l1 7l-1 10v8l1 7l-1 9l1 8l1 7v8l-2 9l2 13l-1 9l-1 7v24l2 9l-2 8v25l1 6l-1 8l2 8l-2 16v9l2 7l-2 9v7l-4 14l-6 5l-13 5l-6 1l-18 -2l-6 1l-9 -1
l-7 2h-10l-8 -1l-11 -4l-6 -6l-5 -12l1 -8v-26l-1 -6v-32l2 -9v-15l-1 -9v-7l-1 -8v-9l2 -9l-1 -8l1 -7l-1 -9v-6l-1 -9l1 -8l-1 -7l2 -9l-2 -6l1 -10l-1 -7l2 -8l-1 -7l-1 -8l2 -8l-1 -10l-1 -8l2 -8l-2 -8l1 -8l-1 -7l1 -9l1 -8l-2 -6v-10l2 -7v-8l-1 -8l1 -7l-1 -7l-1 -8
v-10l2 -6l-1 -9l1 -8v-9l-2 -6l2 -8l-1 -9v-7l-1 -10l1 -6l1 -10v-16l-2 -8v-13l1 -10l1 -7v-7l-2 -9l1 -7l-1 -8l2 -9l-1 -8l1 -7l-1 -10l-1 -6v-16l2 -10l-1 -6l-1 -9l1 -8v-9l-1 -8l2 -16l2 -15l2 -6l3 -10l3 -6l3 -9l-6 -8l-8 1l-7 -2h-9l-7 1l-10 -1l-8 1h-7l-9 1
l-7 -2l-8 2l-8 -1h-8l-9 1h-14l-10 -2h-8l-7 2l-5 7l2 7l5 10v8l4 6l3 15l-1 10l2 8l-1 8l-1 6v8l2 8v18l-1 7v40l1 9v7l-2 7l1 8l-1 7v8l2 18l-2 6l2 9l-1 7l1 10l-2 7l2 9v16l-1 6l1 8l-2 9l2 7v15l-1 10l-1 6l2 8l-1 8l-1 10l1 8l1 7v9l-2 7v8l-5 13l-3 4l-14 6l-8 1
l-7 -1l-8 1l-10 -1l-7 1h-32l-8 -2l-9 1l-8 1h-6l-9 -1l-7 -1h-8l-9 2h-9l-6 -2h-8l-15 7l-5 4l-6 6l-7 6l-6 8l-10 9l-7 6l-5 8l-7 5l-3 12l-2 9v8l2 9v6l-1 9l1 7v16l-2 10l1 8l1 6v8l-1 10l1 8l-2 6l1 8l-1 8v9l1 7v8l1 7v10l-1 6l1 10l-2 6v26l2 7l-1 8v8l-1 9v6l1 9
l-1 8v8l1 9v6l5 13l5 7l6 6l7 5l5 6l5 6l8 4l4 7l12 11l15 7h6l10 -1l6 -1h8l8 2h8l8 -1l10 -1h15l9 1l8 -1l8 2l7 -1h9l6 -1h9l9 2l8 -1h15l8 1h9l7 -1l8 -1l8 1h8l7 -1h16l9 2l7 -2l10 2l8 -2l9 2l6 -1h8l9 1l16 -2l9 2l7 -2l7 2h10l6 -2h9l8 1h7l8 1h10l7 -1l7 1l9 -1h9
l6 1l9 -1h9l6 -1h10l7 2l8 -1l7 1l8 -1h10l6 1h17l8 -2h7l6 -9l-2 -8l-2 -8l-6 -14l-3 -16l1 -9v-15l1 -9l-1 -9l-1 -7l2 -7l-2 -10l2 -8v-16l-1 -6l1 -9l-1 -7l-1 -10l2 -7l-1 -8l1 -7l-2 -9l2 -9l-1 -8l1 -6l-1 -9v-9l-1 -7l2 -7l-2 -10v-15l2 -9l-2 -7l1 -9l1 -6l-1 -9
l1 -7l-1 -10l-1 -7v-15l2 -10v-6l-2 -8v-10l2 -8v-6l-1 -8v-10l-1 -8l2 -6l-1 -9v-9l-1 -8l1 -7l1 -9l-1 -8v-24l-1 -7v-40l2 -8v-7l-1 -8v-17l1 -7l-2 -10l2 -14l-2 -8v-16l2 -8l-2 -10l2 -6l-1 -10l-1 -6v-8l1 -8l1 -9l-2 -8v-9l2 -7v-7l-1 -10l-1 -7l1 -9v-16l-1 -6l2 -9
v-8l-2 -9z" />
    <glyph glyph-name="periodcentered" unicode="&#xb7;" horiz-adv-x="249" 
d="M90 467l8 2l6 -1h10l8 -1l8 2h22l8 -1l15 -6l6 -4l5 -6l5 -5l4 -8l7 -4l6 -7l5 -13v-16l1 -8v-8l-1 -8l1 -7l-2 -7v-16l-6 -16l-3 -5l-6 -6l-6 -3l-6 -8l-5 -5l-6 -5l-14 -5h-8l-8 -1h-7l-9 2l-8 -2h-15l-9 2l-8 -2l-13 7l-5 5l-6 5l-4 7l-8 3l-5 8l-6 5l-3 14v14l-2 8v8
l1 8l-1 9l2 7l-1 10l1 8l5 12l5 6l5 6l6 4l4 5l6 6l5 6z" />
    <glyph glyph-name="cedilla" unicode="&#xb8;" horiz-adv-x="470" 
d="M188 -2h8l9 2l6 -2h10l8 1l7 1h7l9 -2l12 -3l7 -6l5 -7l6 -5l8 -7l5 -6l6 -14l-1 -5v-10l-1 -5v-17l-4 -13l-6 -8l-6 -6l-3 -5l-7 -8l-12 -11l-7 -3l-4 -4l-8 -6l-6 -3l-6 -6l-14 -1l-8 3h-9l-8 4l-7 3l-9 2l-1 8l6 3l5 7l9 9l6 7l7 5l4 7l6 3l7 15l-1 7l1 8v13l-1 8
l-7 13l-5 7l-6 5l-12 12l-5 6v4z" />
    <glyph glyph-name="ordmasculine" unicode="&#xba;" horiz-adv-x="279" 
d="M227 471l-6 -9l-6 -4l-5 -6l-15 -7h-16l-8 -1l-7 1l-10 -1l-7 1l-9 1h-7l-9 -1l-7 1l-8 -2l-7 2l-10 -1l-6 1l-16 4l-6 6l-5 6l-6 8l-9 13v15l1 9l1 8v8l-2 9l2 7v17l-1 7l-1 8l1 7l-1 8l1 8l-1 8v9l2 7v17l-2 7v7l1 8l-1 10l1 6v10l-1 7l2 9l-1 6l1 10l-2 7l7 13l8 8
l6 5l7 7l13 5l9 1l8 -2l6 1h9l8 1l8 -1l7 -1l8 2h9l7 -1l8 -1l8 1l10 -1h6l15 -4l7 -7l6 -7l5 -5l9 -14l-1 -7l-1 -9l2 -8l-1 -9v-16l1 -7l-1 -9l1 -6l-1 -8l1 -9v-9l-2 -8l2 -15l-1 -7v-7l1 -8l-2 -10v-32l2 -14l-1 -10l1 -7v-8l-2 -7l1 -8zM167 692l-12 4l-8 1l-10 1
l-8 -2l-7 1l-12 -5l-4 -12v-23l1 -8v-7l-2 -8l2 -9l-2 -7l2 -9l-2 -9l1 -6v-9l1 -7l-2 -10l2 -6v-10l-2 -7l2 -7v-9l-1 -9l5 -9l10 -5h9l7 -1h8l8 1l14 4l4 10l-1 9l-1 7v10l2 8v14l-2 10l1 6l1 8l-2 10v6l2 9l-2 8l2 9v7l-2 9l2 6l-2 8l2 10l-1 7zM227 319l-7 -2l-10 1
l-7 -1l-7 1l-9 1l-7 -2h-9l-8 1l-8 -1l-8 2l-7 -2l-8 1l-8 -1l-8 2l-16 -2l-8 2l-10 -1l-8 1l-6 -1h-9l-8 -1l-6 8l-1 9l-1 7l1 8l-1 8v17l7 8h9l8 -1h39l9 -1l7 1l10 -1l8 2l8 -1l8 1l7 -2h8l8 2l9 -1l8 1h7l9 -1l6 -1l9 2l8 -7l-1 -10v-24l-1 -6l2 -8z" />
    <glyph glyph-name="guillemotright" unicode="&#xbb;" horiz-adv-x="498" 
d="M258 668l-6 -7l-5 -5l-6 -4l-4 -6l-5 -5l-7 -5l-1 -14l4 -8l4 -6l1 -9l4 -7l5 -6l1 -8l4 -7l4 -7l3 -9l4 -5l3 -8l4 -9l1 -7l9 -15l2 -7l5 -6l2 -7l3 -9l3 -7l3 -8l4 -7l5 -8l1 -7l5 -6l4 -8l3 -8l4 -7l1 -8l3 -7l6 -8l3 -7v-13l-5 -7l-4 -8l-3 -7l-1 -7l-4 -7l-4 -8
l-2 -7l-4 -8l-5 -8l-3 -7l-2 -6l-5 -10l-3 -7l-5 -13l-4 -7l-4 -8l-4 -9l-2 -7l-4 -5l-2 -10l-6 -7l-1 -6l-5 -7l-3 -8l-3 -8l-3 -6l-3 -8l-3 -8l-9 -15l-2 -7l2 -12l7 -7l5 -3l4 -6l5 -7l7 -4l5 -6l10 2l3 5l4 7l6 7l5 6l2 7l7 8l3 7l4 5l3 8l7 7l4 6l2 8l6 6l5 7l2 5l7 8
l2 8l5 4l5 8l3 7l5 6l3 8l11 14l4 6l3 6l5 6l4 8l5 5l4 9l4 5l5 9l5 5l2 6l5 9l9 10l5 7l7 4l6 7l5 4l4 6l7 7l1 9l-6 6l-6 5l-6 6l-5 6l-7 5l-3 7l-10 11l-6 7l-4 8l-3 7l-5 5l-5 7l-3 8l-4 6l-5 7l-3 6l-5 6l-5 9l-5 6l-3 7l-6 7l-3 5l-9 13l-4 8l-5 7l-3 7l-4 6l-4 8
l-5 5l-4 7l-6 6l-4 9l-3 7l-6 5l-4 8l-4 5l-5 8l-2 6l-6 6l-3 8l-6 8h-10zM66 667l-9 -9l-7 -8l-6 -3l-6 -7l-3 -5l-4 -14l5 -5l2 -8l3 -7l4 -8l4 -9l2 -7l3 -6l5 -8l3 -8l4 -7l4 -6l3 -9l2 -5l5 -8l1 -7l6 -9l2 -8l2 -6l6 -7l3 -8l5 -15l3 -8l3 -7l9 -13l1 -9l5 -6l4 -7
l3 -8l2 -9l5 -7l-2 -15l-3 -6l-2 -7l-8 -15l-2 -8l-4 -7l-2 -8l-9 -15l-3 -6l-3 -8l-4 -7l-2 -6l-4 -7l-4 -10l-2 -5l-4 -8l-4 -7l-2 -9l-4 -5l-2 -9l-5 -8l-2 -6l-5 -7l-2 -9l-3 -6l-5 -8l-3 -8l-3 -5l-3 -9l-5 -6l-3 -8l2 -13l7 -7l16 -15l5 -5l7 -5h8l5 6l3 8l6 7l3 7
l4 7l6 5l3 8l5 7l3 5l5 8l6 6l4 6l5 8l3 7l3 6l5 7l6 6l4 7l4 7l4 6l5 8l2 5l6 7l5 9l9 11l2 7l4 9l6 4l4 9l4 6l4 8l6 5l4 6l3 7l9 12l7 6l5 5l4 6l8 7l5 3l6 8v11l-7 3l-6 6l-6 7l-9 9l-5 7l-12 12l-4 8l-9 12l-3 8l-4 7l-5 5l-3 9l-6 5l-4 7l-3 8l-5 5l-5 6l-5 9l-4 5
l-4 9l-4 5l-5 8l-2 6l-4 7l-7 5l-4 9l-3 7l-5 7l-4 5l-3 7l-7 8l-2 7l-5 4l-4 7l-6 7l-4 8l-2 7l-6 7l-5 5l-2 9z" />
    <glyph glyph-name="questiondown" unicode="&#xbf;" horiz-adv-x="470" 
d="M302 585l-8 -2l-10 1h-47l-8 1l-15 5l-3 6l-8 3l-4 6l-6 5l-4 6l-7 6l-6 14l1 9l-1 7v7l1 10l-1 6v8l1 9l-1 9v8l7 12l6 5l9 13l5 3l8 8l4 3l14 8l8 -1l8 1l7 -2l9 1l8 1h8l7 -1l10 -1l8 1l11 -5l7 -7l6 -5l4 -4l7 -6l5 -7l6 -5l5 -14l1 -6l-2 -10l1 -6l1 -10l-1 -8v-6
l-1 -8v-9l2 -8l-8 -14l-3 -4l-7 -8l-6 -4l-4 -7l-6 -3l-6 -8zM99 5l-4 7l-5 5l-6 6l-8 6l-3 4l-18 19l-6 7l-4 14v7l-1 7l1 8l-2 10l2 6v8l-2 16l1 10v14l1 8l-1 10l1 8v6l-2 8v17l2 10l-2 8l1 7l1 8l-1 8v8l-1 8v7l1 10l1 6v24l-2 9v8l2 16l-1 8l1 7l3 16l6 6l6 4l5 7l8 6
l3 5l7 6l6 6l4 7l8 6l14 6h24l9 -1l8 1l7 -1l7 1l10 -1l13 4l4 5l7 14l-2 6v9l4 14l1 8l1 10l3 7l4 9l2 8v6l12 8l9 -1l8 1l6 -1l8 1l9 -1l7 1l10 1l7 -2l9 1l9 -6l2 -8l2 -9l2 -7l7 -16l2 -8l2 -15l-1 -9l2 -9l-2 -6l1 -9l-1 -8v-22l2 -10v-7l-2 -9v-8l-6 -12l-6 -5l-6 -7
l-3 -5l-6 -7l-8 -5l-5 -6l-5 -6l-7 -5l-5 -5l-12 -6l-9 1h-9l-7 -1h-9l-8 -1l-7 2l-16 -2l-14 -4l-3 -5l-5 -11l-1 -10l2 -8l-2 -8v-16l2 -7l-1 -7l-1 -10l2 -8l-1 -7l1 -9v-14l-2 -9v-8l1 -8l1 -9l-2 -8l8 -15l14 -6l8 -1l9 1l8 -1l9 1l8 -1l7 1l9 1l8 -1h14l14 4l4 6l5 14
l2 7l-1 7l1 9l-2 10l-3 14v10l-3 7l-3 9l-2 8l4 7l8 -1l9 2h8l8 -1l8 1l8 -2h7l7 1h17l9 1h16l7 -2l7 2l9 -1h8l8 -1l6 -8l-3 -6l-4 -9l-3 -9l-1 -6l-4 -17l2 -16v-7l-1 -8l1 -8l-1 -9l1 -8v-9l-1 -8v-16l-1 -8l1 -7v-7l-5 -15l-6 -5l-7 -6l-6 -5l-4 -6l-7 -5l-11 -14l-5 -4
l-7 -6l-14 -8h-14l-9 1l-9 -1l-7 2l-9 -2l-7 1l-9 -1h-7l-9 1h-6l-10 1l-6 -1h-9l-9 -1h-16l-7 2h-23l-9 -2l-7 2l-10 -1l-8 1l-8 -2l-8 1h-7l-9 1l-8 -2z" />
    <glyph glyph-name="Agrave" unicode="&#xc0;" 
d="M224 1070l9 -4l5 -4l8 -3l7 -4l5 -3l8 -6l7 -3l10 -11l3 -8l7 -14l2 -8l6 -6l1 -9l5 -5l2 -9l4 -7l5 -7l3 -5l2 -9l4 -6l5 -8l3 -7l4 -7l4 -6l1 -10l7 -14l5 -5l3 -9l5 -7l-5 -9l-7 -4l-9 -5l-8 -2l-13 1l-8 6l-4 5l-8 5l-10 13l-6 3l-14 11l-6 5l-4 7l-8 5l-6 5l-4 7
l-7 5l-6 5l-6 5l-8 4l-5 8l-5 4l-7 5l-6 6l-7 6l-4 4l-7 6l-6 6l-12 9v13l5 6l5 4l4 8l6 6l3 4l6 6l10 12l5 5l7 8l5 4zM493 43l5 -8l5 -13l5 -7l2 -9l-3 -7l-9 1l-7 1h-8l-7 -1l-10 1l-14 -2h-26l-6 2l-10 -1l-6 1l-9 -1l-7 -1l-8 1h-10l-8 1l-5 6l4 8l3 6l1 17l-2 7l-1 7
l-2 9l-3 8l-3 6v9l-1 7l-4 7l-1 9l-3 7l-1 9l-1 8l-3 8l-11 18l-13 4h-9l-8 1h-30l-8 -1l-9 1h-6l-7 -1h-26l-7 1l-12 -6l-6 -5l-7 -13l-2 -16l-3 -6l-3 -10l-2 -8l-2 -6l-1 -8l-1 -9l-4 -16l-1 -7l-4 -8l-2 -6l1 -15l5 -8l2 -7l-6 -9l-6 1l-10 -1l-8 1l-6 1h-16l-8 -2
l-10 1l-6 1l-8 -2h-9l-7 1h-17l-8 -1h-9l-6 2l-9 -2l-3 7l4 7l3 8l4 7l2 8l5 8l4 13l2 9l1 7l4 8l2 10l1 6v8l2 9l3 7l1 8l2 7l3 9l1 6l2 10l2 6l3 9l2 7l1 15l3 8l2 9l1 9l2 5l3 9l1 7l2 8l1 9l3 9l1 5l2 10l3 8l2 6v9l4 7l1 9l1 7l2 9l3 7l2 7l1 7l1 10l2 7l1 9l4 8v6l2 7
l2 10l4 8l1 14l4 17l3 6l1 9l1 9l4 6v7l4 9v7l2 10l2 6l1 10l2 6l4 8v9l2 7l3 8v8l2 7l2 7l4 8v8l3 10l2 5l2 8l2 10l2 6l1 9v8l6 15v7l3 8l2 10l-2 13v9l-4 7l-3 6l-2 9l5 8h8l9 -1h9l7 -1l9 1h22l8 -1l7 1l9 1h8l9 -2l5 1l8 -1l8 2h8l10 -2h6l9 2l6 -10l-2 -6l-2 -8l-5 -8
v-5l-3 -16l3 -8l1 -9l4 -7l1 -8l2 -7v-7l4 -8l2 -8v-10l2 -7l4 -8l-1 -7l2 -9l2 -7l3 -8l1 -8l2 -8l3 -7l2 -8l2 -16l2 -8l3 -6l1 -8l3 -8v-9l3 -8l2 -8l3 -6l-1 -10l4 -7v-7l6 -17v-8l2 -8l2 -8l1 -8l4 -6l1 -7l3 -10l1 -6l1 -9l3 -8l1 -8l1 -8l2 -6l2 -8l2 -8l3 -7l1 -10
l3 -8v-8l1 -7l4 -7l1 -8l1 -8l6 -16l3 -16l1 -8l1 -6l2 -9l3 -8l1 -8l3 -7l2 -8l1 -9l1 -8l3 -7l1 -9l1 -6l4 -9l1 -7l2 -9l1 -7l3 -7v-7l4 -10l2 -6l1 -8l1 -9zM218 295l15 -6l9 -1l8 1l7 1l10 -2l8 2h7l9 -2l14 7l3 13l-1 8l-2 6v10l-2 6l-3 8v7l-1 10l-4 8l-1 8l-2 7l1 9
l-4 7l-1 8v7l-3 7l-1 10l-2 6l-1 7l-1 8l-5 16l-1 10l-1 6l-2 8l-2 7l-1 9l-1 7l-2 10l-1 6h-3l-4 -8l1 -8l-3 -8l-1 -8l-1 -6l-2 -8l-3 -7l-1 -8l-2 -9l-2 -9l-1 -7l-1 -6l-1 -9l-3 -8v-7l-3 -8l-1 -8l-1 -7l-3 -8l-2 -10l-1 -6l-2 -8v-9l-3 -8l-1 -6v-9l-4 -7l-1 -10
l-2 -6z" />
    <glyph glyph-name="Aacute" unicode="&#xc1;" 
d="M262 1044l7 3l7 4l6 4l8 3l5 4l8 4l6 5l14 -3l5 -4l5 -7l3 -5l7 -7l3 -5l7 -7l4 -5l4 -7l7 -5l5 -5l3 -8l1 -9l-14 -13l-5 -5l-6 -5l-6 -5l-5 -5l-6 -5l-8 -6l-5 -4l-7 -6l-6 -5l-6 -6l-5 -6l-8 -4l-5 -6l-7 -6l-5 -4l-12 -11l-17 -18l-6 -6l-6 -4l-7 -5l-5 -5l-7 -5
l-13 -3l-9 4l-7 4l-9 1l-4 12l4 8l5 7l2 7l4 6l5 7l2 8l5 7l3 8l2 7l4 5l5 9l1 6l9 14l2 7l4 8l4 6l2 9l4 7l3 6l5 8l3 7l4 6zM492 44l5 -9l4 -5l3 -10l4 -5l2 -9l-3 -6l-8 -2h-7l-8 2h-18l-7 -1l-7 1l-16 -2h-32l-8 2h-9l-7 -2h-8l-9 2l-4 8l2 5l3 10v15v7l-4 7v8l-3 7
l-2 8l-2 9l-1 7l-1 8l-4 9v8l-4 5l-1 10l-1 8l-6 11l-7 6l-12 5h-17l-6 -1l-9 1l-8 -1l-7 -1h-17l-7 2h-7l-9 -2l-6 2h-18l-11 -7l-5 -4l-8 -12v-8l-4 -7l-2 -8v-9l-2 -7l-4 -9l-1 -6l-2 -9l-2 -6l-1 -9l-2 -8l-3 -8l-1 -7l1 -14l3 -10l4 -5l-5 -9l-9 -1h-7l-10 1h-8l-6 1
l-10 -1l-8 1l-8 -2h-23l-9 2h-38l-9 -1l-3 8l4 8l3 5l3 10l2 5l5 9l5 14l3 8l1 9l3 7l2 9l1 5l3 18l3 7l1 9l2 6l2 9l1 8l2 7l1 8l4 9l2 5v8l1 9l2 8l3 7l1 10l2 5l4 9l1 7l2 10l2 8l1 8l2 5l2 9l2 9v7l3 7l1 10l3 5l1 9l3 8l2 8l1 8l2 6l2 8l3 10l-1 8l2 6l2 9l4 8l1 7l2 7
v9l2 9l4 6l2 7l2 10v7l3 9l1 7l2 8l2 8l3 8l2 7l-1 9l4 7l2 8v8l4 6l1 10l1 8l2 6l3 9l1 7l3 9l1 7v9l4 5v10l2 6l3 10l3 8l1 8l1 6l1 7l2 8l3 10l3 8l-1 15l-3 5l-3 10l-3 6v7l5 7l8 2l6 -2h8l8 2l9 -1h9l7 -1l8 1l6 1l8 -1l8 1l10 -2l7 2l8 -1l7 1l8 -1h23l9 1l5 -10
l-3 -6l-1 -8l-3 -8l-3 -7l-1 -15l4 -7v-9l4 -8l1 -8l2 -7v-6l2 -10l4 -6v-9l2 -9l4 -6v-7l1 -10l4 -7l1 -8l2 -6l3 -10l1 -6v-8l4 -9l1 -9l2 -7l2 -7l1 -8l1 -7l2 -10l4 -7v-8l2 -7l3 -9l2 -6l1 -9l2 -8l3 -6v-8l3 -9l1 -7l3 -10l2 -6l2 -8l1 -7l1 -8l1 -10l2 -6l3 -7l2 -9
l1 -8l3 -7l1 -9l1 -7l4 -9v-7l4 -9l3 -16l2 -5l2 -10l1 -6l1 -10l2 -6l2 -9l2 -7l1 -7l4 -9l1 -8l2 -8l1 -8l2 -6l1 -9l3 -8l1 -7l1 -10l2 -6l4 -7l1 -8l3 -8l1 -8l1 -9l3 -7v-9l2 -8l2 -6l4 -8zM218 294l14 -5l9 -2l8 2l7 -1l11 -1l7 1h8l7 -1l17 6l3 14l-3 8l-1 9l-1 8
l-1 7l-3 7l-2 9v6l-2 10v7l-3 9v8l-3 6l-1 8l-1 9l-3 7l-2 8l-2 7l-1 8l-1 7l-1 9l-2 9l-2 6l-2 8v9l-2 7l-3 7l-1 9l-1 7l-2 8h-3l-1 -8l-1 -7l-4 -9v-6l-3 -10l-1 -6v-8l-4 -8l1 -8l-4 -7l-1 -17l-2 -8l-1 -7l-2 -8l-3 -7l-2 -8v-9l-1 -6l-2 -8l-5 -18v-8l-3 -7l-2 -8
l1 -8l-4 -8v-8l-3 -8z" />
    <glyph glyph-name="Acircumflex" unicode="&#xc2;" 
d="M122 845l9 1l7 1l10 -2h7l8 2l9 -2l7 1l8 -1l10 7l5 7l1 8l6 8l3 8l2 7l4 7l3 7l4 6l3 9l3 6l3 7l3 9l5 8l1 6l4 7l11 8l12 -9l5 -5l5 -15l5 -9l2 -6l4 -8l2 -7l4 -8l4 -6l4 -7l1 -9l4 -7l3 -7l3 -7l3 -6l13 -8h9l6 -1l9 2h16l7 -2l9 2l8 -2l5 8l-5 7l-2 8l-5 5l-3 7
l-3 9l-2 5l-5 9l-2 7l-3 6l-5 9l-3 6l-3 8l-3 7l-9 12l-2 9l-4 5l-2 8l-10 12l-5 8l-6 5l-7 6l-4 5l-7 5l-5 6l-5 8l-14 11l-5 6l-14 5l-13 -5l-9 -12l-8 -5l-4 -6l-7 -7l-4 -6l-7 -4l-4 -6l-8 -6l-6 -8l-8 -13l-3 -5l-4 -9l-4 -6l-3 -8l-4 -5l-1 -9l-4 -7l-4 -5l-3 -8
l-3 -8l-3 -8l-5 -5l-3 -7l-3 -9l-3 -7l-5 -7l-2 -5l-5 -8zM494 42l4 -6l3 -7l3 -9l2 -6l5 -7l-4 -7l-8 -1h-9l-8 -1l-7 1h-16l-8 -1l-7 1l-10 1l-7 -2h-17l-6 2l-10 -2l-6 2l-10 -2h-8l-6 1l-7 8l5 6l1 10l2 14l-2 9l-1 7l-4 8v6l-3 8l-1 10l-3 7l-1 6l-1 10l-3 7l-2 6
l-2 10l-2 6l-7 13l-5 5l-12 4l-8 2l-7 -1h-9l-8 -1l-7 2l-9 -1l-8 -1h-7l-7 1h-8l-7 -1h-17l-7 2l-13 -6l-4 -6l-7 -11l-4 -7l-1 -8l-2 -9l-3 -7l-1 -7l-1 -8l-1 -7l-3 -8l-3 -9v-7l-4 -9l-2 -6l-1 -8v-15l3 -10l5 -6l-7 -9h-6l-8 1h-16l-9 -1h-7l-9 1h-8l-7 1l-9 -1l-8 -1
l-9 1l-6 -1h-10l-7 2h-9l-7 -2l-8 2l-3 8l4 6l2 8l5 6l2 9l4 7l4 14l3 7l1 10l2 6l3 10l2 5v8l4 9l2 8l2 9v6l3 8l2 7l1 8l3 9l2 8l1 9l3 6v7l2 10l3 6l1 10l2 7l2 7l1 8l2 7l3 10l2 7l2 8l1 8l1 8l1 6l4 8l2 10l1 5l3 8v8l1 9l2 9l4 5v9l2 8l2 7l1 9l3 9l2 5l1 9l3 7v10
l2 6l4 9l2 6l1 10l3 8l-1 7l3 7l3 7l2 8v9l3 9l1 8l2 7l1 7l3 7l1 9l2 9l3 6l2 8l1 8l1 8l4 7v8l3 9l2 6l2 8v10l3 6l1 9l3 7v8l2 7l2 8l3 10l2 7l-2 14v7l-4 8l-2 9l-1 5l3 10h26l8 -1h6l10 1l6 -2l8 2l9 -2l6 1l9 1l9 -2l8 2l5 -1l9 -1l8 1h9l8 1l8 -2l6 2l6 -10l-3 -7
l-1 -6l-2 -9l-3 -5l-2 -15l2 -9l6 -16v-8l3 -8l1 -6l6 -24l3 -10l1 -7l1 -6l3 -9l2 -7l1 -10l3 -6l1 -8v-9l4 -6v-9l3 -7l3 -8l1 -16l3 -8l2 -7l1 -8l3 -8l3 -8l-1 -8l4 -9v-6l4 -8l1 -7l3 -10v-6l3 -8v-9l4 -8l2 -8l2 -6l-1 -8l3 -9l2 -7l2 -7l3 -9l1 -9v-8l4 -6l1 -7l2 -8
l2 -10l1 -6l1 -10l3 -8l1 -5l2 -10l2 -8l3 -7l2 -9l1 -8l3 -6l1 -7l1 -9l4 -7l-1 -10l4 -5l1 -10l3 -8l2 -7l1 -9v-8l4 -7l1 -8l1 -6l2 -9l4 -7l1 -9l1 -7l3 -8l1 -7l1 -10l3 -6zM218 294l14 -6l9 1l8 -2h8l10 2h6l9 -2l7 1l15 7l5 11l-3 9l-1 7l-1 9v7l-4 8l1 7l-4 8l-1 9
v8l-2 8l-3 9v5l-3 10l-2 8l-2 8l1 7l-2 7l-2 9l-3 7l-2 9l1 8l-3 6l-1 9l-2 7l-3 7l1 10l-2 6l-2 10l-2 6l-2 2l-3 -8v-10l-3 -8l-1 -7l-2 -9l-3 -6l1 -8l-2 -7l-2 -8l-3 -9v-7l-2 -9l-3 -7v-7l-3 -9l1 -8l-3 -8l-1 -8l-2 -8l-1 -6l-2 -10l-1 -8l-2 -6l-1 -9l-2 -8l-2 -8
l-1 -8l-1 -6l-4 -9z" />
    <glyph glyph-name="Atilde" unicode="&#xc3;" 
d="M116 877l8 2l7 -1l18 5l14 4l7 3l8 4l8 3l7 3h13l6 -6l7 -1l6 -6l7 -1l6 -6l8 -3l8 -4l6 -3l7 -4l6 -4l16 -2l6 1l9 -1l8 1l7 -2l7 2l8 -2l9 2l12 4l6 7l6 5l6 6l5 8l8 6l6 11l2 7l5 7l1 8l1 9l4 5l1 7l-3 14l-4 5l-6 6l-4 5l-6 5h-10l-3 -8l-1 -5l-4 -9l-5 -5l-11 -10
l-6 -6l-7 -2l-8 -5h-16l-5 4l-9 5l-6 1l-6 5l-8 4l-6 4l-7 1l-9 5l-7 4l-7 4l-13 3h-8l-7 -1l-8 1l-8 -2h-9l-8 2l-8 -1l-11 -6l-8 -4l-11 -14l-6 -4l-5 -6l-7 -13l-4 -8l-1 -8l-3 -8l-1 -6l-3 -8l-4 -8zM493 42l4 -5l2 -7l4 -8l3 -8l4 -7l-2 -7l-8 -2l-10 1l-8 -1h-15l-8 1
h-8l-8 1l-9 -2l-7 1h-7l-8 1l-9 -2h-7l-10 2h-6l-10 -1l-8 1l-4 8l3 6l2 7l2 17l-3 8l-1 8l-2 6l-1 9l-3 8l-3 7l1 7l-4 9v8l-4 7l-4 15l-1 7l-6 14l-6 5l-12 5h-8l-7 -1l-10 1l-7 -2h-7l-9 1l-8 -1h-8l-7 1l-8 1h-6l-8 -2l-9 1h-8l-13 -5l-4 -4l-8 -13l-2 -7l-2 -10l-2 -5
l-2 -9v-8l-2 -7l-3 -8v-8l-3 -7l-2 -9l-3 -8l-1 -6l-1 -9l1 -15l1 -7l4 -7l-6 -9l-7 1l-8 -2l-7 1l-9 -1h-16l-9 1h-7l-7 1l-8 -1h-8l-9 -1l-8 2l-8 -1l-7 -1l-9 2l-8 -2l-9 2l-2 6l3 9l2 5l7 15l6 9l5 14v8l3 9l1 8l4 6l1 9v8l4 8l2 6l2 10l2 6v9l1 8l2 6l2 10l2 6l4 9l2 6
l-1 8l3 8l1 10l4 7l1 8l1 7l1 9l2 8l4 7l1 9l1 7l3 6l2 8l2 8l2 10l1 6l3 7l2 8v9l3 7v10l3 5l3 9v9l3 8v6l3 10l1 6l2 7l2 10l1 7l3 7l2 9l3 7l2 8l1 7l1 10l1 7l2 8l3 6l2 10l2 7l1 9l1 7l4 15l4 9l2 8v8l3 7l1 6l1 8l4 18l1 6l2 9l2 8l4 8l2 6v9l4 8l-1 8l2 8l3 8l3 6
l1 10l-1 13l-3 8v9l-3 5l-2 8l5 7h8l7 1h15l9 1l7 -2l7 2l9 -1l8 1l9 -2l7 1l7 -1h8l8 1l7 1l18 -2l6 2l10 -1l7 -1l5 -8l-2 -5l-3 -8l-1 -9l-2 -5l-2 -15l2 -10l3 -8l2 -14l4 -7l1 -9v-7l2 -8l3 -10l3 -6l1 -9l1 -7l1 -9l3 -8l3 -7l1 -6l3 -8l-1 -9l2 -7l4 -8l4 -17v-6
l2 -8l1 -9l3 -9l3 -8l2 -7l2 -7l1 -9v-6l4 -8l1 -9l3 -7l1 -8l2 -8l1 -7l2 -8l3 -7l1 -8l2 -10l1 -8l1 -7l3 -9l1 -5l4 -8l1 -8v-10l3 -6l3 -9l2 -7l1 -7l1 -8l1 -10l3 -7l2 -8l1 -6l4 -8l2 -8l-1 -10l3 -8l2 -6l3 -7l2 -10v-6l3 -10l1 -5l2 -10l3 -7l2 -8v-8l1 -8l2 -6
l4 -10l2 -6l1 -9l3 -8l1 -8l1 -6l3 -8l1 -10l1 -6l3 -8zM220 294l14 -7l8 1l7 -1l7 2l9 -1l10 1l8 -1h6l16 7l3 11v10l-3 6l-1 8l-1 10l-2 8l-1 5l-1 9l-2 7l-2 8l-2 8v10l-2 6l-4 9v6l-3 9l1 7l-3 10v6l-4 8l-1 7l-2 10v8l-3 7v7l-3 9l-1 6l-3 10v8l-1 7l-3 -1l-3 -7v-9
l-4 -6l-1 -10l-2 -8v-5l-2 -9l-1 -8l-1 -9l-3 -7v-8l-3 -7l-1 -8l-1 -7l-3 -10l-1 -7l-1 -7l-1 -9l-4 -6l-1 -10l-2 -7v-8l-2 -9l-1 -5l-3 -10l-2 -7v-8l-1 -8l-4 -8z" />
    <glyph glyph-name="Adieresis" unicode="&#xc4;" 
d="M151 969l9 1l6 -1h10l8 -1l8 2l9 -2l15 -5l4 -6l6 -7l8 -5l4 -13l2 -8l-1 -8v-14l1 -7v-15l-7 -13l-5 -7l-6 -5l-8 -8l-15 -5h-23l-8 -1l-16 2l-14 5l-6 5l-8 7l-5 5l-5 14l-1 8l1 8l-1 7v8l-1 7v7l1 9l5 14l8 4l6 6l5 6zM317 968l6 1l9 1l8 -2h14l17 2l12 -8l7 -6l4 -6
l7 -4l5 -15v-14l2 -9v-5l-1 -10l-1 -7v-7l-4 -14l-7 -6l-7 -4l-5 -7l-12 -6h-15l-10 1l-8 -1l-6 1l-7 -1l-10 1l-13 6l-11 11l-5 7l-5 13l-1 6v9l1 8v6l-2 8l1 6l1 10l3 12l7 6l6 5l7 6zM492 43l5 -8l2 -7l6 -8l2 -6l3 -8l-3 -8l-8 1l-7 1l-9 -1h-8l-7 -1l-10 2h-7l-9 -1
l-8 1l-6 -2h-9l-7 1l-9 1l-9 -2l-6 1h-8l-10 1l-8 -1l-4 8l4 8l1 8l3 14l-3 9l-1 6l-4 7l-2 8v10l-4 7v8l-1 7l-3 7l-2 9l-1 8l-3 6l-2 9l-7 11l-3 5l-15 6l-6 -1h-8l-10 1h-7l-6 1l-8 -1h-32l-8 -1l-8 2l-8 -2l-9 1l-11 -4l-5 -6l-6 -13l-2 -8l-3 -7l-1 -6l-3 -10l-3 -7v-8
l-3 -6v-10l-3 -8l-2 -8l-2 -5l-1 -9l-3 -7l1 -17l3 -8l2 -6l-4 -8h-8l-9 -1h-16l-7 1l-8 1l-7 -1l-9 1h-17l-6 -1l-8 -1h-9l-9 1l-8 1h-8l-6 -1l-8 1l-5 8l5 5l3 7l2 9l5 8l4 6l5 15v9l2 8l4 6v10l4 7l1 7l1 7l1 10l4 7v7l2 7l2 10l1 6l4 8v10l2 8l3 7l2 7l2 7l2 10l2 7l2 8
l2 6l1 8v9l3 8l3 9v6l4 9l1 6l2 8v9l4 8v8l3 6l2 9v9l4 8l2 6v8l3 7l1 10l1 6l2 10l2 7l4 6l2 8l-1 10l3 6l4 17l3 6l2 10v7l3 8l1 8l3 7l1 8l2 8l2 9v6l4 9l1 7l3 9l2 8l1 6v10l2 5l3 8l1 8l2 8l3 10l2 5l1 10l2 7l1 9l2 7l3 9l2 7l2 6v10l3 8l2 6l-2 17l-2 5l-1 10l-2 5
l-3 9l6 6l7 1l8 -1h7l8 1l10 -1l6 1l8 1h17l7 -2h17l6 1l9 1h16l6 -2h10l6 2l10 -1l3 -9l-1 -7l-4 -15l-3 -6l-2 -15l3 -8l3 -7l2 -9l1 -9l2 -6v-7l6 -18v-8l4 -7v-7l2 -9l2 -8l2 -7l3 -9l1 -7l3 -8l1 -6v-10l3 -6l1 -10l3 -5l1 -9l1 -7l6 -16l1 -8l3 -9l1 -14l3 -9l4 -15
l3 -9l1 -6l2 -9l2 -8l1 -9l2 -6l1 -8l4 -7l1 -10l2 -8l2 -6l1 -7l1 -9l2 -8l2 -8l2 -8l3 -7l2 -7l4 -18v-6l2 -9l3 -7l1 -8l2 -7l1 -8l2 -10l2 -6l3 -7l2 -10l2 -8l1 -16l3 -6l3 -9v-7l4 -8v-7l1 -8l3 -9l1 -6l4 -9l2 -7l2 -8l-1 -9l4 -7v-9l4 -6l2 -8l1 -8zM219 293l15 -6
h16l6 2l11 -2h6l9 2h9l13 6l4 13v6l-2 8l-1 8l-2 9l-3 8v8l-2 6l-3 8l-1 8v8l-3 9l-2 8l-1 8l-1 6l-2 10v8l-4 8v7l-3 6l-1 9l-1 9l-3 7l1 7l-4 9v8l-3 6l-1 9v8l-3 8h-4l-2 -7l1 -8l-3 -10l-2 -8l-2 -8l-1 -15l-2 -8l-3 -8l-2 -8v-6l-1 -7l-2 -8l-2 -10l-3 -7l-1 -7l-1 -10
v-6l-2 -9l-3 -8l-2 -6l-1 -9v-8l-2 -7l-2 -9l-3 -8l-1 -7l-1 -8l-1 -8z" />
    <glyph glyph-name="Aring" unicode="&#xc5;" 
d="M317 1060l6 -6l5 -6l7 -5l5 -5l6 -6l4 -7l7 -5l3 -5l7 -13l-1 -8l2 -10l-1 -7v-8l-1 -9v-17l2 -6l-1 -10l-1 -8v-7l-5 -14l-6 -5l-4 -5l-6 -7l-5 -7l-5 -3l-11 -13l-8 -4l-12 -8l-9 2h-7l-9 -1l-8 1l-8 -1h-7l-8 -1l-16 2l-8 -1l-7 -1l-16 7l-6 7l-4 5l-6 6l-5 4l-5 7
l-8 5l-3 5l-6 7l-5 13l-1 7l1 10v6l-1 9v16l-1 9v15l2 9l-1 9l5 12l11 13l5 6l7 5l6 4l5 7l6 6l5 4l14 5h8l8 2l8 -1h15l9 -1l8 1h9l7 1h7l9 -2zM284 1020l-8 2l-5 -1l-8 -1l-8 1l-8 1l-7 -2l-9 2l-11 -7l-7 -6l-11 -11l-6 -14l-2 -10l2 -5l-1 -9l1 -7l-1 -8l-1 -8l1 -7
l7 -15l6 -5l6 -6l4 -7l15 -5l8 -1l7 1l7 -1l7 1l7 -1l8 -1l7 2l15 5l6 5l5 8l8 6l6 14v15l-2 7l1 7l-1 9v6l1 8l-7 14l-4 7l-8 7l-6 6zM492 44l5 -8l7 -15l3 -6l5 -7l-5 -10l-7 2l-9 -1h-8l-8 -1h-25l-7 2l-8 -2l-9 2h-6l-8 -1h-25l-8 1l-9 -2h-8l-4 9l2 8l5 7v15l-2 9l-1 8
l-4 15l-4 6v9l-2 7l-3 9v6l-4 10v7l-4 8v6l-6 12l-7 7l-13 4l-6 1h-17l-7 -2l-7 1l-10 -1l-6 1h-8l-8 -1h-8l-7 1h-10l-8 -1h-7l-11 -5l-7 -5l-6 -12l-4 -16l-3 -5l-2 -10l-1 -6l-3 -8l1 -7l-4 -9l-2 -8l-1 -7l-3 -7l-1 -10l-1 -7l1 -15l2 -8l4 -7l-6 -7l-9 -2h-7l-8 1h-16
l-8 1h-9l-6 -2h-10l-6 2l-9 -2l-7 1h-8l-9 1h-8l-9 -1h-7l-8 -1l-5 8l6 9l2 5l3 8l5 9l4 7l5 13v9l3 7l2 8l1 10l3 7l2 6l2 8l1 8l3 9l1 9l1 7l1 6l2 9l4 8v7l4 9l1 6l2 9v8l2 9l2 8l3 7l3 6l1 10l2 6l1 8l1 9l3 8l1 8l3 6l2 8l2 9l1 7l1 7l3 8l1 8l2 10l2 7l1 8l4 8l1 8
l2 7v7l3 8l1 7l2 9l4 9v7l2 7l2 10l3 6l1 7l1 9l1 7l2 8l2 9l3 6l3 9v9l1 8l4 6v8l2 8l3 8l1 8l1 8l4 7v9l2 8l4 6l1 10l1 8l2 6l3 9l2 7l2 8l1 7l3 10v5l2 8l2 9l1 8l4 9l-3 13l-1 7l-2 8l-4 7v9l4 8h17l6 -2l8 1l9 1h7l8 -2l8 1l9 -1h7l9 2l6 -2l8 2l9 -2l6 1h10l8 -1l8 1
l7 -1h8l4 -7l-1 -6l-1 -8l-4 -9l-2 -7l-1 -13l3 -10l1 -6l3 -8l1 -9l3 -7v-8l3 -9l2 -7v-7l4 -8l2 -7l1 -10l2 -7l1 -8l3 -9l1 -6l1 -9l3 -16l4 -6l1 -9l2 -8l2 -6l1 -8l2 -9l2 -7l2 -10l1 -7l4 -7v-7l1 -9l4 -9v-7l4 -8v-7l1 -7l4 -9v-9l2 -7l3 -6l2 -9l2 -8l1 -7l2 -9
l2 -6l2 -9l1 -9l3 -7l2 -9l1 -5l3 -9l1 -8l3 -7l-1 -10l2 -7l4 -6l2 -8l2 -9l2 -8l-1 -9l2 -6l2 -9l3 -6l2 -10l2 -8l2 -8l2 -15l2 -7l3 -8l3 -9l1 -8l2 -13l4 -8l1 -10l1 -7l1 -7l3 -8l1 -8l3 -8l1 -8l2 -9zM219 294l15 -6h15l7 1l10 -2l7 2l10 -1h8l15 5l4 15l-3 6v10
l-4 8v6l-1 9l-3 6v8l-2 9l-1 7l-2 9l-1 7l-4 9l-1 8l-2 6l-1 10l-1 7l-1 8l-2 6l-2 10l-1 6l-3 10l-2 7l1 8l-4 7l-1 8v7l-2 8l-3 8v10h-5v-8l-3 -10v-7l-1 -9l-2 -7l-3 -8v-7l-3 -8l-2 -9v-8l-1 -8l-3 -5l-3 -10l1 -7l-3 -7l-1 -8l-3 -10l1 -5l-4 -8l-2 -8l-1 -10v-6l-3 -8
l-2 -9v-6l-2 -10l-3 -6l1 -10l-2 -8z" />
    <glyph glyph-name="AE" unicode="&#xc6;" horiz-adv-x="764" 
d="M742 141l7 -7l-2 -7v-7l-4 -8v-10v-6l-1 -8l-3 -9l-1 -9l-1 -8l-2 -6l-2 -10v-7l-1 -7l-3 -10l-1 -6v-8l-9 -9l-9 1l-8 -1l-7 1l-9 -1l-8 1l-7 -2l-7 1h-8l-10 1l-6 -1h-10l-7 1l-6 -1l-8 1l-9 -1l-8 1l-7 -2l-9 1h-8l-8 -1l-9 1l-7 1l-7 -2h-8l-9 2l-8 -2l-7 2l-8 -2h-8
l-7 2l-8 -2h-24l-8 2h-14h-4l-7 -2h-6l-8 1h-9l-9 1l-6 -1l-4 1l-4 -1l-2 1l-6 -2l-9 2l-6 8l4 8l1 9l4 8l2 6l2 18v16l2 7v17l-1 7l1 8v9l-1 6l-1 8v15v1l-5 5l-11 7l-9 -2l-6 2l-8 -2l-10 1l-8 1l-7 -2l-9 2l-6 -1l-8 -1l-8 1l-9 -1l-7 2l-10 -1l-13 -5l-8 -5l-11 -13
l-2 -9l-2 -6l-5 -6l-2 -7l-4 -10l-1 -6l-8 -14l-2 -7l-4 -7l-2 -9l-4 -7l-3 -7l-2 -5l-3 -16v-8l-1 -6l-7 -8h-15l-7 -1h-9l-8 -1l-7 1l-9 1l-7 -2l-9 1h-7l-7 -1l-9 2l-8 -2l-6 2l-9 -1l-8 -1h-7l-8 2l-3 6l3 7l5 6l3 5l9 15l5 5l8 14l4 8l4 15l6 6l2 7l2 8l6 7l1 9l4 6
l2 7l4 8l4 6l2 8l4 8l3 8l3 7l3 6l9 14l9 22l3 7l3 10l4 7l1 7l6 6l3 9l1 6l5 7l3 9l4 7l1 7l5 5l2 9l4 8l3 6l3 9l3 6l5 7l1 7l4 8l3 6l4 7l4 9l1 8l5 7l2 6l5 8l1 6l6 9l3 6l3 9l3 5l2 8l4 7l4 9l2 6l3 8l3 8l3 5l4 9l3 6l4 9l2 7l5 8l3 7l4 6l2 6l4 10l2 6l5 6l3 8l2 8
l4 8l3 5l3 8l4 8l5 15l3 6l5 7l5 15l4 7l4 8l2 9l5 5l1 7l3 15l1 7l-1 9l-2 6l-1 7l8 8l7 1l8 -1h4l8 1h10h1h2l8 -1h9h3l8 1l4 -1l7 1l9 -1l8 1h2h1h23l10 -1h12h5l7 1l7 -1l9 -1l7 1l9 -1l5 1h8l10 1l6 -2l10 2l7 -1l9 -1h6l8 1l8 -1l9 1h7l9 -1l7 2l9 -2h6l10 1h7l7 1
l8 -2l9 2l8 -2h15l11 -6l1 -8v-8l2 -8l2 -8l-1 -7l3 -8l1 -9l1 -6l2 -8l1 -8l2 -8v-9v-6l2 -9l2 -16l-4 -4l-7 2l-10 3h-7l-6 4h-7l-18 2l-6 1l-9 1l-9 -2h-8l-6 2l-10 -1l-9 1h-7l-8 -1l-8 1l-8 -1l-9 -1l-6 2l-8 -1l-10 -1h-9l-6 1l-8 1l-10 -1l-6 1l-10 -2l-7 2l-14 -5
l-6 -6l-3 -7v-5v-9v-8v-7l1 -9l1 -7l-1 -8l1 -7l-1 -10v-6l2 -9l-1 -8l-1 -9l1 -6l1 -8v-9l1 -8l-2 -7l2 -8l-2 -10l2 -7l4 -3l13 -5l8 -2l9 2l9 -2l8 2l6 -1l8 1l17 3l10 1l6 3l8 4l10 2l6 -4l2 -10v-7l-1 -9v-8l1 -8l-1 -6v-10l-1 -8l1 -8l1 -6v-24l-1 -9l1 -8l-1 -9
l-1 -7l1 -7l-7 -6l-9 4l-9 2l-6 1l-9 4l-16 2l-10 1l-6 -2h-10l-8 1l-8 -1h-6l-15 -3l-1 -3v-1l1 -8l-2 -9l2 -8v-7v-8v-7l1 -10v-8v-7l-1 -7l-1 -10l3 -8l-2 -7l1 -8v-7l1 -9l-1 -7v-8l1 -10l-1 -6l2 -8v-9l11 -4l10 -2h7l7 2h10l8 -2l7 1l8 1h10l8 -1l6 1h9l9 -1l6 -1l8 1
l10 -1l8 2l9 -2l6 1h10l8 1h6l10 -2l16 5l7 2l7 2l8 2h6zM348 289l13 6l1 10l-1 6v10l2 8l-1 7v8l-1 7l1 8l1 9l-1 8l1 7l-2 8v9l2 9l-2 7l2 9v8l-2 6l1 10v31l-1 9l2 6v8l-1 9l-2 -6l-5 -7l-1 -9l-3 -6l-5 -6l-3 -9l-1 -6l-3 -7l-5 -9l-2 -7l-3 -7l-2 -7l-4 -8l-4 -6l-1 -9
l-3 -6l-5 -7l-3 -7l-2 -7l-3 -10l-3 -7l-4 -6l-2 -7l-2 -8l-3 -7l-3 -7l-5 -7l-2 -9l2 -12l10 -6l9 -1l9 2l7 -2h7l10 1l7 1z" />
    <glyph glyph-name="Ccedilla" unicode="&#xc7;" horiz-adv-x="478" 
d="M292 240h8l6 -1h24l9 1h7l10 -2h14l8 1l10 -1l8 1l7 -1l8 2l9 -2h14l5 -6l-1 -9l-3 -7l-4 -10l-3 -6l-1 -17l-1 -7l2 -10l-2 -7l2 -8v-16l-2 -16v-8l2 -9v-23l-1 -7l-6 -15l-5 -6l-8 -5l-4 -6l-6 -5l-7 -7l-4 -6l-5 -6l-7 -4l-5 -6l-15 -5l-7 -2l-8 1h-16l-8 1h-7l-8 -1
l-6 -1l-8 2l-8 -2l-9 2v-6l6 -8l4 -5l6 -4l6 -6l5 -7l7 -12l-1 -10l1 -6v-24l-6 -13l-4 -7l-5 -5l-6 -7l-4 -8l-12 -12l-9 -3l-5 -4l-9 -5l-13 -8l-15 -2l-7 3h-8l-8 5l-13 4l-2 9l4 4l7 6l5 7l6 7l7 4l7 8l4 6l6 13l2 7l-1 7l1 8l-1 6l1 9l-6 14l-6 5l-6 6l-4 6l-6 5l-6 7
l-13 4l-7 1h-9l-6 -1h-7l-8 -1h-10l-6 1l-8 1l-12 5l-6 5l-6 8l-12 11l-6 5l-6 7l-7 4l-4 7l-7 6l-5 13l-1 9l2 6v18l-1 8v6l1 10l-2 7l1 8l1 7l-1 10v7l-1 7l1 8v9l1 7l-2 10l1 8l-1 7l1 9l-1 8l2 6v9l-2 9l1 8l1 8l-2 7l2 8l-1 10v15l-1 7l2 10l-2 8l1 7l1 8l-2 8l2 7
l-2 10l2 8l-1 6v16l-1 10v8l1 6v10l-1 6l2 10v8l-2 6v11l2 8l-2 6l1 10l1 8l-2 6l2 9l-2 8l1 7l1 9l-1 9v6l-1 9l1 8l-1 9l2 6l-1 8l-1 10l2 6l-1 8v8l-1 10v15l2 7l-1 8l4 14l7 6l6 7l5 5l7 6l6 4l6 8l6 4l6 7l6 6l12 4l8 1h23l8 -2h18l7 1l9 -1l5 1l8 1l10 -2l7 2l7 -1
l10 -1l7 1h7l10 1l6 -2h15l10 2l8 -1l8 1l6 -2l9 2h7l10 -1h15l13 -6l7 -4l6 -5l4 -6l7 -6l5 -5l5 -7l7 -6l5 -5l6 -5l5 -16l-1 -8l2 -6l-2 -9v-9l1 -6l1 -9l-1 -7l1 -9l-1 -8v-9l1 -6v-9l-2 -8l1 -8l4 -15l2 -8l2 -8l4 -9l2 -8l-4 -8l-8 1h-40l-10 -2h-15l-8 2h-16l-9 -2
l-7 1h-15l-8 -1h-8l-6 8l6 16l4 10l2 6l2 18v32l-5 13l-3 7l-14 5h-16l-10 -1l-7 -1l-9 2l-8 -2l-8 1l-7 -1l-10 2h-6l-14 -5l-5 -6l-7 -11v-9l1 -7l-1 -9l1 -8l-1 -8l2 -9v-8l-1 -7l1 -7l-2 -9v-8l2 -7l-2 -10v-16l2 -8l-1 -6l1 -10v-6l-2 -9l1 -6l1 -10v-14l-1 -8v-10
l1 -6v-16l-2 -8l1 -9l1 -7v-8l-2 -8l1 -10l-1 -8v-6l2 -8l-2 -10v-6l1 -8l1 -9l-1 -7v-17l1 -7l-1 -9l1 -6l-2 -8l2 -10l-2 -7l2 -8l-2 -7v-9l2 -8v-7l-2 -9v-7l5 -14l6 -4l15 -7l7 1h8l9 1h9l6 -2l8 2l10 -1h8l9 -1h6l14 7l5 5l4 14l-1 6v8l2 8v10l-2 17l-5 7l-3 9l-3 8
l-2 8z" />
    <glyph glyph-name="Egrave" unicode="&#xc8;" horiz-adv-x="456" 
d="M190 1070l7 -3l5 -4l8 -4l7 -3l7 -4l6 -5l8 -5l9 -12l4 -6l4 -7l2 -8l3 -5l6 -7l3 -8l4 -9l2 -5l3 -7l5 -9l2 -5l3 -8l5 -8l4 -7l2 -7l3 -8l6 -7l1 -8l5 -6l2 -8l4 -6l5 -6l3 -7l-3 -13l-10 -3l-7 -2l-8 -5l-13 3l-8 6l-4 5l-6 6l-6 3l-14 13l-6 6l-5 5l-7 3l-4 7l-8 5
l-5 6l-7 5l-7 4l-6 6l-6 6l-6 4l-6 7l-5 5l-5 6l-6 4l-7 5l-5 8l-7 5l-7 4l-6 7l-5 3l-1 13l4 4l10 14l7 4l3 7l8 4l5 8l5 5l3 7l6 5l4 5zM411 0h-17l-7 1l-8 -2l-9 1h-24l-6 -1h-8l-8 1h-24l-9 -1h-6l-8 1l-9 -1l-8 2h-7l-10 -1l-7 -1l-7 2h-7l-10 -1h-8l-6 -1l-8 1l-10 -1
l-16 2h-6l-9 -2l-7 1l-9 1l-8 -1h-14l-9 -1l-7 1l-9 1h-9l-6 -1h-18l-6 -1l-6 8l4 8l2 9l2 7l4 8l1 17v7l-1 8l2 10l-2 6l2 10l-1 8l-1 6l2 10v24l-1 8l1 8l-1 8l1 8v7l-2 9l1 8l-1 8l1 7l1 9l-2 7l2 9v8l-1 8l-1 6l2 8l-2 9v7l2 10l-2 6l1 10l1 6l-1 8l-1 9v8l2 9l-1 6v25
l1 8l-1 8v7l1 8l-1 10l1 8l-1 6v8l1 10v7l-2 7l2 9l-2 9v8l1 6v8l1 9l-1 8v8l1 8l-1 8v23l-1 10l1 7v8l-1 9v7l2 7l-2 8v17l1 8l-1 7l2 8l-2 10l2 6l-2 10v6v17l-5 9l-2 8l-1 6l-3 8l5 10h7l9 -2h22l10 1h23l7 -1l7 2h9l9 -2h23l9 1h6l9 -1l7 1l10 1l15 -2h40l7 1h9l7 -1
l8 2h7l9 -1l8 1h14l9 -1h7l9 -1l9 1h6l9 1h8l7 -2l9 2l10 -9l-1 -9l3 -8l2 -6v-7v-9l2 -8l3 -9v-5v-10l4 -6l-1 -10l3 -8v-5l3 -8l-1 -9l1 -7l-5 -7l-8 4h-6l-9 4l-6 2l-7 1l-18 3h-8l-6 1l-9 -1h-8l-9 1h-8l-9 -2h-8l-6 1l-8 -1h-16l-8 1l-10 -1l-9 1l-6 -1l-9 2l-9 -1h-16
l-6 1l-8 -2l-16 -4l-4 -6l-6 -13l1 -6l-1 -8v-9l2 -8v-7l-1 -8l1 -8l-2 -7v-9l2 -9l-2 -8l1 -6l-1 -7l2 -10v-6l-1 -9l-1 -8l2 -7l5 -14l3 -4l15 -5l6 1l10 -2l8 2h6l10 -1l8 -1l17 3l8 3l6 3l10 1l7 5l7 -5v-33l1 -8v-7l-1 -8l2 -8l-1 -8v-8l-1 -10l1 -6v-9l1 -7v-17l-2 -7
v-8l-6 -5l-8 1l-16 7l-9 3l-17 3l-8 -2l-16 2h-8l-8 -2h-9l-13 -3l-4 -7l-5 -11l1 -9l-2 -7l1 -9v-6l-1 -7v-10l2 -16l-2 -7v-15l2 -8l-1 -8l1 -7v-33l-1 -7l5 -13l5 -5l15 -4l6 1h18l8 -1h8l8 -1h8l15 2l8 -2h10l8 1l7 -1l9 1h7l9 1h17l7 -2l8 2h7l9 -2l16 2l8 4h7l8 3l8 1
l6 2l5 -3l1 -8l-2 -9l-3 -8l-1 -7v-10v-7l-2 -8l-2 -7l-2 -9l-1 -9v-8l-2 -8v-7l-4 -9l1 -8l-3 -7z" />
    <glyph glyph-name="Eacute" unicode="&#xc9;" horiz-adv-x="456" 
d="M227 1043l7 4l6 4l7 3l7 5l6 4l8 4l7 2l10 1l6 -8l11 -11l4 -6l6 -7l5 -5l4 -4l6 -7l5 -7l4 -6l6 -4v-13l-12 -11l-6 -3l-7 -6l-6 -7l-6 -5l-5 -5l-7 -6l-7 -5l-5 -6l-5 -4l-8 -4l-4 -7l-9 -5l-5 -5l-7 -5l-4 -7l-8 -5l-4 -5l-6 -5l-8 -5l-6 -7l-6 -4l-4 -7l-8 -4l-6 -7
l-4 -4l-16 -1l-6 3l-9 2l-8 3l-3 13l3 6l4 8l2 7l4 6l5 7l3 7l4 9l1 5l4 9l5 5l4 7l2 8l4 9l2 6l5 6l3 7l4 8l2 8l5 8l3 6l3 6l3 8l6 8zM412 -1h-18l-7 1l-8 -1h-15l-9 -1h-9l-6 1h-9l-9 -1l-6 1l-9 1l-6 -2l-8 1l-10 -1l-6 1h-10l-8 -1h-15l-9 1l-8 -1l-6 1l-8 1l-8 -2
l-9 1l-6 -1l-10 1h-8l-8 -1l-8 1h-7l-9 -1l-8 2l-5 -2l-10 1l-6 1l-8 -1h-10l-8 1l-7 -2l-9 1h-8l-8 1h-6l-7 8l4 9l1 7l5 9l1 8l3 14l1 10l-2 7l1 9v8l-1 7l2 7v17l-1 8l-1 7l1 8l1 9l-1 7l-1 8l1 9v7l-1 10l1 6l1 10l-2 16v6l2 9l-1 8v7l-1 9l2 8v25l-2 8v6l1 8l-1 9l2 8
v41l-1 8v8l1 8v8l-1 6v18l1 8l-2 8l1 8l-1 6l1 10l1 6v10l-1 8v6l1 10v7l-2 9l1 8v7l1 9l-2 6l1 10v8l1 8v8l-2 8v24l2 8l-2 6v16l2 10l-2 6l2 10l-2 7v9l1 7l-2 15l-3 9l-3 8l-3 7l-3 7l6 8l9 2h7l8 -1l7 1h32l10 -2l6 1l8 1l7 -2h18l6 1h16l10 1l7 -1h25l5 -1l8 2l10 -1h7
l9 -1h7l9 2h7l7 -1l9 1h8l7 -2h7l9 2l7 -2l10 2l8 -2l16 2l7 -2l8 2l7 -1l9 -1l7 1l10 -7l2 -9l-1 -8l4 -8v-5v-10l1 -8l3 -7l1 -9v-5l4 -9l1 -7l1 -10l-1 -6l4 -9v-7v-9l-5 -3l-8 2h-7l-8 3l-6 2l-7 3l-18 1l-6 1h-8l-10 -1l-8 1l-6 -2h-8l-10 2h-8l-9 -2h-8l-6 2h-8
l-16 -2l-10 2l-9 -2h-7l-8 2l-9 -2l-14 2l-8 -2l-16 -4l-3 -5l-7 -13l2 -7l-2 -8l2 -8l-2 -7l2 -9v-8l-1 -8l-1 -7l2 -9l-1 -8l1 -8v-7l-1 -7l1 -7l-1 -9l-1 -8l2 -9l-1 -8l4 -12l6 -4l14 -6l7 -1l9 1l7 1l8 -2l7 2l10 -2l16 5l8 3h7l10 3l8 3l8 -4v-8l-2 -8l2 -9l-1 -6
l-1 -8l1 -10l-1 -8l2 -8v-8l-2 -8l2 -8l-2 -7v-17l2 -7l-2 -8l1 -8l1 -9l-8 -3l-9 1l-7 4l-9 1l-8 4l-18 2h-7l-8 1h-9l-7 -2l-8 2h-9l-11 -6l-5 -3l-7 -13v-17l2 -8l-1 -7v-8l-1 -8l1 -7v-8l-1 -8v-8l2 -6l-1 -10v-8l1 -8l-2 -5v-8l2 -8v-9l-2 -7l7 -14l3 -4l16 -7l7 2
l8 -2h8l9 2l14 -2h8l11 1l6 -1l10 1l7 -1l9 1l8 -1l8 1l8 -1l8 2l8 -2l7 1l8 1l16 -2l9 2l15 3l7 2h10l7 3l7 1l6 3l8 -4l-2 -8l-2 -9v-9l-3 -8l1 -7l-1 -7l-3 -10l-1 -8l-1 -6l-1 -10l-1 -6l-3 -8l-1 -9l-1 -16l-2 -8z" />
    </font>
</defs>
</svg>
